<svg xmlns="http://www.w3.org/2000/svg" width="48" height="40" viewBox="0 0 48 40">
  <g id="icon-home-default" transform="translate(0.024 -0.001)">
    <g id="Layer_1" data-name="Layer 1" transform="translate(-0.024 0.001)">
      <path id="Path_983" data-name="Path 983" d="M31.975,40V38.655c0-2.872.009-5.743,0-8.615-.016-4.062-3.634-7.231-8.177-7.176-4.215.051-7.766,3.2-7.806,6.968-.033,3.214-.008,6.427-.008,9.641v.508c-.186.008-.331.019-.475.02h-8.9c-1.19,0-1.823-.563-1.824-1.621V22.861H3.651a3.575,3.575,0,0,1-3.4-2.01A2.908,2.908,0,0,1,1.159,17.3Q8.434,11.148,15.714,5q2.015-1.706,4.03-3.408a6.43,6.43,0,0,1,8.444-.021q9.3,7.847,18.582,15.712A2.9,2.9,0,0,1,47.7,20.86a3.563,3.563,0,0,1-3.407,2H43.173v15.4c0,1.221-.578,1.74-1.94,1.74Z" transform="translate(0.024 -0.001)" fill="#666"/>
    </g>
  </g>
</svg>
