<svg xmlns="http://www.w3.org/2000/svg" viewBox="0 0 488 342"><defs><style>.cls-1{fill:#fefefd;}.cls-2{fill:#f8e163;}.cls-3{fill:#fbeda2;}.cls-4{fill:#f3dc62;}.cls-5{fill:#e0cd66;}.cls-6{fill:#e0cf70;}.cls-7{fill:#e8db95;}.cls-8{fill:#e9dd9b;}.cls-9{fill:#f1eac1;}.cls-10{fill:#fdf3c0;}.cls-11{fill:#f0e7b4;}.cls-12{fill:#e9dc96;}.cls-13{fill:#fbeb92;}.cls-14{fill:#f4e48c;}.cls-15{fill:#f9f0c3;}.cls-16{fill:#cdae00;}.cls-17{fill:#bb9f00;}.cls-18{fill:#ddba00;}.cls-19{fill:#caab00;}.cls-20{fill:#c7a900;}.cls-21{fill:#f5cf00;}.cls-22{fill:#c8a900;}.cls-23{fill:#d9b700;}.cls-24{fill:#debc00;}.cls-25{fill:#d3b300;}.cls-26{fill:#b89b00;}.cls-27{fill:#cfaf00;}.cls-28{fill:#dcba00;}.cls-29{fill:#e0bd00;}.cls-30{fill:#d4b300;}.cls-31{fill:#e6c200;}.cls-32{fill:#e7c300;}.cls-33{fill:#e4c000;}.cls-34{fill:#e3c000;}.cls-35{fill:#e9c500;}.cls-36{fill:#c7a800;}.cls-37{fill:#d8b700;}.cls-38{fill:#f0cb00;}.cls-39{fill:#dab800;}.cls-40{fill:#edc800;}.cls-41{fill:#c0a200;}.cls-42{fill:#c2a500;}.cls-43{fill:#c4a600;}.cls-44{fill:#d3b200;}.cls-45{fill:#d9b800;}.cls-46{fill:#bfa200;}.cls-47{fill:#d0b000;}.cls-48{fill:#cdad00;}.cls-49{fill:#f6d526;}.cls-50{fill:#faf0bd;}.cls-51{fill:#f1e7b2;}.cls-52{fill:#efe7ba;}.cls-53{fill:#f7d000;}.cls-54{fill:#f4ce00;}.cls-55{fill:#eac600;}.cls-56{fill:#eec900;}.cls-57{fill:#f1cc00;}</style></defs><g id="Layer_2" data-name="Layer 2"><g id="Layer_1-2" data-name="Layer 1"><path class="cls-1" d="M30,342H0V307c1.93.33.66,1.83,1,2.75S.35,311.83,2,312c.44,2.61,1.83,4.86,2.82,7.25C7,324.64,10,329.34,15.1,332.81c5.3,3.61,6.57,4.92,11.7,6.51A6.25,6.25,0,0,1,28,340c.41.33.86.64,1.24,1A9.27,9.27,0,0,1,30,342Z"/><ellipse class="cls-2" cx="103.5" cy="341.5" rx="95.46" ry="0.71"/><path class="cls-3" d="M2,312c-1.65-.17-.73-1.47-1-2.25s.94-2.42-1-2.75V265c.33-.42.92-.83,1-1.28.12-1.64,0-3.29.09-4.94,0-.28.63-.52,1-.78v54Z"/><ellipse class="cls-4" cx="214.5" cy="341.5" rx="61.52" ry="0.71"/><path class="cls-5" d="M486,246h1v6a17.67,17.67,0,0,0,.05,2.82c.07.43.62.79.95,1.18v33c-.33.4-.91.77-.95,1.2A37,37,0,0,0,487,294h-1v-2a23.48,23.48,0,0,1,0-3.46c.17-1.2.9-2.36.92-3.55.08-8.9.05-17.81,0-26.72,0-.42-.63-.85-1-1.27Z"/><path class="cls-6" d="M134,2c.47-1.93,2-.62,3-1,1.93,0,3.86.06,5.78-.05.42,0,.81-.62,1.22-.95h7V1c-5-.27-9.93,1.7-15,1Z"/><path class="cls-7" d="M151,1V0h7a5,5,0,0,0,1.27,1c.67.22,1.72-.31,1.73,1C157.61,2.28,154.44.24,151,1Z"/><path class="cls-8" d="M144,0c-.41.33-.8.93-1.22,1-1.92.11-3.85.05-5.78.05V0Z"/><ellipse class="cls-9" cx="487.5" cy="249" rx="0.71" ry="4.24"/><path class="cls-10" d="M30,342a9.27,9.27,0,0,0-.76-1c-.38-.37-.83-.68-1.24-1h3c.09,1.5,1.24.85,2,1v1Z"/><path class="cls-11" d="M487,294a37,37,0,0,1,.05-3.8c0-.43.62-.8.95-1.2v5Z"/><path class="cls-12" d="M487,252h1v4c-.33-.39-.88-.75-.95-1.18A17.67,17.67,0,0,1,487,252Z"/><ellipse class="cls-13" cx="34.5" cy="341.5" rx="2.12" ry="0.71"/><ellipse class="cls-14" cx="259.5" cy="341.5" rx="2.12" ry="0.71"/><ellipse class="cls-15" cx="262.5" cy="341.5" rx="2.12" ry="0.71"/><path class="cls-16" d="M134,2h2l-.81,1.38c1.13,1.26,2.25,2.48,3,3.35a12.75,12.75,0,0,1,6.89,3.92,21.7,21.7,0,0,0,6.95,5c1.4.71,3.46,1.69,3.66,2.82.43,2.39,2.5,2.31,3.72,3.39.87.77,2.39.78,3.33,1.5,5.07,3.93,10.23,7.77,15,12.06,3.12,2.82,7.38,4.07,9.89,7.61,3.08.61,4.79,3.1,6.92,5a12.9,12.9,0,0,0,3.84,2.77c2.67.94,3.89,3.09,4.83,4.54,3.37,2.4,6.66,3.38,9.46,5.53,1.56,1.2,2,3.12,3.69,4.05A104.68,104.68,0,0,1,229,73c.1.07.32,0,.73,0a12.5,12.5,0,0,0-.06-3.67c-1-3-2-6-1.71-9.29,2.12.67.57,2.5,1.15,3.71,1.22,2.57,1.34,5.45,2,8.17,1.49,6.34.55,12.69.86,19,.11,2.15.71,4.66-.16,6.38-1,2,0,4.18-.95,5.55-1.33,1.84.08,4.31-1.87,5.74.3,2.8-1.18,5.13-2,7.62-.11.34-.64.54-1,.8-7.83-3.71-13.77-10-20.67-14.86a11.2,11.2,0,0,1-2.28-.63C199.67,99.77,197.23,97,195,94c-.36-6,.85-12-1-18-1.23-4-2-8-3.83-11.84a26.88,26.88,0,0,0-4.27-6.13,130.22,130.22,0,0,0-11-11c-3.12-2.82-7.23-4.07-10.89-6a2.79,2.79,0,0,0-2.34-2.06c-1.84-.43-3.6-1.17-5.56-.95s-3.47-1.25-5.55-1.09c-4.08.33-8.21.1-11.73.1-8.06-7.29-16.82-12.77-24.26-19.86-.36-.34-1.26-.09-1.91-.15-.14,0-.26-.15-.68-.41-1-1.68-3.34-2.64-4.12-4.9L110,10c.76-.15,1.91.5,2-1,.76-.15,1.91.5,2-1,.76-.15,1.91.5,2-1h1l1-1h1c.76-.15,1.91.5,2-1C125.17,3.28,129.4,1.83,134,2Z"/><path class="cls-17" d="M336,32c2.37-2.28,5.6-2.8,8.5-3.86,1.09-.41,2.35-.66,3.5-1.13a11.77,11.77,0,0,1,3.05-1c1.64-.16,3.3,0,4.95,0,0,2.19-3.11-.23-3,1.62L361.33,36h.79L382,51a6.56,6.56,0,0,1,4.76,2.23c3.32,3.28,6.35,6.91,10.81,8.81,3.12,1.34,4.56,4.82,7.88,6.06,1.71.64,3.14,2.14,4.56,3.41a80,80,0,0,0,11.11,8.09,33.38,33.38,0,0,1,3.11,2.12c2.13,1.72,4.1,3.66,6.33,5.23A65,65,0,0,0,437,90.49V85c.28.12.79.2.82.36a63.57,63.57,0,0,1,1.15,16c-.14,1.71-.76,3.37-.93,5.08s0,3.33-.09,5c0,.55-.62,1.06-.95,1.59-.33.26-.86.46-1,.8-.87,2.69-1.66,5.41-2.44,8a60.42,60.42,0,0,1-6.72-3.52c-3.27-2.27-6.25-4.94-9.47-7.26-2.65-1.92-5.49-3.57-8.22-5.38a3.5,3.5,0,0,1-1.38-1.4c-1-2.74-3.33-4.13-5.8-5.52,0-2,0-4,0-5.94,0-.28-.63-.53-1-.79-.94-2.77-1.88-5.54-2.8-8.31-.1-.29-.05-.68-.21-.91-3.19-4.4-5.41-9.57-10.29-12.62-4.22-2.63-8.05-6-13.35-6.34-.13,0-.23-.54-.35-.82-2.22-1.31-3.7-2.07-4.86-2-3.36.29-6.81-.8-10.11.88-.77.39-2.15-.22-3.17-.58A12.67,12.67,0,0,1,350,57.48c-2.25-2.8-5.41-4.43-8.34-6.35a14.53,14.53,0,0,1-2.39-1.43c-3.2-3.14-6.49-6.07-10.75-7.8-1.09-.45-1.84-1.75-2.49-2.4V37c.76-.15,1.91.5,2-1A19,19,0,0,0,336,32Z"/><path class="cls-18" d="M63,97c-.33-.43-1-.85-1-1.28-.06-6.12-.34-12.26.07-18.35.25-3.82,1.56-7.58,2.41-11.37A2.41,2.41,0,0,1,65,66a16.12,16.12,0,0,1-1.29,7.82c2.57,1.77,5.06,3.46,7.53,5.19,1.55,1.08,3.85,1.92,4.4,3.4.76,2,2.33,2.46,3.68,3.35,2.32,1.53,5.41,2.34,7.05,4.37,2.55,3.15,6,5.19,8.64,8.17,1,1.1,2.91,2.6,5,1.3V97c.33.26,1,.53,1,.78-.06,2.61,1.08,4.83,2,7.15,3.73,9.22,10.32,16.07,18.23,21.68,6.91,4.89,14.87,6.89,23.29,7.44,5.24.34,10.34-.8,15.51-1.05a8.82,8.82,0,0,1-5.86,1.89c-6.3,0-12.66.81-19.47-.72,1.78,1.78,3,3.61,4.74,4.62A68.86,68.86,0,0,1,151.57,148a27.43,27.43,0,0,0,5.81,4,37.55,37.55,0,0,1,8.77,6.59c2.74,2.7,5.88,5,8.85,7.45-.66.49-1.25,1.26-2,1.42-2.34.51-4.54,1.68-7,1.58-1.93,0-3.86-.06-5.78.05-.42,0-.81.62-1.22.95H148.67a18,18,0,0,0-1.94-2.73c-2.52-2.29-5.1-4.52-7.69-6.72a44.63,44.63,0,0,0-4.54-3.5c-2.22-1.42-4.89-2.27-6.79-4-2.74-2.49-5.4-4.9-9-6.08a2.41,2.41,0,0,1-1.43-1.25c-1.12-3.63-4.31-4.26-7.39-5.11a13.1,13.1,0,0,0-5.79-6.12,41.15,41.15,0,0,1-6.95-4.9,36.16,36.16,0,0,0-6.5-4.77c-2.3-1.19-4.57-2.6-6.89-3.88-2.59-1.44-4.34-4-6.51-5.94-3.33-3-7.44-5.12-11.27-7.65-.82-2.92-2-5.85-2-9.06C64,97.86,63.33,97.43,63,97Z"/><path class="cls-19" d="M486,246v11c-.19,4,.4,8.05-.49,12.72a65.4,65.4,0,0,0-8.73-6.61c-6.13-4.26-11.77-9.2-17.82-13.57-4.36-3.14-9-5.89-13-9.54-2.15-2.32-4.26-4.69-6.47-6.95-3.42-3.5-8.39-5.63-13.4-7.23-2-.64-4.16-.17-5.93-1.19-2-1.17-4.15-.35-6.2-.63-.49-2-2.21-2-3.11-2.1a69.35,69.35,0,0,0-6.21-4.65,43.68,43.68,0,0,1-10.07-8.08,8.79,8.79,0,0,0-2.72-1.76A33.14,33.14,0,0,1,381.56,200c-1.32-1.41-2.4-3-3.57-4.54,1.09-1,2.78.43,3-1.48.26-.33.53-1,.78-1,5.93.27,11.26-2.45,17-3.4,3.06-.5,6-1.81,9.2-1.69,1.51.05,3,.38,4.62-.82s3.51,1,5.44.87c0,1.38-1.08,1-1.79,1a2.75,2.75,0,0,0-3,1.51,12.16,12.16,0,0,0,4.39,4.8,108.3,108.3,0,0,1,13.9,9.82c4.57,3.77,9.48,7.06,14,10.85.71.59,1.71.84,2.38,1.46,1.88,1.74,3.54,3.73,6.09,4.6s3.66,4,6.38,5.1c1.85.76,3.21,2.64,4.89,3.87,5.5,4,12,6.64,16.3,12.11,1.25-.55,2.88.87,3.48-1.09.33.39.88.75.95,1.18A17.67,17.67,0,0,1,486,246Z"/><path class="cls-20" d="M402,161c-.46.63-.79,1.59-1.41,1.83-4.49,1.81-8.8,4.13-13.59,5.17a17.67,17.67,0,0,0-2.82.05c-.43.07-.79.62-1.18.95-2.18.33-4.58-.81-6.55.95-1.41-1.41-2.85-2.8-4.23-4.24s-2.08-3.05-3.83-3.8c-2.91-1.25-4.55-4.46-7.92-5a2.14,2.14,0,0,1-1.38-1.37c-.7-3-3.2-3.05-5.77-3.73a64.62,64.62,0,0,0-14.73-11.72c-4.08-2.25-6.76-6.1-10.18-9.07-4.58-.87-5.32-1.42-14.48-10.58l-5.72-1.51c-.74-3.81-4.39-4.36-6.49-6.45s-5-2.9-7.72-4.37V86c-.34-3.14.77-6,1.54-9a2.22,2.22,0,0,1,.46,0v2.39c2,.87,3.8,1.23,5.05,2.26,5.2,4.25,11,7.71,15.77,12.53,1.21,1.23,3.27,1.61,5.48,2.63,1.84,1.34,3.32,4.07,6.47,5.58.1-1.12.21-1.88.22-2.65,0-2.82,0-5.64.05-8.45,0-.44.63-.86,1-1.29,0,3,.09,6,0,9a30.26,30.26,0,0,0,4.52,17.15c3.22,5.37,7.14,9.83,12.59,12.82s11,5.54,17.41,5.06c2.82-.2,5.67,0,8.5,0-.77,2.14-2.56.46-3.77,1a11.53,11.53,0,0,1-1.22.4v2.08a60.58,60.58,0,0,1,5.18,4.3c1.6,1.64,3.93,2.19,5.44,3.58a28.42,28.42,0,0,0,9,5.88c.71.28,1.15,1.18,1.78,1.7a55.46,55.46,0,0,0,4.87,3.84c2.21,1.43,4.74,2.37,6.71,4.21C401.2,161.14,401.67,161,402,161Z"/><path class="cls-21" d="M2,287V258c.72-3.56,1.44-7.12,2.2-10.67,0-.16.52-.22.8-.33.12.28.15.68.37.84A101.3,101.3,0,0,1,16.56,257c.52.52,1.4.66,2,1.09,1.31.9,2.49,2,3.85,2.79,3.31,1.93,5.73,4.83,8.4,7.46,1.63,1.6,3.29,3.07,5.8,2.53A44.48,44.48,0,0,0,38,265.37a54.76,54.76,0,0,0,0-6L40,258a14.32,14.32,0,0,0-1,3.57c0,6.86-1.47,13.61-1.13,20.51.36,7.29.08,14.61.08,21.92,0,1.34,1,1,1.75,1,5.42,0,10.83,0,16.25,0a2.31,2.31,0,0,0,1.43,2.83A5.22,5.22,0,0,1,61,311.31a3.36,3.36,0,0,0,1.25,1.46c3.21,2.26,6.53,4.38,9.67,6.73,3.56,2.68,8,4.2,10.46,8.35.34.57,1.29.8,2,1.15a27.24,27.24,0,0,1,8.73,6.62c1.07,1.25,2.19,2.45,2.77,3.1,1.61.55,2.92-.38,3.1,1.28H73c-1.16-2.93-4.44-3.49-6.33-5.72-3.63-4.28-8.58-6.81-13.35-9.64-3.76-2.23-7.75-4.32-10.79-7.63a8.57,8.57,0,0,0-4.74-2.95A4.68,4.68,0,0,1,34,310.87c-1.48-3.54-4.48-5.53-7.73-7-6.55-3-11.55-8.19-17.24-12.38a8,8,0,0,1-1.52-2.32Z"/><path class="cls-22" d="M228,60c-.29,3.26.75,6.25,1.71,9.29a12.5,12.5,0,0,1,.06,3.67c-.41,0-.63.1-.73,0a104.68,104.68,0,0,0-12.66-8.07c-1.72-.93-2.13-2.85-3.69-4.05-2.8-2.15-6.09-3.13-9.46-5.53-.94-1.45-2.16-3.6-4.83-4.54A12.9,12.9,0,0,1,194.56,48c-2.13-1.93-3.84-4.42-6.92-5-2.51-3.54-6.77-4.79-9.89-7.61-4.75-4.29-9.91-8.13-15-12.06-.94-.72-2.46-.73-3.33-1.5-1.22-1.08-3.29-1-3.72-3.39-.2-1.13-2.26-2.11-3.66-2.82a21.7,21.7,0,0,1-6.95-5,12.75,12.75,0,0,0-6.89-3.92c-.78-.87-1.9-2.09-3-3.35L136,2c5.07.7,10-1.27,15-1,3.44-.76,6.61,1.28,10,1,4.67-.17,8.88,1.79,13.17,3.1a88.42,88.42,0,0,1,12.72,5.37,56.36,56.36,0,0,1,7.93,4.89,102.69,102.69,0,0,1,16.81,14.77L216,35a2.46,2.46,0,0,0,2,3c2.19,4,4.59,8,6.51,12.11C226,53.27,227.94,56.32,228,60Z"/><path class="cls-23" d="M389,280h61c0,1.34-1,1-1.74,1-4.09,0-8.17,0-12.26,0H389.57c1.31,1.66,2,3.1,3.2,3.95,3.93,2.89,7.88,5.8,12.06,8.28s7,6.35,11.35,8.73c5.12,2.82,8.94,7.69,14,10.82,1.05.64,2.22,1.58,1.79,3.22H372.22c-.64-3.18-.74-3-3.44-5-3.86-2.86-8.33-5-11.12-9-.84,0-1.69.27-2.13,0-1.83-1.31-3.53-2.79-5.28-4.2-3.37-2.71-6.59-5.66-10.18-8.06-3.14-2.1-5.6-5.16-9.29-6.49-.45-.17-.59-1.2-1-2.2h22c11.66,0,23.32,0,35,0C387.51,281,388.82,281.67,389,280Z"/><path class="cls-24" d="M189,188h4v2.82l4.17,2.85c1,.71,2.13,1.34,3.1,2.13,3.63,2.91,7.18,5.92,10.85,8.78,2,1.54,4,3.61,6.25,4.06a9.31,9.31,0,0,1,6.34,4.89c1.23,2.19,3,3.07,4.74,4.39.6.47,1.42.64,2,1.09,3.84,2.79,7.63,5.66,11.49,8.43a49.22,49.22,0,0,0,5.89,3.85c2.68,1.4,4.27,4,6.67,5.6a52.22,52.22,0,0,1,9,7.12H266c.6,3,2.93,4.25,5.72,5.34,1.7.66,3.07,2.23,4.56,3.44,2.12,1.71,4,4.07,6.38,5.06a12.27,12.27,0,0,1,6.67,6.15H292q0,14.75,0,29.49c0,.12-.21.26-.34.35a5.41,5.41,0,0,1-.74.27c-.35-.27-.84-.63-1.32-1-1.24-1-2.44-2.11-3.73-3.08s-3.46-1.56-3.67-2.64c-.44-2.19-2.21-2.15-3.39-3-4.95-3.7-10-7.22-14.9-11-2.24-1.74-3.9-4.26-6.94-4.58V262.5l-2-2.5c-.85-4.46-2.76-8.45-4.85-12.49-4-7.65-9.09-13.94-16.44-18.65-2.55-1.63-5.63-2.49-7.71-4.86-.09-1.5-1.24-.85-2-1h-1c-.09-1.5-1.24-.85-2-1h-1c-1-1.62-2.57-2-4.34-2-2.13,0-4.25,0-6.32,0-2.32-2-4.23-4.42-6.72-5.73-5.05-2.65-9-6.51-13.14-10.25a27.63,27.63,0,0,0-3.8-2.81c-2.6-1.69-5.32-3.19-7.86-5-1.3-.91-2.6-2.12-1.51-4.06.76-.7,2.46.72,2.69-1.19,2.69.46,5.05-1.15,7.68-1.27C187.48,189.69,188.23,188.61,189,188Z"/><path class="cls-25" d="M391,229c-.26.33-.55,1-.79.95-4.25-.26-8.3,1.73-12.57,1.05-6.44,2-13.05.66-19.57.93-2.18.09-4.39-.57-6.58-.94-2-.33-4,.19-6.18-.77-2-.85-4.64-.54-7-1.16-3.63-1-7.4-1.39-11-2.34-2.73-.72-5.36-1.83-8.27-1.74-2.08.07-4.06-2-6-.89-2.21,1.25-4.38.68-6.64,1-4.38-12-11.8-22-20.92-31.26a39.34,39.34,0,0,1,10.25-3.72c4.46-1.09,8.93-2.24,13.64-2.18,2,0,4.06-1.59,6.05-.82,3.51,1.35,7.1.51,10.6,1a38.41,38.41,0,0,1,9.91,2.54c1.37.6,3.46-.92,4.13,1.39-4.85.35-9.28-1.76-13.92-2.59a13,13,0,0,0-5.39.22c1.8,1.91,3,4.09,5.4,5.42a39,39,0,0,1,7.18,5.61,45.69,45.69,0,0,0,9.06,7,40.88,40.88,0,0,1,10,7.14,16.47,16.47,0,0,0,3.81,2.81,36.26,36.26,0,0,1,6.94,4.93c2.95,2.68,6.13,5.11,9.34,7.75Z"/><path class="cls-26" d="M437,85v5.49a65,65,0,0,1-6.48-3.55c-2.23-1.57-4.2-3.51-6.33-5.23a33.38,33.38,0,0,0-3.11-2.12A80,80,0,0,1,410,71.5c-1.42-1.27-2.85-2.77-4.56-3.41-3.32-1.24-4.76-4.72-7.88-6.06-4.46-1.9-7.49-5.53-10.81-8.81A6.56,6.56,0,0,0,382,51L362.12,36h-.79L353,27.62c-.09-1.85,3.06.57,3-1.62.43-.33.86-.95,1.29-1,4.83-.07,9.72-.52,14.47.1a117.46,117.46,0,0,1,12.44,2.38c4.71,1.15,9.05,3.19,13.48,4.91a33.78,33.78,0,0,1,11.51,7.21c2.19,2.15,4.63,4,7,6,6.27,5.24,10.52,12.14,14.66,18.94,2.58,4.25,3.69,9.45,5.08,14.34C436.46,80.87,437.69,82.81,437,85Z"/><path class="cls-19" d="M294,86v22.1c2.72,1.47,5.74,2.4,7.72,4.37s5.75,2.64,6.49,6.45l5.72,1.51c9.16,9.16,9.9,9.71,14.48,10.58,3.42,3,6.1,6.82,10.18,9.07a64.62,64.62,0,0,1,14.73,11.72c2.57.68,5.07.74,5.77,3.73a2.14,2.14,0,0,0,1.38,1.37c3.37.55,5,3.76,7.92,5,1.75.75,2.59,2.49,3.83,3.8s2.82,2.83,4.23,4.24c2-1.76,4.37-.62,6.55-.95a2.41,2.41,0,0,1,0,.48,62.26,62.26,0,0,1-8.38,1.45c-5,.24-10-.07-15,.11-3.87.14-12.21-2-17.58-3.44-5.9-1.6-11.09-4.68-16.31-7.66-2.34-1.34-4.3-3.35-6.39-5.1-1.72-1.45-3-3.47-5.24-4.26-1.85-.63-1.82-3-3.77-4-1.4-.66-2.22-2.61-3.23-4s-2.13-3.1-3.1-4.71c-1.6-2.66-3.3-5.28-4.65-8.07a60.88,60.88,0,0,1-5.56-18.24,88.56,88.56,0,0,1-.78-10.11c0-1.59-2.17-2.81-.36-4.87.85-1,.28-3.16.34-4.8.06-1.81.08-3.63.18-5.43C293.19,86.22,293.72,86.12,294,86Z"/><path class="cls-27" d="M391,229l-18.56,1.28c-3.21-2.64-6.39-5.07-9.34-7.75a36.26,36.26,0,0,0-6.94-4.93,16.47,16.47,0,0,1-3.81-2.81,40.88,40.88,0,0,0-10-7.14,45.69,45.69,0,0,1-9.06-7,39,39,0,0,0-7.18-5.61c-2.37-1.33-3.6-3.51-5.4-5.42a13,13,0,0,1,5.39-.22c4.64.83,9.07,2.94,13.92,2.59a10.62,10.62,0,0,1,5.08.92c1.51.76,3.57-.71,5.14.77a1.14,1.14,0,0,0,.85.29c3.61-.71,7,1,10.5,1s6.95.1,10.42-.05c1.52-.06,3-.74,4.55-.91a39,39,0,0,1,4.46,0c-.23,1.91-1.92.49-3,1.48,1.17,1.5,2.25,3.13,3.57,4.54a33.14,33.14,0,0,0,10.33,7.39,8.79,8.79,0,0,1,2.72,1.76,43.68,43.68,0,0,0,10.07,8.08,69.35,69.35,0,0,1,6.21,4.65c.9.13,2.62.09,3.11,2.1-.26.33-.54,1-.78,1-6-.24-11.34,2.35-17,3.53C394.43,228.86,392.71,228.63,391,229Z"/><path class="cls-28" d="M292,264h-2.67a12.27,12.27,0,0,0-6.67-6.15c-2.41-1-4.26-3.35-6.38-5.06-1.49-1.21-2.86-2.78-4.56-3.44-2.79-1.09-5.12-2.39-5.72-5.34h-2.47a52.22,52.22,0,0,0-9-7.12c-2.4-1.56-4-4.2-6.67-5.6a49.22,49.22,0,0,1-5.89-3.85c-3.86-2.77-7.65-5.64-11.49-8.43-.61-.45-1.43-.62-2-1.09-1.69-1.32-3.51-2.2-4.74-4.39a9.31,9.31,0,0,0-6.34-4.89c-2.27-.45-4.28-2.52-6.25-4.06-3.67-2.86-7.22-5.87-10.85-8.78-1-.79-2.06-1.42-3.1-2.13L193,190.82V188l1-1a44.33,44.33,0,0,1,4.52-1,38.48,38.48,0,0,1,4.43,0c4.76,0,9.53,0,14.29,0,.72,0,1.75-.36,1.76,1h-4.82l3.84,4.1h2.65c3.09,2.78,6.09,5.52,9.15,8.19a4.48,4.48,0,0,0,2.39,1.35,6,6,0,0,1,5.08,3.29c1.63,2.68,4.27,4.13,6.36,6.23a10.37,10.37,0,0,0,5.28,2.93,9.69,9.69,0,0,1,4,2.37c2.32,2.1,4.47,4.41,6.62,6.56,3.6-.4,3.89,3,4.86,3.9,2.66,1.36,4.64,2,6.17,3.23,3.06,2.4,5.74,5.29,8.84,7.62,1.93,1.46,3.65,3.74,6.61,3.23h1c.38,1-.93,2.53,1,3,.15.76-.5,1.91,1,2v1c.15.76-.5,1.91,1,2v1a17.67,17.67,0,0,0,.05,2.82c.07.43.62.79.95,1.18v2a17.67,17.67,0,0,0,.05,2.82c.07.43.62.79.95,1.18v5Z"/><path class="cls-25" d="M432,316c.43-1.64-.74-2.58-1.79-3.22-5.09-3.13-8.91-8-14-10.82-4.33-2.38-7.2-6.27-11.35-8.73s-8.13-5.39-12.06-8.28c-1.16-.85-1.89-2.29-3.2-3.95H436c.35.52.6,1.36,1.08,1.51,3.36,1.09,6.18,2.77,8,6a4.2,4.2,0,0,0,1.86,1.5c5,2.27,6.49,3.41,9.91,7.28a20.26,20.26,0,0,0,3.35,2.73c4.82,3.53,10.47,5.81,14.84,10-.46.63-.79,1.51-1.41,1.84q-3.81,2.06-7.79,3.8a10.13,10.13,0,0,1-2.8.36Z"/><path class="cls-29" d="M63,97c.33.43,1,.86,1,1.29,0,3.21,1.21,6.14,2,9.06,3.83,2.53,7.94,4.66,11.27,7.65,2.17,1.94,3.92,4.5,6.51,5.94,2.32,1.28,4.59,2.69,6.89,3.88a36.16,36.16,0,0,1,6.5,4.77,41.15,41.15,0,0,0,6.95,4.9,13.1,13.1,0,0,1,5.79,6.12c3.08.85,6.27,1.48,7.39,5.11a2.41,2.41,0,0,0,1.43,1.25c3.6,1.18,6.26,3.59,9,6.08,1.9,1.73,4.57,2.58,6.79,4a44.63,44.63,0,0,1,4.54,3.5c2.59,2.2,5.17,4.43,7.69,6.72a18,18,0,0,1,1.94,2.73H158c-.43.33-.86.95-1.29,1-6.49.06-13,.12-19.47,0-2,0-4.06-.91-6.08-.87s-4-1-5.94-1.44a42.46,42.46,0,0,1-5.74-1.78c-9-3.58-17.56-7.79-25.21-13.94a90.2,90.2,0,0,1-20.45-23.43c-4.29-6.94-6.58-12.63-8.92-21.31C63.9,104.47,62.77,100.88,63,97Z"/><path class="cls-30" d="M195,94c2.23,3,4.67,5.77,8.05,7.51a11.2,11.2,0,0,0,2.28.63C212.23,107,218.17,113.29,226,117c.52,1.72-.5,3.2-1.13,4.5-2.09,4.3-4.49,8.45-6.9,12.58a24.31,24.31,0,0,1-3.59,5c-3.7,3.75-7.58,7.31-11.38,10.95-2.5-.43-4.45-2.07-6.71-3a11.2,11.2,0,0,1-2.35-1.54c-2.89-2.23-5.86-4.43-8.57-6.81-3-2.65-7.09-3.83-9.57-7.2-.74-1-2.93-.71-2.81-2.69l2-2.73a8.84,8.84,0,0,1,1.06-1.53,34,34,0,0,1,4.76-4c1.77-1.18,2.84-3.38,4.29-5.08A36.82,36.82,0,0,0,193,99.83C193.52,97.85,193.51,95.66,195,94Z"/><path class="cls-31" d="M73,187c2.74.1,5.2-1.46,8-1.07a37.72,37.72,0,0,0,8,0c4.58-.35,9,1.13,13.52,1.24,4.06.1,8.09,1.89,12.12,3,.18,0,.24.54.36.82-3.38.25-6.39-1.31-9.8-2v3c.94.62,2.28,1.43,3.56,2.34a19.1,19.1,0,0,1,4.12,3.21,27.23,27.23,0,0,0,5.46,4.66c1.75,1.32,4.62,1.74,5.08,4.68.08.48,1.23.86,1.94,1.15,1,.41,2.44.37,3,1.07,2.7,3.34,7.32,4.51,9.43,8.33,1.09,2,3.19,1.23,4.56,2.4,3,2.59,6.28,4.92,9.34,7.47,1,.82,2.86.81,2.75,3L175,229c-.26.33-.51.94-.78,1-2.55.11-5.16-.36-7.53,1-4.89-.59-9.65,1-14.48.93-5.65-.13-11.28.53-17-.77-4.82-1.1-10-.8-14.94-1.2-.45,0-.85-.63-1.28-1a11.93,11.93,0,0,0-5.75-6.85,29.57,29.57,0,0,1-6.46-4.82,47.33,47.33,0,0,0-5.68-4.3c-4.82-3.05-9.82-5.83-13.72-10.12a2.59,2.59,0,0,0-1.12-.88c-2.88-.63-4.5-2.93-6.51-4.73-1.05-.94-2.43-1.52-3.41-2.51-2.11-2.11-5.69-2.89-6.06-6.58C71.06,187.48,72.77,188.91,73,187Z"/><path class="cls-24" d="M432,316h31c-.26.33-.5.92-.8.95a22.77,22.77,0,0,1-3,.05h-143c-.85-6.17,1.36-12.2.92-18.38S317,286.38,317,280h72c-.18,1.67-1.49,1-2.29,1-11.67,0-23.33,0-35,0h-22c.45,1,.59,2,1,2.2,3.69,1.33,6.15,4.39,9.29,6.49,3.59,2.4,6.81,5.35,10.18,8.06,1.75,1.41,3.45,2.89,5.28,4.2.44.31,1.29,0,2.13,0,2.79,4,7.26,6.12,11.12,9,2.7,2,2.8,1.85,3.44,5Z"/><path class="cls-32" d="M286,325c0,.49.21,1.2,0,1.45-3.61,3.59-6.79,7.77-11.71,9.74-2,.8-3.15,3.3-5.74,2.81-1.21,1.71-3,.75-4.52,1h-7c0-2.73-2.1-3.91-4.05-4.95a21.28,21.28,0,0,1-5.37-3.9c-1-1-2.36-1.57-3.41-2.51-3.79-3.4-9-4.9-12.21-9.09a14.14,14.14,0,0,0-4.14-3.16,37.78,37.78,0,0,0-4.92-2c-2-2-4.66-4.58-7.17-7.23-.47-.51-.5-1.44-.73-2.17h5c11.24,0,22.49,0,33.73,0,.8,0,2.1.69,2.27-1V270c1.67.17,1,1.48,1,2.28,0,10.77,0,21.55,0,32.26a24.35,24.35,0,0,0,2.61,2.44c4.17,2.9,8.54,5.49,12.15,9.19,2.64,2.73,6.36,4.1,9.19,6.72A7,7,0,0,0,286,325Z"/><path class="cls-33" d="M175,229l-20.56,1.21c.11-2.15-1.76-2.14-2.75-3-3.06-2.55-6.31-4.88-9.34-7.47-1.37-1.17-3.47-.44-4.56-2.4-2.11-3.82-6.73-5-9.43-8.33-.56-.7-2-.66-3-1.07-.71-.29-1.86-.67-1.94-1.15-.46-2.94-3.33-3.36-5.08-4.68a27.23,27.23,0,0,1-5.46-4.66,19.1,19.1,0,0,0-4.12-3.21c-1.28-.91-2.62-1.72-3.56-2.34v-3c3.41.71,6.42,2.27,9.8,2,.39.33.75.88,1.18.95A17.67,17.67,0,0,0,119,192c.4.33.77.91,1.2.95a37,37,0,0,0,3.8.05c.4.33.79.92,1.21.95,1.59.12,3.19.05,4.79.05,7.36-.31,14.62,1.76,22,1-.17,2.1-2.48.13-3.12,1.91.44.57.85,1.63,1.6,2,4.89,2.33,8,7.13,13,9.33a17.81,17.81,0,0,1,5.14,3.1c5.12,4.89,11.86,7.75,16.44,13.27.75.9,1.54,1.75,2.9,1.4-.66,2.13-2.68.23-3.57,1.15-1.39,1.41-3.25.22-4.46.95C178.32,229.09,176.69,228.93,175,229Z"/><path class="cls-34" d="M286,325a7,7,0,0,1-5.05-2.11c-2.83-2.62-6.55-4-9.19-6.72-3.61-3.7-8-6.29-12.15-9.19a24.35,24.35,0,0,1-2.61-2.44c0-10.71,0-21.49,0-32.26,0-.8.7-2.11-1-2.28a48.25,48.25,0,0,0,0-5c-.17-1.69-.63-3.36-1-5l2,2.5v6.23c3,.32,4.7,2.84,6.94,4.58,4.87,3.81,10,7.33,14.9,11,1.18.88,2.95.84,3.39,3,.21,1.08,2.43,1.71,3.67,2.64s2.49,2.06,3.73,3.08c.48.39,1,.75,1.32,1a5.41,5.41,0,0,0,.74-.27c.13-.09.34-.23.34-.35q0-14.75,0-29.49v-3c.33.43,1,.86,1,1.29q.07,23.22,0,46.43a12,12,0,0,1-1,5c-1.66,3.47-2.41,7.36-4.74,10.51C286.93,324.62,286.4,324.76,286,325Z"/><path class="cls-35" d="M73,187c-.23,1.91-1.94.48-2.71,1.21.37,3.69,3.95,4.47,6.06,6.58,1,1,2.36,1.57,3.41,2.51,2,1.8,3.63,4.1,6.51,4.73a2.59,2.59,0,0,1,1.12.88c3.9,4.29,8.9,7.07,13.72,10.12a47.33,47.33,0,0,1,5.68,4.3,29.57,29.57,0,0,0,6.46,4.82A11.93,11.93,0,0,1,119,229c-1.94.16-3.74-.71-5.56-.89-5.2-.49-9.94-2.4-14.73-4.15A52.55,52.55,0,0,0,87,221.05a35.86,35.86,0,0,0-7,0c-2.36.17-4.7.63-7,1a10.61,10.61,0,0,1-2.19-.72c-3.24-1.91-6.24-4.21-9.27-6.4-5-3.63-10.69-6.52-14.71-11.49-.55-.67-1.74-.81-2.33-1.46-1-1.15-2.94-1.83-2.5-3.93.76-.15,1.91.5,2-1,3.41-2.95,7.69-4.23,11.72-5.94,2.41-1,5.09-1.36,7.62-2.08.58-.17,1-.86,1.6-.94C67.61,187.62,70.31,187.33,73,187Z"/><path class="cls-36" d="M485,242c-.6,2-2.23.54-3.48,1.09-4.31-5.47-10.8-8.1-16.3-12.11-1.68-1.23-3-3.11-4.89-3.87-2.72-1.12-3.68-4.17-6.38-5.1s-4.21-2.86-6.09-4.6c-.67-.62-1.67-.87-2.38-1.46-4.53-3.79-9.44-7.08-14-10.85a108.3,108.3,0,0,0-13.9-9.82,12.16,12.16,0,0,1-4.39-4.8,2.75,2.75,0,0,1,3-1.51c.71.05,1.78.41,1.79-1h1c0,1.33,1,1,1.74,1,1.94,0,4.23-.58,5.74.24,1.79,1,3.52.22,5,.84A12.83,12.83,0,0,0,437,191c2.36-.73,4.66.4,6.46,1.24,2.47,1.16,5.23,1.84,7.47,3.7,3.25,2.7,7.22,4.33,10.63,6.91a33.8,33.8,0,0,1,8.45,8.46,4.28,4.28,0,0,0,.92,1.1c3.31,2.5,4.77,6.25,6.72,9.69,2.82,5,4.66,10.37,6.77,15.65C485,239.27,484.69,240.61,485,242Z"/><path class="cls-37" d="M100,97v2.6c-2.08,1.3-4-.2-5-1.3-2.64-3-6.09-5-8.64-8.17-1.64-2-4.73-2.84-7.05-4.37-1.35-.89-2.92-1.32-3.68-3.35-.55-1.48-2.85-2.32-4.4-3.4-2.47-1.73-5-3.42-7.53-5.19A16.12,16.12,0,0,0,65,66c-.45-3.29,1-6.16,2-9.16a51.19,51.19,0,0,1,6.86-14.12c.24-.35.78-.49,1.18-.72v1c1.54,1.34,2.82,2.53,4.17,3.62a13.37,13.37,0,0,0,3.47,2.41c3,1.07,5.16,3.1,7.28,5.31,1,1,2.44,1.6,3.34,2.66,2.6,3.07,6.91,3.67,9.1,6.82L105,62a6.75,6.75,0,0,1-.37,1.84c-2.51,4.74-4.43,9.63-4.67,15.07A6.32,6.32,0,0,1,99,81c-.17,0-.47,0-.48,0a19.7,19.7,0,0,0,0,10s.31,0,.48,0v1a37,37,0,0,0,0,3.8C99.09,96.23,99.67,96.6,100,97Z"/><path class="cls-38" d="M40,258l-2,1.35a54.76,54.76,0,0,1,0,6,44.48,44.48,0,0,1-1.31,5.52c-2.51.54-4.17-.93-5.8-2.53-2.67-2.63-5.09-5.53-8.4-7.46-1.36-.79-2.54-1.89-3.85-2.79-.63-.43-1.51-.57-2-1.09a101.3,101.3,0,0,0-11.19-9.18c-.22-.16-.25-.56-.37-.84v-1c1.93-.47.62-2,1-3v-1c2.21-.56,2.08-2.29,2-4,0-.83-.32-1.85.05-2.45,3.12-5,4.69-10.87,9-15.09,1.09-1.07.91-3.19,2.92-3.46.11.61,0,1.46.38,1.8,1.28,1.15,2.59,2.66,4.13,3,1.95.48,2.26,1.92,3.2,3,2.54,1.47,5,3.11,7.38,4.79,4.58,3.22,8.36,7.62,13.91,9.41-2.51,3.51-4.08,7.53-6.08,11.31A30,30,0,0,0,40,258Z"/><path class="cls-39" d="M175,126l-2,2.73c-.12,2,2.07,1.69,2.81,2.69,2.48,3.37,6.54,4.55,9.57,7.2,2.71,2.38,5.68,4.58,8.57,6.81a11.2,11.2,0,0,0,2.35,1.54c2.26,1,4.21,2.6,6.71,3a8.12,8.12,0,0,1-1.07,1.54c-4.58,4.26-18.7,12.61-24.45,14.43a8.55,8.55,0,0,1-2.48,0c-3-2.47-6.11-4.75-8.85-7.45a37.55,37.55,0,0,0-8.77-6.59,27.43,27.43,0,0,1-5.81-4,68.86,68.86,0,0,0-12.16-9.19c-1.72-1-3-2.84-4.74-4.62,6.81,1.53,13.17.71,19.47.72A8.82,8.82,0,0,0,160,133c.42-.33.79-.84,1.27-1,4.28-1.25,8.41-2.78,11.93-5.67C173.61,126,174.39,126.11,175,126Z"/><path class="cls-40" d="M49,239c-5.55-1.79-9.33-6.19-13.91-9.41-2.4-1.68-4.84-3.32-7.38-4.79-.94-1-1.25-2.47-3.2-3-1.54-.39-2.85-1.9-4.13-3-.37-.34-.27-1.19-.38-1.8l1-1,1-1,1-1,1-1,3-4c3-3.75,7-6.34,10.94-8.89,1.2-.78,2-2.85,4.06-2.11-.44,2.1,1.46,2.78,2.5,3.93.59.65,1.78.79,2.33,1.46,4,5,9.67,7.86,14.71,11.49,3,2.19,6,4.49,9.27,6.4A10.61,10.61,0,0,0,73,222c-.29,2.14-2.64.18-3.53,1.84-.55,1-2.27,1.51-3.5,2.15-10.29,5.37-10.15,6.76-15.42,11.94A10.65,10.65,0,0,1,49,239Z"/><path class="cls-41" d="M401,92c.33.26.94.51,1,.79.08,2,0,3.93,0,5.94,2.47,1.39,4.77,2.78,5.8,5.52a3.5,3.5,0,0,0,1.38,1.4c2.73,1.81,5.57,3.46,8.22,5.38,3.22,2.32,6.2,5,9.47,7.26a60.42,60.42,0,0,0,6.72,3.52c.78-2.6,1.57-5.32,2.44-8,.11-.34.64-.54,1-.8.09,3.38-1.25,6.5-2.25,9.56a56.78,56.78,0,0,1-5.83,12c-2.29,3.69-4.19,7.79-7.92,10.42a19.21,19.21,0,0,1-7.08-3.48c-3.18-2.57-6.66-4.77-10-7.12a31.08,31.08,0,0,1-3.11-2.14c-2.25-2-4.07-4.52-7.29-5.4-1-.28-1.68-1.87-2.5-2.86a3.18,3.18,0,0,1,.36-.84c6-7,9.94-14.75,9.65-24.23C400.94,96.62,401,94.31,401,92Z"/><path class="cls-42" d="M330,90c-.33.43-.94.85-1,1.29-.08,2.81,0,5.63-.05,8.45,0,.77-.12,1.53-.22,2.65-3.15-1.51-4.63-4.24-6.47-5.58-2.21-1-4.27-1.4-5.48-2.63-4.76-4.82-10.57-8.28-15.77-12.53-1.25-1-3.05-1.39-5.05-2.26V77c.34-1.84.29-3.88,1.1-5.49a151.15,151.15,0,0,1,7.7-13.65c.86-1.34,1.06-3.5,3.2-3.86,2.74,1.91,5.59,3.67,8.19,5.76,2.11,1.71,3.65,4.44,6.3,5.07s4.15,2.79,6,4.32A47.57,47.57,0,0,0,338,75a35.44,35.44,0,0,0-7.53,15A2.32,2.32,0,0,1,330,90Z"/><path class="cls-43" d="M391,124c.82,1,1.49,2.58,2.5,2.86,3.22.88,5,3.37,7.29,5.4a31.08,31.08,0,0,0,3.11,2.14c3.36,2.35,6.84,4.55,10,7.12A19.21,19.21,0,0,0,421,145a15.74,15.74,0,0,1-6.45,7.15c-3,1.73-5.31,4.54-8,6.78-1.29,1.06-2.66,2.18-4.53,2.07-.33,0-.8.14-1,0-2-1.84-4.5-2.78-6.71-4.21a55.46,55.46,0,0,1-4.87-3.84c-.63-.52-1.07-1.42-1.78-1.7a28.42,28.42,0,0,1-9-5.88c-1.51-1.39-3.84-1.94-5.44-3.58a60.58,60.58,0,0,0-5.18-4.3v-2.08a11.53,11.53,0,0,0,1.22-.4c1.21-.53,3,1.15,3.77-1,.26-.33.49-.91.79-1,2.65-.42,5-1.67,7.4-2.63C384.94,128.93,387.52,125.81,391,124Z"/><path class="cls-44" d="M105,62l-2.64,1.85c-2.19-3.15-6.5-3.75-9.1-6.82-.9-1.06-2.36-1.64-3.34-2.66-2.12-2.21-4.28-4.24-7.28-5.31a13.37,13.37,0,0,1-3.47-2.41C77.82,45.56,76.54,44.37,75,43V42a15,15,0,0,0,4-6c.23-.73.23-1.7.72-2.14,2.86-2.62,5-5.8,7.28-8.86a13.22,13.22,0,0,0,2.13-.67A14.13,14.13,0,0,0,91,23a19.32,19.32,0,0,0,3,3c4.79,3.1,9.78,5.91,13.72,10.17a5.61,5.61,0,0,0,2.74,1.73c2.72.57,4.4,2.48,6.2,4.28,1,1,2.07,2.06,2.94,2.93L123,44c-.47.64-.8,1.58-1.43,1.86-3,1.33-5.27,3.5-7.65,5.65C110.47,54.63,107.83,58.39,105,62Z"/><path class="cls-45" d="M286,240c-3,.51-4.68-1.77-6.61-3.23-3.1-2.33-5.78-5.22-8.84-7.62-1.53-1.21-3.51-1.87-6.17-3.23-1-.94-1.26-4.3-4.86-3.9-2.15-2.15-4.3-4.46-6.62-6.56a9.69,9.69,0,0,0-4-2.37,10.37,10.37,0,0,1-5.28-2.93c-2.09-2.1-4.73-3.55-6.36-6.23a6,6,0,0,0-5.08-3.29,4.48,4.48,0,0,1-2.39-1.35c-3.06-2.67-6.06-5.41-9.15-8.19H218l-3.84-4.1H221c.39.33.75.88,1.18.95A17.67,17.67,0,0,0,225,188c.39.33.75.88,1.18.95A17.67,17.67,0,0,0,229,189c1.93,2.07,4.47,2,7,2,2.16-.36,4,.78,5.88,1.43a65.4,65.4,0,0,1,14.68,7.74c5.65,3.78,11.08,8,15.34,13.35,3.69,4.64,7.46,9.25,10.22,14.63A57,57,0,0,1,286,237Z"/><path class="cls-29" d="M188,226c-1.36.35-2.15-.5-2.9-1.4-4.58-5.52-11.32-8.38-16.44-13.27a17.81,17.81,0,0,0-5.14-3.1c-5.08-2.2-8.15-7-13-9.33-.75-.36-1.16-1.42-1.6-2,.64-1.78,3,.19,3.12-1.91h3c2.59,0,5.18,0,7.76,0,.43,0,.83-.63,1.24-1s.83-1,1.24-.95a23.48,23.48,0,0,0,10.38-2c.95-.42,2.25-.06,3.38-.06-.23,1.91-1.93.49-2.69,1.19-1.09,1.94.21,3.15,1.51,4.06,2.54,1.77,5.26,3.27,7.86,5a27.63,27.63,0,0,1,3.8,2.81c4.13,3.74,8.09,7.6,13.14,10.25,2.49,1.31,4.4,3.71,6.72,5.73,2.07,0,4.19,0,6.32,0,1.77,0,3.33.39,4.34,2a5.23,5.23,0,0,1-2,0c-4.26-1.95-8.85-1.33-13.07-.76-4.81.64-9.4,2.92-14.11,4.41A15.54,15.54,0,0,1,188,226Z"/><path class="cls-46" d="M338,75a47.57,47.57,0,0,1-9.48-5.85c-1.88-1.53-3.26-3.66-6-4.32s-4.19-3.36-6.3-5.07c-2.6-2.09-5.45-3.85-8.19-5.76.23-.73.26-1.67.74-2.17,3.1-3.24,6.16-6.54,9.53-9.49A77.36,77.36,0,0,1,326,37v2.5c.65.65,1.4,2,2.49,2.4,4.26,1.73,7.55,4.66,10.75,7.8a14.53,14.53,0,0,0,2.39,1.43c2.93,1.92,6.09,3.55,8.34,6.35a12.67,12.67,0,0,0,5.89,3.85c1,.36,2.4,1,3.17.58,3.3-1.68,6.75-.59,10.11-.88,1.16-.1,2.64.66,4.86,2-2.7-.25-5.5.64-8.1-.94a2.53,2.53,0,0,0-2.37,0c-1.1,1.26-2.42.73-3.66.91-2,.29-4.3.17-6,1.08-5.43,2.86-11.58,4.81-15,10.55C338.7,74.85,338.28,74.88,338,75Z"/><path class="cls-47" d="M475,310c-4.37-4.2-10-6.48-14.84-10a20.26,20.26,0,0,1-3.35-2.73c-3.42-3.87-4.92-5-9.91-7.28a4.2,4.2,0,0,1-1.86-1.5c-1.78-3.2-4.6-4.88-8-6-.48-.15-.73-1-1.08-1.51,4.09,0,8.17,0,12.26,0,.72,0,1.73.35,1.74-1,.33-.42.95-.83,1-1.25.07-3.58,0-7.17,0-10.75,2.84-.3,4.84,1.19,6.62,3.13A30.89,30.89,0,0,0,469,279.37c-.08,1.92,1.41,2.89,2.51,3.49,4.55,2.49,8.41,5.93,12.69,8.77A5,5,0,0,0,486,292v2c.3,3.08-1.54,5.41-3.07,7.68C480.8,304.87,479,308.57,475,310Z"/><path class="cls-48" d="M486,292a5,5,0,0,1-1.82-.37c-4.28-2.84-8.14-6.28-12.69-8.77-1.1-.6-2.59-1.57-2.51-3.49a30.89,30.89,0,0,1-11.36-8.24c-1.78-1.94-3.78-3.43-6.62-3.13,0-4.75,0-9.5,0-14.25,0-.72.35-1.74-1-1.75-.33-.26-1-.54-.95-.78.21-3.46-1.12-6.44-2.68-9.38A6.75,6.75,0,0,1,446,240c4,3.65,8.6,6.4,13,9.54,6.05,4.37,11.69,9.31,17.82,13.57a65.4,65.4,0,0,1,8.73,6.61c.89-4.67.3-8.72.49-12.72.33.42.95.85,1,1.27.05,8.91.08,17.82,0,26.72,0,1.19-.75,2.35-.92,3.55A23.48,23.48,0,0,0,486,292Z"/><path class="cls-47" d="M123,44l-3.43,1.07c-.87-.87-1.9-1.91-2.94-2.93-1.8-1.8-3.48-3.71-6.2-4.28a5.61,5.61,0,0,1-2.74-1.73C103.75,31.87,98.76,29.06,94,26a19.32,19.32,0,0,1-3-3l1-1,1-1c2.24-.21,2.79-.76,3-3,3.72-2.56,7.41-5.17,11.2-7.62.72-.46,1.86-.27,2.8-.38l-2.15,1.68c.78,2.26,3.14,3.22,4.12,4.9.42.26.54.4.68.41.65.06,1.55-.19,1.91.15C122,24.23,130.76,29.71,138.82,37c3.52,0,7.65.23,11.73-.1,2.08-.16,3.62,1.31,5.55,1.09s3.72.52,5.56.95A2.79,2.79,0,0,1,164,41a2.52,2.52,0,0,1-1,0A39.51,39.51,0,0,0,148.34,38a53.2,53.2,0,0,0-9.05.79,31.4,31.4,0,0,0-12.77,4.1A14.73,14.73,0,0,1,123,44Z"/><path class="cls-49" d="M257,340h7v1H33c-.76-.15-1.91.5-2-1H257Z"/><path class="cls-25" d="M450,252c1.34,0,1,1,1,1.75,0,4.75,0,9.5,0,14.25,0,3.58,0,7.17,0,10.75,0,.42-.63.83-1,1.25Z"/><path class="cls-19" d="M437,191a12.83,12.83,0,0,1-5.48-.93c-1.52-.62-3.25.14-5-.84-1.51-.82-3.8-.19-5.74-.24-.73,0-1.73.34-1.74-1,2.12,0,4.24-.11,6.35,0A41.2,41.2,0,0,1,437,190.53C437.05,190.55,437,190.84,437,191Z"/><path class="cls-29" d="M189,188c-.77.61-1.52,1.69-2.32,1.73-2.63.12-5,1.73-7.68,1.27.2-2.07,2.06-.93,3-1.31C184.2,188.83,186.51,187.89,189,188Z"/><path class="cls-46" d="M336,32a19,19,0,0,1-8,4A11.63,11.63,0,0,1,336,32Z"/><path class="cls-37" d="M79,36a15,15,0,0,1-4,6A7.14,7.14,0,0,1,79,36Z"/><path class="cls-33" d="M164,194c-.41.33-.81.94-1.24,1-2.58.08-5.17,0-7.76,0,.41-.33.81-.94,1.24-1C158.82,194,161.41,194,164,194Z"/><path class="cls-50" d="M27,209l-3,4-1,1H22A6.24,6.24,0,0,1,27,209Z"/><path class="cls-28" d="M236,191c-2.53,0-5.07.07-7-2C231.53,189,234.07,188.93,236,191Z"/><path class="cls-51" d="M91,23a14.13,14.13,0,0,1-1.87,1.33A13.22,13.22,0,0,1,87,25c1.3-1.79,2.27-4,5-4v1Z"/><path class="cls-29" d="M159,170c.41-.33.8-.93,1.22-.95,1.92-.11,3.85-.05,5.78-.05-.41.33-.8.93-1.22.95C162.86,170.06,160.93,170,159,170Z"/><path class="cls-31" d="M130,194c-1.6,0-3.2.07-4.79-.05-.42,0-.81-.62-1.21-.95,1.6,0,3.2-.07,4.79.05C129.21,193.08,129.6,193.67,130,194Z"/><path class="cls-31" d="M124,193a37,37,0,0,1-3.8-.05c-.43,0-.8-.62-1.2-.95a37,37,0,0,1,3.8.05C123.23,192.09,123.6,192.67,124,193Z"/><path class="cls-21" d="M8,238c.08,1.71.21,3.44-2,4A4.58,4.58,0,0,1,8,238Z"/><path class="cls-44" d="M96,18c-.21,2.24-.76,2.79-3,3Z"/><path class="cls-24" d="M292,259c-.33-.39-.88-.75-.95-1.18A17.67,17.67,0,0,1,291,255c.33.39.88.75.95,1.18A17.67,17.67,0,0,1,292,259Z"/><path class="cls-52" d="M218,38a2.46,2.46,0,0,1-2-3A2.46,2.46,0,0,1,218,38Z"/><path class="cls-19" d="M383,169c.39-.33.75-.88,1.18-.95A17.67,17.67,0,0,1,387,168c-.39.33-.75.88-1.18.95A17.67,17.67,0,0,1,383,169Z"/><path class="cls-28" d="M225,188a17.67,17.67,0,0,1-2.82-.05c-.43-.07-.79-.62-1.18-.95a17.67,17.67,0,0,1,2.82.05C224.25,187.12,224.61,187.67,225,188Z"/><path class="cls-24" d="M291,253c-.33-.39-.88-.75-.95-1.18A17.67,17.67,0,0,1,290,249c.33.39.88.75.95,1.18A17.67,17.67,0,0,1,291,253Z"/><path class="cls-28" d="M229,189a17.67,17.67,0,0,1-2.82-.05c-.43-.07-.79-.62-1.18-.95a17.67,17.67,0,0,1,2.82.05C228.25,188.12,228.61,188.67,229,189Z"/><path class="cls-31" d="M119,192a17.67,17.67,0,0,1-2.82-.05c-.43-.07-.79-.62-1.18-.95a17.67,17.67,0,0,1,2.82.05C118.25,191.12,118.61,191.67,119,192Z"/><path class="cls-24" d="M286,240v-3c1.93.47.62,2,1,3Z"/><path class="cls-24" d="M288,243c-1.93-.47-.62-2-1-3C288.93,240.47,287.62,242,288,243Z"/><path class="cls-29" d="M194,187l-1,1h-2C191.47,186.07,193,187.38,194,187Z"/><path class="cls-21" d="M6,243c-.38,1,.93,2.53-1,3C5.38,245,4.07,243.47,6,243Z"/><path class="cls-47" d="M112,9c-.09,1.5-1.24.85-2,1C110.09,8.5,111.24,9.15,112,9Z"/><path class="cls-47" d="M114,8c-.09,1.5-1.24.85-2,1C112.09,7.5,113.24,8.15,114,8Z"/><path class="cls-47" d="M116,7c-.09,1.5-1.24.85-2,1C114.09,6.5,115.24,7.15,116,7Z"/><path class="cls-47" d="M121,5c-.09,1.5-1.24.85-2,1C119.09,4.5,120.24,5.15,121,5Z"/><path class="cls-24" d="M289,245c-1.5-.09-.85-1.24-1-2C289.5,243.09,288.85,244.24,289,245Z"/><path class="cls-24" d="M290,248c-1.5-.09-.85-1.24-1-2C290.5,246.09,289.85,247.24,290,248Z"/><path class="cls-40" d="M44,197c-.09,1.5-1.24.85-2,1C42.09,196.5,43.24,197.15,44,197Z"/><path class="cls-46" d="M328,36c-.09,1.5-1.24.85-2,1C326.09,35.5,327.24,36.15,328,36Z"/><path class="cls-38" d="M21,216l-1,1v-1Z"/><path class="cls-47" d="M118,6l-1,1Z"/><path class="cls-44" d="M92,22V21h1Z"/><path class="cls-50" d="M21,215l1-1v1Z"/><path class="cls-50" d="M21,216H20l1-1Z"/><path class="cls-53" d="M73,340H28a6.25,6.25,0,0,0-1.2-.68c-5.13-1.59-6.4-2.9-11.7-6.51C10,329.34,7,324.64,4.82,319.25c-1-2.39-2.38-4.64-2.82-7.25V287l5.51,2.14A8,8,0,0,0,9,291.46c5.69,4.19,10.69,9.34,17.24,12.38,3.25,1.5,6.25,3.49,7.73,7a4.68,4.68,0,0,0,3.79,3.19A8.57,8.57,0,0,1,42.53,317c3,3.31,7,5.4,10.79,7.63,4.77,2.83,9.72,5.36,13.35,9.64C68.56,336.51,71.84,337.07,73,340Z"/><path class="cls-54" d="M125,340H99c-.18-1.66-1.49-.73-3.1-1.28-.58-.65-1.7-1.85-2.77-3.1A27.24,27.24,0,0,0,84.4,329c-.69-.35-1.64-.58-2-1.15C80,323.7,75.52,322.18,72,319.5c-3.14-2.35-6.46-4.47-9.67-6.73A3.36,3.36,0,0,1,61,311.31a5.22,5.22,0,0,0-3.61-3.48A2.31,2.31,0,0,1,56,305H80a2.38,2.38,0,0,0,1,2.56c1.58,1.07,3.13,2.18,5,3.48h2.39c2,.76,1.31,3.54,3.9,4.14a6.84,6.84,0,0,1,5.09,4.57c.27.81,2.08,1.12,3.74,1.94.83.8,1.94,2.65,3.51,3.19a12.7,12.7,0,0,1,7,6C116.91,333.84,122,335.37,125,340Z"/><path class="cls-53" d="M70,305H56c-5.42,0-10.83,0-16.25,0-.72,0-1.74.35-1.75-1H70Z"/><path class="cls-29" d="M223,223c-.76-.15-1.91.5-2-1C221.76,222.15,222.91,221.5,223,223Z"/><path class="cls-29" d="M226,224c-.76-.15-1.91.5-2-1C224.76,223.15,225.91,222.5,226,224Z"/><path class="cls-55" d="M257,340H210c-1-1-1.8-2.3-3-2.94a43.31,43.31,0,0,1-9.54-7,11.73,11.73,0,0,0-3.46-2.45c-3.64-1.53-6.52-3.81-8.1-7.32-2.8-.64-5.58-1-6.32-4.15-2.56-.51-4-2.54-6-3.82s-3.28-3.68-6.26-3.26L164,305h51c.23.73.26,1.66.73,2.17,2.51,2.65,5.13,5.19,7.17,7.23a37.78,37.78,0,0,1,4.92,2,14.14,14.14,0,0,1,4.14,3.16c3.25,4.19,8.42,5.69,12.21,9.09,1.05.94,2.44,1.51,3.41,2.51a21.28,21.28,0,0,0,5.37,3.9C254.9,336.09,257,337.27,257,340Z"/><path class="cls-21" d="M215,305H70v-1H220v1Z"/><path class="cls-55" d="M220,305v-1h36c-.17,1.66-1.47,1-2.27,1C242.49,305,231.24,305,220,305Z"/><path class="cls-18" d="M99,81V91c-.17,0-.47,0-.48,0a19.7,19.7,0,0,1,0-10S98.83,81,99,81Z"/><path class="cls-18" d="M99,92c.33.4.91.77,1,1.2a37,37,0,0,1,0,3.8c-.33-.4-.91-.77-1-1.2A37,37,0,0,1,99,92Z"/><path class="cls-38" d="M21,216v-1h1Z"/><path class="cls-38" d="M23,214l1-1Z"/><path class="cls-38" d="M22,215v-1h1Z"/><path class="cls-44" d="M91,23l1-1Z"/><path class="cls-56" d="M119,305h45l3.35,4c3-.42,4.36,2,6.26,3.26s3.43,3.31,6,3.82c.74,3.19,3.52,3.51,6.32,4.15,1.58,3.51,4.46,5.79,8.1,7.32a11.73,11.73,0,0,1,3.46,2.45,43.31,43.31,0,0,0,9.54,7c1.18.64,2,1.94,3,2.94H164a13.7,13.7,0,0,0-5.91-5.42,25.9,25.9,0,0,1-7.33-5.2c-3.45-3.15-6.91-6.48-11.83-7.42a2.22,2.22,0,0,1-1.49-1.08c-1.38-3.58-4.66-5-7.55-6.87A72.91,72.91,0,0,1,119,305Z"/><path class="cls-57" d="M119,305a72.91,72.91,0,0,0,10.89,9c2.89,1.86,6.17,3.29,7.55,6.87a2.22,2.22,0,0,0,1.49,1.08c4.92.94,8.38,4.27,11.83,7.42a25.9,25.9,0,0,0,7.33,5.2A13.7,13.7,0,0,1,164,340H125c-3-4.63-8.09-6.16-13.38-9.1a12.7,12.7,0,0,0-7-6c-1.57-.54-2.68-2.39-3.51-3.19-1.66-.82-3.47-1.13-3.74-1.94a6.84,6.84,0,0,0-5.09-4.57c-2.59-.6-1.87-3.38-3.9-4.14H86c-1.86-1.3-3.41-2.41-5-3.48A2.38,2.38,0,0,1,80,305Z"/></g></g></svg>