<svg xmlns="http://www.w3.org/2000/svg" viewBox="0 0 512 444"><defs><style>.cls-1{fill:#fdfefe;}.cls-2{fill:#3fcdc8;}.cls-3{fill:#46cfcb;}.cls-4{fill:#8ae3e0;}</style></defs><g id="Layer_2" data-name="Layer 2"><g id="Layer_1-2" data-name="Layer 1"><path class="cls-1" d="M0,444V0H512V444Zm396-93h2v-2a12.46,12.46,0,0,0,10-6,10.52,10.52,0,0,0,2.88-1.45c3.65-3.61,8.39-5.59,12.49-8.53s8.57-5.84,12.86-8.76l15.61-10.6,7.09-4.8c.25-3.44.35-6.28.85-9.18a24.67,24.67,0,0,0-.57-10.61c-1-3.56-.22-7.6-.21-11.44,0-1.12-.27-2.35,1-3.09-.51-3.68,1.16-7.49-.89-11.12-.49-.88-.18-2.3-.05-3.45.49-4.18-.48-8.34.76-12.65,1-3.39-.14-7.33-.56-11-.62-5.44-.8-11.08.71-16.58a16,16,0,0,0,0-5.48c-.16-1.71-1-3.41-.89-5.08.23-4.87-1.05-9.84.93-14.59-.48-3.35,1-6.86-.94-10.12-.31-.52.12-1.54.33-2.3.29-1,.69-2,.94-2.75l2.57-1.6V121c-2.62.12-5.28.26-7.52-1-1.84-1.06-3.71-.91-5.62-1-1,0-2.11.29-3,0-5-2-10.52-1.74-15.63-3.33a6.69,6.69,0,0,1,1.78-6.12c.39-2.49-.67-5.21,1.07-7.54V89c-2.1-1.65-.8-4.19-1.64-6.31-3.07-7.72-6.38-15.09-12.83-20.72-3.38-3-6.75-6-10.87-7.6s-8.43-3.49-13.12-3.33c-1,0-2.3.41-3-.07-2.44-1.81-5.12-.83-7.64-.85a20.14,20.14,0,0,0-7.51,1.1c-6.43,2.64-12.83,5.52-18.53,9.52-7,4.93-14,10-20.54,15.56-6,5.07-11.58,10.75-17.31,16.2-2,1.91-3.94,3.91-5.89,5.86A16.9,16.9,0,0,0,311.76,97c-3.35-.44-6.72-.7-10.08-1a5.48,5.48,0,0,1-1.4-.24c-4.63-1.74-9.5-2.2-14.35-2.75-.82-.09-1.76.21-2.46-.1-3.43-1.52-7.17-1.12-10.72-1.85-3-.62-6.19-.3-9-1.23a23.89,23.89,0,0,0-4.64-.85c-1.7-.23-3.38-.7-5.08-1-4.91-.78-9.1,2-13.95,2.6-1.94-2.68-2.88-6.13-4.08-9.48-1.3-3.63-2.39-7.39-4.21-10.75-5.35-9.88-9.23-20.68-17.6-28.71-1.48-4.37-6-5.7-8.87-8.62a20.45,20.45,0,0,0-5.11-3.3c-2-1.06-4.17-2.38-6.37-2.61-2.39-.25-4.73-1.08-7.07-1.06-4.36,0-8.72.58-13.08.94-.26,0-.48.46-.76.55-1.63.5-3.27,1-4.91,1.43-3.67,1-12.05,5.4-17,9v1a2.73,2.73,0,0,0-2.56,1c-1.29,1.37-2.77,2.56-4.44,4.06V45l-1,1-2,2c-2.65,1.12-2.53,4.09-4,6v3c-.28.12-.81.23-.81.35-.05,2.77-.05,5.53,0,8.3,0,.12.53.23.81.35a17.67,17.67,0,0,0,.05,2.82c.07.43.62.79.95,1.18a15,15,0,0,0,.4,3.83c1,2.72,2.66,5.25,3.52,8,.79,2.58,2.72,4.25,4.15,6.26a100.42,100.42,0,0,0,9.66,12,79.32,79.32,0,0,0,11.14,9.19A55.65,55.65,0,0,0,180,116.15c2.33.84,5.16.76,7,2.85l-1,1c-1.7-.53-3.4-1-5.09-1.6-1.42-.48-2.82-1-3.91.6h-1c-3.67.33-7.34.94-11,.93-4,0-8-.6-12-.93h-1a2.48,2.48,0,0,0-4,0h-1c-1,.38-2.53-.93-3,1-1.09.15-2.13-.13-3.26.62a13.53,13.53,0,0,1-4.41,1.37,146.46,146.46,0,0,0-16.55,4.71c-3.35,1.17-6.77,2.16-10.12,3.31-3.53,1.22-7.2,2-10.79,2.88-6,1.55-12,3.22-17.76,5.35v58.2l3,1.94V341c1.45.67,2.81,1.45,4.26,2,5.54,1.91,11.15,3.64,16.67,5.63,4.48,1.61,8.83,3.62,13.32,5.23,3.78,1.36,7.86,2,11.48,3.67A123.4,123.4,0,0,0,145.08,363c4.7,1.46,9.32,3.21,13.92,5,1.65.65,3.15,1.53,5,.57V340.12c0-9.67-.15-19.33,0-29,.19-9.36-.33-18.7.77-28.1.93-7.89.19-16,.19-24v-24c0-8,.21-16-.06-24s1.45-15.66,1.14-23.58c-.35-9.15-.08-18.33-.08-27.49,4.5.58,8.08-1.57,11.34-3.81l2.23,1c.32-.85.54-1.42.83-2.17,2.64,0,5.46.22,7.6-2h2c1.39-1.34,3.31-.79,4.92-1.39,3.47-1.28,6.92-3,10.52-3.46,3.86-.51,6.8-2.94,10.51-3.75,5.41-1.19,10.63-3.24,15.92-4.92v-2.11c-2.74-.66-5.31-1.35-7.91-1.87-1.2-.25-2.65-.61-3.66-.18a61.41,61.41,0,0,0-6.92,3.81c-2.68,1.59-5.2,3.51-8,4.8s-6.12,2.81-9.22,2.89c-4.09.09-8,1.15-12.08,1.17-7.33,0-14.66,0-22,0H150.19c1.72-4.34,3.34-8.42,4.95-12.46L151,134c-3.57.1-6.56-2.1-10-2.54a3.29,3.29,0,0,1,0-.46v-2h9v2.6l2-1.6c2.79,0,5.58.08,8.37,0,1.47-.06,3.07-1,4.38-.61,5.14,1.4,10.33.22,15.48.6.23,0,.51-.63.77-1,4.13.72,7.37-1.85,11-3,2.44,0,4-1.7,6-3.17,3.19.7,6.54,1.78,10,2.08,3.69.32,7.28,1.8,11.07,1.09l.33.83L220,126a38,38,0,0,0,4.55,1c1.8.17,3.63,0,5.45,0a3.43,3.43,0,0,0,5,0h1.43c.19.23.47.42.56.68.69,2.1,1.34,4.21,2,6.32l1,1c3.92,2.18,7.48,4.9,11.82,6.5s8.84,1.78,13.07,3.43a5.92,5.92,0,0,0,3.94,0c1.37-.54,2.27,1.9,3.8.18.65-.72,2.34,0,3.66-.71s3.27-.1,5,.25c4.21.83,7.66,3.34,11.71,4.43,4.73,1.27,9.35,3,13.74,4.38-.28,1.75-.59,3.28-.75,4.83a32,32,0,0,1-.25,4.41c-1.29,5.17-.88,8.79,1.19,13.86,2.44,6,4.61,12.1,7.78,17.79.39.68.06,1.77.06,3.08a71.37,71.37,0,0,1-15-7.47l-7.05,8h-2.6c-2.15-2.56-4.7-5-6.44-7.84-3-4.93-5.81-10-5.73-16.12,0-2.83,0-5.66,0-8.5,0-1.5-.58-3.37.11-4.43,2.3-3.57-.16-6.85-.19-10.24,0-.69-1.11-1.37-1.48-1.8a6.19,6.19,0,0,0-1.51,0c-6.85,2.8-14.07,4.55-20.73,7.92-2.86,1.44-6.13,2.07-9.22,3.07s-6.38,1.61-9.2,3.11a31.69,31.69,0,0,1-9,3.53c-3.87.7-7.06,3.16-11.11,3.52-2.3.2-4.46,2-6.47,3-.83,16.13.41,32-1,47.87-1,11.24-.19,22.65-.19,34,0,11.5.17,23-.05,34.5-.2,11.19,1,22.44-.95,33.58v62.68c6,2.08,12,4,17.88,6.28s11.72,4.89,17.69,6.72,11.85,4.47,17.89,6.41a184.94,184.94,0,0,1,17.81,6.44c5.77,2.54,11.91,4.24,17.67,6.24,3.5-2.25,7.18-4.17,10.3-6.75,3.32-2.74,7.29-4.37,10.63-7.06a69.3,69.3,0,0,1,10.19-6.72c3.55-1.95,6.66-4.68,10.07-6.9a122.36,122.36,0,0,0,10.11-7c3.27-2.63,7.54-4.08,10.52-6.94S365.41,373,368,369.4V180.06c0-1.34-.45-2.9.08-4,1.69-3.32.48-6.66,1-9.64-3.38-2.9-7.14-3.51-10.72-4.42s-7.53-1.6-12.39-2.61c5.78-.55,10.47-.71,15.05-1.51s8.77-2.21,13.25-3a74.87,74.87,0,0,0,12.83-4c4.15-1.61,8-4,11.42-5.7l4.72.79c.72.12,1.78-.38,1.79,1l1,1v35c-1.95.35-.95,1.87-.95,2.79q-.1,28,0,55.92a5.22,5.22,0,0,0,.34,1.29H407V343c-2.32.66-7,3.75-9,6h-2a13.55,13.55,0,0,0,.1,2.09l-.19-.19-.82.69.32.32A3,3,0,0,0,396,351Zm-5,2.52L388,355.33l.2.66,2.85-.23a10,10,0,0,0-.1-1.85l.19.19.82-.69-.32-.32C391.36,353.36,391.13,353.64,391,353.52Zm2.33-.52h.34v-1h-.34Z"/><path class="cls-2" d="M406,183V148l-1-1c0-1.38-1.07-.88-1.79-1l-4.72-.79c-3.4,1.73-7.27,4.09-11.42,5.7a74.87,74.87,0,0,1-12.83,4c-4.48.84-8.8,2.27-13.25,3s-9.27,1-15.05,1.51c4.86,1,8.66,1.66,12.39,2.61s7.34,1.52,10.72,4.42c-.49,3,.72,6.32-1,9.64-.53,1.06-.08,2.62-.08,4V369.4c-2.59,3.63-7.15,4.11-10.24,7.07s-7.25,4.31-10.52,6.94a122.36,122.36,0,0,1-10.11,7c-3.41,2.22-6.52,4.95-10.07,6.9a69.3,69.3,0,0,0-10.19,6.72c-3.34,2.69-7.31,4.32-10.63,7.06-3.12,2.58-6.8,4.5-10.3,6.75-5.76-2-11.9-3.7-17.67-6.24a184.94,184.94,0,0,0-17.81-6.44c-6-1.94-11.81-4.54-17.89-6.41s-11.82-4.41-17.69-6.72S213,387.85,207,385.77V323.09c2-11.14.75-22.39.95-33.58.22-11.5.05-23,.05-34.5,0-11.33-.79-22.74.19-34,1.39-15.88.15-31.74,1-47.87,2-1,4.17-2.8,6.47-3,4.05-.36,7.24-2.82,11.11-3.52a31.69,31.69,0,0,0,9-3.53c2.82-1.5,6.12-2.11,9.2-3.11s6.36-1.63,9.22-3.07c6.66-3.37,13.88-5.12,20.73-7.92a6.19,6.19,0,0,1,1.51,0c.37.43,1.47,1.11,1.48,1.8,0,3.39,2.49,6.67.19,10.24-.69,1.06-.11,2.93-.11,4.43,0,2.84,0,5.67,0,8.5-.08,6.08,2.76,11.19,5.73,16.12,1.74,2.88,4.29,5.28,6.44,7.84h2.6l7.05-8a71.37,71.37,0,0,0,15,7.47c0-1.31.33-2.4-.06-3.08-3.17-5.69-5.34-11.79-7.78-17.79-2.07-5.07-2.48-8.69-1.19-13.86a32,32,0,0,0,.25-4.41c.16-1.55.47-3.08.75-4.83-4.39-1.42-9-3.11-13.74-4.38-4-1.09-7.5-3.6-11.71-4.43-1.76-.35-3.56-1.08-5-.25s-3,0-3.66.71c-1.53,1.72-2.43-.72-3.8-.18a5.92,5.92,0,0,1-3.94,0c-4.23-1.65-8.79-1.85-13.07-3.43s-7.9-4.32-11.82-6.5l-1-1c-.67-2.11-1.32-4.22-2-6.32-.09-.26-.37-.45-.56-.68H235l-3-1v-1l-1-1c-5.07-6.49-8.67-14-14-19.63l-13.14-2.82c2.55-.72,4-1.38,5.49-1.49,1.74-.11,2.57-1.33,4.84-2.25-1.71-1.32-3.06-1.92-3.74-3-4.07-6.25-8.51-12.2-13-18.12-2.68-3.5-5.41-7-7.85-10.71s-5.37-7.48-8-11.22C178.18,50,173.79,46.88,169,44c-.75-3.07-.81-3.11-4-2.47V43h-6V41.13c-.77-.06-1.31-.27-1.68-.1q-3.69,1.66-7.31,3.48A2.17,2.17,0,0,0,149,47l-1,1h-2.47A6.84,6.84,0,0,0,143,54v2l-3.13,1c.54,4.47-.73,8.65,1.39,13H138c-.33-.39-.88-.75-.95-1.18A17.67,17.67,0,0,1,137,66c.28-.12.81-.23.81-.35.05-2.77.05-5.53,0-8.3,0-.12-.53-.23-.81-.35V54h3.14c.31-2.17.59-4.09.86-6l2-2,1-1c3.41-.75,6.18-2.24,7-6V38c1.38-.26,2.73.24,4.19-.58,3.56-2,7.32-3.64,11-5.42A2.67,2.67,0,0,0,168,29c1.64-.47,3.28-.93,4.91-1.43.28-.09.5-.53.76-.55,4.36-.36,8.72-.9,13.08-.94,2.34,0,4.68.81,7.07,1.06,2.2.23,4.33,1.55,6.37,2.61a20.45,20.45,0,0,1,5.11,3.3c2.91,2.92,7.39,4.25,8.87,8.62,8.37,8,12.25,18.83,17.6,28.71,1.82,3.36,2.91,7.12,4.21,10.75,1.2,3.35,2.14,6.8,4.08,9.48,4.85-.59,9-3.38,13.95-2.6,1.7.27,3.38.74,5.08,1a23.89,23.89,0,0,1,4.64.85c2.83.93,6,.61,9,1.23,3.55.73,7.29.33,10.72,1.85.7.31,1.64,0,2.46.1,4.85.55,9.72,1,14.35,2.75a5.48,5.48,0,0,0,1.4.24c3.36.34,6.73.6,10.08,1a16.9,16.9,0,0,1,3.41,1.28c1.95-1.95,3.88-3.95,5.89-5.86,5.73-5.45,11.27-11.13,17.31-16.2,6.58-5.51,13.51-10.63,20.54-15.56,5.7-4,12.1-6.88,18.53-9.52a20.14,20.14,0,0,1,7.51-1.1c2.52,0,5.2-1,7.64.85.65.48,2,.1,3,.07,4.69-.16,8.95,1.7,13.12,3.33s7.49,4.65,10.87,7.6c6.45,5.63,9.76,13,12.83,20.72.84,2.12-.46,4.66,1.64,6.31v13c-1.74,2.33-.68,5.05-1.07,7.54a6.69,6.69,0,0,0-1.78,6.12c5.11,1.59,10.59,1.36,15.63,3.33.87.34,2,0,3,0,1.91,0,3.78-.11,5.62,1,2.24,1.29,4.9,1.15,7.52,1v56.8l-2.57,1.6c-.25.7-.65,1.71-.94,2.75-.21.76-.64,1.78-.33,2.3,2,3.26.46,6.77.94,10.12-2,4.75-.7,9.72-.93,14.59-.08,1.67.73,3.37.89,5.08a16,16,0,0,1,0,5.48c-1.51,5.5-1.33,11.14-.71,16.58.42,3.71,1.53,7.65.56,11-1.24,4.31-.27,8.47-.76,12.65-.13,1.15-.44,2.57.05,3.45,2.05,3.63.38,7.44.89,11.12-1.23.74-.95,2-1,3.09,0,3.84-.76,7.88.21,11.44a24.67,24.67,0,0,1,.57,10.61c-.5,2.9-.6,5.74-.85,9.18l-7.09,4.8-15.61,10.6c-4.29,2.92-8.64,5.75-12.86,8.76s-8.84,4.92-12.49,8.53A10.52,10.52,0,0,1,408,343h-1V214.14c0-9.62,0-19.24,0-28.86C407,184.48,407.67,183.17,406,183ZM279,120a14.92,14.92,0,0,1,1.77.34c-.13,1.83,1.71,2.12,2.5,2.28a15.56,15.56,0,0,1,6.64,3.43c1.83-2,3.37-3.82,5.07-5.47a2.59,2.59,0,0,0,.92-2.67l.19.19.82-.69-.32-.32a3,3,0,0,0-.59.91,7.41,7.41,0,0,0-2.45,0c-1.43.51-2.69,1.59-4.14,1.87A28.68,28.68,0,0,1,284,120c-.09-1.5-1.24-.85-2-1h-3c-.66-1.86-1.87-.84-3-.65.06.53.1,1,.18,1.65Zm5,22.53c1.84.34,2.87.29,3.65.71,4.81,2.64,10.14,3.72,15.31,5.29a90.73,90.73,0,0,0,16.58,3.27c6.46.7,13,1.93,19.57,1.21.82-.09,1.66,0,2.49,0a57.51,57.51,0,0,0,12.17-2c6.85-1.84,12.16-6.19,18.17-11.31l-2.91-1c-11.73-2.91-24.07-5-36.3-8.63a10.34,10.34,0,0,1,6.08-4.1c4.45-1.21,8.75-3,13.16-4.4,4.13-1.29,8.07-3.08,12.09-4.63,5-2,10.31-3.14,15.2-5.55,2.88-1.41,6.24-1.85,10.12-2.93,1.25-5.67,3-11.72,2.51-18.06-2.2-.48-4.18-1-6.18-1.34-4.44-.8-8.68,1.3-13.09,1-1.48,1.86-3.66.67-5.47,1.25a94.35,94.35,0,0,0-23.75,11.57c-1.9,1.28-3.21,3.13-5.22,4.2-5.84,3.09-10.43,7.86-15.57,11.89-3.07,2.4-5.73,5.33-8.84,7.69-3.85,2.93-7.79,5.73-11.08,9.18C296.49,137.08,290.17,137.89,284,142.53Zm-35.13-31.84c-1.1.84-3.07-.83-2.83,2.14h2.83ZM274,117.33v.34h1v-.34Z"/><path class="cls-2" d="M166,160c0,9.16-.27,18.34.08,27.49.31,7.92-1.41,15.68-1.14,23.58s.06,16,.06,24v24c0,8,.74,16.08-.19,24-1.1,9.4-.58,18.74-.77,28.1-.19,9.66,0,19.32,0,29v28.49c-1.85,1-3.35.08-5-.57-4.6-1.79-9.22-3.54-13.92-5a123.4,123.4,0,0,1-15.21-5.53c-3.62-1.67-7.7-2.31-11.48-3.67-4.49-1.61-8.84-3.62-13.32-5.23-5.52-2-11.13-3.72-16.67-5.63-1.45-.5-2.81-1.28-4.26-2V198.38l-3-1.94v-58.2c5.8-2.13,11.75-3.8,17.76-5.35,3.59-.92,7.26-1.66,10.79-2.88,3.35-1.15,6.77-2.14,10.12-3.31A146.46,146.46,0,0,1,136.33,122a13.53,13.53,0,0,0,4.41-1.37c1.13-.75,2.17-.47,3.26-.62.73,1.85,1.91.89,3,.58V119h1a2.48,2.48,0,0,0,4,0h1v1.73c3.73.69,7.28,2.67,11.25,2.23s8.05-.62,11.75-2.27V119h1c0,.16,0,.46,0,.47,2.74.86,5.48,1.75,8.26,2.49.65.17,1.72.37,1.73-1h2v1.79l3,.5V126c-3.63,1.15-6.87,3.72-11,3-.26-.33-.52-1-.79-1q-13.71-.07-27.42,0c-.27,0-.53.63-.79,1h-7v-2c-2.63,0-4.93,0-7.22,0-.27,0-.52.63-.78,1h-2c-2.08.16-2.08.16-1.48,2H135c2.05,0,3.83,1.7,6,1a3.29,3.29,0,0,0,0,.46c3.44.44,6.43,2.64,10,2.54v6.13l-4.12,8.07,3.3,2.8h13c4.49,0,9-.31,13.47.09s8.84-2.22,13.36-.77V153h-2c0-1.37-1.15-1.15-1.77-.95a15.85,15.85,0,0,1-4.58,1,8.59,8.59,0,0,0-3.78,1.58c-1.39.86-3.4-.54-4.44,1.32-2.87-.32-4.65,2.58-7.43,2.2Z"/><path class="cls-3" d="M192,126v-2.71l-3-.5V121l4.91,1.13V119.9c-2.5.71-4.38-1.79-6.91-.9-1.85-2.09-4.68-2-7-2.85a55.65,55.65,0,0,1-13.12-6.89,79.32,79.32,0,0,1-11.14-9.19,100.42,100.42,0,0,1-9.66-12c-1.43-2-3.36-3.68-4.15-6.26-.86-2.77-2.47-5.3-3.52-8A15,15,0,0,1,138,70h3.26c-2.12-4.34-.85-8.52-1.39-13L143,56c0,1,.36,2.2-.06,3-2.38,4.29-1,8.73.33,12.57a60.93,60.93,0,0,0,12.88,22.08,65.59,65.59,0,0,0,7.25,6.45,69.38,69.38,0,0,0,18.34,11.2,11.43,11.43,0,0,1,2.41,1.41c3.79,2.88,8.38,3.85,12.76,5.31,3.38,1.13,6.89,1.83,10.33,2.75,3,.8,6,1.57,9,2.26,4.57,1,9.15,2,13.72,3v1c-1.82,0-3.65.13-5.45,0a38,38,0,0,1-4.55-1h-1c-3.79.71-7.38-.77-11.07-1.09-3.41-.3-6.76-1.38-10-2.08C196,124.3,194.44,126,192,126Z"/><path class="cls-3" d="M190,153v-2.68c-4.52-1.45-8.84,1.16-13.36.77s-9-.09-13.47-.09h-13l-3.3-2.8,4.12-8.07V134l4.14,1.54c-1.61,4-3.23,8.12-4.95,12.46h11.89c7.33,0,14.66,0,22,0,4.05,0,8-1.08,12.08-1.17,3.1-.08,6.29-1.56,9.22-2.89s5.33-3.21,8-4.8a61.41,61.41,0,0,1,6.92-3.81c1-.43,2.46-.07,3.66.18,2.6.52,5.17,1.21,7.91,1.87v2.11c-5.29,1.68-10.51,3.73-15.92,4.92-3.71.81-6.65,3.24-10.51,3.75-3.6.48-7.05,2.18-10.52,3.46C193.31,152.21,191.39,151.66,190,153Z"/><path class="cls-4" d="M406,183c1.67.17,1,1.48,1,2.28,0,9.62,0,19.24,0,28.86V243h-1.64a5.22,5.22,0,0,1-.34-1.29q0-28,0-55.92C405.05,184.87,404.05,183.35,406,183Z"/><path class="cls-3" d="M176,119v1.69c-3.7,1.65-7.77,1.82-11.75,2.27s-7.52-1.54-11.25-2.23V119c4,.33,8,.92,12,.93C168.66,119.94,172.33,119.33,176,119Z"/><path class="cls-3" d="M152,129c.26-.33.52-1,.79-1q13.71-.07,27.42,0c.27,0,.53.63.79,1-.26.33-.54,1-.77,1-5.15-.38-10.34.8-15.48-.6-1.31-.35-2.91.55-4.38.61-2.79.11-5.58,0-8.37,0Z"/><path class="cls-3" d="M166,160v-1.8c2.78.38,4.56-2.52,7.43-2.2,1-1.86,3-.46,4.44-1.32a8.59,8.59,0,0,1,3.78-1.58,15.85,15.85,0,0,0,4.58-1c.62-.2,1.76-.42,1.77.95-2.14,2.21-5,2-7.6,2-.29.75-.51,1.32-.83,2.17l-2.23-1C174.08,158.43,170.5,160.58,166,160Z"/><path class="cls-3" d="M168,29a2.67,2.67,0,0,1-1.81,3c-3.68,1.78-7.44,3.42-11,5.42-1.46.82-2.81.32-4.19.58C156,34.4,164.33,30,168,29Z"/><path class="cls-4" d="M407,343h1a12.46,12.46,0,0,1-10,6C400,346.75,404.68,343.66,407,343Z"/><path class="cls-3" d="M187,121c0,1.33-1.08,1.13-1.73,1-2.78-.74-5.52-1.63-8.26-2.49,0,0,0-.31,0-.47,1.09-1.62,2.49-1.08,3.91-.6,1.69.57,3.39,1.07,5.09,1.6Z"/><path class="cls-3" d="M137,57c.28.12.81.23.81.35.05,2.77.05,5.53,0,8.3,0,.12-.53.23-.81.35-.28-.12-.81-.23-.81-.35-.05-2.77-.05-5.53,0-8.3C136.19,57.23,136.72,57.12,137,57Z"/><path class="cls-3" d="M151,39c-.82,3.76-3.59,5.25-7,6v-.94c1.67-1.5,3.15-2.69,4.44-4.06A2.73,2.73,0,0,1,151,39Z"/><path class="cls-3" d="M137,128c.26-.33.51-1,.78-1,2.29-.07,4.59,0,7.22,0v2h-4a17.67,17.67,0,0,1-2.82-.05C137.75,128.88,137.39,128.33,137,128Z"/><path class="cls-4" d="M187,121l-1-1,1-1c2.53-.89,4.41,1.61,6.91.9v2.23L189,121Z"/><path class="cls-3" d="M141,48c-.27,1.91-.55,3.83-.86,6H137C138.47,52.09,138.35,49.12,141,48Z"/><path class="cls-4" d="M137,128c.39.33.75.88,1.18.95A17.67,17.67,0,0,0,141,129v2c-2.17.7-3.95-1-6-1v-2Z"/><path class="cls-4" d="M230,127v-1h2l3,1A3.43,3.43,0,0,1,230,127Z"/><path class="cls-3" d="M152,119a2.48,2.48,0,0,1-4,0A2.48,2.48,0,0,1,152,119Z"/><path class="cls-3" d="M147,119v1.58c-1.09.31-2.27,1.27-3-.58C144.47,118.07,146,119.38,147,119Z"/><path class="cls-4" d="M391,353.52v2.24l-2.85.23-.2-.66Z"/><path class="cls-4" d="M152,129v1l-2,1.6V129Z"/><circle class="cls-4" cx="397" cy="350" r="1.41"/><path class="cls-3" d="M144,45l-1,1Z"/><path class="cls-4" d="M219,126h1l-.67.83Z"/><path class="cls-4" d="M239,134l1,1Z"/><path class="cls-4" d="M405,147l1,1Z"/><path class="cls-4" d="M396.1,351.09l-.69.82-.32-.32.82-.69Z"/><ellipse class="cls-4" cx="393.5" cy="352.5" rx="0.24" ry="0.71"/><path class="cls-4" d="M390.9,353.91l.69-.82.32.32-.82.69Z"/><path class="cls-1" d="M232,126h-2c-4.57-1-9.15-2-13.72-3-3-.69-6-1.46-9-2.26-3.44-.92-7-1.62-10.33-2.75-4.38-1.46-9-2.43-12.76-5.31a11.43,11.43,0,0,0-2.41-1.41,69.38,69.38,0,0,1-18.34-11.2,65.59,65.59,0,0,1-7.25-6.45,60.93,60.93,0,0,1-12.88-22.08c-1.3-3.84-2.71-8.28-.33-12.57.42-.76.06-2,.06-3V54c2.35-1.43,3.23-4.09,5-6l1-1c3.56-.78,6.51-3.06,10-4h6c.72.22,1.44.48,2.18.66.59.16,1.21.23,1.82.34,4.79,2.88,9.18,6,12.54,10.8,2.63,3.74,5.46,7.38,8,11.22s5.17,7.21,7.85,10.71c4.53,5.92,9,11.87,13,18.12.68,1,2,1.64,3.74,3-2.27.92-3.1,2.14-4.84,2.25-1.49.11-2.94.77-5.49,1.49L217,104.37c5.35,5.58,9,13.14,14,19.63l1,1Z"/><path class="cls-1" d="M284,142.53c6.13-4.64,12.45-5.45,18.69-6.75,3.29-3.45,7.23-6.25,11.08-9.18,3.11-2.36,5.77-5.29,8.84-7.69,5.14-4,9.73-8.8,15.57-11.89,2-1.07,3.32-2.92,5.22-4.2a94.35,94.35,0,0,1,23.75-11.57c1.81-.58,4,.61,5.47-1.25,4.41.31,8.65-1.79,13.09-1,2,.36,4,.86,6.18,1.34.51,6.34-1.26,12.39-2.51,18.06-3.88,1.08-7.24,1.52-10.12,2.93-4.89,2.41-10.17,3.6-15.2,5.55-4,1.55-8,3.34-12.09,4.63-4.41,1.39-8.71,3.19-13.16,4.4a10.34,10.34,0,0,0-6.08,4.1c12.23,3.67,24.57,5.72,36.3,8.63l2.91,1c-6,5.12-11.32,9.47-18.17,11.31a57.51,57.51,0,0,1-12.17,2c-.83,0-1.67-.07-2.49,0-6.59.72-13.11-.51-19.57-1.21A90.73,90.73,0,0,1,303,148.53c-5.17-1.57-10.5-2.65-15.31-5.29C286.91,142.82,285.88,142.87,284,142.53Z"/><path class="cls-1" d="M296,118a2.78,2.78,0,0,1-1,2.58c-1.7,1.65-3.24,3.47-5.07,5.47a15.56,15.56,0,0,0-6.64-3.43c-.79-.16-2.63-.45-2.5-2.28A14.92,14.92,0,0,0,279,120v-1h3c.09,1.5,1.24.85,2,1a28.68,28.68,0,0,0,5.41-.08c1.45-.28,2.71-1.36,4.14-1.87A7.41,7.41,0,0,1,296,118Z"/><path class="cls-3" d="M159,43c-3.49.94-6.44,3.22-10,4a2.17,2.17,0,0,1,1-2.49q3.62-1.82,7.31-3.48c.37-.17.91,0,1.68.1Z"/><path class="cls-3" d="M148,48c-1.77,1.91-2.65,4.57-5,6a6.84,6.84,0,0,1,2.53-6Z"/><path class="cls-3" d="M169,44c-.61-.11-1.23-.18-1.82-.34-.74-.18-1.46-.44-2.18-.66V41.53C168.19,40.89,168.25,40.93,169,44Z"/><path class="cls-4" d="M248.91,110.69v2.14h-2.83C245.84,109.86,247.81,111.53,248.91,110.69Z"/><path class="cls-4" d="M279,119v1h-2.83c-.08-.69-.12-1.12-.18-1.65C277.13,118.16,278.34,117.14,279,119Z"/><path class="cls-4" d="M284,120c-.76-.15-1.91.5-2-1C282.76,119.15,283.91,118.5,284,120Z"/><path class="cls-4" d="M232,125l-1-1Z"/><path class="cls-1" d="M295.9,117.91l.69-.82.32.32-.82.69Z"/><ellipse class="cls-4" cx="274.5" cy="117.5" rx="0.71" ry="0.24"/><path class="cls-3" d="M135,128v2h-1.48C132.92,128.16,132.92,128.16,135,128Z"/></g></g></svg>