<svg xmlns="http://www.w3.org/2000/svg" viewBox="0 0 456 364"><defs><style>.cls-1{fill:#d0c584;}.cls-2{fill:#fdfdfc;}.cls-3{fill:#bca41d;}.cls-4{fill:#b19b1d;}.cls-5{fill:#decc6b;}.cls-6{fill:#e8c91f;}.cls-7{fill:#eadd92;}.cls-8{fill:#cbb539;}.cls-9{fill:#e0d8ae;}.cls-10{fill:#b6a438;}.cls-11{fill:#edd450;}.cls-12{fill:#e4deb9;}.cls-13{fill:#edd551;}.cls-14{fill:#f9f0c5;}.cls-15{fill:#e9dfa6;}.cls-16{fill:#f9f2ca;}.cls-17{fill:#f4e490;}.cls-18{fill:#f3eabd;}.cls-19{fill:#e7e2c0;}.cls-20{fill:#f5e69a;}.cls-21{fill:#ded080;}.cls-22{fill:#f3eed2;}.cls-23{fill:#c8ba6b;}.cls-24{fill:#c1a300;}.cls-25{fill:#9f8700;}.cls-26{fill:#e3c000;}.cls-27{fill:#dfbc00;}.cls-28{fill:#d7b601;}.cls-29{fill:#e0bd01;}.cls-30{fill:#d1b101;}.cls-31{fill:#ddbb01;}.cls-32{fill:#d2b101;}.cls-33{fill:#a98f01;}.cls-34{fill:#dab801;}.cls-35{fill:#c7a800;}.cls-36{fill:#ccad00;}.cls-37{fill:#d6b501;}.cls-38{fill:#c2a400;}.cls-39{fill:#cbaf15;}.cls-40{fill:#a48b02;}.cls-41{fill:#a58c00;}.cls-42{fill:#ba9e00;}.cls-43{fill:#b49801;}.cls-44{fill:#ad9300;}.cls-45{fill:#a98f00;}.cls-46{fill:#ba9e02;}.cls-47{fill:#b59900;}.cls-48{fill:#ac9200;}.cls-49{fill:#b19600;}.cls-50{fill:#cbab00;}.cls-51{fill:#c6a700;}.cls-52{fill:#b39700;}</style></defs><g id="Layer_2" data-name="Layer 2"><g id="Layer_1-2" data-name="Layer 1"><ellipse class="cls-1" cx="158.5" cy="363.5" rx="183.14" ry="0.71"/><path class="cls-2" d="M25,364H0V340H1c.33,1.1.61,2.23,1,3.3.12.31.64.47,1,.7a16.39,16.39,0,0,0,1.07,2.54c2.64,4.17,5.35,8.13,9.72,10.95A70.58,70.58,0,0,0,25,363Z"/><path class="cls-3" d="M0,269V193H1v76Z"/><path class="cls-4" d="M0,269H1v63H0Z"/><ellipse class="cls-5" cx="455.5" cy="141.5" rx="0.71" ry="44.55"/><ellipse class="cls-6" cx="343.5" cy="0.5" rx="12.02" ry="0.71"/><ellipse class="cls-7" cx="455.5" cy="106" rx="0.71" ry="5.66"/><path class="cls-8" d="M1,193H0v-5H1v5Z"/><ellipse class="cls-9" cx="290" cy="363.5" rx="2.83" ry="0.71"/><ellipse class="cls-10" cx="0.5" cy="334" rx="0.71" ry="2.83"/><ellipse class="cls-11" cx="333" cy="0.5" rx="2.83" ry="0.71"/><ellipse class="cls-12" cx="27" cy="363.5" rx="2.83" ry="0.71"/><ellipse class="cls-13" cx="353.5" cy="0.5" rx="2.12" ry="0.71"/><ellipse class="cls-14" cx="327.5" cy="0.5" rx="2.12" ry="0.71"/><ellipse class="cls-15" cx="455.5" cy="174.5" rx="0.71" ry="2.12"/><ellipse class="cls-16" cx="358.5" cy="0.5" rx="2.12" ry="0.71"/><ellipse class="cls-17" cx="356" cy="0.5" rx="1.41" ry="0.71"/><ellipse class="cls-18" cx="455.5" cy="101" rx="0.71" ry="1.41"/><ellipse class="cls-19" cx="0.5" cy="339" rx="0.71" ry="1.41"/><ellipse class="cls-20" cx="330" cy="0.5" rx="1.41" ry="0.71"/><ellipse class="cls-21" cx="0.5" cy="187" rx="0.71" ry="1.41"/><ellipse class="cls-22" cx="0.5" cy="185" rx="0.71" ry="1.41"/><ellipse class="cls-23" cx="0.5" cy="337" rx="0.71" ry="1.41"/><path class="cls-24" d="M1,186v-2c2.09-.22,1-2.14,1.4-3.12a30.94,30.94,0,0,1,6.72-10.12,33,33,0,0,1,15.66-8.84A41.51,41.51,0,0,1,34.87,161H229l2-2v-1c2.36-.19,4.83.58,7.05-1a2.16,2.16,0,0,1,1.92,0c2.55,1.66,5.35.7,8,1l2.33,3c11.8,0,23.45,0,35.1,0,6.64,0,12.45,2.6,18,5.93,5.88,3.5,9.31,8.91,11.92,15,.67,1.55,1.66,3.27,1.51,4.81-.36,3.66,1.15,7,1.15,10.59q-.09,65.2-.1,130.4c0,1.39,1.25,3.29-.94,4.29V273c-.44-27.93,1-55.89-1-83.8a6.21,6.21,0,0,0-.48-1.36c-1.65.41-3.56,1.56-4.6,1-3.2-1.68-6.41-.33-9.24-.88-1.67,1-1.7,2.21-1.69,3.6,0,7.81,0,15.61,0,23.42v94c0,7.91,0,15.83,0,23.74,0,.8.69,2.09-1,2.26q0-68.73,0-137.45c0-3.85.49-7.78-1.36-11.38-2.7-2.82-5.24-5.8-10.24-7.17H33.18a14.82,14.82,0,0,0-2,0c-5.32.78-11.42,4.1-12.22,10.19,0,.31-.63.54-1,.8v-3.51c-1.56-.6-2.69-1.35-3.84-1.4s-2.36.63-3.57.89c-.64.13-1.56.3-1.95,0-2.05-1.73-4.29-.61-6.64-1,0,2,0,3.67,0,5.3,0,.28-.63.53-1,.79v-5Z"/><path class="cls-25" d="M29,363H25a70.58,70.58,0,0,1-11.21-5.51c-4.37-2.82-7.08-6.78-9.72-10.95A16.39,16.39,0,0,1,3,344l-1.09-8.07c5.67.52,10.77-1.65,16.09-.93,1.92.23.46,2,1.32,2.6L25.56,344c3.94,1.83,8.08.94,12.12.94q109.7.06,219.41,0H289.7l7.3-5c2.13-.35,1.79-2.85,3.64-4,4,0,8.42-.05,12.82.05A8.23,8.23,0,0,1,316,337v1c-.33.39-.88.75-.95,1.18A17.67,17.67,0,0,0,315,342c-1.93.47-.62,2-1,3l-1,1c-2.27.91-2.65,2.95-3,5-5.69,6.9-7.68,8.23-16.43,11a7.45,7.45,0,0,0-1.57,1H29Z"/><path class="cls-26" d="M329,1h31a123.22,123.22,0,0,1,16.29,4c8.07,2.72,15.92,5.87,22.95,10.77,1.2.84,3.07.56,3.76,2.25a11.38,11.38,0,0,1-3.08.95c-3.4,0-6.79-.05-10.08,1a2.21,2.21,0,0,1-1.48,0c-3.92-1.75-8.05-.75-12.08-.94-2.76-.13-5.54-.09-8.28,0V21c-1.54-.23-3.08.37-4.64-.89-1.09-.87-3,0-4.64-.67a29.88,29.88,0,0,0-7.87-1.32,62.06,62.06,0,0,0-14.86.07c-3.52.57-7.16.56-10.66,1.71s-7.26.9-10.5,2.26c-3,1.23-6,2.2-9,3.48A8.57,8.57,0,0,1,304,26l1.89-2.61L304.4,21.9c-1.92.56-3.95,2.36-6,.1-1.87.29-3.85-.6-5.67.67-.56.39-1.94.56-2.23.22-1.22-1.44-2.75-.82-4.13-.86-3.13-.09-6.26,0-9.39,0,1.85-2.94,5.1-4.17,7.79-5.89A102.1,102.1,0,0,1,311.36,4.33c3.55-1,7.2-2.34,11.05-2.38A14.91,14.91,0,0,0,326,1Z"/><path class="cls-27" d="M277,22c3.13,0,6.26-.06,9.39,0,1.38,0,2.91-.58,4.13.86.29.34,1.67.17,2.23-.22,1.82-1.27,3.8-.38,5.67-.67,2,2.26,4.06.46,6-.1l1.49,1.49L304,26c-1.17,1.8-3.27,2.1-5,2.94-4.52,2.24-8.47,5.29-12.65,8-4.72,3.1-7.73,8-12.37,11,.23-.87.45-1.74.72-2.78l-1-.95-8.53-.9c-.5,1.22-2.3,1-3.16.53-2.33-1.33-4.72-.71-7.08-.9,3.74-6.42,9.67-10.84,14.67-16.11a43.84,43.84,0,0,1,5.52-4.52C275.63,22,276.39,22.11,277,22Z"/><path class="cls-28" d="M438,54a10.66,10.66,0,0,1,2,1.87c2.78,4.42,4.77,9.26,6.91,14C448.75,74,450.6,78.32,451,83a11.3,11.3,0,0,0-3-1c-4.55-.11-9.11,0-14,0v4c-2.09-1.84-2-4.67-2.85-7-1.8-5.17-3.64-10.21-7.12-14.53-.24-.3,0-1,0-1.47-.35-2-.73-4.09-3-5l-1-1,1.17-1.75Z"/><path class="cls-29" d="M368,21V19.06c2.74-.12,5.52-.16,8.28,0,4,.19,8.16-.81,12.08.94a2.21,2.21,0,0,0,1.48,0c3.29-1.08,6.68-1,10.08-1A11.38,11.38,0,0,0,403,18c4.35,2,7.75,5.29,11.57,8A88.5,88.5,0,0,1,424,34.43,2.77,2.77,0,0,1,425,37l-4.94-4.12c-1.61,1.14-3.33,1.95-4.7.2a32.15,32.15,0,0,1-3.93.89c-1.48.14-3.08-.27-4.46.12s-1.84-1.48-3.36-.41c-1,.71-2.86.18-4.32.36-.46.06-.86.63-1.29,1-.61-.11-1.4,0-1.81-.37A44.22,44.22,0,0,0,388,29.42c-1.37-.71-2.64-1.61-3.95-2.42-.09-1.5-1.24-.85-2-1-.09-1.5-1.24-.85-2-1-.09-1.5-1.24-.85-2-1-.47-1.93-2-.62-3-1-.47-1.93-2-.62-3-1-.47-1.93-2-.62-3-1Z"/><path class="cls-30" d="M434,86V82c4.86,0,9.42-.06,14,0a11.3,11.3,0,0,1,3,1c.88,2.29,2,4.46,2.06,7,0,1.34.73,2.66.9,4A30.28,30.28,0,0,1,454,98v13H438c.53-5.79-.64-11.48-1-17.22A4.35,4.35,0,0,0,435,90V89C434.62,88,435.93,86.47,434,86Z"/><path class="cls-31" d="M398,35c.43-.33.83-.9,1.29-1,1.46-.18,3.31.35,4.32-.36,1.52-1.07,2.1.77,3.36.41s3,0,4.46-.12a32.15,32.15,0,0,0,3.93-.89c1.37,1.75,3.09.94,4.7-.2L425,37c4,2.33,6.09,6.44,9,9.81a44.23,44.23,0,0,1,3.67,5.37A5.51,5.51,0,0,1,438,54l-16.83,1.25L420,57c-3.65-3.74-7.45-7.34-10-12-1.73-1.89-3.41-3.83-5.21-5.64-.36-.36-1.18-.25-1.79-.36l-1-1C401.12,36.39,400.2,34.85,398,35Z"/><path class="cls-32" d="M231,158v1h-1c0-14.82.21-29.65-.11-44.47-.12-5.77,1-11.36,1.31-17.07a65.87,65.87,0,0,1,2-11.1c0-.17.54-.24.82-.36l1.57-2c.48,0,1.07.17,1.46,0,2.22-1.15,4.31-1.52,6.66-.06.73.45,2.15-.16,3.23-.34s2.42-.5,3.62-.76L252,85v1c-1.39.86-1.63,2.24-2.08,3.71-1.06,3.4-.88,6.84-.92,10.29,0,3.25,0,6.5,0,9.75,0,.43-.63.84-1,1.25v-4.73l-16.05-.9c.84,4.37-1.34,8.62-1,13.21.33,4.79.07,9.61.07,14.42Z"/><path class="cls-33" d="M316,338V309.27c-2.48-.77-4.62.56-6.61-1.16a3.84,3.84,0,0,0-3.77,0c-1.84,1.6-3.79.49-5.62.89V283c5.29-.12,10.61.57,16-1.15,0,5.12,0,9.75,0,14.37,0,.72-.38,1.77,1,1.78v34c0,1.6.07,3.2-.05,4.79C316.92,337.21,316.33,337.6,316,338Z"/><path class="cls-34" d="M255,43c2.36.19,4.75-.43,7.08.9.86.49,2.66.69,3.16-.53l8.53.9,1,.95c-.27,1-.49,1.91-.72,2.78l-1,1-1,1-1,1-1,1a2.46,2.46,0,0,0-2,3c-3.8,5.47-7.45,11-10,17.21-.15.34-.65.53-1,.79-.33-2.93,1.64-5,2.8-7.33a5,5,0,0,0,.16-1.46,5.79,5.79,0,0,1-1.47-.26,4.75,4.75,0,0,1-1-.89l-1.12,1c-4.28-1.93-8.71-.62-12.92-1-1.07,1.92-1.15,4.24-3.44,5,1.26-3.44,2.1-7,4.43-10,2.14-2.79,3.66-6.06,5.61-9A19.6,19.6,0,0,1,253,46,2.46,2.46,0,0,0,255,43Z"/><path class="cls-35" d="M231,158V133c1-.33,2.08-1.05,3-.93,4.75.57,9.26-1.46,14-1.07v27c-2.68-.26-5.48.7-8-1a2.16,2.16,0,0,0-1.92,0C235.83,158.58,233.36,157.81,231,158Z"/><path class="cls-36" d="M248,131c-4.7-.39-9.21,1.64-14,1.07-1-.12-2,.6-3,.93,0-4.81.26-9.63-.07-14.42-.32-4.59,1.86-8.84,1-13.21l16.05.9V131Z"/><path class="cls-37" d="M240,68c2.29-.79,2.37-3.11,3.44-5,4.21.43,8.64-.88,12.92,1l1.12-1a4.75,4.75,0,0,0,1,.89,5.79,5.79,0,0,0,1.47.26,5,5,0,0,1-.16,1.46c-1.16,2.36-3.13,4.4-2.8,7.33,0,.5.21,1.19,0,1.45-2.83,3-1.8,7.76-5,10.55l-1.46-2.19c-1.2.26-2.4.54-3.62.76s-2.5.79-3.23.34c-2.35-1.46-4.44-1.09-6.66.06-.39.2-1,0-1.46,0L234,86c.36-4.52,1.94-8.73,3.51-12.9C238.16,71.38,237.83,69,240,68Z"/><path class="cls-38" d="M454,176l-2.32,3H441.47L438,175.4V158c3,.78,6,2,9,0a1.51,1.51,0,0,1,1.42,0c1.62,1.86,3.72.56,5.54,1Z"/><path class="cls-28" d="M438,158v15c-1.37,0-1-1.06-1-1.78,0-5.8,0-11.6,0-17.4,0-15.58.07-31.17-.05-46.75a97.36,97.36,0,0,0-1.05-13c-.19-1.32-1.07-2.6-.9-4.08a4.35,4.35,0,0,1,2,3.78c.34,5.74,1.51,11.43,1,17.22v47Z"/><path class="cls-39" d="M454,176V98c1.5.09.85,1.24,1,2v76Z"/><path class="cls-37" d="M249,100c0-3.45-.14-6.89.92-10.29.45-1.47.69-2.85,2.08-3.71A35.43,35.43,0,0,1,251,91.39a20,20,0,0,0-1,7.38C250,99.17,249.33,99.59,249,100Z"/><path class="cls-29" d="M403,39c.61.11,1.43,0,1.79.36,1.8,1.81,3.48,3.75,5.21,5.64-.61-.11-1.43,0-1.79-.36C406.41,42.83,404.73,40.89,403,39Z"/><path class="cls-31" d="M421,58c2.27.91,2.65,3,3,5C421.73,62.09,421.35,60.05,421,58Z"/><path class="cls-40" d="M310,351c.35-2.05.73-4.09,3-5C312.65,348.05,312.27,350.09,310,351Z"/><path class="cls-29" d="M398,35c2.2-.15,3.12,1.39,4,3C399.8,38.15,398.88,36.61,398,35Z"/><path class="cls-27" d="M268,55a2.46,2.46,0,0,1,2-3A2.46,2.46,0,0,1,268,55Z"/><path class="cls-40" d="M315,342a17.67,17.67,0,0,1,.05-2.82c.07-.43.62-.79.95-1.18a17.67,17.67,0,0,1-.05,2.82C315.88,341.25,315.33,341.61,315,342Z"/><path class="cls-28" d="M434,86c1.93.47.62,2,1,3C433.07,88.53,434.38,87,434,86Z"/><path class="cls-40" d="M314,345c.38-1-.93-2.53,1-3C314.62,343,315.93,344.53,314,345Z"/><path class="cls-26" d="M375,23c1,.38,2.53-.93,3,1C377,23.62,375.47,24.93,375,23Z"/><path class="cls-26" d="M372,22c1,.38,2.53-.93,3,1C374,22.62,372.47,23.93,372,22Z"/><path class="cls-26" d="M369,21c1,.38,2.53-.93,3,1C371,21.62,369.47,22.93,369,21Z"/><path class="cls-26" d="M380,25c.76.15,1.91-.5,2,1C381.24,25.85,380.09,26.5,380,25Z"/><path class="cls-26" d="M382,26c.76.15,1.91-.5,2,1C383.24,26.85,382.09,27.5,382,26Z"/><path class="cls-26" d="M378,24c.76.15,1.91-.5,2,1C379.24,24.85,378.09,25.5,378,24Z"/><path class="cls-27" d="M270,52l1-1Z"/><path class="cls-27" d="M271,51l1-1Z"/><path class="cls-27" d="M272,50l1-1Z"/><path class="cls-31" d="M420,57l1,1Z"/><path class="cls-29" d="M402,38l1,1Z"/><path class="cls-40" d="M313,346l1-1Z"/><path class="cls-27" d="M273,49l1-1Z"/><path class="cls-27" d="M255,43a2.46,2.46,0,0,1-2,3A2.46,2.46,0,0,1,255,43Z"/><path class="cls-36" d="M230,159h1l-2,2C229.15,160.24,228.5,159.09,230,159Z"/><path class="cls-41" d="M18,335c-5.32-.72-10.42,1.45-16.09.93L3,344c-.33-.23-.85-.39-1-.7-.42-1.07-.7-2.2-1-3.3V304c2.36-.19,4.82.59,7-1A2.16,2.16,0,0,1,10,303c2.22,1.55,4.68.77,7,1,0,8.91,0,17.82,0,26.74,0,.79-.69,2.09,1,2.26Z"/><path class="cls-42" d="M18,333c-1.66-.17-1-1.47-1-2.26-.05-8.92,0-17.83,0-26.74V218a36.93,36.93,0,0,1-6.41-.12c-.78-.15-1.72-1.36-2.54-.82-2.26,1.47-4.69.75-7,.94V191c.33-.26.94-.51,1-.79.09-1.63,0-3.26,0-5.3,2.35.43,4.59-.69,6.64,1,.39.33,1.31.16,1.95,0,1.21-.26,2.4-.95,3.57-.89s2.28.8,3.84,1.4V333Z"/><path class="cls-43" d="M1,218c2.36-.19,4.79.53,7.05-.94.82-.54,1.76.67,2.54.82A36.93,36.93,0,0,0,17,218v32c-2,0-4.26.64-5.88-.13-3.55-1.68-6.77-.6-10.12.13Z"/><path class="cls-44" d="M1,250c3.35-.73,6.57-1.81,10.12-.13,1.62.77,3.9.13,5.88.13v28c-4.15,0-8.29.11-12.43-.06A7.25,7.25,0,0,0,1,279V250Z"/><path class="cls-45" d="M1,279a7.25,7.25,0,0,1,3.57-1.06c4.14.17,8.28.06,12.43.06v26c-2.36-.19-4.82.59-7-1A2.16,2.16,0,0,0,8,303c-2.22,1.55-4.68.77-7,1Z"/><path class="cls-46" d="M300,215c0-7.81,0-15.61,0-23.42,0-1.39,0-2.64,1.69-3.6,2.83.55,6-.8,9.24.88,1,.54,2.95-.61,4.6-1a6.21,6.21,0,0,1,.48,1.36c2,27.91.57,55.87,1,83.8-.33-.42-.95-.83-1-1.25-.07-3.58,0-7.17,0-10.75V215Z"/><path class="cls-40" d="M297,340c-.17-2,1.5-3.27,2-5,1.66-.17,1-1.46,1-2.26,0-7.91,0-15.83,0-23.74,1.83-.4,3.78.71,5.62-.89a3.84,3.84,0,0,1,3.77,0c2,1.72,4.13.39,6.61,1.16V337a8.23,8.23,0,0,0-2.54-.95c-4.4-.1-8.8-.05-12.82-.05C298.79,337.15,299.13,339.65,297,340Z"/><path class="cls-47" d="M300,215h16v26c-1.07-.15-2.09.09-3.22-.58-1.4-.83-3.59-1.8-4.74-1.25-2.71,1.28-5.38.54-8,.83Z"/><path class="cls-48" d="M316,261c0,3.58,0,7.17,0,10.75,0,.42.63.83,1,1.25v25c-1.37,0-1-1.06-1-1.78,0-4.62,0-9.25,0-14.37-5.39,1.72-10.71,1-16,1.15V260a32,32,0,0,0,4.07,1,39.17,39.17,0,0,0,4.47,0Z"/><path class="cls-49" d="M316,261h-7.46a39.17,39.17,0,0,1-4.47,0,32,32,0,0,1-4.07-1V240c2.66-.29,5.33.45,8-.83,1.15-.55,3.34.42,4.74,1.25,1.13.67,2.15.43,3.22.58Z"/><path class="cls-50" d="M454,111v27c-3-.31-6.16.8-9-1-2.15,1.67-4.66.79-7,1V111Z"/><path class="cls-51" d="M438,138c2.35-.21,4.86.67,7-1,2.83,1.8,6,.69,9,1v21c-1.82-.4-3.92.9-5.54-1a1.51,1.51,0,0,0-1.42,0c-3,2-6,.75-9,0Z"/><path class="cls-44" d="M172,286v2.46c-7.8,8.25-6.87,6.36-14.26,6.53-1.91-1.11-3.67-2.05-5.35-3.14A2.52,2.52,0,0,1,151,289c-2.12-11.23-.42-22.55-1.09-34a71.52,71.52,0,0,1,7.8.06c2.25.27,4.29-.89,6.69-.2s4.88.14,7.6.14Z"/><path class="cls-52" d="M172,286V255c-2.72,0-5.33.51-7.6-.14s-4.44.47-6.69.2a71.52,71.52,0,0,0-7.8-.06c.67,11.45-1,22.77,1.09,34-2.38-1.37-2-3.69-2-5.86,0-16.46,0-32.91,0-49.22.91-1.76,1.76-3.41,2.77-5.35,3.79-.86,6.82-5.76,11.8-2.57,5.4.25,7.16,4.54,9.43,8.94,0,16.06,0,32.67,0,49.27C173,284.93,173.37,286,172,286Z"/></g></g></svg>