<svg xmlns="http://www.w3.org/2000/svg" viewBox="0 0 460 294"><defs><style>.cls-1{fill:#fdfdfc;}.cls-2{fill:#23b3ac;}.cls-3{fill:#58d0d6;}.cls-4{fill:#79dcda;}.cls-5{fill:#fcd406;}.cls-6{fill:#2eb9b5;}.cls-7{fill:#f8d213;}.cls-8{fill:#fdfcf2;}</style></defs><g id="Layer_2" data-name="Layer 2"><g id="Layer_1-2" data-name="Layer 1"><path class="cls-1" d="M165,294H0V0H229c-1.06,1.23-2.05,2.53-3.19,3.67Q202.5,27,179.16,50.34L167.93,61.57l.26,2.43H197.5l1.59,1.59V85.88h61.24l2.89-2.5V63.89h28.52l1.4-1.86c-1.55-1.33-2.94-2.36-4.16-3.57Q261,30.56,233.13,2.61A33.63,33.63,0,0,1,231,0H460V99h-1c-2.1-1.93-4.26-3.8-6.28-5.8-7.44-7.39-14.83-14.82-22.25-22.22-.78-.78-1.62-1.5-2.27-2.09l-31,31V102c2.48,0,4.79,0,7.1,0s4.54-.27,6.74.23v9.27L412.5,113c9.57,0,19.21,0,28.85,0,1.35,0,2.68.11,3.65-1.71,0-2.4,0-5.21,0-8,0-.44.63-.86,1-1.29,3.25,0,6.5,0,9.75,0,.43,0,.84-.63,1.25-1h3V294H296V279.08H165.42l-1.37,1.37c-.57,4.25,1.72,8.29.95,12.55ZM305,175l1-1,2-1.58c0-12.47-.09-24.93.05-37.4.05-4-2.76-5.74-5.07-8-.17-.16-.65,0-1,0l-.76-1L300,127l-1,1-1,1-3,3-1,1v38l1,1h1c.21,2.24.76,2.79,3,3v1l.85,1.5L299,179c-.25.33-.51,1-.76.95-1.68,0-1.16,1.18-1.24,2.05-.76.15-1.91-.5-2,1l-1,1v31l1,1h1a6.24,6.24,0,0,0,5,5c.61,2.31,3.31,3.4,3.48,6,0,.12.2.28.34.34,2.22,1.09,4.14,2.75,6.88,2.72,9.64-.08,19.28,0,29.18,0a38.78,38.78,0,0,1,4.76-4.92c1.67-1.24,2.52-3.44,4.74-4,.32-2.71,3.15-2.89,4.5-4.5V181.87l-3.82-3.28v-2.17l3.78-3.76V131.12c-2.73-1.43-3.55-5.44-7.33-5.13l-6.5,6.5v39.22c.72,3.45,5.56,2.67,5,6.54L343,182l-2,2v32H309c0-9.58,0-19.16,0-28.73,0-.8.69-2.1-1-2.27v-1c-.15-.76.5-1.91-1-2l-1-1-1-1-1-1v-3ZM59,129l-1-1c-.73-2.13-2.42-.49-3.7-1L50,132l-2,1.34c0,12.34,0,24.61,0,36.88a.89.89,0,0,0,.15.43,2.15,2.15,0,0,0,.32.35H50v1c.21,2.24.76,2.79,3,3l1,1.81L53,180c-2.71-.31-3.25,2.47-4.86,3.31v43.76c2.53-.6,2.47,1.54,3.32,2.93,14.21,0,28.49,0,42.77-.05a14.06,14.06,0,0,0,3.72-.82c2-2.27,3.41-4,4.91-5.7v-2.82L97.49,215H62V183l1.6-2H61c-.09-1.5-1.24-.85-2-1l-1-1v-2c.49-.32,1-.94,1.46-.91,1.75.11,1.56-1,1.54-2.09h2.6L62,172V132l-1-1-1-1Zm307,65c-1.5.09-.85,1.24-1,2v27l-1.64,1.24c1.95.94,2.35,3.22,4.64,2.76v1.9h3.86l4.24-5.32v-27.5h24.5L402,194c.33,0,.75.13,1,0,.9-.64,2-1.19,2.52-2.09a5.26,5.26,0,0,1,2.4-2.4c.9-.47,1.45-1.62,2.09-2.52.15-.22,0-.64,0-1l1.94-1.3V162.82L409,160l-1-1-8.27-9c-7.46,0-14.75-.05-22,0-2.21,0-4.46-.49-6.61.87-.69.43-2.1-.3-3.18-.5l-2.73-.48c-2.27,11.74-.6,23.24-1.27,34.49,1.94,1.85,3,4.15,5.35,5.19L368,192Zm-172-7,1-1v-2c1.67-.18,1-1.49,1-2.28.05-8.65,0-17.29,0-25.93,0-.27-.32-.53-.48-.79H194l-2-2-2.16-2.52L188,153v1l-1,1h-1l-2.08,1.4v30.29l-20.81,20.82V194.72c-1.29-1.79-3.62-2.55-3-5.53l2.88-2.32V155.71L159.56,152h-3.79c-4.06,2.65-5,6.28-4.84,10.69.27,6.48.14,13,0,19.47a9.43,9.43,0,0,0,1.11,5.12l2.78,1.93V191c-1.6,1.93-2.74,3.29-3.8,4.58v28c2.16,2.25,3.6,5.12,6.15,6.1l33.94-33.94-1.11-4.2,2-.93V189h2Zm48,6h2v-4c-.12-.8.46-1.89-1.08-2a6.28,6.28,0,0,1-1.92-1h-2v-1.93c-8.23-.25-16.13.17-23.83-.23V163c8.05-.17,16,.17,23.83-.21V161h1l1-1v-1l1-1h1.91v-4.07L241,153v-1.77c-1.41-.4-2.89-1.16-4.37-1.17-10.79-.11-21.58-.06-32.51-.06a22.93,22.93,0,0,0-1.07,4.7C203,165,203,175.31,203,185.51l4,4V192c-2.1-.46-2.67,1.55-4,2.45V227.7l3,2.3h32.23a1,1,0,0,0,.43-.15c.13-.09.24-.22.34-.3V228h1c.76-.15,1.91.5,2-1l1-1,1-1,.88-1.55L241,220c-.09-1.5-1.24-.85-2-1H215V196.06h24.62L241,194Zm-96-38v-2h-2l-1.27-1.89H109.39l-3.29,3.29v30.1c1.91,2.25,3.17,4.83,6,5.91L106,195.24v32.27L108.5,230h32.93l6.52-5.22v-2.36L145,221a2.46,2.46,0,0,0-3-2H117V196h26.54c.92-1.34,2.92-1.91,2.46-4h2.11c-.58-1.91-1-3.46-1.41-4.67L144,186v-2.6l-2,1.6H117V163h24.23a.76.76,0,0,0,.43-.16,2.26,2.26,0,0,0,.34-.35V161h4v-2c2.11-.74,2.51-2.11,1.56-4Zm218.5,85q-132,0-264,0c-2.27,0-4.49,0-6.37,1.4v6.25l1.28,1.28H364.59l1.28-1.28v-6.26ZM105,267.83h249.7l1.39-1.39c-.61-2.3,1.18-5.13-1.44-7.35H106.76c-1.11,1-2,1.69-3.06,2.59C104.12,263.71,104.53,265.71,105,267.83Zm-73-199c-10.46,10.46-20.68,20.67-31,31l.12,2.24H16v9.21l1.5,1.68H47.51l1.58-1.58v-9.52h15C62.49,98.59,42.83,78.45,32,68.85Zm253.17,150H260V194.59c-1.17-1.7-3.37-2.32-2.87-5.19l2.8-2.8V155.78l-6-5L249,155.53v32c1.55.78,3.53,1.21,3,3.33l-2.9,2.89v34.9l1.22,1.22h33.86l5.6-4.22V223ZM261.66,94.16H199.09v11.45l1.33,1.27a23,23,0,0,1,4.29-.84q26-.09,52,0a16.18,16.18,0,0,1,3.67.89l2.6-1.51v-10Zm-62.34,27.66H262.9v-4.74l-2.23-3H199.45c-2.55,1.83-1,4.35-1.5,6.36Zm-183.09,2H47.68l1.19-1.19V115.8a52.54,52.54,0,0,0-6.11-.76c-6.82-.1-13.65,0-20.47-.05-2.25,0-4.51-.18-5.91,1.58C13.65,119,15.27,121.33,16.23,123.82Zm426.43-8.67H414.35l-3.19,3.19v4.32l1.26,1.26h30.94l1.62-1.33v-5Zm1.25,12H412c.09,1.41.17,2.63.23,3.66h31.72ZM17.3,130.87H47.77V127.1H17.34L15.68,129Z"/><path class="cls-2" d="M231,0a33.63,33.63,0,0,0,2.13,2.61Q261,30.56,289,58.46c1.22,1.21,2.61,2.24,4.16,3.57l-1.4,1.86H263.22V83.38l-2.89,2.5H199.09V65.59L197.5,64H168.19l-.26-2.43,11.23-11.23Q202.49,27,225.81,3.67C227,2.53,227.94,1.23,229,0Z"/><path class="cls-2" d="M165,293c.77-4.26-1.52-8.3-.95-12.55l1.37-1.37H296V294h-2c-1-2.18-2.89-.93-4.28-.94Q227.37,293,165,293Z"/><path class="cls-3" d="M165,293q62.35,0,124.72.06c1.39,0,3.28-1.24,4.28.94H165Z"/><ellipse class="cls-4" cx="459.5" cy="100" rx="0.71" ry="1.41"/><path class="cls-5" d="M295,132l3-3,1-1,1-1h2c.33,0,.81-.14,1,0,2.31,2.26,5.12,4,5.07,8-.14,12.47-.05,24.93-.05,37.4L306,174l-1,1-1,1v3l1,1,1,1,1,1c.15.76-.5,1.91,1,2v1c-1.66.17-1,1.47-1,2.27,0,9.91,0,19.82,0,29.6-2.13.28-3.23,1.68-4.25,3.47l1.54.87c1.07-1.36,3.09-1.93,2.71-4.34.78,0,1.93.63,2-.87h32c1.54,2.08,2.93,4.38,6.66,5.15-1.92-3-3.4-5.22-6.16-6.14a1.66,1.66,0,0,0-.5,0V184h2v-2l3-3.75c.57-3.87-4.27-3.09-5-6.54V132.49l6.5-6.5c3.78-.31,4.6,3.7,7.33,5.13v41.54l-3.78,3.76v2.17l3.82,3.28v34.75c-1.35,1.61-4.18,1.79-4.5,4.5-2.22.52-3.07,2.72-4.74,4a38.78,38.78,0,0,0-4.76,4.92c-9.9,0-19.54-.05-29.18,0-2.74,0-4.66-1.63-6.88-2.72-.14-.06-.33-.22-.34-.34-.17-2.57-2.87-3.66-3.48-6a6.24,6.24,0,0,0-5-5h-1l-1-1V184l1-1c.76-.15,1.91.5,2-1,.08-.87-.44-2.07,1.24-2.05.25,0,.51-.62.76-.95h2.07c-.11-1.25-.19-2.14-.26-3H299v-1c-.21-2.24-.76-2.79-3-3h-1l-1-1V133Z"/><path class="cls-6" d="M364.5,240l1.37,1.37v6.26l-1.28,1.28H95.41l-1.28-1.28v-6.25C96,240,98.23,240,100.5,240Q232.5,240,364.5,240Z"/><path class="cls-6" d="M105,267.83c-.44-2.12-.85-4.12-1.27-6.15,1.06-.9,2-1.64,3.06-2.59H354.62c2.62,2.22.83,5.05,1.44,7.35l-1.39,1.39Z"/><path class="cls-5" d="M117,163v22h25c.09,1.5,1.24.85,2,1,.22.72.22,1.76.71,2.1,1.46,1.05,1.3,2.46,1.29,3.9-1.87-.53-2.44,1.31-3.9,2.15H115.55L117,196v23h25a2.46,2.46,0,0,0,3,2l2.95,1.42v2.36L141.43,230H108.5L106,227.51V195.24l6.07-4.83c-2.81-1.08-4.07-3.66-6-5.91V154.4l3.29-3.29h33.34L144,153v2h2v4h-2v2h-2c-3.78,0-7.57-.15-11.35,0s-7.66-.88-11.16.64l-4.24-1.84C114.68,161.92,115.7,162.55,117,163Zm-.85,23.59-.66-.65-1.55.29.47,2.5ZM110.33,156h.34v-1h-.34Zm.34,70h-.34v1h.34Z"/><path class="cls-2" d="M32,68.85c10.82,9.6,30.48,29.74,32.12,33h-15v9.52L47.51,113H17.45L16,111.32v-9.21H1.11L1,99.87C11.33,89.52,21.55,79.31,32,68.85Z"/><path class="cls-2" d="M459,99v2h-2c-3.25,0-6.5,0-9.75,0-.43,0-.84.63-1.25,1s-.94.85-1,1.29c-.08,2.8,0,5.61,0,8-1,1.82-2.3,1.72-3.65,1.71-9.64,0-19.28,0-28.85,0L411,111.51v-9.27c-2.2-.5-4.49-.16-6.74-.23s-4.62,0-7.1,0V99.92l31-31c.65.59,1.49,1.31,2.27,2.09,7.42,7.4,14.81,14.83,22.25,22.22C454.74,95.2,456.9,97.07,459,99Z"/><path class="cls-7" d="M192,189v1.55l-2,.93,1.11,4.2L157.2,229.62c-2.55-1-4-3.85-6.15-6.1v-28c1.06-1.29,2.2-2.65,3.8-4.58v-1.74l-2.78-1.93a9.43,9.43,0,0,1-1.11-5.12c.11-6.49.24-13,0-19.47-.18-4.41.78-8,4.84-10.69h3.79l3.42,3.68v31.16l-2.88,2.32c-.61,3,1.72,3.74,3,5.53v12.79l20.81-20.82V156.4L186,155c0,9.14.1,18.27-.05,27.4a8.88,8.88,0,0,0,3.87,7.74Z"/><path class="cls-7" d="M285.18,218.82l4.66,4.17v2.67l-5.6,4.22H250.38l-1.22-1.22v-34.9l2.9-2.89c.49-2.12-1.49-2.55-3-3.33v-32l4.87-4.71,6,5V186.6l-2.8,2.8c-.5,2.87,1.7,3.49,2.87,5.19v24.23Z"/><path class="cls-5" d="M62,183v32c-3.44,4.12-7.88,7.13-11.91,11.45V184.9c.88-2.11,3.38-2.53,2.91-4.9h2l-.22-5H53c-.21-2.24-.76-2.79-3-3V132l4.3-5c1.28.52,3-1.12,3.7,1l1,1,1,1,1,1,1,1v40c-1.5.09-.85,1.24-1,2-2.24.21-2.79.76-3,3v2l1,1c.09,1.5,1.24.85,2,1C61.15,181.76,60.5,182.91,62,183Z"/><path class="cls-5" d="M241,159v1l-1,1h-1q-13,0-26,0c0-.62-.08-1.22-.14-2l-1.88.21.14,1.7c.66.05,1.26.1,1.88.13,0,8.31,0,16.65,0,25-.62,0-1.22.08-2,.14l.21,1.88,1.7-.14c.05-.66.1-1.26.13-1.88l2.48-.64a17.3,17.3,0,0,0,2.6.63c1.14.11,2.3,0,3.46,0h9.38a33.06,33.06,0,0,0,3.45,0,6.71,6.71,0,0,0,1.71-.5l2.9.53h2c.21,2.24.76,2.79,3,3v2h-2v2l-1,1c-1.82,0-3.65.07-5.47,0-8-.36-16.05,1-24-1-.1,0-.25.19-.18.13.56,2.31,1.44,4.5,1.55,6.72.23,4.8,0,9.62.09,14.43a6.58,6.58,0,0,1-2,5.16c-1.79,1.73-3.5,3.54-5.31,5.25-.28.27-.86.22-1.65.4A9.41,9.41,0,0,0,205,223a22.76,22.76,0,0,0,0-3V195.37c1.19-1,2.39-1.76,2-3.37h2.9v-3L204,183.64c1.81-2.3.74-4.69.93-6.9s0-4.66,0-7v-7c0-2.26,0-4.53,0-6.77,1.33,0,2.16,0,3,0,0,.62.08,1.22.14,2l1.88-.21-.14-1.7c-.66-.05-1.26-.1-1.88-.13-.64-.5-1.31-1-1.79-1.41V152h26.33a38.65,38.65,0,0,1,4.44,0,31.6,31.6,0,0,1,4,1c.33,1.67.67,3.33,1,5Z"/><path class="cls-7" d="M402,194l-1.4,2.08H376.1v27.5l-4.24,5.32H368V227h2.39l3.61-3.49V195.57L370.45,192H368l1.25-2.4c-2.33-1-3.41-3.34-5.35-5.19.67-11.25-1-22.75,1.27-34.49l2.73.48c1.08.2,2.49.93,3.18.5,2.15-1.36,4.4-.85,6.61-.87,7.29-.08,14.58,0,22,0l8.27,9h-2.26L401,163c-1.19-1-2.62-1-4.08-1-6.82,0-13.64,0-20.42,0l-1.5,1.5c0,5.94.08,11.93-.06,17.92A7.68,7.68,0,0,0,376,185l-4.11,5,4.06,4Z"/><path class="cls-7" d="M53,180c.47,2.37-2,2.79-2.91,4.9v41.55c4-4.32,8.47-7.33,11.91-11.45H97.49l5.37,5.61v2.82c-1.5,1.73-3,3.43-4.91,5.7a14.06,14.06,0,0,1-3.72.82C80,230,65.67,230,51.46,230c-.85-1.39-.79-3.53-3.32-2.93V183.31C49.75,182.47,50.29,179.69,53,180Z"/><path class="cls-2" d="M261.66,94.16,263,95.45v10l-2.6,1.51a16.18,16.18,0,0,0-3.67-.89q-26-.09-52,0a23,23,0,0,0-4.29.84l-1.33-1.27V94.16Z"/><path class="cls-6" d="M199.32,121.82,198,120.45c.49-2-1-4.53,1.5-6.36h61.22l2.23,3v4.74Z"/><path class="cls-5" d="M208,230h-2v-2.34a34.52,34.52,0,0,0,9-8.66h24c.09,1.5,1.24.85,2,1l3.88,3.45L244,225l-1,1-1,1c-.76.15-1.91-.5-2,1h-1a5.87,5.87,0,0,1-4,1q-12.36,0-24.71,0C209.46,229,208.17,228.35,208,230Z"/><path class="cls-6" d="M16.23,123.82c-1-2.49-2.58-4.82.15-7.25,1.4-1.76,3.66-1.59,5.91-1.58,6.82,0,13.65,0,20.47.05a52.54,52.54,0,0,1,6.11.76v6.83l-1.19,1.19Z"/><path class="cls-6" d="M442.66,115.15l2.32,2.4v5l-1.62,1.33H412.42l-1.26-1.26v-4.32l3.19-3.19Z"/><path class="cls-5" d="M368,192h2.45l3.55,3.57v27.94L370.39,227H368c.15-2.2-1.39-3.12-3-4V196c1.5-.09.85-1.24,1-2h2Z"/><path class="cls-5" d="M192,189l-2.18,1.14A8.88,8.88,0,0,1,186,182.4c.15-9.13.05-18.26.05-27.4h1l1-1v-1h4l2,2c.23.87.46,1.74.72,2.7-.16.31-.68.85-.68,1.4q-.09,12.06,0,24.13c0,.26.63.51,1,.77v2l-1,1h-2Z"/><path class="cls-7" d="M215,219a34.52,34.52,0,0,1-9,8.66V230l-3-2.3V194.45c1.3-.9,1.87-2.91,4-2.45.39,1.61-.81,2.36-2,3.37V220a22.76,22.76,0,0,1,0,3,9.41,9.41,0,0,1-.88,2.1c.79-.18,1.37-.13,1.65-.4,1.81-1.71,3.52-3.52,5.31-5.25a6.58,6.58,0,0,0,2-5.16c-.05-4.81.14-9.63-.09-14.43-.11-2.22-1-4.41-1.55-6.72-.07.06.08-.16.18-.13,7.92,1.93,16,.61,24,1,1.82.08,3.65,0,5.47,0l-1.38,2.06H215Z"/><path class="cls-5" d="M401,163l4.74-4H408l1,1c.36,8.67-.9,17.39,1,26-2-.69-2.49,1.93-4.17,2L401,184Z"/><path class="cls-7" d="M208,156h-3c0,2.24,0,4.51,0,6.77v7c0,2.32.15,4.67,0,7s.88,4.6-.93,6.9L209.9,189v3H207v-2.5l-4-4c0-10.2,0-20.5.05-30.81a22.93,22.93,0,0,1,1.07-4.7c10.93,0,21.72-.05,32.51.06,1.48,0,3,.77,4.37,1.17V153a31.6,31.6,0,0,0-4-1,38.65,38.65,0,0,0-4.44,0H206.19v2.57Z"/><path class="cls-7" d="M213,186V161h26v1.83c-7.87.38-15.78,0-23.83.21v20.8c7.7.4,15.6,0,23.83.23V186l-2.9-.53a6.71,6.71,0,0,1-1.71.5,33.06,33.06,0,0,1-3.45,0h-9.38c-1.16,0-2.32.08-3.46,0a17.3,17.3,0,0,1-2.6-.63Z"/><path class="cls-6" d="M443.91,127.17v3.66H412.19c-.06-1-.14-2.25-.23-3.66Z"/><path class="cls-6" d="M17.3,130.87,15.68,129l1.66-1.92H47.77v3.77Z"/><path class="cls-7" d="M50,132v39H48.48a2.15,2.15,0,0,1-.32-.35.89.89,0,0,1-.15-.43c0-12.27,0-24.54,0-36.88Z"/><path class="cls-7" d="M410,186c-1.9-8.61-.64-17.33-1-26l2.94,2.82V184.7Z"/><path class="cls-7" d="M307,217c0-9.91,0-19.82,0-29.73,0-.8-.69-2.1,1-2.27,1.66.17,1,1.47,1,2.27,0,9.57,0,19.15,0,28.73C308.91,217.5,307.76,216.85,307,217Z"/><path class="cls-7" d="M117,196l-1.45-1.85H142.1c1.46-.84,2-2.68,3.9-2.15.46,2.09-1.54,2.66-2.46,4Z"/><path class="cls-7" d="M195,184c-.33-.26-1-.51-1-.77q-.07-12.06,0-24.13c0-.55.52-1.09.68-1.4-.26-1-.49-1.83-.72-2.7h1.5c.16.26.48.52.48.79,0,8.64,0,17.28,0,25.93C196,182.51,196.67,183.82,195,184Z"/><path class="cls-7" d="M117,163c-1.3-.45-2.32-1.08-1.75-3.16l4.24,1.84c3.5-1.52,7.38-.45,11.16-.64s7.57,0,11.35,0v1.48a2.26,2.26,0,0,1-.34.35.76.76,0,0,1-.43.16Z"/><path class="cls-7" d="M401,184l4.83,4c1.68-.09,2.13-2.71,4.17-2,0,.33.13.75,0,1-.64.9-1.19,2.05-2.09,2.52a5.26,5.26,0,0,0-2.4,2.4c-.47.9-1.62,1.45-2.52,2.09-.22.15-.64,0-1,0-.64-2,1.73-2.48,2.06-3.94-2.3-2.77-2.3-2.77-5.06-3.61V185Z"/><path class="cls-7" d="M208,230c.17-1.65,1.46-1,2.26-1q12.35-.08,24.71,0a5.87,5.87,0,0,0,4-1v1.54c-.1.08-.21.21-.34.3a1,1,0,0,1-.43.15Z"/><path class="cls-7" d="M341,215a1.66,1.66,0,0,1,.5,0c2.76.92,4.24,3.1,6.16,6.14-3.73-.77-5.12-3.07-6.66-5.15Z"/><path class="cls-7" d="M296,216a6.24,6.24,0,0,1,5,5A6.24,6.24,0,0,1,296,216Z"/><path class="cls-4" d="M446,102c.41-.33.82-1,1.25-1,3.25-.08,6.5,0,9.75,0-.41.33-.82,1-1.25,1C452.5,102,449.25,102,446,102Z"/><path class="cls-7" d="M242,158c-.33-1.67-.67-3.33-1-5l2.91.93V158Z"/><path class="cls-7" d="M146,192c0-1.44.17-2.85-1.29-3.9-.49-.34-.49-1.38-.71-2.1l2.7,1.33c.37,1.21.83,2.76,1.41,4.67Z"/><path class="cls-7" d="M365,223c1.61.88,3.15,1.8,3,4-2.29.46-2.69-1.82-4.64-2.76Z"/><path class="cls-7" d="M53,175h1.82l.22,5H53l1-3.19Z"/><path class="cls-7" d="M296,172c2.24.21,2.79.76,3,3C296.76,174.79,296.21,174.24,296,172Z"/><path class="cls-7" d="M50,172c2.24.21,2.79.76,3,3C50.76,174.79,50.21,174.24,50,172Z"/><path class="cls-7" d="M146,159v-4h1.56C148.51,156.89,148.11,158.26,146,159Z"/><path class="cls-7" d="M244,189c-2.24-.21-2.79-.76-3-3a6.28,6.28,0,0,0,1.92,1C244.46,187.11,243.88,188.2,244,189Z"/><path class="cls-7" d="M58,177c.21-2.24.76-2.79,3-3,0,1.08.21,2.2-1.54,2.09C59,176.06,58.49,176.68,58,177Z"/><path class="cls-7" d="M192,153h-4l1.84-2.52Z"/><path class="cls-7" d="M299,176h1.81c.07.86.15,1.75.26,3H299l.85-1.5Z"/><circle class="cls-7" cx="243" cy="192" r="1.41"/><path class="cls-7" d="M62,183c-1.5-.09-.85-1.24-1-2h2.6Z"/><circle class="cls-7" cx="145" cy="154" r="1.41"/><circle class="cls-7" cx="193" cy="188" r="1.41"/><path class="cls-7" d="M61,174c.15-.76-.5-1.91,1-2l1.6,2Z"/><circle class="cls-7" cx="145" cy="160" r="1.41"/><path class="cls-7" d="M145,221a2.46,2.46,0,0,1-3-2A2.46,2.46,0,0,1,145,221Z"/><path class="cls-7" d="M144,186c-.76-.15-1.91.5-2-1l2-1.6Z"/><path class="cls-7" d="M343,182v2h-2Z"/><path class="cls-7" d="M368,192v2h-2Z"/><path class="cls-7" d="M302,127h-2l1.24-1Z"/><path class="cls-7" d="M61,181c-.76-.15-1.91.5-2-1C59.76,180.15,60.91,179.5,61,181Z"/><path class="cls-7" d="M308,184c-1.5-.09-.85-1.24-1-2C308.5,182.09,307.85,183.24,308,184Z"/><path class="cls-7" d="M297,182c-.09,1.5-1.24.85-2,1C295.09,181.5,296.24,182.15,297,182Z"/><path class="cls-7" d="M366,194c-.15.76.5,1.91-1,2C365.15,195.24,364.5,194.09,366,194Z"/><path class="cls-7" d="M240,228c.09-1.5,1.24-.85,2-1C241.91,228.5,240.76,227.85,240,228Z"/><path class="cls-7" d="M241,220c-.76-.15-1.91.5-2-1C239.76,219.15,240.91,218.5,241,220Z"/><path class="cls-7" d="M61,131l-1-1Z"/><path class="cls-7" d="M300,127l-1,1Z"/><path class="cls-7" d="M294,171l1,1Z"/><path class="cls-7" d="M306,181l-1-1Z"/><path class="cls-7" d="M241,194l1-1Z"/><path class="cls-7" d="M59,129l-1-1Z"/><path class="cls-7" d="M305,180l-1-1Z"/><path class="cls-7" d="M294,215l1,1Z"/><path class="cls-7" d="M59,180l-1-1Z"/><path class="cls-7" d="M299,128l-1,1Z"/><path class="cls-7" d="M62,132l-1-1Z"/><path class="cls-7" d="M295,132l-1,1Z"/><path class="cls-7" d="M188,154l-1,1Z"/><path class="cls-7" d="M60,130l-1-1Z"/><path class="cls-7" d="M243,226l1-1Z"/><path class="cls-7" d="M240,161l1-1Z"/><path class="cls-7" d="M304,176l1-1Z"/><path class="cls-7" d="M295,183l-1,1Z"/><path class="cls-7" d="M194,187l1-1Z"/><path class="cls-7" d="M241,159l1-1Z"/><path class="cls-7" d="M305,175l1-1Z"/><path class="cls-7" d="M307,216.75c.4,2.53-1.62,3.1-2.69,4.46l-1.54-.87C303.75,218.55,304.85,217.15,307,216.75Z"/><path class="cls-7" d="M116.15,186.59l-1.74,2.14-.47-2.5,1.55-.29Z"/><ellipse class="cls-7" cx="110.5" cy="155.5" rx="0.24" ry="0.71"/><ellipse class="cls-7" cx="110.5" cy="226.5" rx="0.24" ry="0.71"/><path class="cls-7" d="M213,186l-.15,1.9-1.7.14-.21-1.88Z"/><path class="cls-7" d="M208,156l1.9.15.14,1.7-1.88.21C208.06,157.2,208,156.6,208,156Z"/><path class="cls-7" d="M213,161l-1.9-.15-.14-1.7,1.88-.21Z"/><path class="cls-8" d="M401,184l-2,1H376a7.68,7.68,0,0,1-1.06-3.58c.14-6,.06-12,.06-17.92l1.5-1.5c6.78,0,13.6,0,20.42,0,1.46,0,2.89,0,4.08,1Z"/><path class="cls-5" d="M376,185h2c.26.33.52,1,.79,1q8.71.07,17.42,0c.27,0,.53-.63.79-1h2v1.45c2.76.84,2.76.84,5.06,3.61-.33,1.46-2.7,1.95-2.06,3.94H376l-4.06-4Z"/><path class="cls-7" d="M397,185c-.26.33-.52,1-.79,1q-8.71.07-17.42,0c-.27,0-.53-.63-.79-1Z"/></g></g></svg>