<svg xmlns="http://www.w3.org/2000/svg" viewBox="0 0 452 454"><defs><style>.cls-1{fill:#fefefd;}.cls-2{fill:#d3c578;}.cls-3{fill:#dccd79;}.cls-4{fill:#af9814;}.cls-5{fill:#dbbc14;}.cls-6{fill:#ecca14;}.cls-7{fill:#c0a514;}.cls-8{fill:#e4c414;}.cls-9{fill:#c9ad14;}.cls-10{fill:#b79e14;}.cls-11{fill:#f3e8af;}.cls-12{fill:#f7eebf;}.cls-13{fill:#f8edaf;}.cls-14{fill:#f5eaaf;}.cls-15{fill:#f7ebaf;}.cls-16{fill:#f9f0bf;}.cls-17{fill:#f6edbf;}.cls-18{fill:#faf1bf;}.cls-19{fill:#f4ecbf;}.cls-20{fill:#e5d373;}.cls-21{fill:#e1d070;}.cls-22{fill:#cec27a;}.cls-23{fill:#f6e274;}.cls-24{fill:#efe7bb;}.cls-25{fill:#e1daaf;}.cls-26{fill:#bcaa46;}.cls-27{fill:#dcc43d;}.cls-28{fill:#f3d73e;}.cls-29{fill:#d5bd36;}.cls-30{fill:#f0cb00;}.cls-31{fill:#dfc11c;}.cls-32{fill:#ceae00;}.cls-33{fill:#d2b200;}.cls-34{fill:#c8a900;}.cls-35{fill:#cdad00;}.cls-36{fill:#d0b000;}.cls-37{fill:#a38b00;}.cls-38{fill:#ae9711;}.cls-39{fill:#bba111;}.cls-40{fill:#a98f00;}.cls-41{fill:#ad9300;}.cls-42{fill:#db0;}.cls-43{fill:#d4b400;}.cls-44{fill:#d9b700;}.cls-45{fill:#eec900;}.cls-46{fill:#e9c400;}.cls-47{fill:#e5c100;}.cls-48{fill:#b49900;}.cls-49{fill:#bb9e00;}.cls-50{fill:#bea100;}.cls-51{fill:#e2bf00;}.cls-52{fill:#c9aa00;}.cls-53{fill:#c2a400;}.cls-54{fill:#c5a700;}.cls-55{fill:#b09500;}.cls-56{fill:#ebc600;}.cls-57{fill:#d7b600;}.cls-58{fill:#e6c200;}.cls-59{fill:#dcba00;}.cls-60{fill:#dfbc00;}.cls-61{fill:#b79b00;}.cls-62{fill:#ad9200;}.cls-63{fill:#b39800;}.cls-64{fill:#b09600;}.cls-65{fill:#e4c100;}.cls-66{fill:#e0bd00;}.cls-67{fill:#f9ecaa;}</style></defs><g id="Layer_2" data-name="Layer 2"><g id="Layer_1-2" data-name="Layer 1"><path class="cls-1" d="M47,454H0V415H1l1,1a8.6,8.6,0,0,0,0,3c2.72,7.13,5.61,14.17,12,19,.88,1.61,1.8,3.15,4,3,2.46,4.32,7.27,5.43,11,8,0,.17-.05.46,0,.48A63.44,63.44,0,0,0,47,453Z"/><path class="cls-1" d="M410,0h42V38h-1c-.33-.85-.68-1.7-1-2.56-1.07-2.94-1.61-6.13-4-8.44a2.46,2.46,0,0,0,0-1c-3.45-7-9-12.23-15-17-.2-.16-.64,0-1,0-.91-1.82-3.15-1.55-4.44-2.87s-3-1.53-4.45-2.25C417.54,2.18,413.62,2.23,410,1Z"/><path class="cls-1" d="M0,38V0H42V1a14.18,14.18,0,0,1-3.55,1c-3.37,0-6.36,1.54-9.58,2.13C28.15,4.21,27.62,5.33,27,6a15.87,15.87,0,0,0-7.41,3.84c-1.64,1.51-2.66,3.83-5.2,4.27-.69,2.32-2.78,3.52-4.22,5.24a30.62,30.62,0,0,0-5.35,8.76C3.53,31.39,2.54,34.81,1,38Z"/><path class="cls-2" d="M47,0H259V1H47Z"/><path class="cls-3" d="M259,1V0H405V1H259Z"/><path class="cls-4" d="M0,163V48H1V163Z"/><path class="cls-5" d="M452,48v99h-1V48Z"/><path class="cls-6" d="M452,230v91h-1V230Z"/><path class="cls-7" d="M0,324V235H1v89Z"/><path class="cls-8" d="M452,230h-1V147h1Z"/><path class="cls-9" d="M0,324H1v81H0Z"/><path class="cls-10" d="M1,235H0V163H1v72Z"/><ellipse class="cls-11" cx="80.5" cy="453.5" rx="23.33" ry="0.71"/><ellipse class="cls-12" cx="177.5" cy="453.5" rx="23.33" ry="0.71"/><ellipse class="cls-13" cx="274.5" cy="453.5" rx="23.33" ry="0.71"/><ellipse class="cls-14" cx="145" cy="453.5" rx="22.63" ry="0.71"/><ellipse class="cls-15" cx="210" cy="453.5" rx="22.63" ry="0.71"/><ellipse class="cls-16" cx="242" cy="453.5" rx="22.63" ry="0.71"/><ellipse class="cls-17" cx="113" cy="453.5" rx="22.63" ry="0.71"/><ellipse class="cls-18" cx="305.5" cy="453.5" rx="20.51" ry="0.71"/><ellipse class="cls-19" cx="55.5" cy="453.5" rx="12.02" ry="0.71"/><ellipse class="cls-20" cx="451.5" cy="41.5" rx="0.71" ry="4.95"/><path class="cls-21" d="M1,415H0v-7H1v7Z"/><ellipse class="cls-22" cx="0.5" cy="41" rx="0.71" ry="4.24"/><ellipse class="cls-23" cx="451.5" cy="327" rx="0.71" ry="4.24"/><ellipse class="cls-24" cx="407.5" cy="0.5" rx="3.54" ry="0.71"/><ellipse class="cls-25" cx="44.5" cy="0.5" rx="3.54" ry="0.71"/><ellipse class="cls-26" cx="0.5" cy="46" rx="0.71" ry="2.83"/><ellipse class="cls-27" cx="451.5" cy="46.5" rx="0.71" ry="2.12"/><path class="cls-28" d="M452,324h-1v-3h1Z"/><ellipse class="cls-29" cx="0.5" cy="406.5" rx="0.71" ry="2.12"/><path class="cls-30" d="M451,322v8c-.11,2.86-1.5,5.44-2.26,8.08s-2.56,5.28-4.17,7.7a50.86,50.86,0,0,1-6.64,7.74q-43.71,43.83-87.47,87.6c-4.38,4.4-9.8,6.57-15.28,8.94A23.74,23.74,0,0,1,324,452H310c1.41-1.91,2.45-4.4,4.32-5.61,3.63-2.36,6-5.95,9.27-8.61a12,12,0,0,1,5.86-3l6.65-8.88c2.85.43,3.87-1.18,4.93-2.92s2-4,3.58-4.89c6.11-3.27,10.22-8.82,15.58-12.94,2-1.53,3-4.69,5.08-5.69a22,22,0,0,0,9-8.23,3.29,3.29,0,0,1,1.05-1.05c3.73-2.09,7.18-4.4,8.76-8.7a4.06,4.06,0,0,1,2.08-2.08c2.71-1.12,4.19-3.58,6.28-5.35s4.52-3.67,6.62-5.68c3.61-3.45,7.1-7,10.62-10.57a140.92,140.92,0,0,1,12.15-10.35,35.56,35.56,0,0,0,6.21-5.69c2.92-3.74,6.12-7.64,10.5-9.14,1.32-1.88,2.37-3.43,3.47-4.94,1.93-2.65,5.78-2.76,7.55-5.68C449.68,321.81,450.5,322,451,322Z"/><path class="cls-31" d="M310,452h14c-.39.33-.75.88-1.18.95A17.67,17.67,0,0,1,320,453H47a63.44,63.44,0,0,1-18-3.52c-.06,0,0-.31,0-.48,1.15,0,2.79-.49,3.37.09,1.67,1.68,3.93.55,5.79,1.75,1.41.92,3.93-.06,5.64.62,2.12.84,4.15.26,6.2.54H310Z"/><path class="cls-32" d="M14,438c-6.34-4.87-9.23-11.91-11.95-19a8.6,8.6,0,0,1,0-3,7,7,0,0,0,2.17-.73c1.29-1,2.26-2.65,3.68-3.17,2.73-1,4.51-3,6.43-4.89,3.77-3.74,7.59-7.43,11.24-11.29A21,21,0,0,1,32,391.47V46h1q0,177.63,0,355.25c0,4.4-.09,8.68,3,12.28.24.29,0,1,0,1.47l1,1,1,1c.09,1.5,1.24.85,2,1-.36,2.72-1,5.61-3.53,6.87-2.78,1.39-4.85,3.62-7,5.5C25.59,433.65,21.64,437,18.48,441c-.06.08-.31,0-.48,0C17.12,439.39,16.2,437.85,14,438Z"/><path class="cls-33" d="M18,441c.17,0,.42.07.48,0,3.16-4,7.11-7.34,10.94-10.62,2.2-1.88,4.27-4.11,7-5.5C39,423.61,39.64,420.72,40,418l2.17.67c1.59.51,3,1.72,4.83,1.33.17,1.66,1.47,1,2.27,1,9.91,0,19.82,0,29.73,0a6,6,0,0,1-4.17,5.64A10,10,0,0,0,70,431a9.18,9.18,0,0,1-2.87,3.25c-3.28,1.75-5.3,4.8-8,7.11a36,36,0,0,1-4.78,4A8.07,8.07,0,0,0,50,452c-2-.28-4.08.3-6.2-.54-1.71-.68-4.23.3-5.64-.62-1.86-1.2-4.12-.07-5.79-1.75-.58-.58-2.22-.09-3.37-.09C25.27,446.43,20.46,445.32,18,441Z"/><path class="cls-33" d="M14,438c2.2-.15,3.12,1.39,4,3C15.8,441.15,14.88,439.61,14,438Z"/><path class="cls-32" d="M1,415v-1c1.5.09.85,1.24,1,2Z"/><path class="cls-34" d="M405,1h5c3.62,1.23,7.54,1.18,11.11,2.88,1.49.72,3.26,1,4.45,2.25s3.53,1,4.44,2.87l1.2,2.3a23.08,23.08,0,0,1-2.39,2.35c-2.15,1.6-4.57,2.88-6.52,4.67s-3.35,4.42-5.42,6.15c-1.68,1.4-2.83,3.23-4.47,4.59s-3.56,2.64-5.07,3.74A31.2,31.2,0,0,0,403,32c-3.82-.09-7.67.23-11.47-.1-4-.35-7.65,1.16-11.58,1.13C364.62,32.92,349.31,33,334,33c.18-1.67,1.49-1,2.29-1,7.47-.05,14.94,0,22.84,0,.65-2.85,2.69-4.49,5.13-5.86,1.1-.61,2.43-1.76,2.61-2.84.34-2,1.84-2,3-2.68a18,18,0,0,0,6.19-5.83A31.16,31.16,0,0,1,382,9c2.34-1.92,4.76-3.68,6.36-7H378V1Z"/><path class="cls-35" d="M334,33c15.31,0,30.62-.08,45.92.06,3.93,0,7.61-1.48,11.58-1.13,3.8.33,7.65,0,11.47.1a31.2,31.2,0,0,1,4.36.77c1.51-1.1,3.37-2.33,5.07-3.74s2.79-3.19,4.47-4.59c2.07-1.73,3.42-4.31,5.42-6.15s4.37-3.07,6.52-4.67a23.08,23.08,0,0,0,2.39-2.35L430,9c.33,0,.77-.14,1,0,6,4.77,11.56,10,15,17a2.46,2.46,0,0,1,0,1v3.81c-2.48,1.39-4.72,2.62-5.61,5.26a2.23,2.23,0,0,1-1,1c-4.12,2.26-6.61,6.34-10.21,9.12-3,2.31-5.5,5.33-9.15,6.76V45l-2-3c-.52-.35-1.27-.59-1.53-1.08-2.68-5.09-6.94-7-12.57-7Q225.46,34,47,34V33H334Z"/><path class="cls-36" d="M420,53c3.65-1.43,6.16-4.45,9.15-6.76,3.6-2.78,6.09-6.86,10.21-9.12a2.23,2.23,0,0,0,1-1c.89-2.64,3.13-3.87,5.61-5.26V27c2.39,2.31,2.93,5.5,4,8.44.32.86.67,1.71,1,2.56V58a7.08,7.08,0,0,0-5.89,3.61,8.52,8.52,0,0,1-2.45,2.48c-4,3.12-6.89,7.46-11.34,10.09-1.81,4.73-7,6.07-9.86,9.79-.19.24-1,0-1.46,0Z"/><path class="cls-37" d="M32,46V58a5.12,5.12,0,0,0-1.82.38A18.23,18.23,0,0,0,28,60.46c-2.68,2.66-6.07,4.6-8,8a5,5,0,0,1-2.1,2.07c-2.39,1-3.81,3-5.54,4.64C8.75,78.66,5.4,82.43,1,85V38c1.54-3.19,2.53-6.61,3.82-9.89a30.62,30.62,0,0,1,5.35-8.76c1.44-1.72,3.53-2.92,4.22-5.24,2.54-.44,3.56-2.76,5.2-4.27A15.87,15.87,0,0,1,27,6a4.29,4.29,0,0,0,1.48,0c5.3-2.24,14.34-4,17.75-4C60.49,2.06,74.74,2,89,2a16,16,0,0,1-1.79,3.22,55.16,55.16,0,0,1-6,6C79,13,77.6,15.57,75.3,17.06c-3.21,2.08-5.68,4.85-8.3,7.49A33.21,33.21,0,0,1,59.82,30c-.56.32-.82,1.17-1.34,2-3.61,0-7.41,0-11.2,0-.43,0-.85.63-1.28,1l-1,1c-1.86-.52-2.41,1.82-3.65,1.9-3.18.2-4.28,2.35-5.49,4.67-.33.63-1.23,1-1.86,1.43A4.58,4.58,0,0,0,32,46Z"/><path class="cls-38" d="M89,2c-14.26,0-28.51.06-42.77,0-3.41,0-12.45,1.78-17.75,4A4.29,4.29,0,0,1,27,6c.62-.67,1.15-1.79,1.87-1.92C32.09,3.49,35.08,2,38.45,2A14.18,14.18,0,0,0,42,1H195V2H89Z"/><path class="cls-39" d="M195,2V1H378V2H195Z"/><path class="cls-40" d="M1,85c4.4-2.57,7.75-6.34,11.35-9.83,1.73-1.67,3.15-3.68,5.54-4.64A5,5,0,0,0,20,68.46c2-3.4,5.37-5.34,8.05-8a18.23,18.23,0,0,1,2.14-2.08A5.12,5.12,0,0,1,32,58v50H29.5c-2.2,2.2-4.33,4.5-6.65,6.6s-3.49,5.28-6.55,6.63c-.42.19-1,.64-1,1C14.91,124.81,12.62,125,11,126s-3.29,1.7-4.46,3.7C5.43,131.52,4,134.07,1,134Z"/><path class="cls-41" d="M1,134c3,.07,4.43-2.48,5.49-4.3,1.17-2,2.77-2.72,4.46-3.7s4-1.19,4.33-3.74c.06-.39.6-.84,1-1,3.06-1.35,4.25-4.54,6.55-6.63s4.45-4.4,6.65-6.6H32v35H29.14c-2.5,2.88-4.73,6.52-7.91,8.85-3.95,2.89-6.58,7.23-11,9.46a3.65,3.65,0,0,0-1.06,1.05A55.41,55.41,0,0,1,2,169c-.26.14-.66,0-1,0V134Z"/><path class="cls-42" d="M451,147v24c-2.05-.73-2.6,1.55-4.09,2.1-1.7.64-3.7,1.73-4.52,3.2-1.56,2.82-4,4.61-6.11,6.85-.82.89-2.59,1.22-2.95,2.17-.8,2.16-2.67,3.14-3.39,4.14l-4.26,1.59c-1.82,2.55-2.83,4.77-5.68,4.95V157c2.23-.07,3.79-1.35,5.33-2.8a111.83,111.83,0,0,1,9-8.25,36.55,36.55,0,0,0,6.89-6.38c2.65-3.36,5.5-6.91,9.8-8.57Z"/><path class="cls-43" d="M420,84c.5,0,1.27.21,1.46,0,2.84-3.72,8.05-5.06,9.86-9.79,4.45-2.63,7.36-7,11.34-10.09a8.52,8.52,0,0,0,2.45-2.48A7.08,7.08,0,0,1,451,58V96h-2.41c-1.11,1-2,2.39-3.3,2.92a13.3,13.3,0,0,0-5.67,5.18c-2,3-5.18,4.45-7.55,6.88-1.23,1.26-3.17,2-3.9,3.5-1.61,3.19-5,4.12-7.2,6.5-.16.16-.64,0-1,0Z"/><path class="cls-44" d="M420,121c.33,0,.81.14,1,0,2.18-2.38,5.59-3.31,7.2-6.5.73-1.45,2.67-2.24,3.9-3.5,2.37-2.43,5.53-3.87,7.55-6.88a13.3,13.3,0,0,1,5.67-5.18c1.27-.53,2.19-1.9,3.3-2.92H451v35c-4.3,1.66-7.15,5.21-9.8,8.57a36.55,36.55,0,0,1-6.89,6.38,111.83,111.83,0,0,0-9,8.25c-1.54,1.45-3.1,2.73-5.33,2.8Z"/><path class="cls-45" d="M310,452H281a10.15,10.15,0,0,1,3.92-5.33c3.35-2.1,5.54-5.36,7.84-8.27,2-2.49,3.86-4.37,6.76-5.5,1.28-.5,3-1.38,3.35-2.47,1-3,2.58-4.8,5.66-5.55.83-.21,1.43-1.34,2.14-2.05,2.12-2.12,4.25-4.23,6.35-6.36a7.36,7.36,0,0,1,5-2.47v6a7.33,7.33,0,0,0,6-2l1-1,1-1,1-1,1-1,1-1,1-1,1-1,1-1,1-1,1-1,1-1,1-1,1-1,1-1,1-1,1-1,1-1,1-1,1-1,1-1,1-1,1-1,1-1,1-1,1-1,1-1,1-1,1-1,1-1,1-1,1-1,1-1,1-1,1-1,1-1,1-1,1-1,1-1,1-1,1-1,1-1,1-1,1-1,1-1,1-1,1-1,1-1,1-1,1-1,1-1,1-1,1-1,1-1,1-1,1-1,1-1,1-1,1-1,1-1,1-1,1-1,1-1,1-1,1-1,1-1,1-1,1-1,1-1,1-1,1-1,1-1,1-1,1-1,1-1,1-1,1-1,1-1,1-1,1-1,1-1,1-1,1-1,1-1,1-1,1-1,1-1,1-1c.32-2.49,3.68-3.69,2.82-7H323c.17-1.66,1.47-1,2.27-1,9.57,0,19.15,0,28.73,0h53.57l2.84-5.21c1.08-1.83,2.78-3.22,4.12-4.9a24.45,24.45,0,0,1,4.69-4.34c3.33-2.44,7-4.34,9-8.21.14-.27,1-.12,1.29-.39a53,53,0,0,0,5.45-4.67c1.51-1.62,2.7-3.57,4.36-5.08,3.25-3,6.52-5.93,9.85-8.81.42-.36,1.21-.27,1.83-.39v41c-.5,0-1.32-.19-1.45,0-1.77,2.92-5.62,3-7.55,5.68-1.1,1.51-2.15,3.06-3.47,4.94-4.38,1.5-7.58,5.4-10.5,9.14a35.56,35.56,0,0,1-6.21,5.69,140.92,140.92,0,0,0-12.15,10.35c-3.52,3.55-7,7.12-10.62,10.57-2.1,2-4.41,3.79-6.62,5.68s-3.57,4.23-6.28,5.35a4.06,4.06,0,0,0-2.08,2.08c-1.58,4.3-5,6.61-8.76,8.7a3.29,3.29,0,0,0-1.05,1.05,22,22,0,0,1-9,8.23c-2.11,1-3.09,4.16-5.08,5.69-5.36,4.12-9.47,9.67-15.58,12.94-1.61.86-2.52,3.15-3.58,4.89s-2.08,3.35-4.93,2.92l-6.65,8.88a12,12,0,0,0-5.86,3c-3.28,2.66-5.64,6.25-9.27,8.61C312.45,447.6,311.41,450.09,310,452Z"/><path class="cls-46" d="M451,281c-.62.12-1.41,0-1.83.39-3.33,2.88-6.6,5.84-9.85,8.81-1.66,1.51-2.85,3.46-4.36,5.08a53,53,0,0,1-5.45,4.67c-.33.27-1.15.12-1.29.39-2,3.87-5.67,5.77-9,8.21a24.45,24.45,0,0,0-4.69,4.34c-1.34,1.68-3,3.07-4.12,4.9L407.57,323H354c1.11-2.52,3.68-3.44,5.56-5.11,4.17-3.68,8.19-7.52,12.33-11.24.92-.83,2.75-1.28,2.95-2.17.38-1.72,1.68-2.4,2.65-3.4a22.47,22.47,0,0,1,4-3.36c1.84-1.18,4-2.77,4.64-5.72H310c.79-2.14,2.59-.93,3.79-.93q50-.13,100-.07H419V45h1V263.16c1.48-1,3.37-1.49,3.6-2.43.8-3.3,3.58-4.6,5.73-6.52a14.17,14.17,0,0,1,4.19-3.08,3.6,3.6,0,0,0,2.52-2.45,11.37,11.37,0,0,1,1.38-2.42c2.53-1.77,4.35-3,6.08-4.29,2.54-1.94,5-4,7.5-6Z"/><path class="cls-47" d="M451,236c-2.5,2-5,4-7.5,6-1.73,1.33-3.55,2.52-6.08,4.29a11.37,11.37,0,0,0-1.38,2.42,3.6,3.6,0,0,1-2.52,2.45,14.17,14.17,0,0,0-4.19,3.08c-2.15,1.92-4.93,3.22-5.73,6.52-.23.94-2.12,1.48-3.6,2.43V230c.61-.11,1.23-.2,1.84-.34,2-.47,2.57-2.66,3.93-3.49,1.74-1.07,2.82-2.63,4.34-3.79s3.28-2.49,4.82-3.86a18.71,18.71,0,0,0,2.07-2.58c.48-.63.88-1.7,1.45-1.8,2.21-.4,3.35-2.18,4.39-3.64,1.77-2.48,4.51-3.81,6.37-6.13.29-.36,1.18-.26,1.79-.37v32Z"/><path class="cls-48" d="M32,177v49H29.5a19.06,19.06,0,0,1-2.8,2.74,15.13,15.13,0,0,0-4.92,4.8,13.45,13.45,0,0,1-4.28,3.71c-2.21,1.43-3.7,4-5.5,6-.42.48-.73,1.15-1.25,1.44A42.84,42.84,0,0,0,2.45,251c-.26.24-1,0-1.45,0V203a17.07,17.07,0,0,0,3.23-1.79c3.8-3.33,7.49-6.79,11.25-10.18,2.89-2.61,5.16-5.89,8.71-7.81a5.74,5.74,0,0,0,2.72-2.81C27.76,177.75,29.86,177.46,32,177Z"/><path class="cls-49" d="M1,251c.49,0,1.19.21,1.45,0a42.84,42.84,0,0,1,8.3-6.26c.52-.29.83-1,1.25-1.44,1.8-2.06,3.29-4.59,5.5-6a13.45,13.45,0,0,0,4.28-3.71,15.13,15.13,0,0,1,4.92-4.8A19.06,19.06,0,0,0,29.5,226H32v42a9.32,9.32,0,0,0-6.61,4.31c-2.95,5.18-8.39,7.5-12.17,11.66-1.18,1.3-2.87,2.12-4,3.42A37.31,37.31,0,0,1,1,294Z"/><path class="cls-50" d="M1,294a37.31,37.31,0,0,0,8.18-6.61c1.17-1.3,2.86-2.12,4-3.42,3.78-4.16,9.22-6.48,12.17-11.66A9.32,9.32,0,0,1,32,268v32c-3.24,1.07-6.2,2.06-8.26,5.48-1.79,3-4.89,5.34-7.8,7.44s-4.71,5.38-8.12,6.85c-.55.24-.56,1.53-1.12,2C4.82,323.16,4,326,1,326V294Z"/><path class="cls-51" d="M451,204c-.61.11-1.5,0-1.79.37-1.86,2.32-4.6,3.65-6.37,6.13-1,1.46-2.18,3.24-4.39,3.64-.57.1-1,1.17-1.45,1.8a18.71,18.71,0,0,1-2.07,2.58c-1.54,1.37-3.19,2.61-4.82,3.86s-2.6,2.72-4.34,3.79c-1.36.83-1.94,3-3.93,3.49-.61.14-1.23.23-1.84.34V196c2.85-.18,3.86-2.4,5.68-4.95l4.26-1.59c.72-1,2.59-2,3.39-4.14.36-.95,2.13-1.28,2.95-2.17,2.07-2.24,4.55-4,6.11-6.85.82-1.47,2.82-2.56,4.52-3.2,1.49-.55,2-2.83,4.09-2.1Z"/><path class="cls-52" d="M2,416c-.15-.76.5-1.91-1-2V382c.33,0,.81.14,1,0,3.18-3.39,8.61-4.11,10.59-9a4.15,4.15,0,0,1,2.12-2A8.43,8.43,0,0,0,19,366.87a3.69,3.69,0,0,1,.89-.87c3.39-3,7.28-5.48,10-9.28.35-.49,1.41-.49,2.14-.72v35.47a21,21,0,0,0-6.48,4.45c-3.65,3.86-7.47,7.55-11.24,11.29-1.92,1.9-3.7,3.89-6.43,4.89-1.42.52-2.39,2.18-3.68,3.17A7,7,0,0,1,2,416Z"/><path class="cls-53" d="M1,326c3,0,3.82-2.84,5.7-4.28.56-.42.57-1.71,1.12-2,3.41-1.47,5.23-4.76,8.12-6.85s6-4.46,7.8-7.44c2.06-3.42,5-4.41,8.26-5.48v29a6.38,6.38,0,0,0-2.18.74c-2.33,2-4.19,4.49-7,6C21.65,336.44,21,338,20,339c-1.88,2-3.8,4-5.76,6-.54.54-1.75.73-1.89,1.28-.59,2.27-2.7,2.21-3.46,2.66A24.74,24.74,0,0,1,2,356c-.24.15-.66,0-1,0Z"/><path class="cls-54" d="M1,356c.33,0,.75.13,1,0a24.74,24.74,0,0,0,6.89-7.06c.76-.45,2.87-.39,3.46-2.66.14-.55,1.35-.74,1.89-1.28,2-1.94,3.88-3.93,5.76-6,1-1.06,1.66-2.59,2.85-3.25,2.79-1.55,4.65-4,7-6A6.38,6.38,0,0,1,32,329v27c-.73.23-1.79.23-2.14.72-2.67,3.8-6.56,6.27-9.95,9.28a3.69,3.69,0,0,0-.89.87,8.43,8.43,0,0,1-4.34,4.18,4.15,4.15,0,0,0-2.12,2c-2,4.86-7.41,5.58-10.59,9-.16.16-.64,0-1,0Z"/><path class="cls-55" d="M32,177c-2.14.46-4.24.75-5.09,3.41a5.74,5.74,0,0,1-2.72,2.81c-3.55,1.92-5.82,5.2-8.71,7.81-3.76,3.39-7.45,6.85-11.25,10.18A17.07,17.07,0,0,1,1,203V169c.33,0,.73.12,1,0a55.41,55.41,0,0,0,7.16-6.62,3.65,3.65,0,0,1,1.06-1.05c4.44-2.23,7.07-6.57,11-9.46,3.18-2.33,5.41-6,7.91-8.85H32Z"/><path class="cls-56" d="M322,414a7.36,7.36,0,0,0-5,2.47c-2.1,2.13-4.23,4.24-6.35,6.36-.71.71-1.31,1.84-2.14,2.05-3.08.75-4.68,2.59-5.66,5.55-.36,1.09-2.07,2-3.35,2.47-2.9,1.13-4.79,3-6.76,5.5-2.3,2.91-4.49,6.17-7.84,8.27A10.15,10.15,0,0,0,281,452H237c2-2.79,3.93-5.76,7-7.4a15.34,15.34,0,0,0,5.45-4.7c1.85-2.69,5.3-3.88,6.38-7.2a1.91,1.91,0,0,1,1-1c3.33-1.13,4.69-4.73,7.93-6.1,1.48-.63,1.9-2.61,2.33-4.56H115v-1H290V319.29c0-1.5-.05-3,.05-4.49,0-.29.62-.54.95-.8v27q0,25.14,0,50.27a.73.73,0,0,0,.18.41,2.51,2.51,0,0,0,.49.38l3.06-4c2.4-1,5.12-2.18,6.33-5.38a4.3,4.3,0,0,1,2.34-2.43c2.1-.6,3-2.39,4.47-3.63,1.26-1.07,2.18-2.65,3.57-3.43a17.39,17.39,0,0,0,6.68-6.64c.73-1.22,1.77-2.95,3.87-2.51Z"/><path class="cls-57" d="M115,421h6a5.45,5.45,0,0,1-1,3.62c-2.18,2.81-4.2,5.68-7,8-4,3.22-6.69,8-11.9,9.83-.14,0-.23.22-.35.34-2.47,2.47-5,4.9-7.37,7.43-.36.39-.26,1.2-.38,1.82H50a8.07,8.07,0,0,1,4.31-6.59,36,36,0,0,0,4.78-4c2.71-2.31,4.73-5.36,8-7.11A9.18,9.18,0,0,0,70,431a10,10,0,0,1,4.86-4.39A6,6,0,0,0,79,421Z"/><path class="cls-58" d="M224,421h43.13c-.43,1.95-.85,3.93-2.33,4.56-3.24,1.37-4.6,5-7.93,6.1a1.91,1.91,0,0,0-1,1c-1.08,3.32-4.53,4.51-6.38,7.2a15.34,15.34,0,0,1-5.45,4.7c-3.08,1.64-5,4.61-7,7.4H194a10.08,10.08,0,0,1,5.61-6,11.73,11.73,0,0,0,3.07-2.19c.87-.81,1.35-2.3,2.32-2.67,1.64-.62,1.73-2.14,2.61-3.17a14.21,14.21,0,0,1,2.83-2.81c3.1-2,6.65-3.52,7.66-7.67a2.26,2.26,0,0,1,1.38-1.37C222.22,425.42,223,423.11,224,421Z"/><path class="cls-59" d="M93,452c.12-.62,0-1.43.38-1.82,2.4-2.53,4.9-5,7.37-7.43.12-.12.21-.29.35-.34,5.21-1.79,7.89-6.61,11.9-9.83,2.83-2.28,4.85-5.15,7-8a5.45,5.45,0,0,0,1-3.62h36c0,.5.21,1.16,0,1.47-2.77,3.52-5.6,7-8.42,10.48-1.8-.09-2.45,1.51-3.43,2.5a44.12,44.12,0,0,1-5.37,5c-3.83,2.68-6.62,6.32-10,9.36-.5.44-.51,1.43-.74,2.16Z"/><path class="cls-51" d="M224,421c-1,2.11-1.78,4.42-4.52,5.08a2.26,2.26,0,0,0-1.38,1.37c-1,4.15-4.56,5.64-7.66,7.67a14.21,14.21,0,0,0-2.83,2.81c-.88,1-1,2.55-2.61,3.17-1,.37-1.45,1.86-2.32,2.67a11.73,11.73,0,0,1-3.07,2.19,10.08,10.08,0,0,0-5.61,6H159c.62-.67,1.21-1.37,1.88-2,2.47-2.34,5.81-3.62,7.58-6.86,1-1.92,2.46-4.06,4.27-5,5-2.68,8.61-6.9,12.36-10.9,1.49-1.58,3.51-3.43,2.91-6.22Z"/><path class="cls-60" d="M188,421c.6,2.79-1.42,4.64-2.91,6.22-3.75,4-7.32,8.22-12.36,10.9-1.81,1-3.22,3.11-4.27,5-1.77,3.24-5.11,4.52-7.58,6.86-.67.62-1.26,1.32-1.88,2H129c.23-.73.24-1.72.74-2.16,3.39-3,6.18-6.68,10-9.36a44.12,44.12,0,0,0,5.37-5c1-1,1.63-2.59,3.43-2.5,2.82-3.49,5.65-7,8.42-10.48.24-.31,0-1,0-1.47Z"/><path class="cls-40" d="M34,42a5.34,5.34,0,0,1-1,4H32A4.58,4.58,0,0,1,34,42Z"/><path class="cls-33" d="M38,417c.76.15,1.91-.5,2,1C39.24,417.85,38.09,418.5,38,417Z"/><path class="cls-33" d="M36,415l1,1Z"/><path class="cls-33" d="M37,416l1,1Z"/><path class="cls-59" d="M47,420h68v1H79c-9.91,0-19.82,0-29.73,0C48.47,421,47.17,421.66,47,420Z"/><path class="cls-53" d="M342,2h46.38c-1.6,3.35-4,5.11-6.36,7a31.16,31.16,0,0,0-5.93,5.76,18,18,0,0,1-6.19,5.83c-1.19.64-2.69.71-3,2.68-.18,1.08-1.51,2.23-2.61,2.84-2.44,1.37-4.48,3-5.13,5.86-7.9,0-15.37,0-22.84,0-.8,0-2.11-.7-2.29,1H290c.18-1.67,1.48-1,2.28-1,7.46-.05,14.91,0,22.31,0a6.28,6.28,0,0,1,.78-1.83c2.42-2.51,5.07-4.82,7.33-7.46s5.85-3.94,7.39-7.3c4-1.86,6.23-5.7,9.44-8.46A6.74,6.74,0,0,0,342,2Z"/><path class="cls-40" d="M89,2h52c.14,2.7-1.94,3.42-3,3.92-1.79,2.43-2.72,5-4.46,5.78-5.08,2.19-8.72,5.95-12.47,9.71-.63,3.36-1.34,4.07-5.14,4.88L111.52,32h-4.75q-18.24,0-36.48,0c-.8,0-2.11-.7-2.29,1H46c.43-.33.85-1,1.28-1,3.79-.07,7.59,0,11.2,0,.52-.79.78-1.64,1.34-2A33.21,33.21,0,0,0,67,24.55c2.62-2.64,5.09-5.41,8.3-7.49C77.6,15.57,79,13,81.23,11.18a55.16,55.16,0,0,0,6-6A16,16,0,0,0,89,2Z"/><path class="cls-61" d="M246,2h48c-.08,2.43-1.51,4.1-3.16,5.66-6.08,5.74-12.15,11.51-18.25,17.23-1.75,1.65-3.16,3.67-5.53,4.66-.71.29-1,1.48-1.66,2.45-7.56,0-15.34,0-23.12,0-.8,0-2.11-.7-2.28,1H190c.18-1.67,1.48-1,2.28-1,8.12-.05,16.24,0,24.29,0A11,11,0,0,1,221,27c1.31-.94,2.91-1.87,3.6-3.21,2.91-5.6,9.09-7.78,12.7-12.58,2.27.14,2.13-2.45,3.59-3.18A10.76,10.76,0,0,0,246,2Z"/><path class="cls-50" d="M240,33c.17-1.67,1.48-1,2.28-1,7.78-.05,15.56,0,23.12,0,.62-1,1-2.16,1.66-2.45,2.37-1,3.78-3,5.53-4.66,6.1-5.72,12.17-11.49,18.25-17.23C292.49,6.1,293.92,4.43,294,2h48a6.74,6.74,0,0,1-2.47,5c-3.21,2.76-5.44,6.6-9.44,8.46-1.54,3.36-5.11,4.66-7.39,7.3s-4.91,4.95-7.33,7.46a6.28,6.28,0,0,0-.78,1.83c-7.4,0-14.85,0-22.31,0-.8,0-2.1-.7-2.28,1Z"/><path class="cls-62" d="M68,33c.18-1.67,1.49-1,2.29-1q18.24-.06,36.48,0h4.75L116,26.29c3.8-.81,4.51-1.52,5.14-4.88,3.75-3.76,7.39-7.52,12.47-9.71,1.74-.75,2.67-3.35,4.46-5.78,1-.5,3.11-1.22,3-3.92h40c.12,2.43-1.63,3.12-3.41,4.06A22,22,0,0,0,173,9.51c-2.31,2.14-4.82,4.2-6.63,6.74a17.25,17.25,0,0,1-6.65,5.54A3.88,3.88,0,0,0,158,23.54a10.6,10.6,0,0,1-5.61,5.6A2.4,2.4,0,0,0,151,32c-6.75,0-13.49,0-20.24,0-.72,0-1.75-.36-1.76,1Z"/><path class="cls-63" d="M129,33c0-1.35,1-1,1.76-1,6.75,0,13.49,0,20.24,0h32.74c.2-.77.22-1.56.45-1.62,2.21-.61,3.36-2.51,4.85-3.95,3.7-3.6,7-7.66,11-10.83A74.17,74.17,0,0,0,214,2h32a10.76,10.76,0,0,1-5.1,6c-1.46.73-1.32,3.32-3.59,3.18-3.61,4.8-9.79,7-12.7,12.58-.69,1.34-2.29,2.27-3.6,3.21a11,11,0,0,0-4.44,5c-8,0-16.17,0-24.29,0-.8,0-2.1-.7-2.28,1Z"/><path class="cls-36" d="M419,45c-1.93-.47-.62-2-1-3l2,3Z"/><path class="cls-34" d="M46,33h1v1H45Z"/><path class="cls-64" d="M214,2a74.17,74.17,0,0,1-13.93,13.6c-4,3.17-7.33,7.23-11,10.83-1.49,1.44-2.64,3.34-4.85,3.95-.23.06-.25.85-.45,1.62H151a2.4,2.4,0,0,1,1.43-2.86,10.6,10.6,0,0,0,5.61-5.6,3.88,3.88,0,0,1,1.72-1.75,17.25,17.25,0,0,0,6.65-5.54c1.81-2.54,4.32-4.6,6.63-6.74a22,22,0,0,1,4.55-3.45c1.78-.94,3.53-1.63,3.41-4.06h33Z"/><path class="cls-65" d="M322,364c-2.1-.44-3.14,1.29-3.87,2.51a17.39,17.39,0,0,1-6.68,6.64c-1.39.78-2.31,2.36-3.57,3.43-1.45,1.24-2.37,3-4.47,3.63a4.3,4.3,0,0,0-2.34,2.43c-1.21,3.2-3.93,4.36-6.33,5.38l-3.06,4a2.51,2.51,0,0,1-.49-.38.73.73,0,0,1-.18-.41q0-25.14,0-50.27c6.11-3.46,10.67-8.78,15.81-13.37,5.64-5,11.05-10.32,16.56-15.5a5.14,5.14,0,0,1,.71-.69c5.56-3.41,9.53-8.56,13.91-13.19,1.85-2,3.39-3.92,6-4.59V292h42.17c-.69,2.95-2.8,4.54-4.64,5.72a22.47,22.47,0,0,0-4,3.36c-1,1-2.27,1.68-2.65,3.4-.2.89-2,1.34-2.95,2.17-4.14,3.72-8.16,7.56-12.33,11.24-1.88,1.67-4.45,2.59-5.56,5.11-9.58,0-19.16,0-28.73,0-.8,0-2.1-.69-2.27,1-1.34,0-1,1-1,1.75,0,5.08,0,10.17,0,15.25Z"/><path class="cls-30" d="M322,364V341h1v77.64l3-.64h2a7.33,7.33,0,0,1-6,2V364Z"/><path class="cls-30" d="M388,358l1-1Z"/><path class="cls-30" d="M387,359l1-1Z"/><path class="cls-30" d="M386,360l1-1Z"/><path class="cls-30" d="M385,361l1-1Z"/><path class="cls-30" d="M384,362l1-1Z"/><path class="cls-30" d="M383,363l1-1Z"/><path class="cls-30" d="M382,364l1-1Z"/><path class="cls-30" d="M414,332l1-1Z"/><path class="cls-30" d="M381,365l1-1Z"/><path class="cls-30" d="M380,366l1-1Z"/><path class="cls-30" d="M379,367l1-1Z"/><path class="cls-30" d="M378,368l1-1Z"/><path class="cls-30" d="M377,369l1-1Z"/><path class="cls-30" d="M376,370l1-1Z"/><path class="cls-30" d="M375,371l1-1Z"/><path class="cls-30" d="M374,372l1-1Z"/><path class="cls-30" d="M373,373l1-1Z"/><path class="cls-30" d="M372,374l1-1Z"/><path class="cls-30" d="M371,375l1-1Z"/><path class="cls-30" d="M370,376l1-1Z"/><path class="cls-30" d="M369,377l1-1Z"/><path class="cls-30" d="M368,378l1-1Z"/><path class="cls-30" d="M367,379l1-1Z"/><path class="cls-30" d="M366,380l1-1Z"/><path class="cls-30" d="M365,381l1-1Z"/><path class="cls-30" d="M364,382l1-1Z"/><path class="cls-30" d="M363,383l1-1Z"/><path class="cls-30" d="M362,384l1-1Z"/><path class="cls-30" d="M361,385l1-1Z"/><path class="cls-30" d="M360,386l1-1Z"/><path class="cls-30" d="M359,387l1-1Z"/><path class="cls-30" d="M358,388l1-1Z"/><path class="cls-30" d="M357,389l1-1Z"/><path class="cls-30" d="M356,390l1-1Z"/><path class="cls-30" d="M355,391l1-1Z"/><path class="cls-30" d="M354,392l1-1Z"/><path class="cls-30" d="M353,393l1-1Z"/><path class="cls-30" d="M352,394l1-1Z"/><path class="cls-30" d="M351,395l1-1Z"/><path class="cls-30" d="M350,396l1-1Z"/><path class="cls-30" d="M349,397l1-1Z"/><path class="cls-30" d="M348,398l1-1Z"/><path class="cls-30" d="M347,399l1-1Z"/><path class="cls-30" d="M346,400l1-1Z"/><path class="cls-30" d="M345,401l1-1Z"/><path class="cls-30" d="M344,402l1-1Z"/><path class="cls-30" d="M413,333l1-1Z"/><path class="cls-30" d="M342,404l1-1Z"/><path class="cls-30" d="M341,405l1-1Z"/><path class="cls-30" d="M412,334l1-1Z"/><path class="cls-30" d="M340,406l1-1Z"/><path class="cls-30" d="M339,407l1-1Z"/><path class="cls-30" d="M338,408l1-1Z"/><path class="cls-30" d="M411,335l1-1Z"/><path class="cls-30" d="M337,409l1-1Z"/><path class="cls-30" d="M336,410l1-1Z"/><path class="cls-30" d="M335,411l1-1Z"/><path class="cls-30" d="M334,412l1-1Z"/><path class="cls-30" d="M333,413l1-1Z"/><path class="cls-30" d="M332,414l1-1Z"/><path class="cls-30" d="M410,336l1-1Z"/><path class="cls-30" d="M331,415l1-1Z"/><path class="cls-30" d="M409,337l1-1Z"/><path class="cls-30" d="M330,416l1-1Z"/><path class="cls-30" d="M408,338l1-1Z"/><path class="cls-30" d="M343,403l1-1Z"/><path class="cls-30" d="M407,339l1-1Z"/><path class="cls-30" d="M329,417l-1,1Z"/><path class="cls-30" d="M406,340l1-1Z"/><path class="cls-30" d="M405,341l1-1Z"/><path class="cls-30" d="M404,342l1-1Z"/><path class="cls-30" d="M403,343l1-1Z"/><path class="cls-30" d="M402,344l1-1Z"/><path class="cls-30" d="M401,345l1-1Z"/><path class="cls-30" d="M400,346l1-1Z"/><path class="cls-30" d="M399,347l1-1Z"/><path class="cls-30" d="M398,348l1-1Z"/><path class="cls-30" d="M397,349l1-1Z"/><path class="cls-30" d="M396,350l1-1Z"/><path class="cls-30" d="M395,351l1-1Z"/><path class="cls-30" d="M394,352l1-1Z"/><path class="cls-30" d="M393,353l1-1Z"/><path class="cls-30" d="M392,354l1-1Z"/><path class="cls-30" d="M391,355l1-1Z"/><path class="cls-30" d="M390,356l1-1Z"/><path class="cls-30" d="M389,357l1-1Z"/><path class="cls-30" d="M329,416h1l-1,1Z"/><path class="cls-66" d="M344,292v1.66c-2.62.67-4.16,2.63-6,4.59-4.38,4.63-8.35,9.78-13.91,13.19a5.14,5.14,0,0,0-.71.69c-5.51,5.18-10.92,10.46-16.56,15.5-5.14,4.59-9.7,9.91-15.81,13.37V314a19.42,19.42,0,0,1,2.94-11.67c2.27-3.9,5.66-6.57,9.27-8.85A9.81,9.81,0,0,1,310,292Z"/><path class="cls-56" d="M323,341h-1c0-5.08,0-10.17,0-15.25,0-.72-.35-1.74,1-1.75Z"/><path class="cls-67" d="M329,416v1l-1,1h-2A2.46,2.46,0,0,1,329,416Z"/></g></g></svg>