<svg xmlns="http://www.w3.org/2000/svg" viewBox="0 0 452 452.12"><defs><style>.cls-1{fill:#fefefd;}.cls-2{fill:#c4b041;}.cls-3{fill:#d7c041;}.cls-4{fill:#d9c241;}.cls-5{fill:#cfb941;}.cls-6{fill:#cbb641;}.cls-7{fill:#e5cc41;}.cls-8{fill:#efebd4;}.cls-9{fill:#c2af41;}.cls-10{fill:#e8e2c2;}.cls-11{fill:#e2c941;}.cls-12{fill:#edd241;}.cls-13{fill:#eae5c7;}.cls-14{fill:#f6eec0;}.cls-15{fill:#faf1bf;}.cls-16{fill:#ede7cb;}.cls-17{fill:#ebe5c6;}.cls-18{fill:#ecda78;}.cls-19{fill:#d8cd8f;}.cls-20{fill:#f6e488;}.cls-21{fill:#cabb65;}.cls-22{fill:#dcd39b;}.cls-23{fill:#f0cb00;}.cls-24{fill:#efc900;}.cls-25{fill:#ecc700;}.cls-26{fill:#ecc800;}.cls-27{fill:#e4c100;}.cls-28{fill:#eac600;}.cls-29{fill:#dfbd00;}.cls-30{fill:#a68d00;}.cls-31{fill:#a38b00;}.cls-32{fill:#a28a00;}.cls-33{fill:#c5b661;}.cls-34{fill:#f6f4e9;}.cls-35{fill:#b49a0c;}.cls-36{fill:#af9500;}.cls-37{fill:#ac9200;}.cls-38{fill:#b69b00;}.cls-39{fill:#b99d00;}.cls-40{fill:#ceae00;}.cls-41{fill:#d6b500;}.cls-42{fill:#d2b100;}.cls-43{fill:#c2a60c;}.cls-44{fill:#d0b000;}.cls-45{fill:#dfbe0c;}.cls-46{fill:#c8ab0c;}.cls-47{fill:#bfa200;}.cls-48{fill:#efebd5;}.cls-49{fill:#dbb900;}.cls-50{fill:#e7c300;}.cls-51{fill:#e1be00;}.cls-52{fill:#e2be00;}.cls-53{fill:#e5c100;}.cls-54{fill:#e6c200;}.cls-55{fill:#e8c400;}.cls-56{fill:#e9c500;}.cls-57{fill:#dcba00;}.cls-58{fill:#b39800;}.cls-59{fill:#c0a200;}.cls-60{fill:#c9aa00;}.cls-61{fill:#c4a600;}.cls-62{fill:#d8b600;}.cls-63{fill:#debc00;}.cls-64{fill:#c6a700;}.cls-65{fill:#b49800;}.cls-66{fill:#d9b700;}.cls-67{fill:#c6a800;}.cls-68{fill:#caab00;}.cls-69{fill:#af9400;}.cls-70{fill:#ba9e00;}.cls-71{fill:#c2a400;}.cls-72{fill:#b69a00;}.cls-73{fill:#bea100;}.cls-74{fill:#e6ddac;}</style></defs><g id="Layer_2" data-name="Layer 2"><g id="Layer_1-2" data-name="Layer 1"><path class="cls-1" d="M47,452.12H0V412.21H2c-.74,2.61,1.38,4.36,2.09,6.51A26.26,26.26,0,0,0,9,428.18l1,1,1,1,1,1a2.45,2.45,0,0,0,2,3l1,1c.09,1.49,1.24.85,2,1l1,1,1,1c.88,1.61,1.8,3.15,4,3,.09,1.49,1.24.85,2,1,.09,1.49,1.24.84,2,1,1,2.95,4.06,1.89,6,3h2c.09,1.49,1.24.84,2,1,.41.34.8.93,1.22,1,1.92.1,3.85,0,5.78,0,.47,1.93,2,.62,3,1v3Z"/><path class="cls-1" d="M452,412.21v39.91H406c-.33-1-.67-2-1-3,1-.38,2.53.93,3-1a37,37,0,0,0,3.8,0c.43,0,.8-.62,1.2-1h2c.76-.15,1.91.5,2-1h1c4-.32,6.76-1.54,9-4,.76-.15,1.91.49,2-1,.76-.15,1.91.49,2-1,.33-.33.67-.66,1-1s.67-.66,1-1a2.46,2.46,0,0,0,3-2l1-1a2.45,2.45,0,0,0,2-3l1-1,1-1,1-1,1-1a34.79,34.79,0,0,0,6-13c1.5-.09.85-1.24,1-2Z"/><path class="cls-2" d="M0,403.23v-88.8H1v88.8Z"/><path class="cls-3" d="M452,185.71v76.83h-1V185.71Z"/><path class="cls-4" d="M0,241.59V167.75H1v73.84Z"/><path class="cls-5" d="M0,241.59H1v72.84H0Z"/><path class="cls-6" d="M451,262.54h1v72.84h-1V262.54Z"/><ellipse class="cls-7" cx="0.5" cy="132.33" rx="0.71" ry="50.09"/><ellipse class="cls-8" cx="307.5" cy="451.13" rx="24.75" ry="1.41"/><ellipse class="cls-8" cx="372.5" cy="451.13" rx="24.75" ry="1.41"/><ellipse class="cls-8" cx="112.5" cy="451.13" rx="24.75" ry="1.41"/><ellipse class="cls-8" cx="177" cy="451.13" rx="24.04" ry="1.41"/><ellipse class="cls-8" cx="242" cy="451.13" rx="24.04" ry="1.41"/><ellipse class="cls-9" cx="451.5" cy="368.81" rx="0.71" ry="47.27"/><ellipse class="cls-10" cx="79.5" cy="451.13" rx="21.92" ry="1.41"/><path class="cls-10" d="M225,450.13v2H194v-2h31Z"/><path class="cls-10" d="M259,452.12v-2h31v2Z"/><ellipse class="cls-10" cx="145" cy="451.13" rx="21.21" ry="1.41"/><ellipse class="cls-10" cx="340" cy="451.13" rx="21.21" ry="1.41"/><path class="cls-11" d="M452,185.71h-1V129.84h1Z"/><path class="cls-12" d="M1,96.91H0V45H1V96.91Z"/><path class="cls-13" d="M390,452.12v-3h15c.33,1,.67,2,1,3Z"/><ellipse class="cls-8" cx="55.5" cy="451.13" rx="12.02" ry="1.41"/><path class="cls-14" d="M450,118.86l2,1v7h-1a30.44,30.44,0,0,0,0-3.94A35.38,35.38,0,0,0,450,118.86Z"/><path class="cls-15" d="M0,35l2-1v2c-.33.4-.92.79-.95,1.21C.93,38.84,1,40.44,1,42H0Z"/><path class="cls-16" d="M452,412.21l-2,1v-2c.33-.39.91-.77.95-1.19a36.87,36.87,0,0,0,.05-3.79h1Z"/><ellipse class="cls-17" cx="0.5" cy="409.22" rx="0.71" ry="4.23"/><ellipse class="cls-18" cx="451.5" cy="128.34" rx="0.71" ry="2.12"/><ellipse class="cls-19" cx="0.5" cy="404.73" rx="0.71" ry="2.12"/><ellipse class="cls-20" cx="0.5" cy="43.53" rx="0.71" ry="2.12"/><ellipse class="cls-21" cx="451.5" cy="403.23" rx="0.71" ry="1.41"/><ellipse class="cls-22" cx="451.5" cy="405.23" rx="0.71" ry="1.41"/><path class="cls-23" d="M9,20.08c0-.33-.14-.8,0-1,2.48-2.62,3.56-6.48,7.26-8a6,6,0,0,0,1.84-1.59C22.86,4.23,29.58,2.72,35.75.17c.85-.35,2-.05,3-.05h289.8c2.88,0,7.61,1.61,10.52,3.54.14.09.22.29.36.34,4.54,1.66,8.21,4.46,11.9,7.61a77.54,77.54,0,0,1,9.7,9.47c-2.44.52-2.86-2.3-4.16-2.67-2.35,1.3-5-.14-6.78,1.65-.16.16-.65.06-1,0s-.73-.1-.86-.3c-.72-1.09-1.8-.66-2.73-.67-2.83-.05-5.67.11-8.49-.06s-5.57.76-8.2-.65c-2.57,1.17-5.3.53-7.95.69-.82.05-2-.27-2.4.16-2.08,2.45-3.82-.71-5.78-.2a53.73,53.73,0,0,1-6.07,1c-.22,0-.46-.43-.74-.59-1.79-1-3.37-.32-4.73.51-1.21-.33-2.27-.53-3.27-.91-1.78-.68-3.35.79-5.26.27a21,21,0,0,0-6.4-.21,19.48,19.48,0,0,0-3.65.91,5,5,0,0,0-6.13,0c-1.28-1.37-2.81-1.17-4.37-.47a11.27,11.27,0,0,1-7.65.23,14.44,14.44,0,0,0-3.69-.64,23.73,23.73,0,0,0-8.12.86c-3.3,1.13-6.65-1-10-.87-8.19.4-16.46-1.11-24.56,1-2.22.58-4-1.15-6.08-1-4.36.35-8.82-1-13.1.91a3.6,3.6,0,0,1-2.93,0c-2.29-1.49-4.74-.81-7.12-.9-2.83-.11-5.67.06-8.49-.07a19.14,19.14,0,0,1-3.68-.9c-.43.28-1,.87-1.49.89-2.16.12-4.34-.08-6.49.09s-4.39.88-6.58.89a32.8,32.8,0,0,1-8.14-.69c-2.57-.63-5.87-1.34-8.52.76-2.88-.38-5.75-.06-8.7-.56-4.43-.75-9.13-.36-13.66.12A49.79,49.79,0,0,1,109,19.56a33.71,33.71,0,0,0-13,.08c-1.09.24-2.66.82-3.23.34-1.67-1.41-3.45-.85-5.17-.87-4.71-.05-9.39.38-14.09.78-7.93.68-16,.19-24,.19a9.33,9.33,0,0,1-2,0c-5.39-1.19-5.38-1.18-11.18,0a3.64,3.64,0,0,1-2.45,0c-2.1-1.51-4.41-.9-6.62-.89-2.38,0-4.77-.47-7.15.82-1,.55-2.79-.14-4.17-.49C13.51,18.86,11.2,18.67,9,20.08Z"/><path class="cls-24" d="M9,20.08c2.2-1.41,4.51-1.22,6.92-.62,1.38.35,3.16,1,4.17.49,2.38-1.29,4.77-.81,7.15-.82,2.21,0,4.52-.62,6.62.89a3.64,3.64,0,0,0,2.45,0c5.8-1.19,5.79-1.2,11.18,0a9.33,9.33,0,0,0,2,0c8,0,16,.49,24-.19,4.7-.4,9.38-.83,14.09-.78,1.72,0,3.5-.54,5.17.87.57.48,2.14-.1,3.23-.34a33.71,33.71,0,0,1,13-.08,49.79,49.79,0,0,0,14.06.08c4.53-.48,9.23-.87,13.66-.12,2.95.5,5.82.18,8.7.56,2.65-2.1,6-1.39,8.52-.76a32.8,32.8,0,0,0,8.14.69c2.19,0,4.37-.72,6.58-.89s4.33,0,6.49-.09c.54,0,1.06-.61,1.49-.89a19.14,19.14,0,0,0,3.68.9c2.82.13,5.66,0,8.49.07,2.38.09,4.83-.59,7.12.9a3.6,3.6,0,0,0,2.93,0c4.28-1.91,8.74-.56,13.1-.91,2.07-.17,3.86,1.56,6.08,1,8.1-2.1,16.37-.59,24.56-1,3.38-.16,6.73,2,10,.87a23.73,23.73,0,0,1,8.12-.86,14.44,14.44,0,0,1,3.69.64,11.27,11.27,0,0,0,7.65-.23c1.56-.7,3.09-.9,4.37.47a5,5,0,0,1,6.13,0,19.48,19.48,0,0,1,3.65-.91,21,21,0,0,1,6.4.21c1.91.52,3.48-.95,5.26-.27,1,.38,2.06.58,3.27.91,1.36-.83,2.94-1.52,4.73-.51.28.16.52.62.74.59a53.73,53.73,0,0,0,6.07-1c2-.51,3.7,2.65,5.78.2.36-.43,1.58-.11,2.4-.16,2.65-.16,5.38.48,7.95-.69,2.63,1.41,5.47.49,8.2.65s5.66,0,8.49.06c.93,0,2-.42,2.73.67.13.2.56.25.86.3s.81.15,1,0c1.76-1.79,4.43-.35,6.78-1.65,1.3.37,1.72,3.19,4.16,2.67l13,13c-2.44.52-2.86-2.31-4.4-2.74-3.05,1.44-6.05.56-8.94.71a57.81,57.81,0,0,1-9.49-.05c-3-.37-5.9,2-8.53.92a10.56,10.56,0,0,0-8.34,0,30.46,30.46,0,0,0-4-.81c-6.06-.4-12.07.78-18.08.84-8.69.08-17.35-1.33-26.08-.88a34.62,34.62,0,0,1-5,0,11.14,11.14,0,0,1-2.5-.61L266.45,33c-1.08-1.58-2.72-.9-4.11-.91-7.33-.06-14.66-.09-22,0-2,0-4.13-.55-6.16.85a4.2,4.2,0,0,1-3.79-.16c-1.91-1.27-3.84-.59-5.72-.67a24.88,24.88,0,0,1-5.89-.74,22.82,22.82,0,0,0-2.94-.49c-.36.65-.86,1.53-1.42,2.52-3.24-.47-6.24-1.25-9.26-1.29-11.16-.15-22.32-.09-33.49,0a22.66,22.66,0,0,0-4.22.84c-.11-.09-.34-.46-.6-.49-4.36-.45-8.7-.91-13.07.24-1.86.49-4.22,1-5.79.22-2.76-1.28-5.44-.67-8.15-.82s-5.33.06-8-.07a10.45,10.45,0,0,1-2.74-.84c-1.18.36-2.07.57-2.93.89s-1.68.75-1.94.87c-1.46-.4-2.37-.91-3.23-.83-4.69.42-9.47-1.06-14.13.85-.9.37-2.5-.32-3.5-1-1.43-.9-2.13,1.17-3.84.36-2.35-1.12-5.43.27-8-1.26a1.39,1.39,0,0,0-1.32.28c-.76,1.05-1.8.66-2.74.67-4.16,0-8.33.07-12.49,0a4.84,4.84,0,0,1-2-.57L59.41,32.66a15.8,15.8,0,0,0-9.49,0c-.6.18-1.44.61-1.79.38-2.29-1.6-4.46-.84-6.71,0-.58.22-1.64.27-1.91-.06-1.21-1.48-2.8-.59-4.16-.92s-2.57,1.17-4.25.15c-1.09-.67-2.92-.16-4.42-.1-.26,0-.5.37-.76.55-1.08.71-1.94.42-3.1-.14a11,11,0,0,0-5.39-1.32c-2.76.24-5.45,1.22-8.33,1.92L4.72,30.88,3,33.05a7.89,7.89,0,0,1,2-6C7.72,25.52,8.09,22.65,9,20.08Z"/><path class="cls-25" d="M1,45V42c0-1.59-.07-3.19.05-4.78,0-.42.62-.81,1-1.21v3.83c3.34.56,6.55-.69,9.3,1.28.45-.42.81-1,1.17-1q13.47-.11,27,0c.36,0,.72.61,1.09.93.11-.11.22-.23.35-.34s.48-.61.73-.61q15.24,0,30.48,0c1.28,0,2.64-.26,3.59,1,.06.08.32,0-.09,0a13.74,13.74,0,0,1,3.16-1c6.33-.07,12.66,0,19,0,.64,0,1.5-.15,1.89.19,1.77,1.52,4,1.13,5.65.66,3-.87,6.06-.72,9.11-.9,1.38-.08,2.74-.92,4.08-.86,1.15,0,2.26.88,3.45,1.4l.44,1.65L124.5,40h1.8c4,0,8-.12,12,0s8.17-.83,12.08,1c.28.12.81.16,1,0,1.65-1.72,3.74-.93,5.61-.94,13.15-.07,26.31,0,39.47,0,7.32,0,14.65,0,22,0a21.28,21.28,0,0,1,3.37.56c.79-1.12,2.39-.57,3.79-.57,19.49,0,39,0,58.46,0,3,0,6.15-.72,9.11.89.67.36,1.85-.18,2.79-.35a16.65,16.65,0,0,1,2.76-.55c4-.06,8-.1,12,0a10.82,10.82,0,0,1,2.87.68,30.64,30.64,0,0,1,4.3-.7q20.73-.06,41.47,0a22.91,22.91,0,0,1,4.2.83c1.31-1.51,3.24-.76,5-.84,2.87-.15,5.85.52,8.55-1.5-.86-1.05-2.48-1.74-2-3.52,3.21,3,6.5,6,9.62,9.14,4.53,4.54,8.93,9.2,13.38,13.81a2.76,2.76,0,0,1-2.58-1c-3.23-3.34-6.56-6.59-9.92-9.94-13.9,0-27.86,0-41.82,0a18,18,0,0,0-3.79.75c-1.93-.64-3.88-2-5.4-1.6a27,27,0,0,1-6.15.81L327,49c-2-1.13-4-1.88-6,.54V56c-1.59.36-2.53-1.1-3.89-1.39-.91-.2-2-.84-2.69-.53a8.39,8.39,0,0,1-7.68,0c-.4-.2-1.15.34-1.75.45-3.8.73-7.59,1.12-10.36-.09-2.59.26-4.64,1.11-5.91.46-3.53-1.82-7-.22-10.72-1V76c0,6.07,0,12.14,0,18.21,0,.71.36,1.74-1,1.75V44.52l-1.43-1.42H144.62L143,44.46v83.38l-1-1V75c.77-6.9-1.34-13.66-1-20.54.07-1.44,0-2.89,0-4.26-2.53-.15-5.06.4-6.67-.57-2.54-1.54-4.26.51-6.37.45-3.33-.1-6.68.11-10-.07s-6.83.85-10.12-.89a3.21,3.21,0,0,0-2.9,0c-1.8,1.62-4.13.34-5.94,1.26V89.92c0,5.74,0,11.47,0,17.21,0,.72.36,1.74-1,1.75V45.59L95.43,43H53.1a4.63,4.63,0,0,0-1.49,0c-1.85.66-3.81.86-4.71,3.29S45,50.92,45,53.53Q45,77.71,45,101.9c-1.34,0-1-1-1-1.75,0-4.4,0-8.81,0-13.22V57.56c-1.89-.61-3.35-1.4-4.84-1.47s-3,.71-4.58.85a12.43,12.43,0,0,1-2.73-.57c-1.11-.18-2.75-.77-3.25-.27-1.49,1.47-3.13.73-4.68.87-3.07.28-6.08-.65-9.08-.81-4.26-.23-8.58.66-12.84,1.06V69H1Z"/><path class="cls-26" d="M375,35c-.47,1.78,1.15,2.47,2,3.52-2.7,2-5.68,1.35-8.55,1.5-1.72.08-3.65-.67-5,.84a22.91,22.91,0,0,0-4.2-.83q-20.74-.09-41.47,0a30.64,30.64,0,0,0-4.3.7,10.82,10.82,0,0,0-2.87-.68c-4-.12-8-.08-12,0a16.65,16.65,0,0,0-2.76.55c-.94.17-2.12.71-2.79.35-3-1.61-6.08-.87-9.11-.89-19.49-.07-39,0-58.46,0-1.4,0-3-.55-3.79.57a21.28,21.28,0,0,0-3.37-.56c-7.33-.05-14.66,0-22,0-13.16,0-26.32,0-39.47,0-1.87,0-4-.78-5.61.94-.16.17-.69.13-1,0-3.91-1.78-8.05-.8-12.08-1s-8,0-12,0h-1.8l-2.15,2.15-.44-1.65c-1.19-.52-2.3-1.35-3.45-1.4-1.34-.06-2.7.78-4.08.86-3,.18-6.06,0-9.11.9-1.65.47-3.88.86-5.65-.66-.39-.34-1.25-.19-1.89-.19-6.33,0-12.66,0-19,0a13.74,13.74,0,0,0-3.16,1c.41,0,.15.07.09,0-1-1.24-2.31-1-3.59-1q-15.24,0-30.48,0c-.25,0-.49.39-.73.61s-.24.23-.35.34c-.37-.32-.73-.93-1.09-.93q-13.48-.07-27,0c-.36,0-.72.62-1.17,1-2.75-2-6-.72-9.3-1.28V36c1.93-.47.62-2,1-3l1.72-2.17L9.1,33.09c2.88-.7,5.57-1.68,8.33-1.92a11,11,0,0,1,5.39,1.32c1.16.56,2,.85,3.1.14.26-.18.5-.54.76-.55,1.5-.06,3.33-.57,4.42.1,1.68,1,2.83-.51,4.25-.15s2.95-.56,4.16.92c.27.33,1.33.28,1.91.06,2.25-.85,4.42-1.61,6.71,0,.35.23,1.19-.2,1.79-.38a15.8,15.8,0,0,1,9.49,0L73,31.44A4.84,4.84,0,0,0,75,32c4.16.1,8.33.06,12.49,0,.94,0,2,.38,2.74-.67a1.39,1.39,0,0,1,1.32-.28c2.55,1.53,5.63.14,8,1.26,1.71.81,2.41-1.26,3.84-.36,1,.64,2.6,1.33,3.5,1,4.66-1.91,9.44-.43,14.13-.85.86-.08,1.77.43,3.23.83.26-.12,1.08-.54,1.94-.87s1.75-.53,2.93-.89a10.45,10.45,0,0,0,2.74.84c2.66.13,5.33-.07,8,.07s5.39-.46,8.15.82c1.57.73,3.93.27,5.79-.22,4.37-1.15,8.71-.69,13.07-.24.26,0,.49.4.6.49a22.66,22.66,0,0,1,4.22-.84c11.17-.07,22.33-.13,33.49,0,3,0,6,.82,9.26,1.29.56-1,1.06-1.87,1.42-2.52a22.82,22.82,0,0,1,2.94.49,24.88,24.88,0,0,0,5.89.74c1.88.08,3.81-.6,5.72.67a4.2,4.2,0,0,0,3.79.16c2-1.4,4.11-.83,6.16-.85,7.33-.1,14.66-.07,22,0,1.39,0,3-.67,4.11.91l12.23-1.59a11.14,11.14,0,0,0,2.5.61,34.62,34.62,0,0,0,5,0c8.73-.45,17.39,1,26.08.88,6-.06,12-1.24,18.08-.84a30.46,30.46,0,0,1,4,.81,10.56,10.56,0,0,1,8.34,0c2.63,1,5.5-1.29,8.53-.92a57.81,57.81,0,0,0,9.49.05c2.89-.15,5.89.73,8.94-.71,1.54.43,2,3.26,4.4,2.74Z"/><path class="cls-27" d="M411,71c1.22,1,2.52,2,3.66,3.17,7,6.9,13.86,13.85,20.83,20.73a13.84,13.84,0,0,1,3.51,5c-1.56.87-3.11,1.64-4.92.61a4,4,0,0,0-1.74-.58c-2.17-.07-4.33,0-6.5,0-2,0-4,0-6,0-2.15,0-4.44-.38-6.42.21s-3.82-.9-5.74-.22a10,10,0,0,1-3.08.93c-1,0-2.05-.85-3.09-.88-4-.12-8.09-.59-11.95.13-2.73.51-5.14.82-7.86-.5L380,101.9a22.63,22.63,0,0,1-2.23-1.75Q366.91,89.36,356.1,78.53A31.06,31.06,0,0,1,354,76l-1-1-1-1-1-1-1-1c0-1.36,1.06-1,1.78-1,6.47,0,12.94,0,19.41,0a16.73,16.73,0,0,0,4.19-.59,15.4,15.4,0,0,1,8.22,0c2.46.76,4.72.53,7.08.47.36,0,.8-.61,1.05-.52,4.47,1.66,9.1.34,13.63.66a5.87,5.87,0,0,0,2.48-.79Z"/><path class="cls-28" d="M411,71l-3.16-.86a5.87,5.87,0,0,1-2.48.79c-4.53-.32-9.16,1-13.63-.66-.25-.09-.69.51-1.05.52-2.36.06-4.62.29-7.08-.47a15.4,15.4,0,0,0-8.22,0,16.73,16.73,0,0,1-4.19.59c-6.47.08-12.94,0-19.41,0-.72,0-1.77-.38-1.78,1-3.07-2.89-6.21-5.72-9.19-8.7C337.14,59.58,333.6,55.76,330,52l-1-1-1-1c-.33-.33-.67-.66-1-1l1.34-2a27,27,0,0,0,6.15-.81c1.52-.38,3.47,1,5.4,1.6a18,18,0,0,1,3.79-.75c14-.07,27.92,0,41.82,0,3.36,3.35,6.69,6.6,9.92,9.94A2.76,2.76,0,0,0,398,58Z"/><path class="cls-29" d="M380,101.9l1.71-2.32c2.72,1.32,5.13,1,7.86.5,3.86-.72,8-.25,11.95-.13,1,0,2.06.88,3.09.88a10,10,0,0,0,3.08-.93c1.92-.68,3.66.86,5.74.22s4.27-.2,6.42-.21c2,0,4,0,6,0,2.17,0,4.33,0,6.5,0a4,4,0,0,1,1.74.58c1.81,1,3.36.26,4.92-.61a12.11,12.11,0,0,1,4.42,4.82c2.34,4.14,4.4,8.43,6.55,12.67.2.39,0,1,0,1.47a35.38,35.38,0,0,1,1,4,30.44,30.44,0,0,1,0,3.94v12c-.33-.43-.94-.85-.95-1.29-.1-2.49,0-5-.06-7.48-.06-2.07.3-4.2-.22-6.06a38.9,38.9,0,0,1-5.42.82c-12.32.07-24.63,0-36.8,0l-2.55,2-15-15c-.33-.34-.67-.67-1-1s-.67-.67-1-1l-1-1c-.33-.33-.67-.66-1-1l-1-1c-.33-.34-.67-.67-1-1l-1-1c-.33-.33-.67-.66-1-1s-.67-.66-1-1Z"/><path class="cls-23" d="M9,20.08c-.91,2.57-1.28,5.44-4,7C5.91,24.49,6.28,21.62,9,20.08Z"/><path class="cls-25" d="M3,33.05c-.38,1,.93,2.52-1,3v-2Z"/><path class="cls-30" d="M449,415.21a34.79,34.79,0,0,1-6,13c-.33-1-.67-2-.94-2.85a41.81,41.81,0,0,1-6.08-1c-3.25-1-6.58.24-8.62,1.51l-15.17-1.3c.25-.19,0,.16-.26.17-4.9.08-9.83.41-14.69,0-1.45-.13-2.52-.69-3.84.39a6.51,6.51,0,0,1-2.32.94,36.5,36.5,0,0,0-5.31-.85c-14.17-.06-28.33,0-42.5,0-1,0-2.23-.27-2.88.22a6.44,6.44,0,0,1-6.14.6c-3.42-1.27-6.78-.58-10.15-.8-2-.13-4,0-6-.07-.57,0-1.11-.52-1.69-.81-.95,1.42-2.83.28-3.91,1-2.07,1.34-3.73.61-5.85.22-3.59-.66-7.42-1.12-10.09.25-2.41-.26-3.94-.56-5.48-.57-7.5,0-15-.24-22.49,0s-14.79-1.14-22.11.86c-1,.28-2.36-.82-3.57-.87-3.16-.14-6.33-.12-9.49,0a4.36,4.36,0,0,0-1.83.66,48.31,48.31,0,0,0-5.34-.68c-12.17,0-24.33,0-36.5-.06a42.08,42.08,0,0,1-5.37-.71c-1.71,1.39-4.18,1.23-6.12.32-1.69-.8-3.75-1.05-4.65-.41-1.63,1.17-3.15.71-4.7.8a48.1,48.1,0,0,1-7,0c-2.39-.21-4.81.74-7.22-.65-2.11-1.22-4.31.19-6.46.66-.37.08-.83-.38-1.27-.49a18.81,18.81,0,0,0-9.07.06,8.46,8.46,0,0,1-4.65,0,4.23,4.23,0,0,0-3.5,0c-2.33.9-4.92,2.21-7.39,1.29-2.23-.84-4.39-.76-6.62-.95-.68-.06-1.3-.75-1.54-.89-2.27,1-4,1.73-5.71,0-.24.23-.46.66-.71.67-3,.22-6,1-9.1-.38-1-.44-2.44.05-3.66.19-2.5.29-5,2.23-7.31,1.33a13.81,13.81,0,0,0-5.15-.8c-5.67-.07-11.34,0-17-.06-1.71,0-3.64.8-5.13-.93-.21-.25-1-.17-1.45,0-1.74.61-3.45,1.31-4.65,1.78a14.87,14.87,0,0,0-3.61-.76c-4.7.3-9.46-.86-14.12.87-1.39.52-3.18-.64-4.56-.72-3.15-.16-6.52-1.16-9.61.75a2.86,2.86,0,0,1-2.44,0c-3.09-1.76-6.4-.53-10-1.06l-1,3.11a26.26,26.26,0,0,1-4.91-9.46c-.71-2.15-2.83-3.9-2.09-6.51v-14H23.27c1,0,2.21.37,3-.06,3.43-2,7.1-.41,10.61-.93,2.38,2,4.77.54,7.16,0h1a10.31,10.31,0,0,0,4.85,6.42c1.78,1.05,3.54.52,5.27.52q169,.06,338.06,0h7.94c1.84-1.26,3.28-2.24,4.37-3,1-1.07-.41-2.79,1.51-3l1-1a25,25,0,0,0,3.56.95,12.17,12.17,0,0,0,3.95,0c4.48-.92,4.46-.94,9.11,0,.94.2,2.38.39,2.87-.11,1.3-1.34,2.77-.81,4.15-.83,6.12-.06,12.24,0,18.36,0v14c-.33.4-.88.75-.95,1.18A17.67,17.67,0,0,0,449,415.21Z"/><path class="cls-31" d="M9,428.18l1-3.11c3.56.53,6.87-.7,10,1.06a2.86,2.86,0,0,0,2.44,0c3.09-1.91,6.46-.91,9.61-.75,1.38.08,3.17,1.24,4.56.72,4.66-1.73,9.42-.57,14.12-.87a14.87,14.87,0,0,1,3.61.76c1.2-.47,2.91-1.17,4.65-1.78.45-.16,1.24-.24,1.45,0,1.49,1.73,3.42.89,5.13.93,5.66.1,11.33,0,17,.06a13.81,13.81,0,0,1,5.15.8c2.32.9,4.81-1,7.31-1.33,1.22-.14,2.66-.63,3.66-.19,3,1.35,6.06.6,9.1.38.25,0,.47-.44.71-.67,1.72,1.77,3.44,1,5.71,0,.24.14.86.83,1.54.89,2.23.19,4.39.11,6.62.95,2.47.92,5.06-.39,7.39-1.29a4.23,4.23,0,0,1,3.5,0,8.46,8.46,0,0,0,4.65,0,18.81,18.81,0,0,1,9.07-.06c.44.11.9.57,1.27.49,2.15-.47,4.35-1.88,6.46-.66,2.41,1.39,4.83.44,7.22.65a48.1,48.1,0,0,0,7,0c1.55-.09,3.07.37,4.7-.8.9-.64,3-.39,4.65.41,1.94.91,4.41,1.07,6.12-.32a42.08,42.08,0,0,0,5.37.71c12.17.06,24.33,0,36.5.06a48.31,48.31,0,0,1,5.34.68,4.36,4.36,0,0,1,1.83-.66c3.16-.12,6.33-.14,9.49,0,1.21,0,2.54,1.15,3.57.87,7.32-2,14.75-.58,22.11-.86s15-.08,22.49,0c1.54,0,3.07.31,5.48.57,2.67-1.37,6.5-.91,10.09-.25,2.12.39,3.78,1.12,5.85-.22,1.08-.7,3,.44,3.91-1,.58.29,1.12.79,1.69.81,2,.1,4-.06,6,.07,3.37.22,6.73-.47,10.15.8a6.44,6.44,0,0,0,6.14-.6c.65-.49,1.91-.22,2.88-.22,14.17,0,28.33,0,42.5,0a36.5,36.5,0,0,1,5.31.85,6.51,6.51,0,0,0,2.32-.94c1.32-1.08,2.39-.52,3.84-.39,4.86.4,9.79.07,14.69,0,.26,0,.51-.36.26-.17l15.17,1.3c2-1.27,5.37-2.54,8.62-1.51a41.81,41.81,0,0,0,6.08,1c.27.82.61,1.83.94,2.85l-1,1-1,1-1,1-1,1a2.45,2.45,0,0,0-2,3l-1,1a2.46,2.46,0,0,0-3,2c-.33.34-.67.67-1,1s-.67.67-1,1h-2c-2.32-.92-4.76-2.74-7.1-1.83s-4.43.72-6.65.81a40.31,40.31,0,0,1-7.1-.8,26.28,26.28,0,0,0-10.61.66c-2.93.81-6.28.28-9.44.13s-6.12.61-9.13-.87a5.9,5.9,0,0,0-4.41,0,9.13,9.13,0,0,1-8.24,0,3.21,3.21,0,0,0-2.85.11c-1.33,1.3-2.8.74-4.2.79-3,.1-6,.17-9,0-3.86-.22-7.81.81-11.62-.87-.74-.33-2,.57-3.05.9-.24-.2-.48-.59-.73-.59-2.57-.06-5.26-.52-7.66.09-1.47.38-3.29.93-4.19.38-3.32-2-5.9.18-8.38.78-2.55-1.4-5.51.24-7.63-1.63-.19-.17-.66-.09-1,0-1.37.3-2.94,1.24-4,.84a11.12,11.12,0,0,0-4.14-.86,5.67,5.67,0,0,0-2,0,13.75,13.75,0,0,1-10.72.06,5.83,5.83,0,0,0-4.18.55c-1.68.87-2.7-.11-3.69-.56a20.36,20.36,0,0,1-3.84.87c-4.16.11-8.33.14-12.49,0-1.87-.07-4,.82-5.62-.92a1.5,1.5,0,0,0-1.44,0c-2.38,1.69-5.07.79-7.61.93s-5.33,0-8,0-5.45.48-8-.13-4.79.33-7.21.22c-6.31-.27-12.65,0-19-.13a28.84,28.84,0,0,1-4.62-.8c-2.31,1.58-4.87.86-7.4.47-.92-.14-2-.84-2.69-.54-2,.85-3.75,1.38-5.75,0a3.25,3.25,0,0,0-2.44,0c-4.41,1.4-8.79,1.69-13.18,0a1.23,1.23,0,0,0-1,0c-2.25,1.67-4.43.78-6.7,0a5.68,5.68,0,0,0-3,0,26.69,26.69,0,0,1-12.79.18,19.33,19.33,0,0,0-7.31,0c-4.16.8-4.11,1-8.79-.15a2.89,2.89,0,0,0-2.29.24c-1.19,1.11-2.51.5-3.76.64-3.19.35-6.51-.75-9.61,1a2.6,2.6,0,0,1-2.38-.06c-1.25-1.43-2.79-.91-4.17-.84-5,.24-10.08-.67-15.1.86-3,.9-5.81-1-8.08-1.77a14.91,14.91,0,0,1-3.14.83c-5.17.07-10.33,0-15.49,0-.67,0-1.57.28-2,0-3.1-2.58-5.49.61-8.18.67l-4.76-1.64c-1.78,1.92-4.06.81-6.1,1-2.32.18-4.66.08-7,0-2.12-.05-4.44.3-6.31-.44a7.06,7.06,0,0,0-5.78.51l-2.22.32.77,1.62c-2.2.15-3.12-1.39-4-3l-1-1c-.33-.34-.67-.67-1-1-.09-1.49-1.24-.85-2-1l-1-1a2.46,2.46,0,0,0-2-3l-1-1-1-1Z"/><path class="cls-32" d="M23,441.15l-.77-1.62,2.22-.32a7.06,7.06,0,0,1,5.78-.51c1.87.74,4.19.39,6.31.44,2.33.05,4.67.15,7,0,2-.16,4.32.95,6.1-1l4.76,1.64c2.69-.06,5.08-3.25,8.18-.67.4.32,1.3,0,2,0,5.16,0,10.32,0,15.49,0a14.91,14.91,0,0,0,3.14-.83c2.27.79,5.1,2.67,8.08,1.77,5-1.53,10.07-.62,15.1-.86,1.38-.07,2.92-.59,4.17.84a2.6,2.6,0,0,0,2.38.06c3.1-1.71,6.42-.61,9.61-1,1.25-.14,2.57.47,3.76-.64a2.89,2.89,0,0,1,2.29-.24c4.68,1.13,4.63.95,8.79.15a19.33,19.33,0,0,1,7.31,0,26.69,26.69,0,0,0,12.79-.18,5.68,5.68,0,0,1,3,0c2.27.75,4.45,1.64,6.7,0a1.23,1.23,0,0,1,1,0c4.39,1.71,8.77,1.42,13.18,0a3.25,3.25,0,0,1,2.44,0c2,1.41,3.76.88,5.75,0,.69-.3,1.77.4,2.69.54,2.53.39,5.09,1.11,7.4-.47a28.84,28.84,0,0,0,4.62.8c6.33.1,12.67-.14,19,.13,2.42.11,4.67-.84,7.21-.22s5.29.13,8,.13,5.33.11,8,0,5.23.76,7.61-.93a1.5,1.5,0,0,1,1.44,0c1.66,1.74,3.75.85,5.62.92,4.16.14,8.33.11,12.49,0a20.36,20.36,0,0,0,3.84-.87c1,.45,2,1.43,3.69.56a5.83,5.83,0,0,1,4.18-.55,13.75,13.75,0,0,0,10.72-.06,5.67,5.67,0,0,1,2,0A11.12,11.12,0,0,1,302,439c1.09.4,2.66-.54,4-.84.32-.08.79-.16,1,0,2.12,1.87,5.08.23,7.63,1.63,2.48-.6,5.06-2.81,8.38-.78.9.55,2.72,0,4.19-.38,2.4-.61,5.09-.15,7.66-.09.25,0,.49.39.73.59,1-.33,2.31-1.23,3.05-.9,3.81,1.68,7.76.65,11.62.87,3,.17,6,.1,9,0,1.4-.05,2.87.51,4.2-.79a3.21,3.21,0,0,1,2.85-.11,9.13,9.13,0,0,0,8.24,0,5.9,5.9,0,0,1,4.41,0c3,1.48,6.09.72,9.13.87s6.51.68,9.44-.13a26.28,26.28,0,0,1,10.61-.66,40.31,40.31,0,0,0,7.1.8c2.22-.09,4.36.07,6.65-.81s4.78.91,7.1,1.83v1c-.76.15-1.91-.5-2,1-2.9.55-5.36,2.31-8.21,3-.32.09-.53.63-.79,1h-1c-.76.15-1.91-.5-2,1h-2c-1.93,0-3.86-.05-5.78.05-.42,0-.81.62-1.22.95H46c-.41-.33-.81-.94-1.24-.95-2.58-.09-5.17-.05-7.76-.05-.09-1.49-1.24-.84-2-1H33c-1-2.95-4.06-1.88-6-3-.09-1.49-1.24-.84-2-1C24.91,440.65,23.76,441.3,23,441.15Z"/><path class="cls-33" d="M46,448.13H408c-.47,1.93-2,.62-3,1H47c-1-.38-2.53.93-3-1Z"/><ellipse class="cls-34" cx="55.5" cy="449.63" rx="12.02" ry="0.71"/><path class="cls-2" d="M2,403.23v9H1v-9Z"/><path class="cls-31" d="M46,448.13H44c-1.93,0-3.86.06-5.78,0-.42,0-.81-.62-1.22-1,2.59,0,5.18,0,7.76.05C45.19,447.19,45.59,447.8,46,448.13Z"/><path class="cls-31" d="M27,443.14c1.94,1.12,5,.05,6,3C31.06,445,28,446.09,27,443.14Z"/><path class="cls-30" d="M12,431.17a2.46,2.46,0,0,1,2,3A2.45,2.45,0,0,1,12,431.17Z"/><path class="cls-31" d="M25,442.15c.76.15,1.91-.5,2,1C26.24,443,25.09,443.64,25,442.15Z"/><path class="cls-31" d="M23,441.15c.76.15,1.91-.5,2,1C24.24,442,23.09,442.64,23,441.15Z"/><path class="cls-31" d="M35,446.14c.76.15,1.91-.5,2,1C36.24,447,35.09,447.63,35,446.14Z"/><path class="cls-30" d="M15,435.16c.76.15,1.91-.49,2,1C16.24,436,15.09,436.65,15,435.16Z"/><path class="cls-30" d="M9,428.18l1,1Z"/><path class="cls-30" d="M10,429.17l1,1Z"/><path class="cls-30" d="M11,430.17l1,1Z"/><path class="cls-30" d="M14,434.16l1,1Z"/><path class="cls-30" d="M17,436.16c.33.33.67.66,1,1C17.67,436.82,17.33,436.49,17,436.16Z"/><path class="cls-30" d="M18,437.16l1,1Z"/><path class="cls-30" d="M418,446.14c.26-.34.47-.88.79-1,2.85-.71,5.31-2.47,8.21-3C424.76,444.6,422,445.82,418,446.14Z"/><path class="cls-30" d="M408,448.13h-2c.41-.33.8-.93,1.22-.95,1.92-.1,3.85-.05,5.78-.05-.4.34-.77.91-1.2,1A37,37,0,0,1,408,448.13Z"/><path class="cls-35" d="M449,415.21a17.67,17.67,0,0,1,.05-2.82c.07-.43.62-.78.95-1.18v2C449.85,414,450.5,415.12,449,415.21Z"/><path class="cls-30" d="M437,435.16a2.45,2.45,0,0,1,2-3A2.45,2.45,0,0,1,437,435.16Z"/><path class="cls-30" d="M433,438.15a2.46,2.46,0,0,1,3-2A2.46,2.46,0,0,1,433,438.15Z"/><path class="cls-30" d="M429,441.15v-1h2C430.91,441.64,429.76,441,429,441.15Z"/><path class="cls-30" d="M427,442.15c.09-1.5,1.24-.85,2-1C428.91,442.64,427.76,442,427,442.15Z"/><path class="cls-30" d="M415,447.13c.09-1.49,1.24-.84,2-1C416.91,447.63,415.76,447,415,447.13Z"/><path class="cls-30" d="M432,439.15c.33-.33.67-.66,1-1C432.67,438.49,432.33,438.82,432,439.15Z"/><path class="cls-30" d="M431,440.15c.33-.33.67-.66,1-1C431.67,439.49,431.33,439.82,431,440.15Z"/><path class="cls-30" d="M436,436.16l1-1Z"/><path class="cls-30" d="M441,430.17l1-1Z"/><path class="cls-30" d="M440,431.17l1-1Z"/><path class="cls-30" d="M442,429.17l1-1Z"/><path class="cls-30" d="M439,432.17l1-1Z"/><path class="cls-36" d="M1,397.25V368.31c1.67-.18,1-1.49,1-2.29.05-8.78,0-17.57,0-26.65a9,9,0,0,1,2.57,0,18.9,18.9,0,0,0,12.7,0,4.55,4.55,0,0,1,3,0,16,16,0,0,0,11.7,0,4,4,0,0,1,3,0c3,1.62,6.09.63,9.12.93v28.94a16.45,16.45,0,0,0-3,0c-7.12,1.33-7.12,1.34-13.61,0-.63-.13-1.6-.26-1.91.08-1.38,1.5-3.09.84-4.64.86-6.25.08-12.5,0-18.86,0,0,8.48,0,16.58,0,24.67C2,395.77,2.67,397.07,1,397.25Z"/><path class="cls-37" d="M1,397.25c1.67-.18,1-1.48,1-2.28.05-8.09,0-16.19,0-24.67,6.36,0,12.61.05,18.86,0,1.55,0,3.26.64,4.64-.86.31-.34,1.28-.21,1.91-.08,6.49,1.34,6.49,1.33,13.61,0a16.45,16.45,0,0,1,3,0v27.94c-2.39.54-4.78,2-7.16,0-3.51.52-7.18-1.06-10.61.93-.75.43-2,.06-3,.06H2v3H1Z"/><path class="cls-38" d="M44,340.37c-3-.3-6.16.69-9.12-.93a4,4,0,0,0-3,0,16,16,0,0,1-11.7,0,4.55,4.55,0,0,0-3,0,18.9,18.9,0,0,1-12.7,0,9,9,0,0,0-2.57,0c0,9.08,0,17.87,0,26.65,0,.8.7,2.11-1,2.29V338.38c1.66-.17,1-1.47,1-2.26C2,328.56,2,321,2,313.43h8.48c2.73-2.59,4.86-.07,7.14.39,4,.9,7.68-3.15,11.79-.35.28-.26.51-.67.76-.68,4.61-.15,9.22-.25,13.83-.36Z"/><path class="cls-39" d="M2,313.43c0,7.56,0,15.13,0,22.69,0,.79.69,2.09-1,2.26V313.43Z"/><ellipse class="cls-36" cx="1.5" cy="402.23" rx="0.71" ry="1.41"/><path class="cls-40" d="M451,207.66v18h-1V214.37c-6.63,1.07-13-1-19.29,1.25a2.71,2.71,0,0,1-1.4-.18,12.1,12.1,0,0,0-2.66-.76c-6.12-.06-12.24,0-18.65,0v73.84c0,10.22,0,20.44,0,30.66,0,.79.69,2.09-1,2.26V210.66c1.34,0,1-1,1-1.75,0-5.41,0-10.81,0-16.21,2.7-.27,5.57.76,8.19-1.08.34.27.71.81,1.08.8a86.54,86.54,0,0,0,10.69-.3c1.77-.23,3.35-.68,5.09.07a6.43,6.43,0,0,0,2.78.48c3.88-.18,7.83.71,11.61-.93a7.39,7.39,0,0,1,2.56,0c0,4.92,0,9.55,0,14.18C450,206.6,449.62,207.65,451,207.66Z"/><path class="cls-41" d="M451,164.76v24c-1.67-.18-.94-1.48-1-2.28-.09-2.48,0-5,0-7.45a49.89,49.89,0,0,0-.17-7.24c-5.64,0-10.95-.05-16.26,0a19.35,19.35,0,0,0-3.77.85c-3.16-1.82-6.82-.67-10.34-.84-3.81-.19-7.63,0-11.45,0q0-11.16,0-22.32c0-.13.15-.28.26-.38s.26-.17,0,0l10.31,1.28c2.54-.3,4.54-2.47,7.53-.7a5,5,0,0,0,5.14-.46c.53-.41,2-.63,2.23-.3,1.37,1.59,3.09.84,4.63.88,3.93.12,7.86,0,11.93,0,0,4.63,0,8.91,0,13.19C450,163.7,449.63,164.75,451,164.76Z"/><path class="cls-42" d="M408,171.74c3.82,0,7.64-.14,11.45,0,3.52.17,7.18-1,10.34.84a19.35,19.35,0,0,1,3.77-.85c5.31-.09,10.62,0,16.26,0A49.89,49.89,0,0,1,450,179c.05,2.48-.05,5,0,7.45,0,.8-.7,2.1,1,2.28v18.95c-1.38,0-1-1.06-1-1.78,0-4.63,0-9.26,0-14.18a7.39,7.39,0,0,0-2.56,0c-3.78,1.64-7.73.75-11.61.93a6.43,6.43,0,0,1-2.78-.48c-1.74-.75-3.32-.3-5.09-.07a86.54,86.54,0,0,1-10.69.3c-.37,0-.74-.53-1.08-.8-2.62,1.84-5.49.81-8.19,1.08Z"/><path class="cls-43" d="M450,225.62h1v88.81h-1V225.62Z"/><path class="cls-44" d="M1,195.69v-16c.33-.41.94-.81,1-1.23.1-2.25.05-4.5.05-6.76,2.83-.51,5.82,1,8.6-.91.78-.55,2.26-.1,3.42-.08s2.61-.32,3.54.93c.75-1.26,2-1,3.1-.91a9.92,9.92,0,0,1,3.71.63,6.76,6.76,0,0,0,6.52-.58c4.51,2,8.71.57,13.11-.18v36c-10.79,0-21.58,0-32.37,0a36.72,36.72,0,0,0-5.19.79c-1.09-1.53-2.9-.57-4.44-.82,0-3.25,0-6.49,0-9.74C2,196.51,1.33,196.1,1,195.69Z"/><path class="cls-45" d="M2,171.74c0,2.26,0,4.51-.05,6.76,0,.42-.62.82-.95,1.23V69H2V171.74Z"/><path class="cls-46" d="M1,195.69c.33.41,1,.82,1,1.24.08,3.25,0,6.49,0,9.74v85.81H1V195.69Z"/><ellipse class="cls-47" cx="1.5" cy="302.95" rx="0.71" ry="14.82"/><path class="cls-35" d="M450,314.43h1v91.8A36.87,36.87,0,0,1,451,410c0,.42-.62.8-.95,1.19V314.43Z"/><ellipse class="cls-34" cx="307.5" cy="449.63" rx="24.75" ry="0.71"/><ellipse class="cls-34" cx="372.5" cy="449.63" rx="24.75" ry="0.71"/><ellipse class="cls-34" cx="112.5" cy="449.63" rx="24.75" ry="0.71"/><path class="cls-34" d="M160,449.13h35v1H160Z"/><path class="cls-34" d="M225,449.13h35v1H225Z"/><ellipse class="cls-48" cx="79.5" cy="449.63" rx="21.92" ry="0.71"/><ellipse class="cls-48" cx="210" cy="449.63" rx="21.21" ry="0.71"/><ellipse class="cls-8" cx="275" cy="449.63" rx="21.21" ry="0.71"/><ellipse class="cls-48" cx="145" cy="449.63" rx="21.21" ry="0.71"/><ellipse class="cls-48" cx="340" cy="449.63" rx="21.21" ry="0.71"/><path class="cls-49" d="M408,171.74v21c0,5.4,0,10.8,0,16.21,0,.72.35,1.74-1,1.75V130.83c-.38-1,.93-2.52-1-3l-1-1,2.55-2c12.17,0,24.48,0,36.8,0a38.9,38.9,0,0,0,5.42-.82c.52,1.86.16,4,.22,6.06.06,2.49,0,5,.06,7.48,0,.44.62.86.95,1.29v25.94c-1.37,0-1-1.06-1-1.78,0-4.28,0-8.56,0-13.19-4.07,0-8,.08-11.93,0-1.54,0-3.26.71-4.63-.88-.28-.33-1.7-.11-2.23.3a5,5,0,0,1-5.14.46c-3-1.77-5,.4-7.53.7l-10.31-1.28c.3-.18.14-.12,0,0s-.26.25-.26.38Q408,160.58,408,171.74Z"/><path class="cls-50" d="M2,85.93V57.22c4.26-.4,8.58-1.29,12.84-1.06,3,.16,6,1.09,9.08.81,1.55-.14,3.19.6,4.68-.87.5-.5,2.14.09,3.25.27a12.43,12.43,0,0,0,2.73.57c1.54-.14,3.07-.92,4.58-.85s3,.86,4.84,1.47V86.93c-2.68-.26-5.37.47-8.07-.87-1.24-.62-3.25-.22-4.73.26a13.43,13.43,0,0,1-7.41.05,15.39,15.39,0,0,0-7.57.07c-1.84.57-3.85.9-5.16.34C8,85.48,5,86.23,2,85.93Z"/><path class="cls-51" d="M99,153.78c-1.94-.34-1-1.85-1-2.76C98,137,98,122.93,98,108.88c1.35,0,1-1,1-1.75,0-5.74,0-11.47,0-17.21,5.5-1.37,6.37-1.32,12.64,0a8.25,8.25,0,0,0,3.3-.4,25.84,25.84,0,0,1,12,0,9.62,9.62,0,0,0,6.07,0,3.81,3.81,0,0,1,1.78-.44c1.05.18,2.06.88,3.08.88s1.86-.64,3.11-1.13c0,5.82,0,11.1,0,16.38,0,.72-.38,1.77,1,1.79v20c-1.37,0-1-1-1-1.77,0-1.66,0-3.31,0-5s-.09-3.51-.14-5.52c-.71.63-1.07,1.23-1.44,1.23-5.64.06-11.28.12-16.91,0a17.69,17.69,0,0,0-6.42.91,12.7,12.7,0,0,0-2.86-.84c-4.2-.11-8.42.34-12.52-1A5.74,5.74,0,0,0,99,115v38.77Z"/><path class="cls-52" d="M2,85.93c3,.3,6-.45,9.06.85,1.31.56,3.32.23,5.16-.34a15.39,15.39,0,0,1,7.57-.07,13.43,13.43,0,0,0,7.41-.05c1.48-.48,3.49-.88,4.73-.26,2.7,1.34,5.39.61,8.07.87,0,4.41,0,8.82,0,13.22,0,.72-.35,1.74,1,1.75v62.86c-1.35,0-1-1-1-1.76,0-6.06,0-12.13,0-18.2V109c-2.08,0-4.19-.6-5.56.15-1.66.91-3.21.29-4.7.74s-2.88-1.16-4.74-.19c-1.44.75-3.58.15-5.41.15-1.66,0-3.33.11-5,0s-3.66.8-4.75-.54c-4.08,1.08-8,.35-11.86.57Z"/><path class="cls-53" d="M277,126.84V95.91c1.35,0,1-1,1-1.75,0-6.07,0-12.14,0-18.21,4.81,0,9.64-.15,14.44,0s9.46-1,14.05.92a1.5,1.5,0,0,0,1.31-.32c.95-1.07,2.15-.6,3.24-.62,3.32-.06,6.64,0,10,0v24c-1.95.14-3.5-1.55-5.59-1.05-1.34.32-2.88-.26-4,.94-1.29-1.57-3.07-.84-4.63-.85-8.32-.07-16.65,0-25,0-1.26,0-2.53.1-3.77.16v22.78a36.79,36.79,0,0,1-.05,3.79C277.91,126.07,277.33,126.44,277,126.84Z"/><path class="cls-54" d="M142,106.89c-1.37,0-1-1.07-1-1.79,0-5.28,0-10.56,0-16.38-1.25.49-2.18,1.13-3.11,1.13s-2-.7-3.08-.88a3.81,3.81,0,0,0-1.78.44,9.62,9.62,0,0,1-6.07,0,25.84,25.84,0,0,0-12,0,8.25,8.25,0,0,1-3.3.4c-6.27-1.27-7.14-1.32-12.64,0V66a9.45,9.45,0,0,0,2.57,1c5.16.33,10.4-.68,15.48,1,1.71.58,2.94-1,4.55-1,6.41,0,12.83,0,19.4,0,0,2.46-.06,4.59.05,6.71,0,.44.62.85.95,1.28Z"/><path class="cls-55" d="M321,76c-3.32,0-6.64,0-10,0-1.09,0-2.29-.45-3.24.62a1.5,1.5,0,0,1-1.31.32c-4.59-1.9-9.37-.73-14.05-.92s-9.63,0-14.44,0V53.84c3.7.81,7.19-.79,10.72,1,1.27.65,3.32-.2,5.91-.46,2.77,1.21,6.56.82,10.36.09.6-.11,1.35-.65,1.75-.45a8.39,8.39,0,0,0,7.68,0c.67-.31,1.78.33,2.69.53,1.36.29,2.3,1.75,3.89,1.39Z"/><path class="cls-56" d="M142,75c-.33-.43-.93-.84-.95-1.28-.11-2.12-.05-4.25-.05-6.71-6.57,0-13,0-19.4,0-1.61,0-2.84,1.59-4.55,1-5.08-1.72-10.32-.71-15.48-1A9.45,9.45,0,0,1,99,66V50.35c1.81-.92,4.14.36,5.94-1.26a3.21,3.21,0,0,1,2.9,0c3.29,1.74,6.75.71,10.12.89s6.67,0,10,.07c2.11.06,3.83-2,6.37-.45,1.61,1,4.14.42,6.67.57,0,1.37.06,2.82,0,4.26C140.66,61.3,142.77,68.06,142,75Z"/><path class="cls-57" d="M99,129.84V115a5.74,5.74,0,0,1,1.7-.12c4.1,1.35,8.32.9,12.52,1a12.7,12.7,0,0,1,2.86.84,17.69,17.69,0,0,1,6.42-.91c5.63.11,11.27,0,16.91,0,.37,0,.73-.6,1.44-1.23.05,2,.12,3.76.14,5.52s0,3.3,0,5c0,.72-.38,1.76,1,1.77l1,1c.76.15,1.91-.5,2,1a5.83,5.83,0,0,1-4.06,1c-6.13,0-12.27,0-18.4,0a24,24,0,0,0-3.44.57c.15.15-.08-.28-.32-.29C112.18,130,105.59,129.93,99,129.84Z"/><path class="cls-28" d="M354,76l-1-1Z"/><path class="cls-28" d="M353,75l-1-1Z"/><path class="cls-28" d="M352,74l-1-1Z"/><path class="cls-28" d="M351,73l-1-1Z"/><path class="cls-26" d="M330,52l-1-1Z"/><path class="cls-25" d="M329,51l-1-1Z"/><path class="cls-25" d="M328,50l-1-1C327.33,49.35,327.67,49.68,328,50Z"/><path class="cls-27" d="M384,105.89l-1-1Z"/><path class="cls-27" d="M390,111.88c-.33-.34-.67-.67-1-1C389.33,111.21,389.67,111.54,390,111.88Z"/><path class="cls-27" d="M389,110.88c-.33-.34-.67-.67-1-1C388.33,110.21,388.67,110.54,389,110.88Z"/><path class="cls-27" d="M388,109.88l-1-1Z"/><path class="cls-27" d="M387,108.88c-.33-.33-.67-.66-1-1C386.33,108.22,386.67,108.55,387,108.88Z"/><path class="cls-27" d="M386,107.88l-1-1Z"/><path class="cls-27" d="M383,104.89c-.33-.33-.67-.66-1-1C382.33,104.23,382.67,104.56,383,104.89Z"/><path class="cls-27" d="M382,103.89c-.33-.33-.67-.66-1-1C381.33,103.23,381.67,103.56,382,103.89Z"/><path class="cls-27" d="M385,106.89c-.33-.34-.67-.67-1-1C384.33,106.22,384.67,106.55,385,106.89Z"/><path class="cls-27" d="M381,102.89l-1-1Z"/><path class="cls-37" d="M450,359.33v37.92c-6.12,0-12.24,0-18.36,0-1.38,0-2.85-.51-4.15.83-.49.5-1.93.31-2.87.11-4.65-1-4.63-.94-9.11,0a12.17,12.17,0,0,1-3.95,0,25,25,0,0,1-3.56-.95V359.33l3.55-.65c2.05.21,4,1,5,.38,1.49-1,2.84-.65,4.23-.7,3.17-.1,6.33,0,9.5,0,3.06,2.46,6.11.2,9.17,0,.5,0,1.11-.2,1.48,0C443.8,360.09,447,359,450,359.33Z"/><path class="cls-47" d="M45,289.48V397.25H44V290.63c-4.44-.52-8.73.58-12.78-1.11a2.06,2.06,0,0,0-1.85.19c-1.09,1.28-2.46.76-3.7.73-1.91,0-3.83-.49-5.74-.49a40.06,40.06,0,0,0-5.88.55c-4.11.63-8-1-12-1V258.55c4.26.1,8.52.18,12.78.31.24,0,.47.44.7.67.36-.32.71-.93,1.07-.94,4.8-.06,9.59-.08,14.39,0,.68,0,1.35.66,1.85.91a15.4,15.4,0,0,1,3.27-.92c2.64-.12,5.29,0,7.94,0,0,9.56,0,19.12,0,28.67C44,288,43.34,289.31,45,289.48Z"/><path class="cls-58" d="M408,391.26v6l-1,1v-7Z"/><path class="cls-39" d="M2,289.48c4,0,7.94,1.65,12.05,1a40.06,40.06,0,0,1,5.88-.55c1.91,0,3.83.45,5.74.49,1.24,0,2.61.55,3.7-.73a2.06,2.06,0,0,1,1.85-.19c4.05,1.69,8.34.59,12.78,1.11v21.8c-4.61.11-9.22.21-13.83.36-.25,0-.48.42-.76.68-4.11-2.8-7.77,1.25-11.79.35-2.28-.46-4.41-3-7.14-.39H2V289.48Z"/><path class="cls-39" d="M408,391.26h-1V321.41c1.66-.17,1-1.47,1-2.26,0-10.22,0-20.44,0-30.66,3.34-.37,6.83.84,10.07-1a2.2,2.2,0,0,1,1.94,0c2.39,1.64,5.05.89,7.58.92,7.47.1,14.94,0,22.41,0v33.92c-1.49,0-3.36.57-4.41-.11-2.69-1.74-5.46-.78-8.13-.78s-5.53-1.12-8.1.83c-.42.32-1.53-.11-2.26-.37a10.3,10.3,0,0,0-8.33.44c-3.56-2.77-7,.43-10.77.06v68.78Z"/><path class="cls-59" d="M450,288.49c-7.47,0-14.94.06-22.41,0-2.53,0-5.19.72-7.58-.92a2.2,2.2,0,0,0-1.94,0c-3.24,1.8-6.73.59-10.07,1V261.54c3.51.21,7.09-.55,10.54.92.6.26,1.67-.59,2-.72,1.83.32,3.54,1.2,4.48.68,2.36-1.3,4.74-.81,7.1-.85,5.95-.08,11.91,0,17.86,0Z"/><path class="cls-60" d="M450,225.62v14a5.34,5.34,0,0,1-2,0c-1.92-.84-3.49-1.42-5.73-.15a5.66,5.66,0,0,1-5.57-.5c-.56-.38-1.93-.53-2.24-.19-1.23,1.42-2.75.81-4.14.84-3.79.09-7.59.16-11.38,0s-7.32-.63-11-1V214.65c6.41,0,12.53,0,18.65,0a12.1,12.1,0,0,1,2.66.76,2.71,2.71,0,0,0,1.4.18c6.25-2.24,12.66-.18,19.29-1.25Z"/><path class="cls-61" d="M408,238.6c3.66.33,7.31.79,11,1s7.59.09,11.38,0c1.39,0,2.91.58,4.14-.84.31-.34,1.68-.19,2.24.19a5.66,5.66,0,0,0,5.57.5c2.24-1.27,3.81-.69,5.73.15a5.34,5.34,0,0,0,2,0v22c-5.95,0-11.91-.05-17.86,0-2.36,0-4.74-.45-7.1.85-.94.52-2.65-.36-4.48-.68-.35.13-1.42,1-2,.72-3.45-1.47-7-.71-10.54-.92Z"/><path class="cls-62" d="M44,144.8c0,6.07,0,12.14,0,18.2,0,.72-.36,1.75,1,1.76v57.87H44v-52c-4.4.75-8.6,2.17-13.11.18a6.76,6.76,0,0,1-6.52.58,9.92,9.92,0,0,0-3.71-.63c-1.1-.07-2.35-.35-3.1.91-.93-1.25-2.28-.91-3.54-.93s-2.64-.47-3.42.08c-2.78,1.94-5.77.4-8.6.91V144.8c5.29,0,10.58,0,15.88,0,.95,0,2.15-.17,2.82.31,1.27.91,2.16.5,3.47.13,2.59-.74,5.34-1.1,7.73.47a14.4,14.4,0,0,1,3.17-.88C38,144.73,41,144.8,44,144.8Z"/><path class="cls-60" d="M44,206.67v25.94a14,14,0,0,1-11.13,0c-.66.31-1.38,1-2,.91-1.37-.11-2.71-.87-4.06-.86-1.52,0-3,.72-4.56.89-1.28.13-3.08.43-3.8-.25-1.93-1.81-3.24.17-4.76.36a3.59,3.59,0,0,0-4.54-.93c-2.39,1.16-4.74.68-7.11.86V206.67c1.54.25,3.35-.71,4.44.82a36.72,36.72,0,0,1,5.19-.79C22.42,206.63,33.21,206.67,44,206.67Z"/><path class="cls-49" d="M44,144.8c-3,0-6-.07-8.93,0a14.4,14.4,0,0,0-3.17.88c-2.39-1.57-5.14-1.21-7.73-.47-1.31.37-2.2.78-3.47-.13-.67-.48-1.87-.3-2.82-.31-5.3,0-10.59,0-15.88,0v-17c1.49.19,2.88-.92,4.08-.87,4.53.21,9.18-1.21,13.6.83a2.27,2.27,0,0,0,1.91-.12,3.51,3.51,0,0,1,4.79,0,4.39,4.39,0,0,1,4.93-.71c1.81,1.13,3.47.71,5.19.8,2.5.12,5,0,7.5,0Z"/><path class="cls-63" d="M44,127.84c-2.5,0-5,.09-7.5,0-1.72-.09-3.38.33-5.19-.8a4.39,4.39,0,0,0-4.93.71,3.51,3.51,0,0,0-4.79,0,2.27,2.27,0,0,1-1.91.12c-4.42-2-9.07-.62-13.6-.83-1.2,0-2.59,1.06-4.08.87v-18c3.85-.22,7.78.51,11.86-.57,1.09,1.34,3,.4,4.75.54s3.32,0,5,0c1.83,0,4,.6,5.41-.15,1.86-1,3.13.68,4.74.19s3,.17,4.7-.74c1.37-.75,3.48-.15,5.56-.15Z"/><path class="cls-64" d="M2,233.61c2.37-.18,4.72.3,7.11-.86a3.59,3.59,0,0,1,4.54.93c1.52-.19,2.83-2.17,4.76-.36.72.68,2.52.38,3.8.25,1.54-.17,3-.87,4.56-.89,1.35,0,2.69.75,4.06.86.66.05,1.38-.6,2-.91a14,14,0,0,0,11.13,0v25.94c-2.65,0-5.3-.08-7.94,0a15.4,15.4,0,0,0-3.27.92c-.5-.25-1.17-.9-1.85-.91-4.8-.09-9.59-.07-14.39,0-.36,0-.71.62-1.07.94-.23-.23-.46-.66-.7-.67-4.26-.13-8.52-.21-12.78-.31Z"/><path class="cls-58" d="M408,359.33V322.48c3.77.37,7.21-2.83,10.77-.06a10.3,10.3,0,0,1,8.33-.44c.73.26,1.84.69,2.26.37,2.57-2,5.44-.83,8.1-.83s5.44-1,8.13.78c1.05.68,2.92.11,4.41.11v36.92c-3-.3-6.2.76-9.1-1-.37-.22-1-.06-1.48,0-3.06.19-6.11,2.45-9.17,0-3.17,0-6.33-.07-9.5,0-1.39.05-2.74-.26-4.23.7-1,.64-2.92-.17-5-.38Z"/><path class="cls-29" d="M407,130.83c-1.93-.46-.62-2-1-3C407.93,128.31,406.62,129.85,407,130.83Z"/><path class="cls-29" d="M406,127.84l-1-1Z"/><path class="cls-41" d="M320,155.78c.75,4-2,6.54-3.94,9.33-1.75,2.49-7.08,5.12-10.59,6.87-1.86.93-3.5.72-5.2.72q-76,.08-152,0c-9.83,0-19.66.06-29.5,0a17.79,17.79,0,0,1-12.38-5.05c-1.69-1.61-3.31-3.29-5.13-5.11-.11-3-3.16-5.33-2.3-8.78,3.68-.43,7.49.92,11.11-.93a3.91,3.91,0,0,1,2.78.38,8.89,8.89,0,0,0,6.08.13c1.37-.36,3-.86,4.21-.44a28.59,28.59,0,0,0,3.61.94c1.31.28,2.23-1.49,3.79-.21.79.66,2.57.2,3.89.1.58,0,1.13-.58,1.72-.62a12.31,12.31,0,0,1,3.69.08,21.11,21.11,0,0,0,12-.05c2.43-.84,3.82,1.08,5.92.73s3.9-2.29,5.91-.78a4.29,4.29,0,0,0,3.23.64c4-.29,8.17.92,12.1-.92.46-.21,1.21.19,1.82.32a14.16,14.16,0,0,0,2.74.6q8,.09,16,0c1.13,0,2.3-.62,3.38-.46a65.45,65.45,0,0,0,18.86-.47,16.46,16.46,0,0,1,5.47,0c5.1.9,5.08,1,9.19,0,.63-.15,1.64-.32,1.93,0,1.52,1.7,3.43.91,5.13.91,13.65.07,27.3,0,41,0,7.66,0,15.32,0,23,0a24.87,24.87,0,0,0,3.42-.56c2.13,1.46,5,.12,7.84.7Z"/><path class="cls-65" d="M166,351.35a43,43,0,0,1-12-14.13,59.3,59.3,0,0,0-3.58-5,5.23,5.23,0,0,1-.38-1.83c-1-3.66-2.79-7-4.28-11,2.23-.37,4.06-.7,5.89-1,.64-.09,1.45.18,1.93-.12,2.27-1.4,4.4-1,6.79-.19a10.52,10.52,0,0,0,5.29.11c4.6-1,5.26-1,9.75,0,2.62.54,5.44.81,7.21-.43,1.89.29,3.41,1,4.25.55,2.85-1.63,5.46-.67,8.17.1.63.47,1.3.9,1.9,1.4a43.52,43.52,0,0,0,13,8.12,80.32,80.32,0,0,0,14,3.38c5,.88,9.71-1.21,14.56-1.93,1.22-1.68,3-.76,4.55-1l3.62.66c1.91-.23,3.43-.46,4.95-.55.34,0,.83.8,1,.72,4.6-1.84,9.37-.43,14.05-.79,1.2-.09,2.67-.63,3.63.75,3.44,0,7,.62,10.26-.07,2.42-.51,4.43-.92,6.81,0a6.15,6.15,0,0,0,4.25,0c3.5-1.52,6.93-.45,10.39-.62v1.85a2.46,2.46,0,0,0-2,3l-1,1c-1.5.09-.85,1.24-1,2-1.5.08-.85,1.24-1,2l-1,1c-1.5.09-.85,1.24-1,2-.33.33-.67.66-1,1l-1,1c-1.61.88-3.15,1.8-3,4l-4,4c-.44-.66-.88-1.32-1.42-2.11-2,.62-4.12-.72-6.14,1-.63.52-2.35.41-3.69-.4-.92-.55-2.57.1-4.25.23a18.63,18.63,0,0,0-11.53.14,12.39,12.39,0,0,0-2.83-.78c-3-.1-6-.12-9,0-1.56.06-3.06-.27-4.7.78a5.27,5.27,0,0,1-4.78,0c-1.79-1.22-3.47-.74-5.18-.82a75.14,75.14,0,0,0-8.49,0c-3.7.26-7.52-1-11.11.91-.41.22-1.19-.23-1.8-.36a13.43,13.43,0,0,0-2.75-.56q-20.46-.06-41,0Z"/><path class="cls-66" d="M320,155.78l-1.27-1.88c-2.8-.58-5.71.76-7.84-.7a24.87,24.87,0,0,1-3.42.56c-7.66,0-15.32,0-23,0-13.65,0-27.3,0-41,0-1.7,0-3.61.79-5.13-.91-.29-.32-1.3-.15-1.93,0-4.11,1-4.09.9-9.19,0a16.46,16.46,0,0,0-5.47,0,65.45,65.45,0,0,1-18.86.47c-1.08-.16-2.25.45-3.38.46q-8,.08-16,0a14.16,14.16,0,0,1-2.74-.6c-.61-.13-1.36-.53-1.82-.32-3.93,1.84-8.07.63-12.1.92a4.29,4.29,0,0,1-3.23-.64c-2-1.51-4,.46-5.91.78s-3.49-1.57-5.92-.73a21.11,21.11,0,0,1-12,.05,12.31,12.31,0,0,0-3.69-.08c-.59,0-1.14.58-1.72.62-1.32.1-3.1.56-3.89-.1-1.56-1.28-2.48.49-3.79.21a28.59,28.59,0,0,1-3.61-.94c-1.21-.42-2.84.08-4.21.44a8.89,8.89,0,0,1-6.08-.13,3.91,3.91,0,0,0-2.78-.38c-3.62,1.85-7.43.5-11.11.93v-15c4,.37,8.17-.89,12.09,1a2.36,2.36,0,0,0,2,0c2.25-1.58,4.75-.7,7.12-1,1.38-.16,2.74-.51,3.77-.71a18.47,18.47,0,0,0,3.39.7q18,.06,36,0c.67,0,1.51.26,2,0a5.15,5.15,0,0,1,5.84-.31c2.36,1.37,4.24-1,6.44-.65.32.06.73-.09,1,.06,2.76,1.67,5.36.6,8.23.17s5.87,1.39,8.95.54c.56-.15,1-.64.8-.5a26.12,26.12,0,0,0,4,.71q19.5.06,39,0a19.79,19.79,0,0,0,3.93-.89c.11.09.47.6.85.61,5,.2,10.07,1.1,15.07-.42a6.59,6.59,0,0,1,3.33-.09c4.34,1.06,4.3,1,8.79,0a7.9,7.9,0,0,1,3.68.46c1.62.47,3.12.82,4.19-.37a9.71,9.71,0,0,0,2.81.69c4.36-.34,8.85,1,13-.87,3.67,1.77,7.5.79,11.19.84s7.66-.44,11.47-.7c1,.87,1.63,2.22,3.28,1.77,0,4.74,0,9.48,0,14.22C321,154.75,321.34,155.77,320,155.78Z"/><path class="cls-67" d="M295,236.6c2.32.62,2.79,2.89,3.95,4.5a65.68,65.68,0,0,1,4.88,7.37c2,3.71,2.84,8,4.17,12.08a2.8,2.8,0,0,1-2.06-2.35c-.53-2.22-1.42-4.36-2.19-6.63-2.57,0-5,.06-7.51,0s-5.21.66-7.43-1.06l-1.59,1.13c-1.82-.9-3.51-1.88-5.4-.41a2.33,2.33,0,0,1-1.34.34c-3,0-6,.11-9,0s-5.79.6-8.59-.9c-.9-.48-2.71-.55-3.35,0-1.66,1.5-3.44.71-5.15.87-1.44.13-2.89,0-4.59,0l2.16,3a7.08,7.08,0,0,1-2.18-.72,32.3,32.3,0,0,0-21.37-7.27c-2.32.07-4.65,0-7,0-6.87-.13-12.69,2.72-18.3,6.27a9,9,0,0,1-2.18.72l1.16-2.44-3.16-1.6c-.67.34-1.35,1-2,1-3.83.1-7.67.19-11.49,0s-7.81.84-11.6-.89a4.05,4.05,0,0,0-2.78.39,7.86,7.86,0,0,1-6.06.05,9.25,9.25,0,0,0-6.08,0,15.66,15.66,0,0,1-9.58-.13l-1.37.65c0-.33-.13-.73,0-1,2.29-3.83,4.49-7.73,7-11.42a53.31,53.31,0,0,1,5-5.56c1.61-.88,3.15-1.8,3-4a7.88,7.88,0,0,0,3.57,1c9.31-.11,18.61-.24,27.91,0s18.71-1,28,.86c1.4.28,3-.86,4.56-.87,11.13-.08,22.26-.06,33.39,0a7.3,7.3,0,0,1,2.22.8c.09-.08.32-.52.56-.52,8.43,0,16.86,0,25.4,0Z"/><path class="cls-68" d="M295,236.6l-6.38-6.7c-8.54,0-17,0-25.4,0-.24,0-.47.44-.56.52a7.3,7.3,0,0,0-2.22-.8c-11.13-.05-22.26-.07-33.39,0-1.53,0-3.16,1.15-4.56.87-9.3-1.9-18.68-.63-28-.86s-18.6-.11-27.91,0a7.88,7.88,0,0,1-3.57-1c2.81-2.64,5.31-5.74,8.49-7.79,4.32-2.79,8.32-6,13-8.41a80.67,80.67,0,0,1,12.19-5.56c3.83-1.21,7.42-3.18,11.45-3.79.29,0,.57-.41.82-.37,4.29.7,8.32-1.29,12.59-1.07s8.67-.09,13,.11c1.68.08,3.22,1.15,5.09,1,1.7-.14,3.63-.63,5.08.93,4.18.1,7.54,2.85,11.49,3.6,7.41,1.42,13.26,6,19.42,9.74a58.85,58.85,0,0,1,15.19,12.87c1.42,1.73,2.86,3.45,4.21,5.25C295.21,235.45,295,236.1,295,236.6Z"/><path class="cls-57" d="M321,139.81c-1.65.45-2.32-.9-3.28-1.77-3.81.26-7.64.77-11.47.7s-7.52.93-11.19-.84c-4.12,1.92-8.61.53-13,.87a9.71,9.71,0,0,1-2.81-.69c-1.07,1.19-2.57.84-4.19.37a7.9,7.9,0,0,0-3.68-.46c-4.49,1-4.45,1.06-8.79,0a6.59,6.59,0,0,0-3.33.09c-5,1.52-10,.62-15.07.42-.38,0-.74-.52-.85-.61a19.79,19.79,0,0,1-3.93.89q-19.49.09-39,0a26.12,26.12,0,0,1-4-.71c.22-.14-.24.35-.8.5-3.08.85-6.14-1-8.95-.54s-5.47,1.5-8.23-.17c-.24-.15-.65,0-1-.06-2.2-.37-4.08,2-6.44.65a5.15,5.15,0,0,0-5.84.31c-.46.31-1.3,0-2,0q-18,0-36,0a18.47,18.47,0,0,1-3.39-.7c-1,.2-2.39.55-3.77.71-2.37.27-4.87-.61-7.12,1a2.36,2.36,0,0,1-2,0c-3.92-1.85-8.07-.59-12.09-1v-9c6.59.09,13.18.17,19.78.3.24,0,.47.44.32.29a24,24,0,0,1,3.44-.57c6.13-.05,12.27,0,18.4,0a5.83,5.83,0,0,0,4.06-1c5,0,10.09.66,14.94-.18,5.07-.88,10.06-.68,15.08-.79s10.42-.68,15.44.14c6.06,1,12,.69,18.08.8s12.31,0,18.46,0c1.19,1,2.88,1.56,4,.9,2.5-1.46,5.07-.82,7.6-.86,6.46-.12,12.92,0,19.39,0h16.28l2.72-2c.33-.4.91-.77.95-1.2a36.79,36.79,0,0,0,.05-3.79l4.35.8c2.07-1.51,5-1.35,7.17-.49s4.16.53,6.2.62c1.34,0,2.71-.85,4.07-.85s2.71.66,4.08.89a2.42,2.42,0,0,0,1.84-.27c1.14-1.17,2.48-.59,3.73-.68,3.9-.28,7.61,1.72,11.56,1Z"/><path class="cls-69" d="M166,351.35l1.35-2q20.55,0,41,0a13.43,13.43,0,0,1,2.75.56c.61.13,1.39.58,1.8.36,3.59-1.91,7.41-.65,11.11-.91a75.14,75.14,0,0,1,8.49,0c1.71.08,3.39-.4,5.18.82a5.27,5.27,0,0,0,4.78,0c1.64-1.05,3.14-.72,4.7-.78,3-.11,6-.09,9,0a12.39,12.39,0,0,1,2.83.78A18.63,18.63,0,0,1,270.5,350c1.68-.13,3.33-.78,4.25-.23,1.34.81,3.06.92,3.69.4,2-1.68,4.15-.34,6.14-1,.54.79,1,1.45,1.42,2.11l-1,1c-2.2-.15-3.12,1.4-4,3h-2v2a2.46,2.46,0,0,0-3,2c-.12.28-.15.7-.37.83-5.35,3.42-10.63,7-16.68,9.14-1.17.41-2.68.4-3.48,1.16-2.12,2-5,2.18-7.4,2.62-3.71.69-7.36,2-11.12,2.14-7.16.25-14.38.6-21.47-.1a78.77,78.77,0,0,1-15.23-2.92c-2.61-.81-5.1-2.11-7.72-3.07a58.31,58.31,0,0,1-15.53-8.8c-1.39-1.56-2.73-3.16-4.21-4.63-.36-.35-1.18-.25-1.79-.36C169.7,353.55,168.73,351.35,166,351.35Z"/><path class="cls-70" d="M195,318.42c-2.71-.77-5.32-1.73-8.17-.1-.84.47-2.36-.26-4.25-.55-1.77,1.24-4.59,1-7.21.43-4.49-.92-5.15-1-9.75,0a10.52,10.52,0,0,1-5.29-.11c-2.39-.8-4.52-1.21-6.79.19-.48.3-1.29,0-1.93.12-1.83.27-3.66.6-5.89,1,1.49,4,3.31,7.33,4.28,11-.64-.47-1.7-.84-1.84-1.42-.74-3.17-3-5.82-3.19-9.16a5.63,5.63,0,0,0-.75-1.67c-2.64-5.95-4.52-12.07-4.22-18.68v-19c4.37,0,8.48.05,12.59,0,1.24,0,2.42.2,3.74-.61a5.47,5.47,0,0,1,4.26-.28c3.81,1.49,7.7.64,11.54.92,1.29.1,2.71.77,3.83.41,2.43-.76,4.7-.31,7-.25v3.82c.33,3.19.86,6.37.93,9.56a18.8,18.8,0,0,0,1.06,6.07c.89,2.46,1.38,5.14,2.67,7.36C189.85,311.27,192.53,314.79,195,318.42Z"/><path class="cls-71" d="M183,284.49v-3.82c-2.34-.06-4.61-.51-7,.25-1.12.36-2.54-.31-3.83-.41-3.84-.28-7.73.57-11.54-.92a5.47,5.47,0,0,0-4.26.28c-1.32.81-2.5.58-3.74.61-4.11.07-8.22,0-12.59,0v19c-.33-.43-.95-.85-1-1.28-.06-6.12-.39-12.27.06-18.36.42-5.59,1.9-11.09,2.9-16.64,3-2.88,2.81-7.11,4.47-10.55a13.09,13.09,0,0,1,1.53-2.06l1.37-.65a15.66,15.66,0,0,0,9.58.13,9.25,9.25,0,0,1,6.08,0,7.86,7.86,0,0,0,6.06-.05,4.05,4.05,0,0,1,2.78-.39c3.79,1.73,7.74.7,11.6.89s7.66.09,11.49,0c.69,0,1.37-.66,2-1l3.16,1.6c-.39.81-.77,1.63-1.16,2.44l-1,1c-.61.11-1.4,0-1.79.36-1.69,1.53-3.32,3.15-4.85,4.84-.35.38-.25,1.18-.36,1.78l-1,1c-1.61.88-3.15,1.8-3,4a22.17,22.17,0,0,1-.7,2.18c-2.1,4.82-4.61,9.5-4.34,15C184,284,183.33,284.24,183,284.49Z"/><path class="cls-72" d="M302,330.39v-1.85c-3.46.17-6.89-.9-10.39.62a6.15,6.15,0,0,1-4.25,0c-2.38-.93-4.39-.52-6.81,0-3.27.69-6.82.11-10.26.07-1-1.38-2.43-.84-3.63-.75-4.68.36-9.45-1.05-14.05.79-.21.08-.7-.74-1-.72-1.52.09-3,.32-4.95.55L243,328.4c2.88-2.56,6.3-4.41,9.42-6.61a36,36,0,0,0,10.49-12.05c.59-1,.92-1.94,2.09-2.3,2.44-1.69,1.68-5.09,3.89-7.12l1.94,1.14c2.55-1.27,5.11-1.69,7.72-.14,2.09-1.69,5-1.38,6.93-.63,3.62,1.4,7.15.24,10.66.77,2.17-1.68,4.7-.91,7.08-1a51.75,51.75,0,0,1,7.78.11v5.85c.21,3.34-1,6.4-2.07,9.45-.87,2.56-2.08,5-3,7.58S304.44,328.74,302,330.39Z"/><path class="cls-73" d="M311,306.45V300.6a51.75,51.75,0,0,0-7.78-.11c-2.38.06-4.91-.71-7.08,1-3.51-.53-7,.63-10.66-.77-2-.75-4.84-1.06-6.93.63-2.61-1.55-5.17-1.13-7.72.14l-1.94-1.14c-2.21,2-1.45,5.43-3.89,7.12a9.15,9.15,0,0,1,.62-3.24c2.06-4.24,2.2-9,3.35-13.56.2-.78.38-2,0-2.44-1.66-1.91-.84-4.09-.89-6.12-.05-2.26-1.77-4.22-1.05-6.57v-3.69c1.95-.8,3.69.09,5.47-1a6.08,6.08,0,0,1,5.14.06c1.51.82,2.85.34,4.22.66,2.17.52,4-.89,6.05-1,4.13-.15,8.27-.11,12.41,0a9.51,9.51,0,0,1,2.74.85c2.88-1.19,5.39-1.55,8,.32,0,2.07,0,4,0,6,0,.28.63.53,1,.79.33.42.95.85,1,1.28.06,5.78.11,11.57,0,17.36,0,1.52-.72,3-.92,4.55s-.11,2.93-.22,4.39C311.8,306.23,311.28,306.33,311,306.45Z"/><path class="cls-29" d="M321,122.85c-3.95.74-7.66-1.26-11.56-1-1.25.09-2.59-.49-3.73.68a2.42,2.42,0,0,1-1.84.27c-1.37-.23-2.72-.89-4.08-.89s-2.73.9-4.07.85c-2-.09-4,.25-6.2-.62s-5.1-1-7.17.49l-4.35-.8V99.07c1.24-.06,2.51-.16,3.77-.16,8.33,0,16.66,0,25,0,1.56,0,3.34-.72,4.63.85,1.15-1.2,2.69-.62,4-.94,2.09-.5,3.64,1.19,5.59,1.05Z"/><path class="cls-71" d="M312,278.51c-.33-.26-.94-.51-1-.79-.08-2,0-3.91,0-6-2.58-1.87-5.09-1.51-8-.32a9.51,9.51,0,0,0-2.74-.85c-4.14-.11-8.28-.15-12.41,0-2,.07-3.88,1.48-6.05,1-1.37-.32-2.71.16-4.22-.66a6.08,6.08,0,0,0-5.14-.06c-1.78,1.1-3.52.21-5.47,1v3.69c-.16,0-.45.05-.47,0-1.92-5.19-4.17-10.17-8.18-14.18-.35-.35-.24-1.18-.35-1.78l-1-1c-1.3-1.78-2.27-4-5-4l-2.16-3c1.7,0,3.15.1,4.59,0,1.71-.16,3.49.63,5.15-.87.64-.58,2.45-.51,3.35,0,2.8,1.5,5.72.79,8.59.9s6,0,9,0a2.33,2.33,0,0,0,1.34-.34c1.89-1.47,3.58-.49,5.4.41l1.59-1.13c2.22,1.72,4.89,1,7.43,1.06s4.94,0,7.51,0c.77,2.27,1.66,4.41,2.19,6.63a2.8,2.8,0,0,0,2.06,2.35C310.45,266.29,312.71,272.07,312,278.51Z"/><path class="cls-44" d="M44,258.55V222.63h1v66.85c-1.66-.17-1-1.46-1-2.26C44,277.67,44,268.11,44,258.55Z"/><path class="cls-65" d="M171,355.34c.61.11,1.43,0,1.79.36,1.48,1.47,2.82,3.07,4.21,4.63-.61-.11-1.43,0-1.79-.37C173.73,358.5,172.39,356.89,171,355.34Z"/><path class="cls-65" d="M166,351.35c2.73,0,3.7,2.2,5,4C168.27,355.33,167.3,353.13,166,351.35Z"/><path class="cls-72" d="M290,347.36c-.15-2.2,1.39-3.12,3-4C293.15,345.56,291.61,346.48,290,347.36Z"/><path class="cls-65" d="M281,355.34c.88-1.6,1.8-3.15,4-3C284.12,354,283.2,355.49,281,355.34Z"/><path class="cls-68" d="M163,228.62c.15,2.19-1.39,3.11-3,4C159.85,230.42,161.39,229.49,163,228.62Z"/><path class="cls-74" d="M301,333.39a2.46,2.46,0,0,1-2,3v-2l1-1Z"/><path class="cls-65" d="M276,359.33a2.46,2.46,0,0,1,3-2A2.46,2.46,0,0,1,276,359.33Z"/><path class="cls-72" d="M301,333.39h-1a2.46,2.46,0,0,1,2-3C301.67,331.39,301.33,332.39,301,333.39Z"/><path class="cls-65" d="M279,357.33v-2h2Z"/><path class="cls-72" d="M299,334.38v2h-1C298.15,335.62,297.5,334.47,299,334.38Z"/><path class="cls-72" d="M297,338.38c.15-.76-.5-1.92,1-2C297.85,337.14,298.5,338.29,297,338.38Z"/><path class="cls-72" d="M295,341.37c.15-.76-.5-1.91,1-2C295.85,340.13,296.5,341.28,295,341.37Z"/><path class="cls-72" d="M293,343.36l1-1Z"/><path class="cls-72" d="M296,339.37l1-1Z"/><path class="cls-57" d="M258,128.84c-6.47,0-12.93-.08-19.39,0-2.53,0-5.1-.6-7.6.86-1.13.66-2.82.09-4-.9.26-.33.52-1,.79-1q14.72-.07,29.42,0C257.48,127.88,257.74,128.51,258,128.84Z"/><path class="cls-72" d="M300,333.39l-1,1Z"/><path class="cls-67" d="M200,254.56l-7,7c.11-.6,0-1.4.36-1.78,1.53-1.69,3.16-3.31,4.85-4.84C198.6,254.57,199.39,254.67,200,254.56Z"/><path class="cls-67" d="M192,262.54c.15,2.19-1.39,3.12-3,4C188.85,264.34,190.39,263.42,192,262.54Z"/><path class="cls-67" d="M193,261.54l-1,1Z"/><path class="cls-67" d="M201,253.56l-1,1Z"/><path class="cls-67" d="M257,258.55c-2.73,0-3.7-2.2-5-4C254.73,254.57,255.7,256.77,257,258.55Z"/><path class="cls-67" d="M258,259.55l-1-1Z"/></g></g></svg>