<svg xmlns="http://www.w3.org/2000/svg" viewBox="0 0 496 363.84"><defs><style>.cls-1{fill:#d4b300;}.cls-2{fill:#c9aa00;}.cls-3{fill:#fefefd;}.cls-4{fill:#e1d06e;}.cls-5{fill:#ccac00;}.cls-6{fill:#f8d100;}.cls-7{fill:#d6b501;}.cls-8{fill:#db0;}.cls-9{fill:#fbd400;}.cls-10{fill:#f3cd00;}.cls-11{fill:#e4c100;}.cls-12{fill:#e3c001;}.cls-13{fill:#eac601;}.cls-14{fill:#debb00;}.cls-15{fill:#eec900;}.cls-16{fill:#efc900;}.cls-17{fill:#d0b001;}.cls-18{fill:#f7d100;}.cls-19{fill:#ebc601;}.cls-20{fill:#d8b700;}.cls-21{fill:#d1b100;}.cls-22{fill:#a18800;}.cls-23{fill:#ac9200;}.cls-24{fill:#a88e00;}.cls-25{fill:#ceae01;}.cls-26{fill:#bea100;}.cls-27{fill:#c8a901;}.cls-28{fill:#a38a00;}.cls-29{fill:#c4a600;}.cls-30{fill:#b19600;}.cls-31{fill:#b99d00;}.cls-32{fill:#b59900;}.cls-33{fill:#ab9100;}.cls-34{fill:#bb9f01;}.cls-35{fill:#b19601;}.cls-36{fill:#b49800;}.cls-37{fill:#c0a301;}.cls-38{fill:#c5a700;}.cls-39{fill:#d6b500;}.cls-40{fill:#ceae00;}.cls-41{fill:#c7a800;}.cls-42{fill:#c6a700;}.cls-43{fill:#e7c300;}.cls-44{fill:#d2b201;}.cls-45{fill:#a58c00;}.cls-46{fill:#b79b01;}.cls-47{fill:#dab901;}.cls-48{fill:#dcba00;}.cls-49{fill:#e1be00;}.cls-50{fill:#e5c100;}.cls-51{fill:#ecc701;}.cls-52{fill:#c1a300;}.cls-53{fill:#b39700;}.cls-54{fill:#ccad00;}</style></defs><g id="Layer_2" data-name="Layer 2"><g id="Layer_1-2" data-name="Layer 1"><path class="cls-1" d="M0,8.82A13.11,13.11,0,0,0,2.23,7C4,4.84,5.66,2.54,7.57,0h7c2.92,2.22,5.86,4.67,9,6.79,4.71,3.16,9.25,6.55,13.79,9.92,1.7,1.27,3.38,2.36,5.62,2.08-.16,2.07-2.45.12-2.94,1.56.59.58,1.08,1.41,1.79,1.71,2,.85,3.25,2.61,4.9,3.88,1.46,1.14,3.72,1.56,4.66,2.95a33.2,33.2,0,0,0,4,4.78c3.66,3.7,8.75,5.85,11.53,10.52,2.1.71,3.48,2.34,4.87,3.9,2.2,2.47,5.89,3.44,7,7a1.29,1.29,0,0,0,.72.63c4.48,1.67,7.34,5.54,11,8.3,4,3,7.22,7.05,11.27,10.19,4.38,3.4,8.23,7.49,12.39,11.18,1.49,1.31,2.75,2.94,4.24,4.08a91.08,91.08,0,0,1,9,7.14c1.25,1.22,2.75,2.24,4.05,3.33,3.52,2.95,7.93,5.1,10,9.64a3.69,3.69,0,0,0,2.61,1.89,3.64,3.64,0,0,1,3.41,2.41c.58,2.1,2.58,2.22,3.55,3.48a11.67,11.67,0,0,0,3.64,3.19,8.69,8.69,0,0,1,1.6.93c3.65,3.27,7.35,6.5,10.87,9.9a15.07,15.07,0,0,0,4.72,3.13c-.33,1-.67,2-1,3-1.93.47-.62,2-1,3-1.93.46-.62,2-1,3l-1.72,1c-3-2.09-6.89-3.67-9-6.54a22.54,22.54,0,0,0-8.54-7.08c1.06-2.53,2.42-4.71,2.23-7.33,1.37-1,1.37-2,0-3-4-2.81-8-5.54-11.94-8.44-8.14-6-16-12.5-24.39-18.15-8-5.35-15.43-11.37-23.41-16.7-7.38-4.92-14-11-21.33-16S56.54,50.56,49,45.72c-2.34,1.93-4.47.74-6.21-.79-4.33-3.81-8.48-7.83-12.69-11.75L31,32.1l-2-1.34c-7.08-5-14.21-9.87-20.93-15.33C5.54,13.37,2.7,11.68,0,9.81Z"/><path class="cls-2" d="M472,308c-.07,6.24-2.17,11.91-4.45,18.1,2.86,2.24,6.28,5.11,9.89,7.73,6.13,4.43,12.37,8.71,18.56,13.06v1a16.91,16.91,0,0,1-3.25,2.66c-3,1.4-4.87,3.82-6.75,6.31-3.62-1.93-6.44-4.82-9.26-7.73a24.83,24.83,0,0,0-2.83-2.79,114.92,114.92,0,0,1-13.26-11.27c-2.23-2.23-4.26-4.73-6.75-6.62a119,119,0,0,1-11.84-9.88,24,24,0,0,0-4.79-4c-2.6-1.53-4.63-4-7.1-5.8-1.12-.81-.54-3.15-2.72-2.81-5.25-4.32-10.54-8.57-15.44-13.31-.94-.91-.79-2.51-2.67-3-1.38-.33-2.21-2.47-3.6-3.3-5.11-3.06-9.52-6.77-12.59-11.94l.85-.35h1l1,1,1,1c.33.34.67.67,1,1h1l1,1,1,1h1l1,1c.33.34.67.67,1,1l1,1h1l1,1,1,1,2,1,1,1,1,1h1l1,1,1,1,1,1h1l1,1,1,1h1l1,1,1,1,1,1h1c.33.34.67.67,1,1l1,1,2,1c.33.34.67.67,1,1l1,1h1l1,1,1,1,1,1h1l1,1,1,1h1l1,1,1,1,1,1h1l1,1,1,1,2,1,.76,1,1.24-1V240.18h1v60.25c1.46.7,2.76,1,3.64,1.79q6.94,6.21,13.69,12.63c1.06,1,2,1.56,3.43.87a1.25,1.25,0,0,0,.23-.4c0-.32,0-.66,0-1A57.66,57.66,0,0,1,472,308Z"/><path class="cls-3" d="M486,356.86c1.88-2.49,3.78-4.91,6.75-6.31a16.91,16.91,0,0,0,3.25-2.66v15.95H483v-4Z"/><ellipse class="cls-4" cx="482" cy="361.85" rx="1.41" ry="2.82"/><path class="cls-5" d="M483,359.86h-2c-7.71-4.61-14.37-10.7-21.91-15.56-2.6-1.68-4.67-3.93-8.09-3.39-.76.15-1.91-.5-2,1-.76.15-1.91-.49-2,1-.49,0-1.15.21-1.46,0-2.13-1.68-4.23-3.4-6.26-5.19-3.4-3-6.68-6.1-10.13-9-1.33-1.12-3.27-1.56-3.71-2.68.29-1.54.42-2.28.56-3,1-.38,2.53.92,3-1l-1-1c-6.57-3.41-12-8.47-18.08-12.59-4.42-3-8.69-6.18-13-9.37a27.59,27.59,0,0,1-2.95-3c-.24-.73-.25-1.76-.75-2.14a24,24,0,0,0-3.33-1.9c-2.06-2.63-3.61-4.82-5.38-6.81a19.79,19.79,0,0,0-3.07-2.16c-1.39-1.06-2.4-2.47-4.11-3.32a8.07,8.07,0,0,1-3.43-2.84,17,17,0,0,0-3.67-4c-3.19-2.67-6.6-5.08-9.73-7.81-4.32-3.76-8.47-7.71-12.68-11.6-.73-.67-1.31-1.8-2.14-2-2.1-.57-3-2.43-4.51-3.6s-3.08-2.28-4.52-3.54-2.39-3.13-4-3.72c-2-.73-1.85-2.81-3.4-3.64-.7-.37-1.1-1.31-1.8-1.69a38.93,38.93,0,0,1-8.36-6.35c-.77-.75-1.94-1.08-2.72-1.82s-1.35-2.08-2.26-2.84c-2.56-2.16-5.44-4-7.85-6.27-5.42-5.16-10.58-10.57-16.83-14.82-2.3-1.57-3.88-4.16-6.11-5.86s-3.33-3.92-5.51-5.53l1.12-.46h1l2,1.59v-2.59a18.93,18.93,0,0,1,.68-3.13c.67-1.67,1.9-3.19,2.25-4.91.78-3.9,3.67-6.2,6.07-8.91-.23.87-.45,1.74-.76,2.94,1.24,2.67,11.45,11.11,16.15,14,.34-.31.68-.67,1.06-1s1-.7,1.55-1a9.55,9.55,0,0,1-.73,2.17c-.66,1.08-1.58,2-2.26,3.06-2.82,4.48-3.35,9.4-2.9,14.41l39.71,28.56c3.34-2.36,7.3-3.09,9.73-6.29.18-.24.95,0,1.45,0l-1.87,2.59c1.57,3.35,4.32,5.79,7.09,7.94a150.62,150.62,0,0,1,12.51,10.6c2.31,2.24,4.27,4.86,7.27,6.42,1.14.6,1.78,2.14,2.73,3.37H383c-.61,2.3-3.07-.08-4,1.65,3.12,2.1,6.32,4.12,9.35,6.36,2,1.48,3.77,3.29,5.65,4.95l-.85.35c3.07,5.17,7.48,8.88,12.59,11.94,1.39.83,2.22,3,3.6,3.3,1.88.46,1.73,2.06,2.67,3,4.9,4.74,10.19,9,15.44,13.31,2.18-.34,1.6,2,2.72,2.81,2.47,1.79,4.5,4.27,7.1,5.8a24,24,0,0,1,4.79,4,119,119,0,0,0,11.84,9.88c2.49,1.89,4.52,4.39,6.75,6.62a114.92,114.92,0,0,0,13.26,11.27,24.83,24.83,0,0,1,2.83,2.79c2.82,2.91,5.64,5.8,9.26,7.73Z"/><path class="cls-6" d="M24,300c.71-4.9-1.28-9.6-1.05-14.49s.22-9.94,0-14.89c-.19-4.24,1.78-8.25,1.05-12.51,2.68.38,4.54,2.15,6.35,3.88,4.7,4.51,9,9.43,14.55,13.11L47,275V233.2c0-5.07,0-10.14,0-15.2,0-.72-.35-1.74,1-1.75V312a2.46,2.46,0,0,0,2,3c.15.75-.5,1.91,1,2l1,1,1,1,1,1c.09,1.5,1.24.85,2,1,.47,1.92,2,.62,3,1,0,1.34,1,1,1.76,1,5.74,0,11.49,0,17.24,0,.47.63.84,1.69,1.42,1.82,3.06.69,4.86,3,6.9,5,1.78,1.74,3.49,3.54,5.29,5.25,1.41,1.35,2.92,2.58,4.34,3.91a13.63,13.63,0,0,0,4.56,3.19c1.29.48,2.07,2.28,3.32,3.78,6.49,0,13.44,0,20.39,0,.72,0,1.77-.38,1.78,1H99c0-1.36-1.06-1-1.78-1-6,0-11.9,0-17.09,0l-6.37-6.27c-6.51-3.68-10.3-9.4-15.43-13.7H55.48c-1-1-1.91-1.89-2.84-2.83-2.51-2.52-4.58-5.64-7.18-7.83-4.14-3.49-7.79-7.43-11.76-11-1.65-1.5-3.36-2.93-4.82-4.2Z"/><path class="cls-7" d="M441,344.9c-1.21,2.15-3.3,2-5.33,2H394c-.18-1.67-1.49-1-2.29-1-10.12-.05-20.25,0-29.36,0-4.22-1.61-4.83-5.43-7.9-7.31-2.68-1.65-3.81-5.22-7-6.94-2.87-1.54-5.12-4.26-7.42-6.27V323h48l1.21,3.86c2.38.3,3.18,2.37,4.69,3.52s3.56,2,4.37,3.57c1.05,2,3,2.55,4.35,4s3,2.28,4.43,3.57,2.54,2.78,4,4.39c4.71,0,9.84.13,15,0S436,345.23,441,344.9Z"/><path class="cls-8" d="M340,323v2.41c2.3,2,4.55,4.73,7.42,6.27,3.22,1.72,4.35,5.29,7,6.94,3.07,1.88,3.68,5.7,7.9,7.31,9.11,0,19.24,0,29.36,0,.8,0,2.11-.71,2.29,1H355c-.35-1.94-1.87-.94-2.78-.95-12.28-.07-24.56-.05-36.46-.05-3-1.88-4.37-4.89-6.95-6.83-2.77-2.06-4.92-4.92-7.5-7.26-2.38-2.17-5-4.12-7.31-6V323Z"/><path class="cls-9" d="M24,300h4.88c1.46,1.27,3.17,2.7,4.82,4.2,4,3.61,7.62,7.55,11.76,11,2.6,2.19,4.67,5.31,7.18,7.83.93.94,1.87,1.87,2.84,2.83h2.85c5.13,4.3,8.92,10,15.43,13.7l6.37,6.27c5.19,0,11.14,0,17.09,0,.72,0,1.77-.38,1.78,1H65.58c-2.49,0-5.06.38-7.46-.11-2-.43-3.93-1.67-6-2.29A40.69,40.69,0,0,1,42.52,340c-.51-.31-1.22-.36-1.68-.73a40.31,40.31,0,0,1-5.78-5C32.34,331,30,327.4,27.52,323.93a6.51,6.51,0,0,1-.52-1.77C25.16,316.58,23.33,311,24,305A45.75,45.75,0,0,0,24,300Z"/><path class="cls-10" d="M195,346.89H168c-.18-1.66-1.48-1-2.28-1-11.12-.05-22.23,0-32.92,0-5.47-4.31-9.08-10-14.82-13.48-1.4-3.63-5-4.35-7.9-5.85-.37-1.24-.73-2.42-1.08-3.6h46c.47,2.26,3.14,2,4.2,3.63s2.31,3,3.48,4.53a1.65,1.65,0,0,0,.36.34c3.56,2.31,6.93,4.79,9.43,8.34a6.49,6.49,0,0,0,3,2.28c1.29.52,2.08,2.27,3.38,3.81,4.45,0,9.41,0,14.37,0C193.94,345.91,195,345.52,195,346.89Z"/><path class="cls-11" d="M24,143.45c0-5.45,0-10.89,0-16.33.06-5-1.45-9.87-1.09-14.94S23,102,23,96.85c0-.8-.69-2.1,1-2.27v4.74c.79.2,1.61.28,1.63.44.27,2.34,2.46,2.67,3.88,3.77.59.47,1.71.55,2,1.1,2.55,5.18,7.85,7.56,11.69,11.41A4.27,4.27,0,0,0,47,117.52v42.8l-2.15.1c-2.08-1.62-3.92-3.55-6.17-4.65a8.5,8.5,0,0,1-4-3.35c-.79-1.58-2.27-1.95-3.25-3s-2.33-1.69-3.23-3S26.31,143.06,24,143.45Z"/><path class="cls-12" d="M294,323v2.8c2.34,1.92,4.93,3.87,7.31,6,2.58,2.34,4.73,5.2,7.5,7.26,2.58,1.94,3.91,4.95,6.95,6.83,11.9,0,24.18,0,36.46.05.91,0,2.43-1,2.78.95H297c0-1.35-1-1-1.76-1q-11.13,0-22.24,0c.12-3.16-1.16-5.62-4-6.93a18,18,0,0,1-5.7-4.26c-1.48-1.57-2.81-3.48-4.62-4.48-3.24-1.8-5.4-4.53-7.64-7.26Z"/><path class="cls-10" d="M47,233.2V275l-2.1.14c-5.52-3.68-9.85-8.6-14.55-13.11-1.81-1.73-3.67-3.5-6.35-3.88,0-5.77,0-11.55,0-17.32,0-5-1.45-9.86-1.09-14.94s0-10.22.11-15.33c0-.8-.69-2.1,1-2.27v8.82l2.51.26,18,15.85Z"/><path class="cls-13" d="M24,143.45c2.31-.39,3.32,1.56,4.21,2.89s2.26,1.93,3.23,3,2.46,1.47,3.25,3a8.5,8.5,0,0,0,4,3.35c2.25,1.1,4.09,3,6.17,4.65l2.15-.1v-42.8c0-10.88,0-21.76,0-32.64,0-.8-.69-2.09,1-2.27v95.74c-1.36,0-1,1.05-1,1.77,0,5.76,0,11.53,0,17.3,0,.27-.27.54-.37.75H44.37c-1.77-1.77-3.94-3.14-4.91-5.1-1.25-2.52-3.19-3.68-5.47-4.76a4.47,4.47,0,0,1-1.53-1.06A21.53,21.53,0,0,0,24,181.34c-1.9-8.57-.69-17.26-1-25.89C22.89,151.42,24.7,147.53,24,143.45Z"/><path class="cls-14" d="M48,82.61c-1.66.18-1,1.47-1,2.27-.05,10.88,0,21.76,0,32.64A4.27,4.27,0,0,1,43.18,116c-3.84-3.85-9.14-6.23-11.69-11.41-.27-.55-1.39-.63-2-1.1-1.42-1.1-3.61-1.43-3.88-3.77,0-.16-.84-.24-1.63-.44V94.58c0-8.24.08-16.48-.05-24.72,0-2.84-.75-5.65-.91-8.49s-.06-5.93,0-8.9c0-.72-.37-1.76,1-1.77v6.7c6.68,8.67,14.8,14.21,23,21.13V74.27c0-7.43,0-14.86,0-22.3,0-.79-.69-2.09,1-2.26Z"/><path class="cls-15" d="M195,346.89c0-1.37-1.06-1-1.78-1-5,0-9.92,0-14.37,0-1.3-1.54-2.09-3.29-3.38-3.81a6.49,6.49,0,0,1-3-2.28c-2.5-3.55-5.87-6-9.43-8.34a1.65,1.65,0,0,1-.36-.34c-1.17-1.5-2.46-2.93-3.48-4.53s-3.73-1.37-4.2-3.63h37c1.53,1.66,2.78,3.84,4.66,4.87a14.9,14.9,0,0,1,6.39,7.17c4.81,3.94,10.13,5.73,12.49,10.83,1,.33,2.28-.58,2.46,1.06Z"/><path class="cls-16" d="M24,181.34a21.53,21.53,0,0,1,8.46,5.91A4.47,4.47,0,0,0,34,188.31c2.28,1.08,4.22,2.24,5.47,4.76,1,2,3.14,3.33,4.91,5.1h2.24c.1-.21.37-.48.37-.75,0-5.77,0-11.54,0-17.3,0-.72-.37-1.76,1-1.77v37.9c-1.34,0-1,1-1,1.75,0,5.06,0,10.13,0,15.2H44.51l-18-15.85L24,217.09V181.34Z"/><path class="cls-17" d="M441,344.9c-5,.33-10,.79-15,1s-10.26,0-15,0c-1.45-1.61-2.62-3.11-4-4.39s-3.18-2.18-4.43-3.57-3.3-2-4.35-4c-.81-1.53-2.86-2.42-4.37-3.57s-2.31-3.22-4.69-3.52L388,323h38c-.14.73-.27,1.47-.56,3,.44,1.12,2.38,1.56,3.71,2.68,3.45,2.93,6.73,6,10.13,9,2,1.79,4.13,3.51,6.26,5.19.31.24,1,0,1.46,0A7.94,7.94,0,0,1,441,344.9Z"/><path class="cls-18" d="M109,323c.35,1.18.71,2.36,1.08,3.6,2.92,1.5,6.5,2.22,7.9,5.85,5.74,3.44,9.35,9.17,14.82,13.48,10.69,0,21.8,0,32.92,0,.8,0,2.1-.7,2.28,1H126c0-1.36-1.06-1-1.78-1-7,0-13.9,0-20.39,0-1.25-1.5-2-3.3-3.32-3.78A13.63,13.63,0,0,1,96,338.92c-1.42-1.33-2.93-2.56-4.34-3.91-1.8-1.71-3.51-3.51-5.29-5.25-2-2-3.84-4.29-6.9-5-.58-.13-1-1.19-1.42-1.82Z"/><path class="cls-19" d="M218,346.89c-.18-1.64-1.49-.73-2.46-1.06-2.36-5.1-7.68-6.89-12.49-10.83a14.9,14.9,0,0,0-6.39-7.17c-1.88-1-3.13-3.21-4.66-4.87h28a6.88,6.88,0,0,0,2.46,4.93c3.83,3.52,7.36,7.52,11.65,10.36,3.11,2.06,4.47,5,6.56,7.64H273q11.12,0,22.24,0c.72,0,1.75-.37,1.76,1Z"/><path class="cls-20" d="M48,49.71c-1.66.17-1,1.47-1,2.26-.05,7.44,0,14.87,0,22.3v4.26C38.8,71.61,30.68,66.07,24,57.4V50.7c-.33-3.19.76-6.13,1.63-9.11a5.74,5.74,0,0,0,.35-1.8,6.14,6.14,0,0,1,2-5.5c1.28-1,.93-2.29,1-3.53l2,1.34-.92,1.08c4.21,3.92,8.36,7.94,12.69,11.75,1.74,1.53,3.87,2.72,6.21.79-.22.72-.48,1.43-.66,2.17C48.18,48.48,48.11,49.1,48,49.71Z"/><path class="cls-17" d="M449,341.9c.09-1.49,1.24-.84,2-1C450.91,342.4,449.76,341.75,449,341.9Z"/><path class="cls-17" d="M447,342.9c.09-1.49,1.24-.85,2-1C448.91,343.4,447.76,342.75,447,342.9Z"/><path class="cls-21" d="M172,134.47a15.07,15.07,0,0,1-4.72-3.13c-3.52-3.4-7.22-6.63-10.87-9.9a8.69,8.69,0,0,0-1.6-.93,11.67,11.67,0,0,1-3.64-3.19c-1-1.26-3-1.38-3.55-3.48a3.64,3.64,0,0,0-3.41-2.41,3.69,3.69,0,0,1-2.61-1.89c-2.09-4.54-6.5-6.69-10-9.64-1.3-1.09-2.8-2.11-4.05-3.33a91.08,91.08,0,0,0-9-7.14c-1.49-1.14-2.75-2.77-4.24-4.08-4.16-3.69-8-7.78-12.39-11.18C97.84,71,94.64,67,90.62,64c-3.67-2.76-6.53-6.63-11-8.3a1.29,1.29,0,0,1-.72-.63c-1.16-3.52-4.85-4.49-7-7-1.39-1.56-2.77-3.19-4.87-3.9-2.78-4.67-7.87-6.82-11.53-10.52a33.2,33.2,0,0,1-4-4.78c-.94-1.39-3.2-1.81-4.66-2.95-1.65-1.27-2.87-3-4.9-3.88-.71-.3-1.2-1.13-1.79-1.71.49-1.44,2.78.51,2.94-1.56.76-.15,1.91.49,2-1,.76-.15,1.91.5,2-1l1-1a17.67,17.67,0,0,0,2.82-.05c.43-.07.79-.62,1.18-.95a20.48,20.48,0,0,1,9.25-3H74c-.12.28-.22.81-.35.81-2.46.1-4.94,0-7.39.22s-4.7.66-7.05.95c-1.05.14-2.13.15-3.43.23a33.11,33.11,0,0,0,3.1,4.09c2.09,2,4.15,4.21,6.66,5.51s3.61,3.89,5.89,4.92c2.55,1.16,3.89,3.39,5.83,5.06.5.42.51,1.41.74,2.14-4.64.13-9.29-.28-14.5.33L66,37.74l2,1,1,1,1,1h1l1,1,1,1,1,1h1l1,1,1,1h1l1,1,1,1,1,1h1l1,1,1,1,2,1,1,1,1,1h1l1,1,1,1,1,1h1l1,1,1,1h1l1,1,1,1,1,1c.62.12,1.38,0,1.83.38,3.31,2.49,6.49,5.17,9.85,7.58,5.11,3.65,10.54,6.89,15.47,10.77,4.37,3.46,8.92,6.73,13.42,10,6.13,4.4,12.33,8.74,18.31,13.2H160l-.92,1.57c1.63,1.63,3.2,3.35,4.94,4.9,4.59,4.08,8,9.53,14,12,.43.18.71.7,1.08,1,3.74,3.4,7.3,7,11.3,10.13,2.73,2.1,4.94,4.79,7.73,6.65,2.22,1.48,3.9,3.39,5.87,5s4,3.21,5.92,5c5.56,5.12,11,10.32,16.57,15.47a15.73,15.73,0,0,0,1.56,1c3.19,2.35,6.45,4.61,9.51,7.11,1.19,1,1.8,2.62,2.91,3.73s2.67,1.76,3.76,2.88c3.46,3.56,8.35,5.67,10.59,10.47.17.35.77.5,1.17.74a54.55,54.55,0,0,1,12.42,9.82,68.24,68.24,0,0,0,6.72,6.67c4.42,3.66,9.16,6.94,13.53,10.65,3.47,3,6.53,6.35,10.16,9.19,4.95,3.9,8.43,9.48,14.38,12.35,1.7.81,2.64,3.4,4.34,4,2.09.7,1.75,2.86,3.38,3.7a31.29,31.29,0,0,1,4.56,3.46c1.38,1.08,2.57,2.31,4.09,3.3,2.77,1.8,5,4.43,7.45,6.71H326c-2.16-2.19-5-2-7.59-2l-1.82-4c-.41,0-.88.15-1.06,0-2.36-2.2-4.49-4.63-7.32-6.33a5.88,5.88,0,0,1-2.15-2.55c-.5-1.14-1.38-1.49-2.26-2.16-2.31-1.75-5.56-2.58-6.08-5.23-2-1.66-3.8-1.89-5-4.11-1.39-2.6-4.11-4.7-6.67-6.4a48,48,0,0,1-4.06-3.12c-.38-1,.93-2.52-1-3a8.79,8.79,0,0,0-.05-2.86c-.75-2-.27-4.41-1.95-6.11-3-2.07-5.77-4.38-8.77-6.45-7.32-5-14.06-10.9-21.35-16-8.08-5.66-16.17-11.29-23.88-17.44l-1-1h-1c-.46-1.3-1.08-2.35-2.87-1.81a16.69,16.69,0,0,1,.85,2c.19.7-.35,1.76,1,1.77.29,2.93.79,5.77,3,8,.15.76-.5,1.91,1,2v1.9c-2.62.32-4.61-.5-5.73-2.29-.78-1.25-1.1-2.59-2.86-2.7s-.48-3.16-2.71-2.9c-4.45-3.71-9-7.27-13.32-11.18-3.35-3.07-6.52-6.31-10.38-8.76-2.14-.29-.68-2.36-1.74-3.53a13.64,13.64,0,0,1-2.83-6.65,7.59,7.59,0,0,0-3.68-5.38c-3.12-1.89-5.67-4.48-8.75-6.38Z"/><path class="cls-22" d="M472,51.7v6c-2.38,1.85-4.33.61-6.32-.79-1.43-1-2.42-2.4-4.05-3.36-2.85-1.66-5.82-3.91-7.44-6.67s-4.53-3.21-6.59-5c0,0-.22.07-.34.12l-.68.68L445,41.73a8.59,8.59,0,0,1-3.63-2.9c-.85-1.14-2.87-1.42-4.37-2.09-.4-.33-.77-.91-1.2-1a37,37,0,0,0-3.8,0c-.74-2.07-2.8-2.18-4.4-3-3-1.58-5.65-3.58-7-6.69a16.58,16.58,0,0,1-3.44-1.59c-3.78-3-7.43-6.06-11.17-9.06a2.51,2.51,0,0,1-1-2.55h28c.47,1.92,2,.61,3,1h5c4.71.23,8.63,2.54,12.43,5,6.39,4.08,11.13,9.8,15.07,16.13a10.12,10.12,0,0,1,1.5,6.84c-.52,3.32,1.33,6.36,1.21,9.64C471.2,51.47,471.72,51.59,472,51.7Z"/><path class="cls-23" d="M472,123.5c.33.43.95.85,1,1.27.06,7.9.1,15.79,0,23.69,0,1.67-.74,3.33-.91,5a47.62,47.62,0,0,0,0,4.93c-1.25.05-2.64-.41-3.53,1a13.11,13.11,0,0,0-1.06-1c-3.34-2.68-6.71-5.33-10-8.05a14.93,14.93,0,0,1-1.4-1.87c-1.84-2.16-3.83-4.1-7-4,0-7.56,0-15.12,0-22.68,0-.8.69-2.09-1-2.26V49.71c1.66.16,1,1.46,1,2.25,0,7.89,0,15.78,0,23.67v33.25a28.08,28.08,0,0,1,2.74,1.92c5.65,5.24,11.26,10.52,16.87,15.76l3.39-.2Z"/><path class="cls-24" d="M472,123.5v2.86l-3.39.2C463,121.32,457.39,116,451.74,110.8a28.08,28.08,0,0,0-2.74-1.92V75.63a2.75,2.75,0,0,1,2.58,1c2.16,2.3,4.2,4.81,6.73,6.62,3.24,2.32,6.29,4.84,9.72,7.57l4-1.31V66.66c.33.42.95.85,1,1.28.06,7.76.82,15.62-.15,23.26C471.44,102,472.5,112.75,472,123.5Z"/><path class="cls-25" d="M78,35.74c-.23-.73-.24-1.72-.74-2.14-1.94-1.67-3.28-3.9-5.83-5.06-2.28-1-3.44-3.65-5.89-4.92S61,20.09,58.88,18.11A33.11,33.11,0,0,1,55.78,14c1.3-.08,2.38-.09,3.43-.23,2.35-.29,4.69-.77,7.05-.95s4.93-.12,7.39-.22c.13,0,.23-.53.35-.81h45c-.18,1.67-1.49,1-2.29,1-8.33.06-16.66,0-25,.05-.92,0-1.84.12-2.79.19.52,3.12.48,3.18,3.1,4.77s5.74,3.35,7.35,6.1a10.2,10.2,0,0,0,4.39,3.9,20,20,0,0,1,8.22,8Z"/><path class="cls-26" d="M449,267.11V235.2c2.46,1.37,5.19,2.4,7.06,4.59,3.09,3.6,7,6.21,10.88,8.71,1.34.85,2.75,2.29,5.06,1.36V236.19c.33.26,1,.52,1,.78.05,7.76.85,15.62-.18,23.23-1.08,8-.3,15.92-.78,23.86h-3.5a41.47,41.47,0,0,0-4.88-4.77,75.44,75.44,0,0,1-9.61-7.66C452.41,270.06,450.67,268.61,449,267.11Z"/><path class="cls-27" d="M112,35.74a20,20,0,0,0-8.22-8,10.2,10.2,0,0,1-4.39-3.9c-1.61-2.75-4.58-4.42-7.35-6.1s-2.58-1.65-3.1-4.77c1-.07,1.87-.19,2.79-.19,8.32,0,16.65,0,25-.05.8,0,2.11.71,2.29-1h44v1H120.05c1.23,1.8,2.19,3.37,3.33,4.82a12.69,12.69,0,0,0,2.82,2.8,66.43,66.43,0,0,1,11.15,9.18c.7.72,1.3,1.78,2.14,2,2.22.69,3.36,2.35,4.51,4.09Z"/><path class="cls-28" d="M472,66.66V89.54l-4,1.31c-3.43-2.73-6.48-5.25-9.72-7.57-2.53-1.81-4.57-4.32-6.73-6.62a2.75,2.75,0,0,0-2.58-1c0-7.89,0-15.78,0-23.67,0-.79.69-2.09-1-2.25-.06-1.24.21-2.42-.93-3.53A5.77,5.77,0,0,1,445,41.73l1.58.92.68-.68c.12,0,.3-.16.34-.12,2.06,1.8,4.92,2.17,6.59,5s4.59,5,7.44,6.67c1.63,1,2.62,2.35,4.05,3.36,2,1.4,3.94,2.64,6.32.79Z"/><path class="cls-29" d="M449,267.11c1.67,1.5,3.41,2.95,5,4.52a75.44,75.44,0,0,0,9.61,7.66,41.47,41.47,0,0,1,4.88,4.77H472c0,2.95-.68,6.1.15,8.8,1.43,4.66.45,9.27.8,13.88,0,.39-.62.84-.95,1.26a57.66,57.66,0,0,0-2,6.33c0,.33,0,.67,0,1a1.25,1.25,0,0,1-.23.4c-1.4.69-2.37.14-3.43-.87q-6.76-6.41-13.69-12.63c-.88-.78-2.18-1.09-3.64-1.79Z"/><path class="cls-30" d="M449,144.45c3.16-.14,5.15,1.8,7,4a14.93,14.93,0,0,0,1.4,1.87c3.31,2.72,6.68,5.37,10,8.05a13.11,13.11,0,0,1,1.06,1c.89-1.38,2.28-.92,3.53-1V190.5l-3.35.92c-3.73-3.34-7.25-6.24-10.44-9.45-2.73-2.75-5.56-5.2-9.21-6.61Z"/><path class="cls-31" d="M472,236.19v13.67c-2.31.93-3.72-.51-5.06-1.36-3.92-2.5-7.79-5.11-10.88-8.71-1.87-2.19-4.6-3.22-7.06-4.59V204.28c.49,0,1.16-.21,1.46,0,4.42,3.66,8.8,7.38,13.18,11.08l4.73,4c1-1.56,2.38-1.1,3.63-1.16Z"/><path class="cls-32" d="M472,218.24c-1.25.06-2.64-.4-3.63,1.16l-4.73-4c-4.38-3.7-8.76-7.42-13.18-11.08-.3-.24-1,0-1.46,0V175.36c3.65,1.41,6.48,3.86,9.21,6.61,3.19,3.21,6.71,6.11,10.44,9.45l3.35-.92V180.35c.33.42.95.84,1,1.27.06,7.57.64,15.21-.18,22.69C472.26,209,472.23,213.6,472,218.24Z"/><path class="cls-33" d="M441,13.8h-5c-.47-1.92-2-.61-3-1H380v-1h54.17C436.66,11.8,439.1,11.86,441,13.8Z"/><path class="cls-34" d="M222,11.81h58v1H222Z"/><path class="cls-35" d="M380,11.81v1H329v-1Z"/><path class="cls-36" d="M329,11.81v1H280v-1Z"/><path class="cls-37" d="M222,11.81v1H182v-1Z"/><ellipse class="cls-38" cx="172.5" cy="12.31" rx="13.44" ry="0.71"/><path class="cls-28" d="M472,51.7c-.28-.11-.8-.23-.79-.33.12-3.28-1.73-6.32-1.21-9.64,1.66,1.71,1.29,4.09,1.93,6.13C472.3,49,472,50.41,472,51.7Z"/><path class="cls-1" d="M52,14.8c-.39.33-.75.88-1.18.95A17.67,17.67,0,0,1,48,15.8c.39-.33.75-.88,1.18-1A17.67,17.67,0,0,1,52,14.8Z"/><path class="cls-1" d="M47,16.8c-.09,1.49-1.24.84-2,1C45.09,16.3,46.24,17,47,16.8Z"/><path class="cls-1" d="M45,17.79c-.09,1.49-1.24.85-2,1C43.09,17.3,44.24,17.94,45,17.79Z"/><path class="cls-1" d="M48,15.8l-1,1Z"/><path class="cls-39" d="M146,139.46c0-.66-.24-1.44,0-2,2.26-4.19,3.06-8.92,5-13.22.16-.34.65-.53,1-.79.19,2.62-1.17,4.8-2.23,7.33a22.54,22.54,0,0,1,8.54,7.08c2.08,2.87,6,4.45,9,6.54l1.72-1v3.46c-1.41,1.4-1,1.62-2.11,3.56s-.53,4.67-2.89,5.94c-1.93.47-.62,2-1,3-1.5.09-.85,1.24-1,2a4.63,4.63,0,0,1-1.81-.37c-1-.77-1.8-2-2.9-2.58-4.37-2.47-8.85-4.74-11.33-9.48-.29-.54-1.3-.7-2-1v-3.5C145.91,143.28,146.09,141.42,146,139.46Z"/><path class="cls-39" d="M172,134.47l2,2-3,1C171.33,136.47,171.67,135.47,172,134.47Z"/><path class="cls-39" d="M170,140.46c.38-1-.93-2.53,1-3C170.62,138.45,171.93,140,170,140.46Z"/><path class="cls-39" d="M169,143.45c.38-1-.93-2.53,1-3C169.62,141.44,170.93,143,169,143.45Z"/><path class="cls-39" d="M152,123.5v-3C153.37,121.51,153.37,122.5,152,123.5Z"/><path class="cls-29" d="M448,240.18V119.51c1.66.17,1,1.46,1,2.26,0,7.56,0,15.12,0,22.68v95.73Z"/><path class="cls-5" d="M446,311h2l-1.24,1Z"/><path class="cls-5" d="M395,274.09l1,1Z"/><path class="cls-5" d="M396,275.09l1,1Z"/><path class="cls-5" d="M397,276.08l1,1C397.67,276.75,397.33,276.42,397,276.08Z"/><path class="cls-5" d="M399,277.08l1,1Z"/><path class="cls-5" d="M400,278.08l1,1Z"/><path class="cls-5" d="M402,279.08l1,1Z"/><path class="cls-5" d="M403,280.07l1,1C403.67,280.74,403.33,280.41,403,280.07Z"/><path class="cls-5" d="M404,281.07l1,1Z"/><path class="cls-5" d="M406,282.07l1,1Z"/><path class="cls-5" d="M407,283.07l1,1Z"/><path class="cls-5" d="M410,285.06l1,1Z"/><path class="cls-5" d="M411,286.06l1,1Z"/><path class="cls-5" d="M413,287.05l1,1Z"/><path class="cls-5" d="M414,288.05l1,1Z"/><path class="cls-5" d="M415,289.05c.33.33.67.66,1,1Z"/><path class="cls-5" d="M417,290.05l1,1Z"/><path class="cls-5" d="M418,291l1,1Z"/><path class="cls-5" d="M420,292l1,1Z"/><path class="cls-5" d="M421,293c.33.33.67.66,1,1Z"/><path class="cls-5" d="M424,295l1,1C424.67,295.7,424.33,295.37,424,295Z"/><path class="cls-5" d="M425,296l1,1Z"/><path class="cls-5" d="M428,298c.33.34.67.67,1,1C428.67,298.69,428.33,298.36,428,298Z"/><path class="cls-5" d="M429,299l1,1Z"/><path class="cls-5" d="M431,300l1,1Z"/><path class="cls-5" d="M432,301l1,1Z"/><path class="cls-5" d="M433,302l1,1Z"/><path class="cls-5" d="M435,303l1,1Z"/><path class="cls-5" d="M436,304l1,1Z"/><path class="cls-5" d="M438,305l1,1Z"/><path class="cls-5" d="M439,306l1,1Z"/><path class="cls-5" d="M440,307l1,1Z"/><path class="cls-5" d="M442,308l1,1Z"/><path class="cls-5" d="M443,309l1,1Z"/><path class="cls-5" d="M422,294l1,1Z"/><path class="cls-40" d="M203,125.5c2.48,1.9,3.06,5,3.76,7.58.61,2.27,2.34,4,2.41,6.58,0,1,1.88,1.94,3,2.78q8,5.91,16.1,11.74c3.83,2.77,7.71,5.48,11.57,8.22,4.24,3,8.51,6,12.72,9.06,5.38,3.92,10.67,8,16.06,11.86,2.92,2.12,6,4,8.94,6.12a7.84,7.84,0,0,1,1.43,1.88l-1.12.46c2.18,1.61,3.4,3.92,5.51,5.53s3.81,4.29,6.11,5.86c6.25,4.25,11.41,9.66,16.83,14.82,2.41,2.31,5.29,4.11,7.85,6.27.91.76,1.4,2,2.26,2.84s1.95,1.07,2.72,1.82a38.93,38.93,0,0,0,8.36,6.35c.7.38,1.1,1.32,1.8,1.69,1.55.83,1.45,2.91,3.4,3.64,1.57.59,2.59,2.51,4,3.72s3,2.36,4.52,3.54,2.41,3,4.51,3.6c.83.23,1.41,1.36,2.14,2,4.21,3.89,8.36,7.84,12.68,11.6,3.13,2.73,6.54,5.14,9.73,7.81a17,17,0,0,1,3.67,4,8.07,8.07,0,0,0,3.43,2.84c1.71.85,2.72,2.26,4.11,3.32a19.79,19.79,0,0,1,3.07,2.16c1.77,2,3.32,4.18,5.38,6.81a24,24,0,0,1,3.33,1.9c.5.38.51,1.41.75,2.14-.5,0-1.19.22-1.47,0-5.44-4.92-11.64-8.88-17.54-13.17-5.05-3.66-9.95-7.6-15.37-10.85-4.74-2.84-8.88-6.67-13.32-10a30,30,0,0,0-2.82-1.69c-1.17,1.55-3,.62-4.48.87h-2c-2.45-2.28-4.68-4.91-7.45-6.71-1.52-1-2.71-2.22-4.09-3.3a31.29,31.29,0,0,0-4.56-3.46c-1.63-.84-1.29-3-3.38-3.7-1.7-.56-2.64-3.15-4.34-4-5.95-2.87-9.43-8.45-14.38-12.35-3.63-2.84-6.69-6.23-10.16-9.19-4.37-3.71-9.11-7-13.53-10.65a68.24,68.24,0,0,1-6.72-6.67A54.55,54.55,0,0,0,256,191.32c-.4-.24-1-.39-1.17-.74-2.24-4.8-7.13-6.91-10.59-10.47-1.09-1.12-2.66-1.78-3.76-2.88s-1.72-2.76-2.91-3.73c-3.06-2.5-6.32-4.76-9.51-7.11a15.73,15.73,0,0,1-1.56-1c-5.53-5.15-11-10.35-16.57-15.47-1.89-1.75-4-3.29-5.92-5s-3.65-3.57-5.87-5c-2.79-1.86-5-4.55-7.73-6.65-4-3.08-7.56-6.73-11.3-10.13-.37-.34-.65-.86-1.08-1-6-2.48-9.39-7.93-14-12-1.74-1.55-3.31-3.27-4.94-4.9l.92-1.57,4.24-6H169c-.45,1.87,1,2.77,2.13,3.55,5.61,4,10.27,9.1,15.9,13.07,1.62,1.14,3.45,2.47,4,4.73a2.38,2.38,0,0,0,1.31,1.4c3.74,1.35,6.69,3.94,9.86,6.57Z"/><path class="cls-41" d="M354,230.21c.46-1,.67-2.31,1.43-2.82,3.42-2.27,4.17-6.23,6.13-9.39,1.07-1.73,1.22-4.16,1.38-6.3a67.47,67.47,0,0,0,0-8.88,45.87,45.87,0,0,0-1-5.52c1.62,1,2,2.57,2,4.35,0,2.79,0,5.58,0,8,1.11.74,2.32,1.11,2.57,1.81.82,2.32,2.8,3.21,4.55,4.54,1.94,1.48,4,2.69,5.47,5,1.88,3,5.61,4.41,8.76,6.18.34.19.92-.06,1.65-.13V102.56c.33.26.93.5.95.79a33.63,33.63,0,0,1,.05,3.48q0,72.64,0,145.3c0,3.28-.47,6.38-3.19,8.61-.42.35-1.2.27-1.82.39h-1.27c-1-1.23-1.59-2.77-2.73-3.37-3-1.56-5-4.18-7.27-6.42a150.62,150.62,0,0,0-12.51-10.6c-2.77-2.15-5.52-4.59-7.09-7.94Z"/><path class="cls-42" d="M343,178.35c-3,.76-5.62-1.32-8.56-1-3.67.4-7.34.76-10.66,1.1L314,183.34a6.24,6.24,0,0,0-5,5c-.52.35-1.05.67-1.55,1s-.72.65-1.06,1c-4.7-2.92-14.91-11.36-16.15-14,.31-1.2.53-2.07.76-2.94a50.25,50.25,0,0,1,16.74-14c3.88-2,7.71-4.08,12.26-4-.26.33-.46.86-.8,1-2.75.85-5.53,1.62-9.07,2.64,1.92,1.94,3.34,3.49,4.91,4.87s2.52,2.77,4.43,3.67,3.34,2.75,4.58,4.47,3.8,1.77,4.27,4.33c2.58,0,5.21,0,7.83,0A28,28,0,0,1,343,178.35Z"/><path class="cls-9" d="M59,322H429c-.47,1.92-2,.62-3,1H78c-5.75,0-11.5,0-17.24,0C60,322.94,59,323.3,59,322Z"/><path class="cls-40" d="M280,191.32l2-1v2.59Z"/><path class="cls-17" d="M429,322h-1v-1Z"/><path class="cls-9" d="M48,312a2.45,2.45,0,0,1,2,3A2.46,2.46,0,0,1,48,312Z"/><path class="cls-9" d="M56,321c1,.38,2.53-.92,3,1C58,321.58,56.47,322.88,56,321Z"/><path class="cls-9" d="M50,315c1.5.08.85,1.24,1,2C49.5,316.89,50.15,315.73,50,315Z"/><path class="cls-9" d="M54,320c.76.15,1.91-.49,2,1C55.24,320.81,54.09,321.46,54,320Z"/><path class="cls-9" d="M52,318l1,1Z"/><path class="cls-9" d="M53,319l1,1Z"/><path class="cls-9" d="M51,317l1,1Z"/><path class="cls-43" d="M220,323h31c2.24,2.73,4.4,5.46,7.64,7.26,1.81,1,3.14,2.91,4.62,4.48A18,18,0,0,0,269,339c2.88,1.31,4.16,3.77,4,6.93H240.67c-2.09-2.61-3.45-5.58-6.56-7.64-4.29-2.84-7.82-6.84-11.65-10.36A6.88,6.88,0,0,1,220,323Z"/><path class="cls-39" d="M226,184.34c2.06,1.64,1.18,4.61,2.91,6.39-.64,2.13,1.57,3,2.08,4.57s.87,3.25,1.39,4.85,1.07,3.18,1.72,4.72c2.57,6,5.31,12,6.9,18.36-.4,2.52,1.47,4.53,1.55,7-2.47.1-4.18-1.21-5.85-2.79-5.35-5.09-10.76-10.11-16.17-15.14a10.64,10.64,0,0,0-1.56-1.05,71.66,71.66,0,0,1-10.57-8.15c-5.75-5.27-10.72-11.38-17.53-15.5-1.71-1-2.62-2.94-3-5.28h7.47l4.11-2.72c-1.46-.88.84-2.77-1.5-3.25-.16,0-.46,0-.47,0-1.49-4.14-3.2-8.17-5.09-12.15-.83-1.73-1.82-3.66-1.44-5.79,3.86,2.45,7,5.69,10.38,8.76,4.27,3.91,8.87,7.47,13.32,11.18,2.23-.26.91,2.79,2.71,2.9s2.08,1.45,2.86,2.7c1.12,1.79,3.11,2.61,5.73,2.29Z"/><path class="cls-3" d="M191,158.41c-.38,2.13.61,4.06,1.44,5.79,1.89,4,3.6,8,5.09,12.15,0,.05.31,0,.47,0-.81,1.63-1.61,3.27-2.46,5H167c-3.29-.41-6.81,1-9.83-1-.22-5.35.05-6.27,2.39-11,1.22-2.48,2.53-5,2.44-7.88,1.5-.09.85-1.24,1-2,1.93-.46.62-2,1-3,2.36-1.27,1.8-4,2.89-5.94s.7-2.16,2.11-3.56v-3.46c1.93-.47.62-2,1-3,1.93-.47.62-2,1-3l3-1c3.08,1.9,5.63,4.49,8.75,6.38a7.59,7.59,0,0,1,3.68,5.38,13.64,13.64,0,0,0,2.83,6.65C190.32,156.05,188.86,158.12,191,158.41Z"/><path class="cls-1" d="M437,36.74H71.29c-1.5,0-3-.05-4.5,0-.28,0-.53.62-.79,1l-2.5-1.67c5.21-.61,9.86-.2,14.5-.33H432a37,37,0,0,1,3.8,0C436.23,35.83,436.6,36.41,437,36.74Z"/><path class="cls-44" d="M326,261.13,317.32,260c-3.17-1.55-6.46-3.23-9.81-4.79-8.89-4.17-15.92-10.25-20.59-19-1.37-2.58-2.89-5.1-4.31-7.67a8,8,0,0,1-.61-3.25,48,48,0,0,0,4.06,3.12c2.56,1.7,5.28,3.8,6.67,6.4,1.19,2.22,3,2.45,5,4.11.52,2.65,3.77,3.48,6.08,5.23.88.67,1.76,1,2.26,2.16a5.88,5.88,0,0,0,2.15,2.55c2.83,1.7,5,4.13,7.32,6.33.18.17.65,0,1.06,0l1.82,4C321,259.11,323.84,258.94,326,261.13Z"/><path class="cls-44" d="M337,261.13h2c-.26.33-.52.95-.78.95q-5.22.1-10.44,0c-.26,0-.52-.62-.78-.95Z"/><path class="cls-39" d="M222,174.36c2.21,2.21,2.71,5.06,3,8C222.79,180.13,222.29,177.29,222,174.36Z"/><path class="cls-44" d="M281,222.23c-1.68-1.7-1.2-4.1-1.95-6.11a8.79,8.79,0,0,1-.05-2.86c1.68,1.7,1.2,4.1,1.95,6.11A8.79,8.79,0,0,1,281,222.23Z"/><path class="cls-39" d="M223,172.37c-1.5.08-.85,1.24-1,2-1.37,0-.83-1.07-1-1.77a16.69,16.69,0,0,0-.85-2C221.92,170,222.54,171.07,223,172.37Z"/><path class="cls-44" d="M282,225.22c-1.93-.46-.62-2-1-3C282.93,222.7,281.62,224.24,282,225.22Z"/><path class="cls-39" d="M225,182.34c1.5.09.85,1.24,1,2C224.5,184.25,225.15,183.1,225,182.34Z"/><path class="cls-1" d="M93,56.69l1,1Z"/><path class="cls-1" d="M91,55.69l1,1Z"/><path class="cls-1" d="M90,54.69l1,1Z"/><path class="cls-1" d="M89,53.69l1,1Z"/><path class="cls-1" d="M87,52.7l1,1Z"/><path class="cls-1" d="M68,38.74l1,1Z"/><path class="cls-39" d="M225,173.37l-1-1Z"/><path class="cls-1" d="M98,60.68l1,1Z"/><path class="cls-1" d="M97,59.68l1,1Z"/><path class="cls-1" d="M86,51.7l1,1Z"/><path class="cls-1" d="M83,49.71l1,1Z"/><path class="cls-1" d="M82,48.71l1,1Z"/><path class="cls-1" d="M80,47.71l1,1Z"/><path class="cls-1" d="M79,46.71l1,1Z"/><path class="cls-1" d="M78,45.72l1,1Z"/><path class="cls-1" d="M76,44.72l1,1Z"/><path class="cls-1" d="M75,43.72l1,1Z"/><path class="cls-1" d="M73,42.72l1,1Z"/><path class="cls-1" d="M96,58.68l1,1Z"/><path class="cls-1" d="M72,41.73l1,1Z"/><path class="cls-1" d="M94,57.68l1,1Z"/><path class="cls-1" d="M71,40.73l1,1Z"/><path class="cls-1" d="M69,39.73l1,1Z"/><path class="cls-45" d="M432,35.74H379V34.25A21.31,21.31,0,0,1,375,32.13c-5.09-4.19-10.58-7.92-15-12.88-.77-.86-1.5-2-2.48-2.37-2.18-.73-3.33-2.34-4.47-4.07h52a2.51,2.51,0,0,0,1,2.55c3.74,3,7.39,6.11,11.17,9.06A16.58,16.58,0,0,0,420.65,26c1.3,3.11,4,5.11,7,6.69C429.2,33.56,431.26,33.67,432,35.74Z"/><path class="cls-45" d="M433,12.81c1,.38,2.53-.93,3,1C435,13.42,433.47,14.73,433,12.81Z"/><path class="cls-37" d="M207,35.74H168c.26-2.19-.34-4.64-2.12-5.4-3.84-1.65-5.87-5.22-9.13-7.44-2.21-1.5-4-3.62-6.2-5.24-1.54-1.12-3.79-2.23-3.55-4.85h35c0,.49-.21,1.19,0,1.45,1.83,1.89,3.48,4.17,5.7,5.41a39.49,39.49,0,0,1,8.56,6.88c2.09,2.1,4.19,4.19,5.61,5.61l5.1,1.89Z"/><path class="cls-38" d="M147,12.81c-.24,2.62,2,3.73,3.55,4.85,2.22,1.62,4,3.74,6.2,5.24,3.26,2.22,5.29,5.79,9.13,7.44,1.78.76,2.38,3.21,2.12,5.4H144c-1.15-1.74-2.29-3.4-4.51-4.09-.84-.26-1.44-1.32-2.14-2a66.43,66.43,0,0,0-11.15-9.18,12.69,12.69,0,0,1-2.82-2.8c-1.14-1.45-2.1-3-3.33-4.82Z"/><path class="cls-35" d="M329,35.74H294c-.58-.75-1-1.8-1.78-2.19-3-1.53-4.88-4.23-7.31-6.34-2.17-1.88-4.44-3.64-6.69-5.42-.73-.58-1.84-.9-2.26-1.63a11.88,11.88,0,0,0-5.23-5.24c-.47-.22-.5-1.38-.73-2.11h33c.32,3.15,2.94,4.35,5.08,6s4.55,3.48,6.73,5.32,3.66,4.08,6.25,5.31c.69.33,1,1.53,1.43,2.33C324.38,33.55,327.9,32.69,329,35.74Z"/><path class="cls-46" d="M271,35.74H241c.2-1.77-.95-2.24-2.31-3.08-3.42-2.11-7.36-3.66-9.21-7.79-.56-1.25-2-2.19-3.16-3.06-3.16-2.33-6.44-4.5-9.58-6.86-.5-.38-.51-1.41-.74-2.14h29c0,.33-.14.8,0,1,2.59,2.69,4.79,6.15,7.95,7.78,3.34,1.73,4.77,5.24,8,6.74.13,2.18,2.62,1.88,3.57,3.39s2.7,2,4.55,2.15C269.81,33.92,270.38,35.08,271,35.74Z"/><path class="cls-36" d="M271,35.74c-.62-.66-1.19-1.82-1.88-1.9-1.85-.19-3.63-.68-4.55-2.15s-3.44-1.21-3.57-3.39c-3.26-1.5-4.69-5-8-6.74-3.16-1.63-5.36-5.09-7.95-7.78-.16-.17,0-.64,0-1h25c.23.73.26,1.89.73,2.11A11.88,11.88,0,0,1,276,20.16c.42.73,1.53,1.05,2.26,1.63,2.25,1.78,4.52,3.54,6.69,5.42,2.43,2.11,4.33,4.81,7.31,6.34.77.39,1.2,1.44,1.78,2.19Z"/><path class="cls-33" d="M329,35.74c-1.1-3.05-4.62-2.19-6.51-4-.46-.8-.74-2-1.43-2.33-2.59-1.23-4.16-3.55-6.25-5.31s-4.46-3.58-6.73-5.32-4.76-2.84-5.08-6h50c1.14,1.73,2.29,3.34,4.47,4.07,1,.33,1.71,1.51,2.48,2.37,4.42,5,9.91,8.69,15,12.88A21.31,21.31,0,0,0,379,34.25v1.49Z"/><path class="cls-34" d="M216,12.81c.23.73.24,1.76.74,2.14,3.14,2.36,6.42,4.53,9.58,6.86,1.18.87,2.6,1.81,3.16,3.06,1.85,4.13,5.79,5.68,9.21,7.79,1.36.84,2.51,1.31,2.31,3.08H207V34.05l-5.1-1.89c-1.42-1.42-3.52-3.51-5.61-5.61a39.49,39.49,0,0,0-8.56-6.88c-2.22-1.24-3.87-3.52-5.7-5.41-.24-.26,0-1,0-1.45Z"/><path class="cls-47" d="M167,181.34h28.54c.85-1.71,1.65-3.35,2.46-5,2.34.48,0,2.37,1.5,3.25l-4.11,2.72h-7.47c.33,2.34,1.24,4.24,3,5.28,6.81,4.12,11.78,10.23,17.53,15.5A71.66,71.66,0,0,0,219,211.26a10.64,10.64,0,0,1,1.56,1.05c5.41,5,10.82,10.05,16.17,15.14,1.67,1.58,3.38,2.89,5.85,2.79-.08-2.48-2-4.49-1.55-7,2.32,1.32,2,4,2.88,6,1.13,2.49,2.06,5.14,3,7.72,2.32,6.51,5.16,12.84,7.11,19.49a10,10,0,0,1,0,2.37l-4.36,3.26h-17a14.88,14.88,0,0,1-5-7.68c-1.93-5.81-4.9-11.28-6.86-17.08-2.06-6.12-4.66-12-6.75-18.14-1-3-2.38-6-3.55-9-.51-1.28-.95-2.59-1.42-3.89,0-1.34-1-1-1.75-1-4.75,0-9.5,0-14.25,0-.23-1.9-1.92-.5-2.61-1.27-2.53-2.25-5.23-4.3-7.71-6.58-2.8-2.57-5.36-5.39-8.12-8a11.69,11.69,0,0,0-3.8-2.74C168.08,185.75,167.3,183.79,167,181.34Z"/><path class="cls-48" d="M167,181.34c.3,2.45,1.08,4.41,3.76,5.35a11.69,11.69,0,0,1,3.8,2.74c2.76,2.61,5.32,5.43,8.12,8,2.48,2.28,5.18,4.33,7.71,6.58.69.77,2.38-.63,2.61,1.27H172c-.26-.33-.51-.94-.78-.95-1.63-.09-3.26-.05-5-.05-1.17-1.6-2-3.77-3.47-4.55-5.33-2.76-8.91-7.38-13.18-11.28a22.23,22.23,0,0,0-2.37-1.43c-1.41-1-3.1-1.85-4.09-3.19a19.4,19.4,0,0,0-6.54-5.62c-1.58-.88-3.82-2.2-3.58-4.84-.54-1.71,1.21-3,.95-4.55-.29-1.8,1.44-2.55,1.74-3.76,1.44-5.86,4.85-11,6.25-16.78.37-1.56.64-2.94,2.06-3.83V148c.66.32,1.67.48,2,1,2.48,4.74,7,7,11.33,9.48,1.1.62,1.86,1.81,2.9,2.58a4.63,4.63,0,0,0,1.81.37c.09,2.9-1.22,5.4-2.44,7.88-2.34,4.77-2.61,5.69-2.39,11C160.19,182.31,163.71,180.93,167,181.34Z"/><path class="cls-49" d="M133,173.37c-.24,2.64,2,4,3.58,4.84a19.4,19.4,0,0,1,6.54,5.62c1,1.34,2.68,2.18,4.09,3.19a22.23,22.23,0,0,1,2.37,1.43c4.27,3.9,7.85,8.52,13.18,11.28,1.51.78,2.3,3,3.47,4.55,1.73,0,3.36,0,5,.05.27,0,.52.62.78.95H145.5a7.09,7.09,0,0,0-2.5,5v1l-1.74.92c-4.17-.65-5.68-4.53-8.93-6.29s-4.82-5.56-8.33-7.12V197.3c-.91-3.2,1.25-5.81,2.23-8.4,1.35-3.53,2.54-7.12,3.88-10.65C130.76,176.57,131.21,174.49,133,173.37Z"/><path class="cls-50" d="M124,197.3v1.47c3.51,1.56,5.18,5.41,8.33,7.12s4.76,5.64,8.93,6.29l1.74-.92c-1.36,4-2.24,8.2-4.38,12-1.54,2.75-2,6.11-3.13,9.88l-1.49,2c-.64.46-1.62.81-1.84,1.42a56.66,56.66,0,0,0-1.45,5.59c-.8-.06-1.77.15-2.32-.23a51.24,51.24,0,0,1-5.24-4.17c-3.36-3.06-6.14-6.77-10.15-8.95v-3.64c-.36-2.15.75-4,1.44-5.86,2.09-5.75,4.8-11.25,6.66-17.1C121.65,200.54,122.21,198.46,124,197.3Z"/><path class="cls-51" d="M113,225.22v3.64c4,2.18,6.79,5.89,10.15,8.95a51.24,51.24,0,0,0,5.24,4.17c.55.38,1.52.17,2.32.23a56.66,56.66,0,0,1,1.45-5.59c.22-.61,1.2-1,1.84-1.42-.7,2.52-1,5.24-2.2,7.52-1.27,2.46-2.78,4.86-3.32,7.55s-2.18,4.71-2.66,7.39c-.54,3-3.2,4.42-6.39,4.45-4,.05-8,0-12,0-2.28,0-4.18-1.07-6.29-2v-7.67c1.56-.71,1.61-2.58,2.23-4.19,1.69-4.43,3.5-8.81,5.22-13.23,1.16-3,2.22-6,3.39-9C112.16,225.68,112.67,225.49,113,225.22Z"/><path class="cls-50" d="M143,210.27a7.09,7.09,0,0,1,2.5-5H193c4.75,0,9.5,0,14.25,0,.72,0,1.74-.35,1.75,1H146.61C144.83,207.4,145.14,209.9,143,210.27Z"/><path class="cls-48" d="M146,139.46c.09,2-.09,3.82-2,5C143.91,142.48,144.09,140.63,146,139.46Z"/><path class="cls-48" d="M164,156.41c-.38,1,.93,2.53-1,3C163.38,158.42,162.07,156.88,164,156.41Z"/><path class="cls-48" d="M163,159.4c-.15.76.5,1.91-1,2C162.15,160.64,161.5,159.49,163,159.4Z"/><path class="cls-52" d="M343,178.35a28,28,0,0,0-6.85-2c-2.62,0-5.25,0-7.83,0-.47-2.56-3.08-2.67-4.27-4.33s-2.74-3.6-4.58-4.47-3-2.42-4.43-3.67-3-2.93-4.91-4.87c3.54-1,6.32-1.79,9.07-2.64.34-.1.54-.63.8-1a7.84,7.84,0,0,1,5.81-2c4.45,0,8.94-.34,13.35.08a42.16,42.16,0,0,1,16.95,5.57A9.7,9.7,0,0,0,362,160.4l-2.1,1.86c.23.48.29.83.5,1,4,3.59,7.29,7.87,11.82,10.94,3.19,2.16,5.83,5.1,8.79,7.61,1.78,1.5,3.49,3.2,6,3.5v41.73c-.73.07-1.31.32-1.65.13-3.15-1.77-6.88-3.2-8.76-6.18-1.49-2.34-3.53-3.55-5.47-5-1.75-1.33-3.73-2.22-4.55-4.54-.25-.7-1.46-1.07-2.57-1.81,0-2.4,0-5.19,0-8,0-1.78-.39-3.34-2-4.35-1.58-1.26-2-3.28-2.89-4.91a29.26,29.26,0,0,0-11.19-11.16C346.29,180.3,344.26,179.93,343,178.35Z"/><path class="cls-31" d="M387,185.33c-2.5-.3-4.21-2-6-3.5-3-2.51-5.6-5.45-8.79-7.61-4.53-3.07-7.83-7.35-11.82-10.94-.21-.19-.27-.54-.5-1l2.1-1.86c.33-.33.67-.66,1-1,0-18.69,0-37.38.05-56.07,0-.9-1-2.42.95-2.76V121.7c3.7,3.07,6.93,5.69,10.08,8.39a100.85,100.85,0,0,0,10.07,7.55l2.85-1.17Z"/><path class="cls-53" d="M387,136.47l-2.85,1.17a100.85,100.85,0,0,1-10.07-7.55c-3.15-2.7-6.38-5.32-10.08-8.39V100.57c-.48-2.13,1.65-2.65,2.37-4h17.16l3.47,3.58v36.3Z"/><path class="cls-54" d="M203,125.5l-.78,1.39c-3.17-2.63-6.12-5.22-9.86-6.57a2.38,2.38,0,0,1-1.31-1.4c-.57-2.26-2.4-3.59-4-4.73-5.63-4-10.29-9.08-15.9-13.07-1.1-.78-2.58-1.68-2.13-3.55h22c3.52,1.54,3.8,5.13,4.94,8.07,1.56,4,2.32,8.32,4.2,12.11C201.4,120.29,203,122.55,203,125.5Z"/><path class="cls-21" d="M191,97.57H164.24l-4.24,6c-.33-3.06,1.45-5.08,3.5-7,8.4,0,16.82,0,25.23,0C189.53,96.61,190.83,95.92,191,97.57Z"/><path class="cls-52" d="M363,159.4c-.33.34-.67.67-1,1C362.33,160.07,362.67,159.74,363,159.4Z"/><path class="cls-5" d="M309,188.33a6.24,6.24,0,0,1,5-5Z"/></g></g></svg>