<svg xmlns="http://www.w3.org/2000/svg" viewBox="0 0 494 438.04"><defs><style>.cls-1{fill:#f3eccb;}.cls-2{fill:#f5efcc;}.cls-3{fill:#e7e2c3;}.cls-4{fill:#fefdfd;}.cls-5{fill:#ebe5c3;}.cls-6{fill:#fbf6d9;}.cls-7{fill:#fcf6d3;}.cls-8{fill:#988200;}.cls-9{fill:#9d8500;}.cls-10{fill:#ae9300;}.cls-11{fill:#edc800;}.cls-12{fill:#aa9000;}.cls-13{fill:#a78e00;}.cls-14{fill:#b19600;}.cls-15{fill:#9b8400;}.cls-16{fill:#c7a900;}.cls-17{fill:#c1a300;}.cls-18{fill:#e7c300;}.cls-19{fill:#b79b00;}.cls-20{fill:#ceae00;}.cls-21{fill:#bb9e00;}.cls-22{fill:#a28a00;}.cls-23{fill:#debc00;}.cls-24{fill:#9f8700;}.cls-25{fill:#e3c000;}.cls-26{fill:#dab800;}.cls-27{fill:#d3b200;}.cls-28{fill:#f3cd00;}.cls-29{fill:#a58c00;}.cls-30{fill:#d6b500;}.cls-31{fill:#c6a800;}.cls-32{fill:#eac500;}.cls-33{fill:#b89c00;}.cls-34{fill:#cfaf00;}.cls-35{fill:#c2a400;}.cls-36{fill:#bb9f00;}.cls-37{fill:#e4c000;}.cls-38{fill:#b69a00;}.cls-39{fill:#e0bd00;}.cls-40{fill:#dab900;}.cls-41{fill:#b29700;}.cls-42{fill:#d7b600;}.cls-43{fill:#d1b100;}.cls-44{fill:#c1a400;}.cls-45{fill:#c7a800;}.cls-46{fill:#bc9f00;}.cls-47{fill:#caab00;}.cls-48{fill:#d5b400;}.cls-49{fill:#9c8500;}.cls-50{fill:#a08800;}.cls-51{fill:#b89b00;}.cls-52{fill:#b39700;}.cls-53{fill:#a88f00;}.cls-54{fill:#af9500;}.cls-55{fill:#ac9200;}.cls-56{fill:#fefefe;}.cls-57{fill:#ab9100;}.cls-58{fill:#ae9400;}.cls-59{fill:#fefefd;}.cls-60{fill:#c0a300;}.cls-61{fill:#bca000;}.cls-62{fill:#bea100;}.cls-63{fill:#bda000;}.cls-64{fill:#b99d00;}</style></defs><g id="Layer_2" data-name="Layer 2"><g id="Layer_1-2" data-name="Layer 1"><path class="cls-1" d="M138,438H18v-4H138Z"/><path class="cls-2" d="M138,438v-4h96v4Z"/><path class="cls-3" d="M0,19H1V243.48H0Z"/><path class="cls-4" d="M18,434.05v4H0V413.1H1c.33.85.73,1.69,1,2.57,1.57,5.43,4.17,10.16,9,13.39l1,1A19,19,0,0,0,18,434.05Z"/><path class="cls-5" d="M1,413.1H0V243.48H1V413.1Z"/><ellipse class="cls-6" cx="361" cy="436.05" rx="5.66" ry="2.82"/><ellipse class="cls-7" cx="493.5" cy="388.65" rx="0.71" ry="4.94"/><path class="cls-8" d="M1,150.7V19c.33-.86.74-1.7,1-2.58A24.7,24.7,0,0,1,8.75,4.77c1.56-1.49,3.06-3,4.75-4.73H143c.35,1.36-.81,2-1.34,2.93-.95,1.69-3.12,1.76-4,3.72-.77,1.69-2.68,2.87-4.09,4.28l-4.23,4.22c-.71.7-1.74,1.28-2.06,2.13-1.12,2.94-3.46,4.49-6.1,5.63a4.76,4.76,0,0,0-3.31,4.79c-3.42,2.74-5.8,6.66-9.85,8.77V38H41.19c-.6,13.08-.39,37.85.33,41.91H72c-.68,4.85-4.77,7-7.88,10-1.53,1.44-3.65,2.5-4.64,4.22-1.09,1.91-2.71,3.18-4,4.81-.87,1.12-2.5,1.61-2.59,3.44,0,.53-1.08,1.18-1.79,1.48a12.58,12.58,0,0,0-4.72,3.09c-1.33,1.48-3.63,2.64-4,4.29-.53,2.22-2.55,2.4-3.53,3.94-2.34,3.64-4.53,7.91-9.18,7.89-2.05,2.24-3.38,4.51-5.36,5.63a16.26,16.26,0,0,0-5,4.51c-1.45,2-3.42,2.86-5.16,4-1.24,4.13-3.89,7.33-6.59,10.29C6,149.11,4,151.21,1,150.7Z"/><path class="cls-9" d="M72,79.86H41.52C40.8,75.8,40.59,51,41.19,38H111c0,8.64,0,16.93,0,25.22a.77.77,0,0,0,.19.41,2.37,2.37,0,0,0,.37.32c4-1.57,6.88-4.28,8-8.3l3.8-1.86a21,21,0,0,1,1.68-2.38A30.61,30.61,0,0,1,131.35,46c2.47-1.41,2.92-4.84,5.92-6,1-.39,1.48-2.22,2.2-3.4,1.49-2.09,3.15-4.46,5.43-5.51,5.45-2.53,8.54-7.38,11.91-11.71a52,52,0,0,1,8.41-8.83A76.56,76.56,0,0,0,176,0h22c-.48,2.76-3.19,4-4.35,6.51s-4,4-6.53,6.26c-.26,1-.21,2.6-2.52,3.35a10.17,10.17,0,0,0-5.16,4.06c-2.77,4.56-6.83,7.78-10.57,11.34A11.07,11.07,0,0,1,166.49,33,8.51,8.51,0,0,0,162,38c-3.25,0-6.5,0-9.75,0-.43,0-.84.62-1.25,1V71.87c-2,.09-4.13.83-4.81,2.52a10.56,10.56,0,0,1-3,3.71c-4.25,4.06-8.67,7.94-12.91,12-1.36,1.31-2.07,3.57-3.61,4.34-2.78,1.4-4.47,3.78-6.5,5.82-1.38,1.38-1.9,3.64-3.3,5s-3.82,2.17-5.39,3.63c-3.4,3.14-7,6.2-8.49,10.87H67c-.35-3.75,2.24-5.8,4.64-8,.61,0,1.55.28,1.88,0a86,86,0,0,0,7.42-7.86c2.11-2.7,4.25-5.36,7.39-6.7,2.1-.9,3.14-2.66,4.74-3.8V90.26a63.22,63.22,0,0,1,4.69-4.6c1.65-1.33,4.4-1.12,5.27-3.73l-.13-2.07ZM42.09,78.69h67.74c.59-14.13.39-35.71-.33-39.57H42.09Z"/><path class="cls-10" d="M263,104.8c-1.31-1.47-1-3.26-1-5-.33-1.66-.67-3.32-1-5l-.33-.82-.67.82a10.64,10.64,0,0,0-5.19,4.42c-1.29,2.26-4,3.74-6,5.56-.73.64-1.82,1.14-2.13,1.94-1,2.61-3.29,3.69-5.25,5.24-1,.79-2.13,1.27-3,2.61a16,16,0,0,1-5.92,5.91c-2.79,1.4-3.74,3.6-4.79,6-3.1.38-3.26,3.69-5.23,5.21H220v-11c-.39-.33-.75-.88-1.18-1a17.67,17.67,0,0,0-2.82,0v-1.5l21.47-21.45c3.58-4.61,8.7-7.59,12.44-12.14,3.17-3.86,6.56-7.78,11.09-10.35.7-.4,1.55-1.07,1.71-1.75.52-2.13,2.25-3.19,3.63-4.48,5.76-5.38,10.72-11.59,17.17-16.29,4-2.92,6-8,10.57-10.46.28-.15.63-.43.69-.7.48-2.3,2.59-3.27,3.92-4.86.81-1,1.71-1.87,2.76-3L300,32c.26-.34.54-1,.78-1,4.18.26,8-1.57,11.92-2.41,3.59-.76,7.16-1.82,10.77-2.57C325,25.71,326.3,24.46,328,25c.76-.15,1.91.5,2-1h2l1-1h2c.76-.15,1.91.49,2-1h1c.76-.15,1.91.49,2-1h1a1.59,1.59,0,0,1,.49,0c.14.06.36.29.34.33-1.12,2-1.84,4.36-4.54,4.86a9.19,9.19,0,0,1-5.06,5.61c-2.87,1.28-2.92,4.48-5.37,6A20.11,20.11,0,0,0,321.58,43c-1.43,1.89-3.76,2.57-5.05,4.74s-3.4,3.58-5.16,5.34-3.55,3.48-5.27,5.27c-2.72,2.83-5.4,5.71-8.1,8.57h-2.29c.49,2.24.89,4.11,1.29,6a2.42,2.42,0,0,0-2.55,1A33.68,33.68,0,0,1,291.29,78c-1.65,1.67-3.61,3-5.27,4.69s-3.1,3.7-4.82,5.38c-1.47,1.43-3.68,2.28-4.73,3.92-3,4.76-7.62,8-11.32,12.08C264.71,104.57,263.73,104.57,263,104.8Z"/><path class="cls-11" d="M453,398.13c-1,.33-2.11,1.06-3.07.93-3.65-.5-7.16.58-10.5,1.38s-6.77.9-9.92,2.52c-1.28.65-3,.3-4.56,1.06-1.33.66-3.29-.56-4.53,1.1-4.37-.12-8,2.52-12.14,3.29-2.44.45-4.71,1.72-7.28,1.69V408c1.12-1.55,2-2.86,3-4.13.48-.63,1-1.54,1.62-1.69a7.19,7.19,0,0,0,4.36-3.74,13.74,13.74,0,0,1,7.59-6.06,13.45,13.45,0,0,1,7.15-8.51,4.81,4.81,0,0,0,1.76-1.74c2.88-4.33,6.16-8.15,11.18-10.18a10.25,10.25,0,0,0,2.43-1.86c-.11-1.72-.17-2.82-.24-3.9H438c.11-.28.17-.76.35-.8,1.9-.5,3.82-.93,6-1.43-.4-1.55-.75-2.73-1-3.94-.48-2.26-.89-4.53-1.33-6.8a16.48,16.48,0,0,0,5-3.44c1.77-1.59,3.15-3.51,5.41-4.76,2.09-1.15,3.3-3.82,5-5.69,1-1.11,2.44-1.86,3.5-2.95,3.06-3.15,5.83-6.63,9.11-9.52,1.84-1.62,3.19-4,5.91-4.57,1.44,2,1.27,4.42,1.92,6.61,2,6.63,3.55,13.37,5.31,20.06.9,3.41,1.88,6.8,2.75,10.22.43,1.65.69,3.34,1,5a2.31,2.31,0,0,0-2.84,1.43c-1,2.82-3.32,4.6-5.47,6.1-1.9,1.32-3.18,3.56-5.17,4.22-2.57.86-3,3.11-4.48,4.67-.45.48-.87,1.22-1.42,1.36-3.14.79-3.19,3.48-3.85,5.87a5,5,0,0,0-1.64.71,49.41,49.41,0,0,1-6.61,5.69C454.3,395.05,452.56,396,453,398.13Z"/><path class="cls-12" d="M300,32l1.45.81c-1.05,1.14-1.95,2-2.76,3-1.33,1.59-3.44,2.56-3.92,4.86-.06.27-.41.55-.69.7-4.6,2.42-6.56,7.54-10.57,10.46-6.45,4.7-11.41,10.91-17.17,16.29-1.38,1.29-3.11,2.35-3.63,4.48-.16.68-1,1.35-1.71,1.75-4.53,2.57-7.92,6.49-11.09,10.35-3.74,4.55-8.86,7.53-12.44,12.14L216,118.27v1.5H187a6.33,6.33,0,0,1,.38-1.84c.61-1.09,1.22-2.76,2.13-3,1.69-.41,2.36-1.71,3.42-2.64,4.93-4.33,8.79-9.81,14.44-13.39a4.29,4.29,0,0,0,1.4-1.41c3.15-5.36,8.38-8.78,12.43-13.3.7-.78,2.46-1.07,2.62-1.81.6-3,2.84-4.3,5-5.88s3.36-4,5.51-5.69c6.39-5.16,11.33-11.91,18-16.93,1.6-1.2,2.58-3.26,4.55-4.52,1.8-1.14,2.79-3.48,4.36-5.06s3.85-2.31,4.71-4c1.41-2.76,4.84-3.48,5.77-6.5.12-.36.69-.67,1.12-.85a9.59,9.59,0,0,0,4.95-5.43L277,26a5.48,5.48,0,0,1,4.13,1.73A62.26,62.26,0,0,1,286,33a2.48,2.48,0,0,0,4,0h4c1-.38,2.53.93,3-1Z"/><path class="cls-13" d="M277,26l.74,1.57A9.59,9.59,0,0,1,272.79,33c-.43.18-1,.49-1.12.85-.93,3-4.36,3.74-5.77,6.5-.86,1.68-3.25,2.52-4.71,4s-2.56,3.92-4.36,5.06c-2,1.26-2.95,3.32-4.55,4.52-6.64,5-11.58,11.77-18,16.93-2.15,1.74-3.39,4.11-5.51,5.69s-4.38,2.9-5,5.88c-.16.74-1.92,1-2.62,1.81-4,4.52-9.28,7.94-12.43,13.3a4.29,4.29,0,0,1-1.4,1.41c-5.65,3.58-9.51,9.06-14.44,13.39-1.06.93-1.73,2.23-3.42,2.64-.91.22-1.52,1.89-2.13,3a6.33,6.33,0,0,0-.38,1.84H155a7.8,7.8,0,0,1,.37-1.84c1.82-3.78,5.39-6,8.07-9.08,2.85-.36,2.75-3,3.85-4.86.4-.09,1,0,1.28-.31,1.35-1.57,2.47-3.35,3.94-4.8s3.47-2.81,5.16-4.28c.29-.25.1-1.07.39-1.28a42.48,42.48,0,0,0,9.42-9.46c2.28-.46,3.37-2.26,4.52-4,8.58,0,17.16,0,25.74,0,.79,0,2.09.68,2.26-1v-16c4.26-1.2,5.93-5.85,9.91-7.41a8.2,8.2,0,0,1,4-5.8c3.46-2.07,5.79-5.27,8.74-7.83,1.69-1.48,2.91-3.43,5.2-4.33a6.47,6.47,0,0,0,2.82-2.76c2.35-4,5.87-6.89,9.38-9.79V28.8c1.3,0,2.6,1,3-.83h2c.76-.15,1.91.5,2-1h2c.76-.15,1.91.49,2-1Z"/><path class="cls-14" d="M298,66.89c2.7-2.86,5.38-5.74,8.1-8.57,1.72-1.79,3.51-3.52,5.27-5.27s3.94-3.27,5.16-5.34,3.62-2.85,5.05-4.74a20.11,20.11,0,0,1,5.28-5.21c2.45-1.48,2.5-4.68,5.37-6a9.19,9.19,0,0,0,5.06-5.61c2.7-.5,3.42-2.88,4.54-4.86,0,0-.2-.27-.34-.33a1.59,1.59,0,0,0-.49,0c1.25-1.76,3.47-1.65,5.18-2.45A76,76,0,0,0,353,14.8c0-2.22.08-4.5,1.32-6.7,2.26-4,5.62-5.94,10-7.17,4.55-1.29,9.05-.69,13.58-.87,3.15-.12,6.31,0,9.55,0,2.87,2.72,6.34,5.16,5.6,10a50.87,50.87,0,0,0-5.35,3.9c-4.09,3.89-8.15,7.83-12,12S367.2,32.83,364,37.37a9.88,9.88,0,0,1-4,3.46c-1.88.77-1.93,3-3.88,3.69A6.61,6.61,0,0,0,352.63,48c-1.07,2.76-3.52,3.3-5.63,4.41v2.55l-14.73,4.24c-.74.21-1.44.58-2.19.74-4.59,1-9.19,2-13.65,3.28C310.35,64.91,304.15,65.69,298,66.89Z"/><path class="cls-15" d="M176,0a76.56,76.56,0,0,1-10.78,10.51,52,52,0,0,0-8.41,8.83c-3.37,4.33-6.46,9.18-11.91,11.71-2.28,1.05-3.94,3.42-5.43,5.51-.72,1.18-1.18,3-2.2,3.4-3,1.17-3.45,4.6-5.92,6a30.61,30.61,0,0,0-6.26,5.35,21,21,0,0,0-1.68,2.38l-3.8,1.86c-1.16,4-4,6.73-8,8.3a2.37,2.37,0,0,1-.37-.32.77.77,0,0,1-.19-.41c0-8.29,0-16.58,0-25.22h-3V36.51c4-2.11,6.43-6,9.85-8.77A4.76,4.76,0,0,1,121.16,23c2.64-1.14,5-2.69,6.1-5.63.32-.85,1.35-1.43,2.06-2.13L133.55,11c1.41-1.41,3.32-2.59,4.09-4.28.9-2,3.07-2,4-3.72C142.19,2,143.35,1.4,143,0Z"/><path class="cls-16" d="M418,103.8c2.1,1,.11,3.71,2,4.8.12,4.08,2,7.72,3,11.57,1,3.7,1.56,7.48,2.95,11.1.77,2,.75,4.29,1.08,6.45v2.82a22.15,22.15,0,0,0-4.11,2.91c-1.13,1.22-1.56,3-2.59,4.37a20.07,20.07,0,0,1-3.27,2.87c-2.62,2.12-5.72,3.85-7.74,6.43a35.91,35.91,0,0,1-7.77,7.7c-2,1.42-4.15,3.21-5,5.83H394l-1-1v-2c-.15-.76.5-1.91-1-2,.15-1.93-.73-3.78-1.25-5.46-.88-2.91-1.59-5.91-2.65-8.8s-1.35-6.38-2.13-9.54c-.51-2.08-1.3-4.09-2-6.13a10.54,10.54,0,0,0,4.67-3.17,28.94,28.94,0,0,1,2.51-3.42c1.12-1.1,2.65-1.78,3.77-2.88q7.83-7.67,15.53-15.5c1.21-1.23,2-2.92,3.24-4.09A30.15,30.15,0,0,1,418,103.8Z"/><path class="cls-17" d="M418,103.8a30.15,30.15,0,0,0-4.28,2.87c-1.26,1.17-2,2.86-3.24,4.09q-7.68,7.83-15.53,15.5c-1.12,1.1-2.65,1.78-3.77,2.88a28.94,28.94,0,0,0-2.51,3.42,10.54,10.54,0,0,1-4.67,3.17l-9-34.92c1.2-.7,3-1.13,3.48-2.17.82-1.74,2.68-2,3.62-3.38a26,26,0,0,1,3.54-4.5c3.84-3.54,6.91-7.9,11.51-10.65A10.25,10.25,0,0,0,400,76.83a14.55,14.55,0,0,1,4.86-4.43c1.38-.84,3.43-.66,4.17-2.52,2.1,1,.11,3.7,2,4.79.12,4.09,2,7.73,3,11.58s1.56,7.48,2.95,11.1C417.69,99.34,417.67,101.64,418,103.8Z"/><path class="cls-18" d="M476,322.3c-2.72.54-4.07,2.95-5.91,4.57-3.28,2.89-6,6.37-9.11,9.52-1.06,1.09-2.47,1.84-3.5,2.95-1.73,1.87-2.94,4.54-5,5.69-2.26,1.25-3.64,3.17-5.41,4.76a16.48,16.48,0,0,1-5,3.44v-1l-1-1v-2c-.15-.75.5-1.91-1-2-.58-2.08-1.22-4.15-1.74-6.24-1.12-4.52-2.13-9.06-3.28-13.56-.54-2.08-1.31-4.1-2-6.14,1.79-1.29,3.65-2.48,5.34-3.88,1.49-1.25,3.27-2,4.33-4a8.46,8.46,0,0,1,4.64-4.11,3,3,0,0,0,1.64-1.65c1-2.63,3.18-4.28,5.18-5.73,4.93-3.58,8.92-8,12.87-12.52.16,0,.46,0,.48,0q2.28,8.69,4.52,17.37c.46,1.78.41,3.92,1.42,5.29,1.15,1.56-.41,3.67,1.53,4.89.37.23.05,1.56.05,2.38s-.5,1.91,1,2Z"/><path class="cls-19" d="M347,54.91V52.36c2.11-1.11,4.56-1.65,5.63-4.41a6.61,6.61,0,0,1,3.47-3.43c1.95-.72,2-2.92,3.88-3.69a9.88,9.88,0,0,0,4-3.46c3.21-4.54,7.95-7.48,11.67-11.48s7.9-8.08,12-12A50.87,50.87,0,0,1,393,10c.16,0,.46,0,.48,0,1.18,4.44,2.24,8.92,3.55,13.33,1.23,4.11,2.29,8.27,3.44,12.4.41,1.46.26,2.82.53,4.2a6,6,0,0,0-2.17.73c-3.44,3.07-6.07,7-9.78,9.78-.95.72-1.21,2.48-2.19,3-3.33,1.69-5.27,4.82-8,7.09-.83.7-1.77,1.27-2.83,2,0,4.23-5.1,4.88-6.54,8.33H367v-2l-1-1v-3l-1-1v-2c-.15-.76.5-1.91-1-2-.8-3.28-1.59-6.56-2.43-10-.72.07-1.67-.11-2.23.28a17,17,0,0,1-5.08,2.06C351.79,52.94,349.41,54,347,54.91Z"/><path class="cls-20" d="M394,170.65h2.5c.87-2.62,3-4.41,5-5.83a35.91,35.91,0,0,0,7.77-7.7c2-2.58,5.12-4.31,7.74-6.43a20.07,20.07,0,0,0,3.27-2.87c1-1.33,1.46-3.15,2.59-4.37a22.15,22.15,0,0,1,4.11-2.91v-2.82c2.37.71-.2,3.53,1.87,4.37.82,7.39,3.94,14.23,5.27,21.53a30.21,30.21,0,0,1,.86,5v2.51c-2.81,2.8-5.58,5.66-8.47,8.39-1.38,1.31-3.59,2.06-4.36,3.6-1.31,2.63-3.65,4.12-5.45,6.17-.8.9-2.53,1.2-3,2.18-2.21,4.64-7.44,6.11-10.28,10.05-.17.23-.95,0-1.45,0-.15-.76.5-1.91-1-2a22.8,22.8,0,0,1-1-3.07c-.83-4.74-2.66-9.23-3.53-13.95C395.75,178.57,393.83,174.82,394,170.65Z"/><path class="cls-21" d="M367,70.88h2.49c1.44-3.45,6.53-4.1,6.54-8.33,1.06-.76,2-1.33,2.83-2,2.73-2.27,4.67-5.4,8-7.09,1-.49,1.24-2.25,2.19-3,3.71-2.83,6.34-6.71,9.78-9.78A6,6,0,0,1,401,40c.16,0,.46,0,.48,0q2.28,8.69,4.52,17.36c.68,2.68.88,5.61,2.16,8,.88,1.64.59,3.07.84,4.6-.74,1.86-2.79,1.68-4.17,2.52A14.55,14.55,0,0,0,400,76.83a10.25,10.25,0,0,1-2.82,3.28c-4.6,2.75-7.67,7.11-11.51,10.65a26,26,0,0,0-3.54,4.5c-.94,1.39-2.8,1.64-3.62,3.38-.49,1-2.28,1.47-3.48,2.17v-2l-1-1v-2c-.15-.76.5-1.91-1-2Z"/><path class="cls-22" d="M151,39c.41-.33.82-.94,1.25-1,3.25-.08,6.5,0,9.75,0h31.62c.87-1.63,5.64-7,6.69-8a61.64,61.64,0,0,0,6.59-6.64,13,13,0,0,1,2.48-2.43c3.21-2.44,6-5.39,9.06-8.08,3.38-3,5.78-7.11,8.56-10.66V0c4.45,0,8.91,0,13.36,0a8.67,8.67,0,0,1,5.78,1.6c2.32,1.77,5.45,2.49,6.86,5.4.44,2.1-1.78,2.59-2.42,4a14.44,14.44,0,0,1-5.06,5.8c-2.06,1.43-2.15,4.12-4.64,5.34-2.26,1.1-3.63,4-5.87,5.15-3.48,1.83-5,5.51-8.28,7.44-1,3.3-3.94,4.19-6.73,5.22-.6-1.93-2.2-1-3.28-1C194.82,38.93,172.91,39,151,39Z"/><path class="cls-23" d="M453,236.5c.17,0,.46,0,.48,0,1.57,5.3,2.73,10.72,4.48,16a9.74,9.74,0,0,1,0,3c.15.75-.5,1.91,1,2v2l1,1v2c-.23.73-.26,1.67-.74,2.16-1.32,1.31-3.08,2.24-4.21,3.68-2.5,3.18-5,6.3-8.64,8.27a4.41,4.41,0,0,0-2.06,2.1c-.64,2-2.23,3.16-3.61,4.46q-5.14,4.86-10.51,9.47a5.94,5.94,0,0,1-4.23,1.79c-.58-2.08-1.22-4.15-1.74-6.24-1.12-4.52-2.13-9.06-3.28-13.56-.54-2.08-1.31-4.1-2-6.14,2.49.34,3.61-1.78,4.5-3.22,1.05-1.68,2.13-3.43,3.7-4.28,1.92-1.06,2.28-3.27,4.07-4.25a11.78,11.78,0,0,0,2-1.24c2.28-1.92,4.62-3.78,6.75-5.86C444.38,245.29,448.67,240.87,453,236.5Z"/><path class="cls-24" d="M227,0v2.1c-2.78,3.55-5.18,7.66-8.56,10.66-3,2.69-5.85,5.64-9.06,8.08a13,13,0,0,0-2.48,2.43A61.64,61.64,0,0,1,200.31,30c-1.05,1-5.82,6.37-6.69,8H162a8.51,8.51,0,0,1,4.49-5,11.07,11.07,0,0,0,2.38-1.41c3.74-3.56,7.8-6.78,10.57-11.34a10.17,10.17,0,0,1,5.16-4.06c2.31-.75,2.26-2.3,2.52-3.35,2.5-2.28,5.41-3.85,6.53-6.26S197.52,2.8,198,0Z"/><path class="cls-25" d="M426,294.37a5.94,5.94,0,0,0,4.23-1.79q5.37-4.6,10.51-9.47c1.38-1.3,3-2.44,3.61-4.46a4.41,4.41,0,0,1,2.06-2.1c3.67-2,6.14-5.09,8.64-8.27,1.13-1.44,2.89-2.37,4.21-3.68.48-.49.51-1.43.74-2.16,2.12.67.68,2.46,1.12,3.69,2.4,6.63,3.43,13.66,5.84,20.3a9.37,9.37,0,0,1,0,2.95c-3.95,4.52-7.94,8.94-12.87,12.52-2,1.45-4.22,3.1-5.18,5.73a3,3,0,0,1-1.64,1.65,8.46,8.46,0,0,0-4.64,4.11c-1.06,2-2.84,2.79-4.33,4-1.69,1.4-3.55,2.59-5.34,3.88v-3l-1-1v-3l-1-1v-2c-.15-.76.5-1.91-1-2C428.83,304.3,427.45,299.32,426,294.37Z"/><path class="cls-26" d="M453,236.5c-4.33,4.37-8.62,8.79-13,13.08-2.13,2.08-4.47,3.94-6.75,5.86a11.78,11.78,0,0,1-2,1.24c-1.79,1-2.15,3.19-4.07,4.25-1.57.85-2.65,2.6-3.7,4.28-.89,1.44-2,3.56-4.5,3.22-.31-4.89-2.69-9.26-3.51-14-.63-3.7-2.32-7.15-2.49-11,2.42-.06,4.06-1.5,5.64-3.11,1.95-2,4-4,5.94-6l5.95-5.93c2-2,4.31-3.72,5.85-6s4.12-3.25,5.66-5.44a10.44,10.44,0,0,1,5-3.5c2.31.66.82,2.74,1.38,4.1,1.55,3.81,1.95,8,3.57,11.91.35.84.05,2,.05,2.95.15.76-.5,1.91,1,2Z"/><path class="cls-27" d="M402,201.58c.5,0,1.28.2,1.45,0,2.84-3.94,8.07-5.41,10.28-10.05.46-1,2.19-1.28,3-2.18,1.8-2,4.14-3.54,5.45-6.17.77-1.54,3-2.29,4.36-3.6,2.89-2.73,5.66-5.59,8.47-8.39v-2.51c1.56,1.23,1.54,3.15,2,4.82,1.41,5.51,2.5,11.12,4.18,16.55a13.84,13.84,0,0,1,.85,3.58c-1.37-.36-2.09.57-2.92,1.4q-11.62,11.64-23.27,23.26a12.71,12.71,0,0,0-1.94,2.66,7,7,0,0,1-5.87,3.61c-.28-.12-.79-.2-.82-.35a154.67,154.67,0,0,0-4.29-17.54A18.88,18.88,0,0,1,402,201.58Z"/><path class="cls-28" d="M453,398.13c-.44-2.1,1.3-3.08,2.52-3.87a49.41,49.41,0,0,0,6.61-5.69,5,5,0,0,1,1.64-.71c.66-2.39.71-5.08,3.85-5.87.55-.14,1-.88,1.42-1.36,1.45-1.56,1.91-3.81,4.48-4.67,2-.66,3.27-2.9,5.17-4.22,2.15-1.5,4.46-3.28,5.47-6.1a2.31,2.31,0,0,1,2.84-1.43c1,3.24,2.08,6.46,3,9.73,1,3.74,1.51,7.62,3,11.22v7c-1.16,5.12-4.66,8.24-9.32,9.89-3.92,1.39-8.12,1.95-12.13,3.11-4.18,1.2-5,1.09-9.14,0-3.6-.92-6.25-2.66-7.9-6C454.27,398.71,453.52,398.48,453,398.13Z"/><path class="cls-29" d="M220,40c2.79-1,5.7-1.92,6.73-5.22,3.23-1.93,4.8-5.61,8.28-7.44,2.24-1.19,3.61-4.05,5.87-5.15,2.49-1.22,2.58-3.91,4.64-5.34a14.44,14.44,0,0,0,5.06-5.8c.64-1.39,2.86-1.88,2.42-4,5.26,3.63,6.93,8.92,7,15v3c-3.51,2.9-7,5.76-9.38,9.79a6.47,6.47,0,0,1-2.82,2.76c-2.29.9-3.51,2.85-5.2,4.33-2.95,2.56-5.28,5.76-8.74,7.83a8.2,8.2,0,0,0-4,5.8c-4,1.56-5.65,6.21-9.91,7.41Z"/><path class="cls-30" d="M408,224.53a7,7,0,0,0,5.87-3.61,12.71,12.71,0,0,1,1.94-2.66q11.61-11.65,23.27-23.26c.83-.83,1.55-1.76,2.92-1.4,1.48,1.92,1.09,4.39,1.91,6.54,1.13,3,1.39,6.28,2.56,9.23.59,1.48.27,2.81.53,4.18a10.44,10.44,0,0,0-5,3.5c-1.54,2.19-4.11,3.16-5.66,5.44s-3.87,4-5.85,6l-5.95,5.93c-2,2-4,3.94-5.94,6-1.58,1.61-3.22,3-5.64,3.11-.15-.75.5-1.91-1-2v-2c-.15-.75.5-1.91-1-2v-2l-1-1v-3c-.33-.33-.67-.66-1-1C408.67,228.52,408.33,226.52,408,224.53Z"/><path class="cls-12" d="M260,25V22c.33.26.94.5,1,.78.09,1.62,0,3.24,0,5.2h2c-.4,1.87-1.7.83-3,.83Z"/><path class="cls-10" d="M290,33a2.48,2.48,0,0,1-4,0Z"/><path class="cls-10" d="M297,32c-.47,1.92-2,.61-3,1C294.47,31,296,32.35,297,32Z"/><path class="cls-25" d="M459,257.45c-1.5-.08-.85-1.24-1-2C459.5,255.54,458.85,256.7,459,257.45Z"/><path class="cls-12" d="M271,26c-.09,1.49-1.24.85-2,1C269.09,25.48,270.24,26.13,271,26Z"/><path class="cls-11" d="M476,321.31c-1.5-.09-.85-1.24-1-2C476.5,319.4,475.85,320.55,476,321.31Z"/><path class="cls-14" d="M340,21c-.09,1.49-1.24.85-2,1C338.09,20.5,339.24,21.14,340,21Z"/><path class="cls-12" d="M267,27c-.09,1.49-1.24.84-2,1C265.09,26.48,266.24,27.13,267,27Z"/><path class="cls-14" d="M330,24c-.09,1.5-1.24.85-2,1C328.09,23.49,329.24,24.13,330,24Z"/><path class="cls-14" d="M337,22c-.09,1.49-1.24.85-2,1C335.09,21.49,336.24,22.14,337,22Z"/><path class="cls-23" d="M453,234.5c-1.5-.08-.85-1.23-1-2C453.5,232.59,452.85,233.75,453,234.5Z"/><path class="cls-25" d="M460,260.45l-1-1Z"/><path class="cls-14" d="M333,23l-1,1Z"/><path class="cls-31" d="M261,175.64v81.81c-1.66.17-1,1.47-1,2.26,0,9.56,0,19.12,0,28.67a5.23,5.23,0,0,0-1.83.38c-2.83,1.87-6.4,2.91-7.66,6.6-3.85,3.29-6.65,7.7-11.21,10.25-.94.53-1.52,1.67-2.3,2.5-2,2.08-4,4.17-6,6.2-.67.67-1.72,1-2.22,1.79a19.54,19.54,0,0,1-4.7,5.29c-2,1.47-3.36,3.73-5.18,5.45-5.24,5-9.89,10.52-15.74,14.88-3,2.27-5.47,5.32-8.17,8v2.5H163c1.85-2.43,3.69-4.84,6.61-6.18a3.93,3.93,0,0,0,2.07-2.08c.59-2.07,2.31-3.08,3.61-4.47,1.93-2.06,3.65-4.78,6.06-5.8,3.09-1.32,3.51-4.41,5.75-6.23,4.1-3.34,7.59-7.42,11.39-11.12a13.64,13.64,0,0,0,3.51-5h18V290.38a13,13,0,0,0,5-3.5c1.59-1.7,3.3-3.28,4.92-4.94s3.8-3.35,4.92-5.44,3-2.94,4.31-4.52a48.56,48.56,0,0,1,8.89-8.32c3.21-2.25,5.69-5.53,8.56-8.3a42.38,42.38,0,0,1,3.37-2.64V190.6c0-4.4,0-8.81,0-13.22C260,176.66,259.66,175.65,261,175.64Z"/><path class="cls-32" d="M438,366.2h1.86c.07,1.08.13,2.18.24,3.9a10.25,10.25,0,0,1-2.43,1.86c-5,2-8.3,5.85-11.18,10.18a4.81,4.81,0,0,1-1.76,1.74,13.45,13.45,0,0,0-7.15,8.51,13.74,13.74,0,0,0-7.59,6.06,7.19,7.19,0,0,1-4.36,3.74c-.64.15-1.14,1.06-1.62,1.69-1,1.27-1.89,2.58-3,4.13v2.09c-1.88,1.56-4.29,2-6.43,3-1,.44-2.11.55-3.05,1a7.86,7.86,0,0,0-4.65,6.44,12.72,12.72,0,0,1-5.53,8.5c-2.8.85-5.59,1.74-8.4,2.54s-5.45,1.14-7.94,2.45h-8a27,27,0,0,1-4.84-2.42,13.88,13.88,0,0,1-5.16-8.56c1.33-1.17,3.2-2.1,3.89-3.57a18.13,18.13,0,0,1,6.59-7.08,27.69,27.69,0,0,0,6.73-6.26,78.24,78.24,0,0,1,6.85-7.55c2.74-2.89,5.51-5.76,8.47-8.42,2.64-2.39,4.48-5.69,8-7.06,0-2.05,3-2.65,2.46-4.95.86-.34,1.7-.71,2.58-1,4.09-1.35,8.13-2.91,12.31-3.93,3.33-.81,6.54-2.36,10.11-2.07.76-.15,1.91.5,2-1h2c.76-.16,1.91.49,2-1h2c.76-.15,1.91.49,2-1h3l1-1h3c1-.38,2.53.93,3-1Z"/><path class="cls-33" d="M261,175.64c-1.34,0-1,1-1,1.74,0,4.41,0,8.82,0,13.22-3.67,1.42-6.43,4-9.31,6.61-2,1.79-2.71,4.46-5.41,5.85-2.54,1.31-4.3,4.1-6.46,6.17-6.16,5.89-11.61,12.55-18.82,17.29V187.61l3.81-1.19c1.24-4.8,7.12-5.17,8.55-9.6,1.87-.54,3-2,4.47-3.33,4.16-3.8,7.18-8.67,11.78-12.05,1.61-1.18,2.34-3.75,4-4.6,2-1,3-2.91,5-4.08l2.37-.23V94.82h1c.33,1.67.67,3.33,1,5-.33.43-.94.85-1,1.29-.09,2.64,0,5.29,0,7.94Z"/><path class="cls-34" d="M260,288.38c0-9.55,0-19.11,0-28.67,0-.79-.69-2.09,1-2.26v81.82c-1.34,0-1,1-1,1.75,0,5.4,0,10.8,0,16.2-1.14.85-2.46,1.17-3.41,2.65a12.18,12.18,0,0,1-5,4.48,10.26,10.26,0,0,0-4.46,4.5A11.42,11.42,0,0,1,243,373.5c-2.88,1.74-4.95,4.21-7.24,6.48-1.69,1.68-2.77,4.14-4.68,5.41-2.62,1.75-4.62,4.06-6.93,6.07a30,30,0,0,1-3.47,2.44,5.55,5.55,0,0,1-.68-.76V358.22c2.05-1.88,4.26-3.61,6.1-5.67s4.84-2.47,5.73-5.51c.33-1.11,2.07-1.76,2.65-2.88s2.47-.31,2.71-2.33c.15-1.3,2.14-2.38,3.31-3.56s2.41-3.36,3.92-3.69c2.17-.47,1.39-2.85,3.07-3.31,2.89-.78,4.74-3.2,6.1-5.39,1-1.66,2.36-2.35,3.68-3.31a23.36,23.36,0,0,1,2.73-1.5V288.38Z"/><path class="cls-35" d="M295,226.52l-9-33.92a2.87,2.87,0,0,0,2.57-1c3.61-3.5,6.81-7.44,11.11-10.21a9.37,9.37,0,0,0,3.12-3.14c1.57-2.92,4.27-4.56,6.48-6.76s5-3.42,6.25-6.6c.54-1.42,2-3.55,4.47-3.21,1.93.61.33,3.06,2,3.81-.08,2.71,1.21,5.08,1.78,7.61a50.43,50.43,0,0,0,1.91,7.61c1,2.44,1.07,5.05,2.17,7.49,1,2.19.81,4.91,1.14,7.4a10.21,10.21,0,0,0-5.88,4.61,11.83,11.83,0,0,1-4.08,4.64,37.24,37.24,0,0,0-5.81,5c-3.64,3.59-7.24,7.21-10.85,10.82-.81.81-2,1.52-2.3,2.5C299.25,225.78,297.15,226.11,295,226.52Z"/><path class="cls-16" d="M295,226.52c2.15-.41,4.25-.74,5.08-3.36.31-1,1.49-1.69,2.3-2.5,3.61-3.61,7.21-7.23,10.85-10.82a37.24,37.24,0,0,1,5.81-5,11.83,11.83,0,0,0,4.08-4.64,10.21,10.21,0,0,1,5.88-4.61c2.31.66.73,2.72,1.36,4.08,1.34,2.87,1.67,6.19,2.68,9.24,1.15,3.49,1.73,7.12,2.84,10.63,1,3.2,2.39,6.45,2.12,10-.5,0-1.12-.2-1.47,0-3.93,2.52-13.61,12.48-16.6,16.24-2,2.5-4.66,4.46-7,6.68a9.35,9.35,0,0,0-1.88,1.95c-1.57,2.8-4.13,4.13-7,5v-1c-.15-.76.5-1.91-1-2-1-3.55-2.1-7.08-3-10.67s-2.13-7.14-2.77-10.72C296.74,232.1,295.24,229.49,295,226.52Z"/><path class="cls-36" d="M320,161.67c-2.49-.34-3.93,1.79-4.47,3.21-1.22,3.18-4.17,4.53-6.25,6.6s-4.91,3.84-6.48,6.76a9.37,9.37,0,0,1-3.12,3.14c-4.3,2.77-7.5,6.71-11.11,10.21a2.87,2.87,0,0,1-2.57,1v-2c-.15-.75.5-1.91-1-2q-4-15-8-29.93a5.62,5.62,0,0,0,4.21-1.79c4.38-4.15,8.75-8.29,13.25-12.32s8.49-9,12.76-13.51a44.09,44.09,0,0,1,3.78-3.17v-1.14c.16,0,.46,0,.48,0,.85,3.27,1.64,6.55,2.53,9.81,1,3.69,1.79,7.44,2.89,11.12,1,3.24,2.37,6.47,2.1,10l1,1Z"/><path class="cls-37" d="M390,378.18c.5,2.3-2.43,2.9-2.46,4.95-3.53,1.37-5.37,4.67-8,7.06-3,2.66-5.73,5.53-8.47,8.42a78.24,78.24,0,0,0-6.85,7.55,27.69,27.69,0,0,1-6.73,6.26,18.13,18.13,0,0,0-6.59,7.08c-.69,1.47-2.56,2.4-3.89,3.57l-8-30.92a5.75,5.75,0,0,0,4.2-1.78c2.89-2.58,5.49-5.44,8.69-7.73,1.61-1.15,2.46-3.31,3.94-4.72,3-2.9,5.5-6.44,9.36-8.46a3.5,3.5,0,0,0,1.71-1.73c1-3,3.49-4.32,6.1-5.52.33.26.87.47,1,.79a49.7,49.7,0,0,1,1.57,6.28c.55,3.7,2.35,7.11,2.46,10.89V382c1.3,0,2.61,1,3-.85h1l1-1h1c.76-.15,1.91.5,2-1h2l1-1Z"/><path class="cls-38" d="M311,126.75v1.14a44.09,44.09,0,0,0-3.78,3.17c-4.27,4.49-8.16,9.39-12.76,13.51s-8.87,8.17-13.25,12.32a5.62,5.62,0,0,1-4.21,1.79v-2c-.15-.75.5-1.91-1-2l-6-22.95c.49,0,1.2.21,1.45,0,2.23-2.16,4.42-4.38,6.53-6.66,1.41-1.52,2.38-3.68,4.06-4.65,3.49-2,5.86-5.11,8.59-7.83s5.87-5,7.82-8.58a6.41,6.41,0,0,1,5.55-3.17c.28.11.79.2.81.35.73,5,2.91,9.74,3.75,14.74C309.19,119.57,310.9,123,311,126.75Z"/><path class="cls-39" d="M373,362.21c-2.61,1.2-5.1,2.48-6.1,5.52a3.5,3.5,0,0,1-1.71,1.73c-3.86,2-6.32,5.56-9.36,8.46-1.48,1.41-2.33,3.57-3.94,4.72-3.2,2.29-5.8,5.15-8.69,7.73a5.75,5.75,0,0,1-4.2,1.78v-1c-.15-.76.5-1.91-1-2-1.77-7.38-3.74-14.7-6-22a7.27,7.27,0,0,1,0-2,15.34,15.34,0,0,0,5-3.46c2.21-2.09,3.9-4.79,6.91-6a3.21,3.21,0,0,0,1.7-1.72c.51-1.67,1.82-2.59,2.86-3.78s1.93-3.41,3.27-3.8c2.05-.6,1.72-2.66,3-3.38,3.77-2.13,6.24-5.64,9.42-8.4.4-.35,1.2-.26,1.81-.37.33.52.91,1,1,1.58.53,5.14,2.79,9.85,3.79,14.82C371.52,354.51,373.35,358.17,373,362.21Z"/><path class="cls-20" d="M304,259.45c2.9-.9,5.46-2.23,7-5a9.35,9.35,0,0,1,1.88-1.95c2.36-2.22,5-4.18,7-6.68,3-3.76,12.67-13.72,16.6-16.24.35-.23,1,0,1.47,0,.28.11.8.2.81.34.56,5.1,2.79,9.77,3.74,14.75.7,3.65,2.35,7.07,2.45,10.85-1,.87-2.12,1.69-3.11,2.62-3.25,3.06-5.43,7.28-9.54,9.35-1.48.75-.48,2.87-2.64,3.15-1.19.15-2.19,1.86-3.25,2.89s-2.08,2.16-3.21,3.14a11.87,11.87,0,0,1-2.19,1.22c-.34,4.87-5.46,5.53-7.57,8.56H311v-1c-.15-.76.5-1.91-1-2-1.67-6.62-3.25-13.27-5.07-19.85C304.56,262.18,303.81,260.93,304,259.45Z"/><path class="cls-40" d="M366,334.28c-.61.11-1.41,0-1.81.37-3.18,2.76-5.65,6.27-9.42,8.4-1.28.72-.95,2.78-3,3.38-1.34.39-2.16,2.51-3.27,3.8s-2.35,2.11-2.86,3.78a3.21,3.21,0,0,1-1.7,1.72c-3,1.23-4.7,3.93-6.91,6a15.34,15.34,0,0,1-5,3.46c-1.61-2.69-1-6.15-3-8.68-1-6.93-3.19-13.54-5-20.26l2.17,1.14c2.44-2,5.11-3.86,7.24-6.18a58,58,0,0,1,5.56-5.52c1.55-1.29,2.31-3.63,3.95-4.68,4.75-3,7.95-7.67,12.16-11.23a31.51,31.51,0,0,1,3.92-2.46c.09,2.69,1.66,5,2.12,7.6.75,4.23,2.34,8.3,3.46,12.46C365.18,329.66,365.53,332,366,334.28Z"/><path class="cls-41" d="M304,100.81a6.41,6.41,0,0,0-5.55,3.17c-1.95,3.53-5.1,5.86-7.82,8.58s-5.1,5.81-8.59,7.83c-1.68,1-2.65,3.13-4.06,4.65-2.11,2.28-4.3,4.5-6.53,6.66-.25.25-1,0-1.45,0v-2l-1-1v-2c-.15-.76.5-1.91-1-2v-2c-.15-.76.5-1.91-1-2-1.31-4.67-2-9.52-4-14a5.23,5.23,0,0,1,0-1.94c.73-.23,1.71-.23,2.15-.72,3.7-4.09,8.28-7.32,11.32-12.08,1-1.64,3.26-2.49,4.73-3.92,1.72-1.68,3.12-3.68,4.82-5.38s3.62-3,5.27-4.69a33.68,33.68,0,0,0,3.16-4.11,2.42,2.42,0,0,1,2.55-1c1.18,2.23,1.35,4.75,2,7.13,1.12,4.19,2.1,8.41,3.29,12.57C303.06,95.29,304.18,97.9,304,100.81Z"/><path class="cls-42" d="M359,307.34a31.51,31.51,0,0,0-3.92,2.46c-4.21,3.56-7.41,8.18-12.16,11.23-1.64,1.05-2.4,3.39-3.95,4.68a58,58,0,0,0-5.56,5.52c-2.13,2.32-4.8,4.14-7.24,6.18L324,336.27v-2c-.15-.76.5-1.91-1-2v-2c-.15-.76.5-1.91-1-2-1.31-4.67-2-9.52-4-14a5.23,5.23,0,0,1,0-1.94c.5,0,1.2.21,1.46,0,1.9-1.82,4.09-3.49,5.45-5.67a25.39,25.39,0,0,1,7.71-8.07c3.89-2.46,5.92-6.92,10.31-8.6,1.6-4,5.67-5.78,8.07-9.3V278.4c1.94.59.64,2.17,1,3.24C354.75,290.09,356.86,298.72,359,307.34Z"/><path class="cls-43" d="M351,278.4v2.25c-2.4,3.52-6.47,5.31-8.07,9.3-4.39,1.68-6.42,6.14-10.31,8.6a25.39,25.39,0,0,0-7.71,8.07c-1.36,2.18-3.55,3.85-5.45,5.67-.26.25-1,0-1.46,0-.67-2.05-1.44-4.06-2-6.14-1.15-4.51-2.16-9.05-3.28-13.56-.52-2.1-1.16-4.17-1.74-6.24h2.49c2.11-3,7.23-3.69,7.57-8.56a11.87,11.87,0,0,0,2.19-1.22c1.13-1,2.13-2.1,3.21-3.14s2.06-2.74,3.25-2.89c2.16-.28,1.16-2.4,2.64-3.15,4.11-2.07,6.29-6.29,9.54-9.35,1-.93,2.07-1.75,3.11-2.62.28.11.79.19.82.35a155.19,155.19,0,0,0,4.29,17.54A18.74,18.74,0,0,1,351,278.4Z"/><path class="cls-26" d="M260,357.22c0-5.4,0-10.8,0-16.2,0-.72-.35-1.75,1-1.75q0,33.12,0,66.25a12.43,12.43,0,0,1-.86,5.62c-.67,1.45-.44,3.32-1,5A20.46,20.46,0,0,1,251,427c-4.4,2.92-8.88,5.76-14.45,6.13-.71,0-1.53,1.07-2.59.89H221a33.08,33.08,0,0,1,2.15-3.59,41.31,41.31,0,0,1,3.15-3.2c.92-.94,2.47-1.86,2.56-2.89.19-2.18,2.38-1.19,3.17-2.62,1-1.82,2.93-3.13,4.47-4.66s3.1-3.57,5-4.85c1.74-1.17,2.64-3,4.13-4.26,2.44-2.13,4.22-5,7.36-6.35,1.07-3.59,4.54-4.79,7-6.93Z"/><path class="cls-20" d="M303,256.45c1.5.09.85,1.24,1,2C302.5,258.36,303.15,257.21,303,256.45Z"/><path class="cls-36" d="M276,154.69c1.5.08.85,1.24,1,2C275.5,156.6,276.15,155.44,276,154.69Z"/><path class="cls-38" d="M268,124.75c1.5.09.85,1.24,1,2C267.5,126.66,268.15,125.51,268,124.75Z"/><path class="cls-38" d="M267,120.76c1.5.09.85,1.24,1,2C266.5,122.67,267.15,121.52,267,120.76Z"/><path class="cls-43" d="M310,283.39c1.5.09.85,1.24,1,2C309.5,285.3,310.15,284.15,310,283.39Z"/><path class="cls-40" d="M323,332.28c1.5.09.85,1.24,1,2C322.5,334.19,323.15,333,323,332.28Z"/><path class="cls-40" d="M322,328.29c1.5.09.85,1.24,1,2C321.5,330.2,322.15,329.05,322,328.29Z"/><path class="cls-37" d="M338,389.15c1.5.09.85,1.24,1,2C337.5,391.06,338.15,389.91,338,389.15Z"/><path class="cls-35" d="M285,188.61c1.5.08.85,1.24,1,2C284.5,190.52,285.15,189.37,285,188.61Z"/><path class="cls-38" d="M269,128.75l1,1Z"/><path class="cls-44" d="M202,311.33a13.64,13.64,0,0,1-3.51,5c-3.8,3.7-7.29,7.78-11.39,11.12-2.24,1.82-2.66,4.91-5.75,6.23-2.41,1-4.13,3.74-6.06,5.8-1.3,1.39-3,2.4-3.61,4.47a3.93,3.93,0,0,1-2.07,2.08c-2.92,1.34-4.76,3.75-6.61,6.18H151v17c-3.25.15-5.19,2.39-6.91,4.68a9.3,9.3,0,0,1-1.43,1.39c-3.57,3.23-6.92,6.69-10.34,10.08-.54,2.86-3.17,3.13-4.68,3.91l-5.8,7.53c-4.39,1.4-6.35,5.52-9.4,8.41-2.54,2.4-4.84,5.06-7.46,7.35a82.35,82.35,0,0,0-7.37,7.34c-1.59,1.79-3.08,3.82-5.55,4.62-1.75,3.2-4.59,5.46-7,8.08-.25.26,0,1,0,1.46H46a2.62,2.62,0,0,1,1-2.58,46.86,46.86,0,0,0,3.55-3.5c1-1.06,2.22-1.84,3.2-3,3.41-4.12,7-8.11,10.83-11.88,5.12-5.07,10.5-9.89,15.77-14.81.37-.34.75-1,1.06-1,2.28.25,1.27-2.15,3.29-3.1H41V368.2c0-4.74,0-9.48,0-14.22,0-.72-.35-1.74,1-1.74V393c15.79.66,63.79.41,68-.35V352.24c.33.39.91.77,1,1.19a36.87,36.87,0,0,1,0,3.79v16.55c1.34-1.48,2.49-2.27,2.92-3.34a4.15,4.15,0,0,1,2.15-2.3,12.41,12.41,0,0,0,4.2-4.42c1.06-1.67,3.55-2.42,5.34-3.66.29-.2.15-.95.41-1.3,1.25-1.65,2.32-3.56,3.9-4.83,3.68-3,7.83-5.32,10.49-9.47.61-.95,1.37-2.27,3-2.26.48,0,1.08-.77,1.41-1.31a30.37,30.37,0,0,1,9.83-9.83,7.34,7.34,0,0,0,2.77-2.82c1.12-2.51,3.25-4,5-5.88q4.16-4.32,8.49-8.44a2.76,2.76,0,0,0,1-2.58Z"/><path class="cls-45" d="M85,434.05c0-.5-.22-1.2,0-1.46,2.44-2.62,5.28-4.88,7-8.08,2.47-.8,4-2.83,5.55-4.62a82.35,82.35,0,0,1,7.37-7.34c2.62-2.29,4.92-4.95,7.46-7.35,3-2.89,5-7,9.4-8.41l5.8-7.53c1.51-.78,4.14-1.05,4.68-3.91,3.42-3.39,6.77-6.85,10.34-10.08a9.3,9.3,0,0,0,1.43-1.39c1.72-2.29,3.66-4.53,6.91-4.68v23.94c.47,1.93,2,.62,3,1-1,1.7-1.37,3.75-3.8,4.43-1.12.31-2.11,1.64-2.82,2.73a43.67,43.67,0,0,1-8,9.18c-7.59,6.72-14.52,14.18-21.66,21.4-.48.49-.5,1.44-.74,2.17Z"/><path class="cls-46" d="M48,394.14H84.73c-2,.95-1,3.35-3.29,3.1-.31,0-.69.67-1.06,1-5.27,4.92-10.65,9.74-15.77,14.81-3.81,3.77-7.42,7.76-10.83,11.88-1,1.19-2.19,2-3.2,3a46.86,46.86,0,0,1-3.55,3.5,2.62,2.62,0,0,0-1,2.58H18a19,19,0,0,1-6-4c.5,0,1.21.21,1.47,0a39.67,39.67,0,0,0,5.44-5.72c1.21-1.77,2.34-3.36,4.34-4.24a2.68,2.68,0,0,0,1.45-1.23c.78-2.53,2.95-3.87,4.67-5.53,4.95-4.8,10-9.46,15.11-14.13A12.84,12.84,0,0,0,48,394.14Z"/><path class="cls-47" d="M117,434.05c.24-.73.26-1.68.74-2.17,7.14-7.22,14.07-14.68,21.66-21.4a43.67,43.67,0,0,0,8-9.18c.71-1.09,1.7-2.42,2.82-2.73,2.43-.68,2.82-2.73,3.8-4.43h27c0,.5.2,1.13,0,1.47a33.49,33.49,0,0,1-3.52,4.49,30.82,30.82,0,0,1-4.86,3.87c-1.86,1.2-2.7,3-3.84,4.79s-4,1.92-4.82,4.4a4.33,4.33,0,0,1-2.13,2.52c-2.3.85-3.54,2.79-5.18,4.31-1.94,1.8-3.58,4-5.69,5.54-2.72,2-4.26,5.05-6.9,7.07-.24.19,0,.95,0,1.45H117Z"/><path class="cls-48" d="M260,357.22V394.7c-2.47,2.14-5.94,3.34-7,6.93-3.14,1.33-4.92,4.22-7.36,6.35-1.49,1.3-2.39,3.09-4.13,4.26-1.9,1.28-3.35,3.21-5,4.85s-3.48,2.84-4.47,4.66c-.79,1.43-3,.44-3.17,2.62-.09,1-1.64,1.95-2.56,2.89a41.31,41.31,0,0,0-3.15,3.2,33.08,33.08,0,0,0-2.15,3.59H182c.23-.73.25-1.7.74-2.16,2.73-2.54,5.65-4.88,8.35-7.45a113.24,113.24,0,0,0,9.82-9.9c3-3.62,6.78-6.3,9.93-9.69,1.9-2,3.12-4.69,5.86-6,1.54-.76,1.91-2.66,2.48-4.67H181v-1h39a5.55,5.55,0,0,0,.68.76,30,30,0,0,0,3.47-2.44c2.31-2,4.31-4.32,6.93-6.07,1.91-1.27,3-3.73,4.68-5.41,2.29-2.27,4.36-4.74,7.24-6.48a11.42,11.42,0,0,0,4.13-4.65,10.26,10.26,0,0,1,4.46-4.5,12.18,12.18,0,0,0,5-4.48C257.54,358.39,258.86,358.07,260,357.22Z"/><path class="cls-34" d="M181,394.14h38.18c-.57,2-.94,3.91-2.48,4.67-2.74,1.35-4,4-5.86,6-3.15,3.39-7,6.07-9.93,9.69a113.24,113.24,0,0,1-9.82,9.9c-2.7,2.57-5.62,4.91-8.35,7.45-.49.46-.51,1.43-.74,2.16H144c0-.5-.21-1.26,0-1.45,2.64-2,4.18-5.07,6.9-7.07,2.11-1.55,3.75-3.74,5.69-5.54,1.64-1.52,2.88-3.46,5.18-4.31a4.33,4.33,0,0,0,2.13-2.52c.82-2.48,3.64-2.59,4.82-4.4s2-3.59,3.84-4.79a30.82,30.82,0,0,0,4.86-3.87,33.49,33.49,0,0,0,3.52-4.49C181.2,395.27,181,394.64,181,394.14Z"/><path class="cls-49" d="M72,79.86h30.9l.13,2.07c-.87,2.61-3.62,2.4-5.27,3.73a63.22,63.22,0,0,0-4.69,4.6v3.06c-1.6,1.14-2.64,2.9-4.74,3.8-3.14,1.34-5.28,4-7.39,6.7a86,86,0,0,1-7.42,7.86c-.33.32-1.27,0-1.88,0-2.4,2.25-5,4.3-4.64,8H42c-1.66.16-1,1.46-1,2.25-.05,7.9,0,15.79,0,23.69a15.5,15.5,0,0,0-4,1.07,6,6,0,0,0-2.83,3c-.42,1.59-1.27,2.1-2.45,3a109.08,109.08,0,0,0-10.63,9.88c-1.76,1.83-3.17,3.84-5.55,5.15a9.14,9.14,0,0,0-4,4.74A47.64,47.64,0,0,1,9,177.44l-2.77.33c-1.28,1.47-2.63,3-4.19,4.85H1V150.7c3,.51,5-1.59,6.55-3.28,2.7-3,5.35-6.16,6.59-10.29,1.74-1.15,3.71-2,5.16-4a16.26,16.26,0,0,1,5-4.51c2-1.12,3.31-3.39,5.36-5.63,4.65,0,6.84-4.25,9.18-7.89,1-1.54,3-1.72,3.53-3.94.38-1.65,2.68-2.81,4-4.29a12.58,12.58,0,0,1,4.72-3.09c.71-.3,1.76-1,1.79-1.48.09-1.83,1.72-2.32,2.59-3.44,1.27-1.63,2.89-2.9,4-4.81,1-1.72,3.11-2.78,4.64-4.22C67.23,86.89,71.32,84.71,72,79.86Z"/><path class="cls-22" d="M1,274.41v-42.9c2.86-1,4.17-3.33,5.34-5.82.31-.06.61-.13.92-.16.47-.05,1-.07,1.38-.1.49-.55,1.22-1,1.31-1.52.45-2.78,2.4-4.31,4.64-5.4,3.64-1.76,5.8-5.16,8.44-7.85s5.07-5.37,7.81-7.66l4.9-2.71A10.86,10.86,0,0,1,39.18,195c.45-.34,1.21-.26,1.82-.37v42.9a2.82,2.82,0,0,0-2.57,1c-3.18,3.1-5.72,6.8-9.37,9.45a43.68,43.68,0,0,0-8.73,8.66c-1.27,1.62-2.27,3.8-3.95,4.67a18.47,18.47,0,0,0-4.72,4.06C8.42,268.76,4.6,271.45,1,274.41Z"/><path class="cls-50" d="M41,194.6c-.61.11-1.37,0-1.82.37a10.86,10.86,0,0,0-3.44,5.32L30.84,203c-2.74,2.29-5.26,5.06-7.81,7.66s-4.8,6.09-8.44,7.85c-2.24,1.09-4.19,2.62-4.64,5.4-.09.54-.82,1-1.31,1.52-.43,0-.91,0-1.38.1-.31,0-.61.1-.92.16-1.17,2.49-2.48,4.86-5.34,5.82V200.58a7.24,7.24,0,0,0,1.84-.38,10.15,10.15,0,0,0,2.74-1.77c.87-.88,1.3-2.2,2.2-3,1.75-1.65,3.82-3,5.53-4.65,3.13-3.1,6-6.48,9-9.67,5.83-6.18,12.42-11.64,18.69-17.4Z"/><path class="cls-9" d="M41,163.67c-6.27,5.76-12.86,11.22-18.69,17.4-3,3.19-5.87,6.57-9,9.67-1.71,1.69-3.78,3-5.53,4.65-.9.84-1.33,2.16-2.2,3a10.15,10.15,0,0,1-2.74,1.77,7.24,7.24,0,0,1-1.84.38v-18H2c1.56-1.81,2.91-3.38,4.19-4.85L9,177.44a47.64,47.64,0,0,0,2.54-4.87,9.14,9.14,0,0,1,4-4.74c2.38-1.31,3.79-3.32,5.55-5.15a109.08,109.08,0,0,1,10.63-9.88c1.18-.93,2-1.44,2.45-3a6,6,0,0,1,2.83-3,15.5,15.5,0,0,1,4-1.07Z"/><path class="cls-51" d="M48,394.14a12.84,12.84,0,0,1-3.52,5c-5.07,4.67-10.16,9.33-15.11,14.13-1.72,1.66-3.89,3-4.67,5.53a2.68,2.68,0,0,1-1.45,1.23c-2,.88-3.13,2.47-4.34,4.24A39.67,39.67,0,0,1,13.47,430c-.26.25-1,0-1.47,0l-1-1c-4.84-3.23-7.44-8-9-13.39-.26-.88-.66-1.72-1-2.57v-8c.61-.12,1.43,0,1.81-.38,5.53-5.09,11.11-10.12,16.41-15.43a74.67,74.67,0,0,1,5.92-5.88c3.85-3.09,6.17-7.76,10.5-10.41.42-.25,1-.65,1-1,.39-2.53,2.68-2.78,4.34-3.78v25.94Z"/><path class="cls-46" d="M11,429.06l1,1Z"/><path class="cls-52" d="M41,368.2c-1.66,1-4,1.25-4.34,3.78-.06.39-.6.79-1,1-4.33,2.65-6.65,7.32-10.5,10.41a74.67,74.67,0,0,0-5.92,5.88c-5.3,5.31-10.88,10.34-16.41,15.43-.38.36-1.2.26-1.81.38V373.19c2.81-1.64,6.07-2.81,8.32-5,3.64-3.58,6.41-8,11-10.75.35-.21.47-.79.73-1.17.45-.65.94-1.83,1.39-1.82,2.34.07,1.58-2.5,3.06-3.29a7.87,7.87,0,0,0,3.45-3.47c1-2.42,3-3.49,5-4.87,4.08-2.85,8-5.95,10.6-10.39A18.21,18.21,0,0,1,49,326.9c5.43-3.89,9.61-9.16,15-12.68v-2.89H90c-.35.85-.53,2.29-1.08,2.45-3.67,1-4.4,5-7.48,6.86s-5.14,5.45-8.09,7.88c-4.47,3.66-7.5,8.79-12.25,12.22a4.44,4.44,0,0,0-2.24,3c-.11.78-1.24,1.5-2,2.1-1.64,1.26-3.35,2.42-4.84,3.48v2.88H42c-1.34,0-1,1-1,1.74C41,358.72,41,363.46,41,368.2Z"/><path class="cls-53" d="M1,274.41c3.6-3,7.42-5.65,10.66-9.06a18.47,18.47,0,0,1,4.72-4.06c1.68-.87,2.68-3.05,3.95-4.67A43.68,43.68,0,0,1,29.06,248c3.65-2.65,6.19-6.35,9.37-9.45a2.82,2.82,0,0,1,2.57-1v42.9H39.14c-1.71,1.84-2.86,3.73-4.55,4.78-4.83,3-8.06,7.63-12.19,11.34-.9.81-1.32,2.14-2.16,3a10.06,10.06,0,0,1-3.35,2.69c-1.23.47-.6,2.75-2.49,2.19-1.76,1.76-4,3.24-5.16,5.33-1.7,3.17-5.09,4.1-7.27,6.53-.15.16-.64,0-1,0Z"/><path class="cls-54" d="M41,280.4V227.52h1v83.81H64v2.89c-5.36,3.52-9.54,8.79-15,12.68a18.21,18.21,0,0,0-4.58,5.51c-2.63,4.44-6.52,7.54-10.6,10.39-2,1.38-3.91,2.45-5,4.87a7.87,7.87,0,0,1-3.45,3.47c-1.48.79-.72,3.36-3.06,3.29-.45,0-.94,1.17-1.39,1.82-.26.38-.38,1-.73,1.17-4.54,2.71-7.31,7.17-10.95,10.75-2.25,2.21-5.51,3.38-8.32,5V347.25a14.87,14.87,0,0,0,7.4-6.06c3.18-4.71,7.7-8.05,11.43-12.17.82-.9,2.66-1.23,3-2.18,1.31-3.91,6.1-4.56,7.46-8.29,3.75-1.62,5.82-4.91,7.93-8L41,310Z"/><path class="cls-55" d="M41,280.4V310l-2.8.5c-2.11,3.12-4.18,6.41-7.93,8-1.36,3.73-6.15,4.38-7.46,8.29-.32,1-2.16,1.28-3,2.18-3.73,4.12-8.25,7.46-11.43,12.17A14.87,14.87,0,0,1,1,347.25V316.32c.33,0,.82.14,1,0,2.18-2.43,5.57-3.36,7.27-6.53,1.13-2.09,3.4-3.57,5.16-5.33,1.89.56,1.26-1.72,2.49-2.19a10.06,10.06,0,0,0,3.35-2.69c.84-.9,1.26-2.23,2.16-3,4.13-3.71,7.36-8.34,12.19-11.34,1.69-1.05,2.84-2.94,4.55-4.78Z"/><path class="cls-22" d="M192,79.86c-1.15,1.74-2.24,3.54-4.52,4a42.48,42.48,0,0,1-9.42,9.46c-.29.21-.1,1-.39,1.28-1.69,1.47-3.58,2.72-5.16,4.28s-2.59,3.23-3.94,4.8c-.24.28-.88.22-1.28.31-1.1,1.83-1,4.5-3.85,4.86-2.68,3-6.25,5.3-8.07,9.08a7.8,7.8,0,0,0-.37,1.84,17.67,17.67,0,0,0-2.82,0c-.43.07-.79.62-1.18,1v2c-2.68.36-4.45,2.23-6.35,3.85-3.39,2.89-5.08,7.45-9.41,9.46-.58.27-.79,1.29-1.25,1.91a5.81,5.81,0,0,1-1.6,1.79c-2.29,1.23-3.61,3.32-5.31,5.13-4.56,4.87-9.68,9.23-14.62,13.75-.27.24-1,0-1.46,0V120.26l-1.49-1.48c-2,1-2,1-6.51,1,1.48-4.67,5.09-7.73,8.49-10.87,1.57-1.46,3.87-2.14,5.39-3.63s1.92-3.63,3.3-5c2-2,3.72-4.42,6.5-5.82,1.54-.77,2.25-3,3.61-4.34,4.24-4.06,8.66-7.94,12.91-12a10.56,10.56,0,0,0,3-3.71C146.87,72.7,149,72,151,71.87v7c.34,1.93,1.86.94,2.77,1C166.51,79.88,179.26,79.86,192,79.86Z"/><path class="cls-56" d="M151,78.86V39c21.91,0,43.82,0,65.72,0,1.08,0,2.68-1,3.28,1V78.86Z"/><path class="cls-57" d="M103,119.77c4.55,0,4.55,0,6.51-1l1.49,1.48V195.5h2.59a55.08,55.08,0,0,1,4.71-4.61c1.59-1.24,2.67-3,4.2-4.13a63.82,63.82,0,0,0,9.52-9.43,125.29,125.29,0,0,1,17.51-16.63c.31-.24,1,0,1.47,0V191.6a6,6,0,0,0-1.84.38c-4.16,2.37-7.21,6-10.16,9.62-.81,1-1.48,2.51-2.52,2.84-2.42.78-3.7,2.76-5.06,4.44a14.11,14.11,0,0,1-2.52,2.32c-2.08,1.61-4.62,2.69-5.68,5.51a5.14,5.14,0,0,1-2.78,2.72c-1.41.48-1.81,1.33-2.53,2.44a11.57,11.57,0,0,1-6.91,4.65c0-8.22,0-16.45,0-24.68,0-.79.69-2.09-1-2.26V120.76H42v-1h61Z"/><path class="cls-58" d="M220,150.7v-19h2.49c2-1.52,2.13-4.83,5.23-5.21,1.05-2.43,2-4.63,4.79-6a16,16,0,0,0,5.92-5.91c.83-1.34,2-1.82,3-2.61,2-1.55,4.27-2.63,5.25-5.24.31-.8,1.4-1.3,2.13-1.94,2.07-1.82,4.75-3.3,6-5.56A10.64,10.64,0,0,1,260,94.82v18c-1.06-.16-2.14,0-2.52,1.07-.83,2.26-2.68,3.64-4.29,5.19-7.12,6.85-14.3,13.63-21.45,20.45-1.56,1.49-3.52,2.81-4.49,4.63A15,15,0,0,1,220,150.7Z"/><path class="cls-58" d="M220,120.76H151c.39-.33.75-.88,1.18-1a17.67,17.67,0,0,1,2.82,0h61a17.67,17.67,0,0,1,2.82,0C219.25,119.88,219.61,120.43,220,120.76Z"/><path class="cls-41" d="M261,94.82h-1l.67-.82Z"/><path class="cls-12" d="M151,78.86h69c-.17,1.65-1.47,1-2.26,1-8.58,0-17.16,0-25.74,0-12.74,0-25.49,0-38.23,0C152.86,79.8,151.34,80.79,151,78.86Z"/><path class="cls-20" d="M393,167.66c-1.5-.09-.85-1.24-1-2C393.5,165.75,392.85,166.9,393,167.66Z"/><path class="cls-20" d="M394,170.65l-1-1Z"/><path class="cls-11" d="M441,349.24c-1.5-.08-.85-1.24-1-2C441.5,347.33,440.85,348.49,441,349.24Z"/><path class="cls-11" d="M442,352.24c-.33-.34-.67-.67-1-1Z"/><path class="cls-21" d="M365,61.9c-1.5-.09-.85-1.24-1-2C365.5,60,364.85,61.14,365,61.9Z"/><path class="cls-21" d="M367,68.88l-1-1Z"/><path class="cls-21" d="M366,64.89c-.33-.33-.67-.66-1-1Z"/><path class="cls-27" d="M402,201.58c-1.5-.09-.85-1.24-1-2C402.5,199.67,401.85,200.82,402,201.58Z"/><path class="cls-17" d="M374,95.82c-1.5-.08-.85-1.24-1-2C374.5,93.91,373.85,95.06,374,95.82Z"/><path class="cls-17" d="M375,98.81l-1-1Z"/><path class="cls-18" d="M431,311.33c-1.5-.09-.85-1.24-1-2C431.5,309.42,430.85,310.57,431,311.33Z"/><path class="cls-18" d="M433,318.31l-1-1Z"/><path class="cls-18" d="M432,314.32c-.33-.33-.67-.66-1-1Z"/><path class="cls-26" d="M413,243.48c-1.5-.08-.85-1.24-1-2C413.5,241.57,412.85,242.73,413,243.48Z"/><path class="cls-26" d="M412,239.49c-1.5-.08-.85-1.24-1-2C412.5,237.58,411.85,238.74,412,239.49Z"/><path class="cls-26" d="M411,235.5c-.33-.33-.67-.66-1-1Z"/><path class="cls-26" d="M410,231.51l-1-1C409.33,230.85,409.67,231.18,410,231.51Z"/><path class="cls-59" d="M220,393.14H151v-40.9h69v40.9Z"/><path class="cls-60" d="M220,290.38V255.46c1.64.43,2.36-.87,3.26-1.77,9.07-9,18.09-18.11,27.21-27.09,2.53-2.5,5.33-4.74,8.06-7,.29-.24,1,0,1.47,0v33.18a42.38,42.38,0,0,0-3.37,2.64c-2.87,2.77-5.35,6.05-8.56,8.3a48.56,48.56,0,0,0-8.89,8.32c-1.34,1.58-3.23,2.53-4.31,4.52s-3.21,3.67-4.92,5.44-3.33,3.24-4.92,4.94A13,13,0,0,1,220,290.38Z"/><path class="cls-61" d="M260,219.54c-.5,0-1.18-.21-1.47,0-2.73,2.29-5.53,4.53-8.06,7-9.12,9-18.14,18.06-27.21,27.09-.9.9-1.62,2.2-3.26,1.77V226.52c7.21-4.74,12.66-11.4,18.82-17.29,2.16-2.07,3.92-4.86,6.46-6.17,2.7-1.39,3.44-4.06,5.41-5.85,2.88-2.6,5.64-5.19,9.31-6.61Z"/><path class="cls-47" d="M209,352.24H195v-2.5c2.7-2.7,5.14-5.75,8.17-8,5.85-4.36,10.5-9.92,15.74-14.88,1.82-1.72,3.19-4,5.18-5.45a19.54,19.54,0,0,0,4.7-5.29c.5-.76,1.55-1.12,2.22-1.79,2-2,4-4.12,6-6.2.78-.83,1.36-2,2.3-2.5,4.56-2.55,7.36-7,11.21-10.25,1.26-3.69,4.83-4.73,7.66-6.6a5.23,5.23,0,0,1,1.83-.38v15a6.79,6.79,0,0,0-2.17.74c-1.05.8-1.79,2-2.88,2.74C248.67,311,244.32,317.09,238.8,322a6.57,6.57,0,0,1-5.08,4.4,35,35,0,0,1-2.22,2.86c-2.07,2.15-4.28,4.18-6.31,6.37-1.18,1.27-1.88,3.13-3.24,4.07C216.91,343.18,213,347.69,209,352.24Z"/><path class="cls-11" d="M432,367.2c.47-1.92,2-.62,3-1C434.53,368.13,433,366.82,432,367.2Z"/><path class="cls-11" d="M423,369.2c.09-1.5,1.24-.85,2-1C424.91,369.69,423.76,369.05,423,369.2Z"/><path class="cls-11" d="M419,370.2c.09-1.5,1.24-.85,2-1C420.91,370.69,419.76,370,419,370.2Z"/><path class="cls-11" d="M415,371.19c.09-1.49,1.24-.84,2-1C416.91,371.69,415.76,371,415,371.19Z"/><path class="cls-11" d="M428,368.2l1-1Z"/><path class="cls-41" d="M220,150.7a15,15,0,0,0,7.25-6.58c1-1.82,2.93-3.14,4.49-4.63,7.15-6.82,14.33-13.6,21.45-20.45,1.61-1.55,3.46-2.93,4.29-5.19.38-1,1.46-1.23,2.52-1.07v39.75l-2.37.23c-2,1.17-3,3-5,4.08-1.68.85-2.41,3.42-4,4.6-4.6,3.38-7.62,8.25-11.78,12.05-1.44,1.31-2.6,2.79-4.47,3.33-1.43,4.43-7.31,4.8-8.55,9.6L220,187.61Z"/><path class="cls-47" d="M209,352.24c3.95-4.55,7.91-9.06,12.95-12.54,1.36-.94,2.06-2.8,3.24-4.07,2-2.19,4.24-4.22,6.31-6.37a35,35,0,0,0,2.22-2.86,6.57,6.57,0,0,0,5.08-4.4c5.52-4.91,9.87-11.05,16.15-15.17,1.09-.71,1.83-1.94,2.88-2.74a6.79,6.79,0,0,1,2.17-.74v17.72a23.36,23.36,0,0,0-2.73,1.5c-1.32,1-2.65,1.65-3.68,3.31-1.36,2.19-3.21,4.61-6.1,5.39-1.68.46-.9,2.84-3.07,3.31-1.51.33-2.63,2.4-3.92,3.69s-3.16,2.26-3.31,3.56c-.24,2-2.1,1.15-2.71,2.33s-2.32,1.77-2.65,2.88c-.89,3-4,3.53-5.73,5.51s-4,3.79-6.1,5.67v-6Z"/><path class="cls-35" d="M319,157.68l1,1Z"/><path class="cls-32" d="M378,380.17l3,1c-.39,1.87-1.7.82-3,.85Z"/><path class="cls-32" d="M384,380.17c.09-1.49,1.24-.84,2-1C385.91,380.67,384.76,380,384,380.17Z"/><path class="cls-32" d="M388,379.17l1-1Z"/><path class="cls-32" d="M382,381.17l1-1Z"/><path class="cls-56" d="M42,352.24h68v40.38c-4.21.76-52.21,1-68,.35Z"/><path class="cls-62" d="M158,311.33h14a2.76,2.76,0,0,1-1,2.58q-4.33,4.13-8.49,8.44c-1.78,1.86-3.91,3.37-5,5.88a7.34,7.34,0,0,1-2.77,2.82,30.37,30.37,0,0,0-9.83,9.83c-.33.54-.93,1.31-1.41,1.31-1.66,0-2.42,1.31-3,2.26-2.66,4.15-6.81,6.51-10.49,9.47-1.58,1.27-2.65,3.18-3.9,4.83-.26.35-.12,1.1-.41,1.3-1.79,1.24-4.28,2-5.34,3.66a12.41,12.41,0,0,1-4.2,4.42,4.15,4.15,0,0,0-2.15,2.3c-.43,1.07-1.58,1.86-2.92,3.34V357.22h2.52c2.33-2.32,4.73-4.61,7-7,1.3-1.39,2.07-3.51,3.61-4.37,2.36-1.32,4-3.28,5.83-5.05,3.12-3,6-6.18,9.2-9.08,3-2.71,4.65-6.88,9-8.05a.63.63,0,0,0,.35-.35c1.33-3.11,4.11-5,6.38-7.27A14.91,14.91,0,0,0,158,311.33Z"/><path class="cls-63" d="M158,311.33a14.91,14.91,0,0,1-3.12,4.69c-2.27,2.28-5,4.16-6.38,7.27a.63.63,0,0,1-.35.35c-4.35,1.17-6,5.34-9,8.05-3.18,2.9-6.08,6.11-9.2,9.08-1.85,1.77-3.47,3.73-5.83,5.05-1.54.86-2.31,3-3.61,4.37-2.26,2.42-4.66,4.71-7,7H111a36.87,36.87,0,0,0,0-3.79c0-.42-.62-.8-1-1.19h-6c-.43-1.64.87-2.36,1.77-3.26,9.76-9.75,19.56-19.48,29.29-29.27,1.11-1.12,2.67-1.88,3-3.74.12-.63,1.08-1.12,1.68-1.65,2.3-2.05,5.18-3.76,6.75-6.27,1.22-2,2.8-2.73,4.5-3.7v7Z"/><path class="cls-34" d="M151,393.14h30v1H154C153,393.76,151.47,395.07,151,393.14Z"/><path class="cls-53" d="M42,119.77V227.52H41V145.71c0-7.9,0-15.79,0-23.69C41,121.23,40.34,119.93,42,119.77Z"/><path class="cls-38" d="M90,311.33h19.46a2.82,2.82,0,0,0,.36-.33.82.82,0,0,0,.17-.42q0-55.5,0-111c1.66.17,1,1.47,1,2.26,0,8.23,0,16.46,0,24.68v54.79l2.47.12c.7-.71,1.84-1.37,2.26-2.35,1.38-3.15,4-5.36,6.53-7.15s5.26-3.76,6.7-6.25c1.71-3,5.73-3.58,6.48-7.17,4.45-2.14,6.95-6.42,10.5-9.55a16.4,16.4,0,0,1,5.06-3.48v31.93c-1.46,1.28-2.89,2.6-4.38,3.85s-3.38,2.45-4.83,3.91c-1.68,1.7-3,3.76-4.63,5.5C133.88,294.15,130,297,127,300.79c-1.32,1.68-3.27,2.9-4.47,4.64s-3.92,1.58-4.57,4c-.6,2.23-3,2.61-4.53,4A11,11,0,0,0,111,315.9c-2,3.88-5.37,6.72-8.66,9.21-2.51,1.89-5.2,3.81-6.69,6.24-3.26,5.34-9.12,8-12.42,13.13-3.58,1.39-4.52,4.9-6.27,7.76H52v-2.88c1.49-1.06,3.2-2.22,4.84-3.48.78-.6,1.91-1.32,2-2.1a4.44,4.44,0,0,1,2.24-3c4.75-3.43,7.78-8.56,12.25-12.22,3-2.43,4.92-6,8.09-7.88s3.81-5.84,7.48-6.86C89.47,313.62,89.65,312.18,90,311.33Z"/><path class="cls-13" d="M151,122.76v37.91c-.5,0-1.16-.21-1.47,0A125.29,125.29,0,0,0,132,177.33a63.82,63.82,0,0,1-9.52,9.43c-1.53,1.13-2.61,2.89-4.2,4.13a55.08,55.08,0,0,0-4.71,4.61H111V158.68c.5,0,1.19.21,1.46,0,4.94-4.52,10.06-8.88,14.62-13.75,1.7-1.81,3-3.9,5.31-5.13A5.81,5.81,0,0,0,134,138c.46-.62.67-1.64,1.25-1.91,4.33-2,6-6.57,9.41-9.46C146.55,125,148.32,123.12,151,122.76Z"/><path class="cls-10" d="M111,250.47V226.52a11.57,11.57,0,0,0,6.91-4.65c.72-1.11,1.12-2,2.53-2.44a5.14,5.14,0,0,0,2.78-2.72c1.06-2.82,3.6-3.9,5.68-5.51a14.11,14.11,0,0,0,2.52-2.32c1.36-1.68,2.64-3.66,5.06-4.44,1-.33,1.71-1.84,2.52-2.84,2.95-3.67,6-7.25,10.16-9.62a6,6,0,0,1,1.84-.38v23c-.73.23-1.74.24-2.15.73-2.77,3.29-6.64,5.4-9.17,9-3.06,4.32-8.34,6.52-11.2,11.15-.6,1-2.41,1.21-3,2.18-3.18,5.49-8.55,8.71-13,12.84C112.19,250.68,111.5,250.47,111,250.47Z"/><path class="cls-64" d="M77,352.24c1.75-2.86,2.69-6.37,6.27-7.76,3.3-5.14,9.16-7.79,12.42-13.13,1.49-2.43,4.18-4.35,6.69-6.24,3.29-2.49,6.62-5.33,8.66-9.21a11,11,0,0,1,2.39-2.49c1.48-1.39,3.93-1.77,4.53-4,.65-2.4,3.34-2.21,4.57-4s3.15-3,4.47-4.64c3-3.8,6.88-6.64,10.16-10.12,1.65-1.74,3-3.8,4.63-5.5,1.45-1.46,3.24-2.58,4.83-3.91s2.92-2.57,4.38-3.85v26.94c-1.7,1-3.28,1.73-4.5,3.7-1.57,2.51-4.45,4.22-6.75,6.27-.6.53-1.56,1-1.68,1.65-.34,1.86-1.9,2.62-3,3.74-9.73,9.79-19.53,19.52-29.29,29.27-.9.9-2.2,1.62-1.77,3.26Z"/><path class="cls-14" d="M111,250.47c.5,0,1.19.21,1.46,0,4.49-4.13,9.86-7.35,13-12.84.57-1,2.38-1.21,3-2.18,2.86-4.63,8.14-6.83,11.2-11.15,2.53-3.59,6.4-5.7,9.17-9,.41-.49,1.42-.5,2.15-.73v30.93a16.4,16.4,0,0,0-5.06,3.48c-3.55,3.13-6.05,7.41-10.5,9.55-.75,3.59-4.77,4.18-6.48,7.17-1.44,2.49-4.11,4.43-6.7,6.25s-5.15,4-6.53,7.15c-.42,1-1.56,1.64-2.26,2.35l-2.47-.12Z"/></g></g></svg>