<svg xmlns="http://www.w3.org/2000/svg" viewBox="0 0 512 452"><defs><style>.cls-1{fill:#fefefd;}.cls-2{fill:#e5c626;}.cls-3{fill:#fdfcfb;}</style></defs><g id="Layer_2" data-name="Layer 2"><g id="Layer_1-2" data-name="Layer 1"><path class="cls-1" d="M0,452V0H512V452ZM152.67,108.88c-3.31.7-6.67,1.5-10,2.09-2.67.47-5.67.09-8,1.18-3,1.41-6.57.84-9.33,2.85-3.45-.45-6.44,1.5-9.61,2.25a104.79,104.79,0,0,0-10.93,3.68A108.71,108.71,0,0,0,94.43,125c-3.48,1.66-7.15,2.89-10.46,5-3.14,2-7,3.06-9.67,5.45-5.27,4.66-11.56,8.13-15.67,14.24a45.18,45.18,0,0,0-5.56,10.72A36,36,0,0,0,51,172c.05,18.83,0,37.66,0,56.49q0,58.49,0,117a54,54,0,0,0,1,8.08,11.63,11.63,0,0,0,1,2.59l4.22,9.7c3.38,2.36,5.55,5.79,8.43,8.55,6.06,5.82,13.43,9.38,20.45,13.57,2.92,1.74,6.29,2.62,9.27,4.14,4,2.07,8.4,3.08,12.49,4.88,6,2.62,12.56,3.28,18.6,5.78a13.51,13.51,0,0,0,5,1.13c4.7-.06,9.17,1.4,13.62,2.32,5.25,1.07,10.61,1.4,15.83,2.66,3.07.74,6.36.05,9.6,1,2.63.74,5.63,0,8.46.19s5.39.89,8.08.91c12.33.11,24.67.05,37,.05,1,0,2.25.39,2.95-.07,2.3-1.49,4.8-1.1,7.12-.83,2.72.31,5-1.07,7.6-1.13a60.34,60.34,0,0,0,9.62-.76c4.34-.81,8.76-1.49,13.15-2.08s8.41-1.62,12.62-2.31c5.17-.84,10.22-2.67,15.32-4,4.86-1.3,9.62-3.28,14.48-4.8,5-1.56,9.59-4.18,14.46-6.14,4.13-1.66,7.84-4.44,11.64-6.88,7-4.46,13.47-9.53,18-16.58,3.51-5.44,6.13-11.2,6-18-.2-13.65-.06-27.31-.06-40.89l1.28-1.28c3.58-.44,7.06-.42,10.23-1.4,2.56-.8,5.2-1,7.74-1.79a60.43,60.43,0,0,1,8.17-2c7.58-1.14,14.77-3.8,21.93-6.25a84.29,84.29,0,0,0,12.77-5.36c4.2-2.27,8.65-4.11,12.8-6.48a87.68,87.68,0,0,0,10.42-7.56,56.76,56.76,0,0,0,11.83-12.1,24.56,24.56,0,0,0,4.64-12.51c.21-3.5,2-7.09.22-10.67a1.63,1.63,0,0,1,0-1.45c1.56-1.51.91-3.4.93-5.12.08-5.33.13-10.67,0-16s.39-10.39-.83-15.62c-.74-3.16.14-6.66-.22-10s1.23-6.35,1.08-9.59c-.51-10.52,1-21.09-.92-31.6-.53-2.9-.21-6,0-9s1-5.73.9-8.58c-.35-10.86,1.17-21.78-.94-32.59.46-6.35-.73-12.73.86-19.11.79-3.14.1-6.64.15-10s-1.73-6.27-1-9.59c0-.24-.26-.54-.36-.83a48.12,48.12,0,0,0-12-19,5,5,0,0,0-1.07-1c-3.55-1.8-6.42-4.59-9.61-6.88a88.66,88.66,0,0,0-13.32-7.81c-3.69-1.77-7.66-3.21-11.48-4.83a117.92,117.92,0,0,0-19.33-6.38C383.87,12.32,376.14,9.44,367.9,9c-1.94-1.7-4.66-.17-6.45-1.26s-3.69,0-5.17-.82c-1.86-1-3.72-.88-5.63-.92-1.17,0-2.55.4-3.46-.08a9.33,9.33,0,0,0-6.11-.84c-2.26.37-4-1-6.1-1.09-7.7-.24-15.38.18-23.11-.79a47.68,47.68,0,0,0-16.59.64c-3.81.86-8,.16-12,.16-1.83,0-4-.6-5.43.14-2.25,1.14-4.44.6-6.65.87-2.37.29-4.72.74-7.09,1-4,.4-8.05.69-12.08,1-.17,0-.37-.06-.49,0-3.67,2-8.06,1.15-11.77,3-6.7.11-12.71,3.53-19.33,4-6.69,3.2-14.18,4.17-20.85,7.61A60.29,60.29,0,0,1,192,25c-4.63,1.62-13.66,6.61-17.05,9.55-2.45,2.12-4.62,4.8-7.43,6.23-4,2.06-5.42,6.26-8.46,9.06-1.25,1.16-1.56,3.31-2.38,5s-1.18,3.34-1.94,4.67c-1.15,2-.42,3.85-.74,5.72s-1,3.61-1.13,5.57c-.35,4.47,1.21,8.7,1.1,13.09C153.8,92,154.74,100.28,152.67,108.88Z"/><path class="cls-2" d="M152.67,108.88c2.07-8.6,1.13-16.85,1.32-25,.11-4.39-1.45-8.62-1.1-13.09.16-2,.8-3.71,1.13-5.57s-.41-3.71.74-5.72c.76-1.33,1.17-3.14,1.94-4.67s1.13-3.8,2.38-5c3-2.8,4.41-7,8.46-9.06,2.81-1.43,5-4.11,7.43-6.23C178.36,31.59,187.39,26.6,192,25a60.29,60.29,0,0,0,7.6-3.34c6.67-3.44,14.16-4.41,20.85-7.61,6.62-.5,12.63-3.92,19.33-4,3.71-1.84,8.1-1,11.77-3,.12-.07.32,0,.49,0,4-.33,8.06-.62,12.08-1,2.37-.23,4.72-.68,7.09-1,2.21-.27,4.4.27,6.65-.87,1.46-.74,3.6-.14,5.43-.14,4,0,8.16.7,12-.16a47.68,47.68,0,0,1,16.59-.64c7.73,1,15.41.55,23.11.79,2.08.07,3.84,1.46,6.1,1.09a9.33,9.33,0,0,1,6.11.84c.91.48,2.29.06,3.46.08,1.91,0,3.77-.06,5.63.92,1.48.79,3.34-.31,5.17.82S366,7.3,367.9,9c8.24.44,16,3.32,23.89,5.16a117.92,117.92,0,0,1,19.33,6.38c3.82,1.62,7.79,3.06,11.48,4.83a88.66,88.66,0,0,1,13.32,7.81c3.19,2.29,6.06,5.08,9.61,6.88a5,5,0,0,1,1.07,1,48.12,48.12,0,0,1,12,19c.1.29.41.59.36.83-.7,3.32,1.08,6.35,1,9.59s.64,6.83-.15,10c-1.59,6.38-.4,12.76-.86,19.11,2.11,10.81.59,21.73.94,32.59.09,2.85-.74,5.71-.9,8.58s-.49,6.08,0,9c1.93,10.51.41,21.08.92,31.6.15,3.24-1.45,6.25-1.08,9.59s-.52,6.8.22,10c1.22,5.23.71,10.42.83,15.62s.08,10.67,0,16c0,1.72.63,3.61-.93,5.12a1.63,1.63,0,0,0,0,1.45c1.79,3.58,0,7.17-.22,10.67a24.56,24.56,0,0,1-4.64,12.51,56.76,56.76,0,0,1-11.83,12.1A87.68,87.68,0,0,1,431.92,282c-4.15,2.37-8.6,4.21-12.8,6.48a84.29,84.29,0,0,1-12.77,5.36c-7.16,2.45-14.35,5.11-21.93,6.25a60.43,60.43,0,0,0-8.17,2c-2.54.76-5.18,1-7.74,1.79-3.17,1-6.65,1-10.23,1.4L357,306.5c0,13.58-.14,27.24.06,40.89.1,6.81-2.52,12.57-6,18-4.55,7.05-11,12.12-18,16.58-3.8,2.44-7.51,5.22-11.64,6.88-4.87,2-9.44,4.58-14.46,6.14-4.86,1.52-9.62,3.5-14.48,4.8-5.1,1.35-10.15,3.18-15.32,4-4.21.69-8.37,1.74-12.62,2.31s-8.81,1.27-13.15,2.08a60.34,60.34,0,0,1-9.62.76c-2.58.06-4.88,1.44-7.6,1.13-2.32-.27-4.82-.66-7.12.83-.7.46-1.95.07-2.95.07-12.33,0-24.67.06-37-.05-2.69,0-5.38-.75-8.08-.91s-5.83.55-8.46-.19c-3.24-.91-6.53-.22-9.6-1-5.22-1.26-10.58-1.59-15.83-2.66-4.45-.92-8.92-2.38-13.62-2.32a13.51,13.51,0,0,1-5-1.13c-6-2.5-12.62-3.16-18.6-5.78-4.09-1.8-8.45-2.81-12.49-4.88-3-1.52-6.35-2.4-9.27-4.14-7-4.19-14.39-7.75-20.45-13.57-2.88-2.76-5.05-6.19-8.43-8.55L53,356.16a11.63,11.63,0,0,1-1-2.59,54,54,0,0,1-1-8.08q-.09-58.49,0-117c0-18.83,0-37.66,0-56.49a36,36,0,0,1,2.09-11.65,45.18,45.18,0,0,1,5.56-10.72c4.11-6.11,10.4-9.58,15.67-14.24C77,133,80.83,131.92,84,130c3.31-2.07,7-3.3,10.46-5a108.71,108.71,0,0,1,10.31-4.07,104.79,104.79,0,0,1,10.93-3.68c3.17-.75,6.16-2.7,9.61-2.25,2.76-2,6.29-1.44,9.33-2.85,2.34-1.09,5.34-.71,8-1.18C146,110.38,149.36,109.58,152.67,108.88ZM204.46,220c5.83,0,11.67.13,17.5,0s11.39-.58,17.08-1c1.21-.08,2.37-.77,3.59-.92s2.85.38,4-.12c2.51-1.14,5.23-.3,7.58-1,4.37-1.38,8.94-1.56,13.34-2.72,2.37-.62,4.91-1.07,7.37-1.59a69.13,69.13,0,0,0,7.13-2.09c4.54-1.5,8.88-3.57,13.35-5.16a52,52,0,0,0,20.05-13.19c2.93-3,3.41-6.93,4.59-10.61-1.23-2.66-1.34-5.73-3.15-8.2a26.12,26.12,0,0,0-7-7c-3.7-2.34-7.28-4.91-11.12-7-2.27-1.24-5.12-1.4-7.4-2.61-6.38-3.41-13.64-4-20.22-6.72-2.2.71-4-.85-6.08-1a23.26,23.26,0,0,1-6.55-1.07c-2.06-.83-4.23-.36-6.08-1-2.56-.91-5.29-.23-7.56-1.07-2-.73-3.77-.57-5.65-.83s-3.72-.82-5.59-.95c-5.19-.35-10.37.06-15.62-.84-5-.87-10.3-.33-15.46-.15s-10.07-.62-15.13.83c-2.61.75-5.63,0-8.45.17s-5.39.69-8.09.94c-4.19.4-8.39.69-12.59,1-.16,0-.35-.05-.49,0-4.23,1.87-8.88,1.9-13.3,2.8-4,.81-7.86,2.61-12.08,2.32C124,154.63,115,156.49,107,161c-5.84,3.3-11.56,6.69-15.19,12.67a18.06,18.06,0,0,0-2.8,7.85,12.74,12.74,0,0,0,2.28,8,32.52,32.52,0,0,0,9.87,9.52,106.1,106.1,0,0,0,14.9,7.52c7.42,3.19,15.24,5.09,22.94,7.34,2.58.76,5.7.09,8,1.24,2.74,1.37,5.88-.25,8.26,1.83,4.45.29,8.83,1.66,13.17,1.79,5.24.15,10.35,1.3,15.58,1.23C190.79,219.93,197.63,220,204.46,220Zm17.45-114c2,0,4.35.55,6.69.83,5.32.63,10.74-.18,16.08,1.1,2.13.5,4.38.1,6.61.95,2,.77,4.54-.51,6.54,1.12,3-.75,5.68.9,8.58,1.1s5.42,1.57,8.18,1.82c4.74.44,9.18,2.07,13.71,3.22,3.23.81,6.31,1.93,9.71,1.88,5.49-.08,11-.29,16.49,0,8.58.52,17-1.29,25.58-1.06.33,0,.8.14,1,0,1.36-1.24,3-.83,4.6-1s3.38-.74,5.09-.94,3.63.41,4.84-.34c1.66-1,3.2-.39,4.74-.7s3.05-.69,4.59-1c4.77-.92,9.57-1.84,14.22-3.13a215.65,215.65,0,0,0,20.52-7.14A55.81,55.81,0,0,0,408.18,98a31.88,31.88,0,0,0,11.74-11.86c1.16-2.12,2.23-4.86,1.9-7.1a20.17,20.17,0,0,0-5.45-11.2A47.12,47.12,0,0,0,404,59a90.42,90.42,0,0,0-12.73-5.48c-3.06-1-6.11-2.15-9.24-3s-6.31-1.62-9.44-2.56c-1.67-.5-3.39-.75-5.06-1.12-1.87-.42-3.86-.38-5.58-1-5.16-1.7-10.6-1.5-15.81-2.79-2.74-.68-5.69-.18-8.6-1a22,22,0,0,0-8.45-.07c-3,.41-5.65-1.19-8.59-1.12-6.5.14-13-.11-19.49.08s-12.81-.95-19.08,1c-5.1-.71-10,1.26-15.09,1-.48,0-1.17-.12-1.41.14-1.37,1.51-3.12.57-4.67.86s-3.38.72-5.09,1c-2.68.4-5.84-.06-7.95,1.23s-4.36-.35-5.92,1.5c-4.16.65-8.09,2.22-12.15,3.19A95.32,95.32,0,0,0,214,56.55,65.25,65.25,0,0,0,201.06,64c-3.51,2.61-6.83,5.38-8.3,9.74-.86,2.53-2.49,5.23-1.61,7.71,1.22,3.47,2.52,7,5.45,9.77A50.16,50.16,0,0,0,211.07,101C214.6,102.55,218.07,104.23,221.91,106ZM320,233c-1.85.11-3.08.07-4.56.86-5,2.65-10.36,4.72-15.52,7.14a91,91,0,0,1-13,4.76c-5.49,1.62-11,3.31-16.62,4.65-6,1.43-12,2.41-18,3.5-3.31.6-6.62,1.68-10.07,1.07-1.86,1.35-4.05,1.21-6.07.93-2.23-.31-4,1.08-6.1,1-8.22-.21-16.33,1.66-24.58,1.1-4.64-.32-9.32-.06-14-.06-.83,0-1.88.33-2.46-.06-2.26-1.52-4.74-.93-7.12-.89s-4.8-1.05-7.07-.91c-4.47.26-8.74-.86-13.07-1.33-2.68-.29-5.57-.15-8.06-.94-5.39-1.7-11-2.14-16.4-3.79s-11.17-2.6-16.53-4.75a69.85,69.85,0,0,0-7.54-2.31c-2.69-.74-4.7-3.21-7.75-3-3.33-2.61-7.94-2.71-11.13-5.87-1-1-3.31-2.11-5.24-.75v35.25a23.19,23.19,0,0,0,3.33,3.27,106.77,106.77,0,0,0,21.44,11c5.94,2.14,12.14,3.77,18.31,5.38,8.31,2.16,16.71,3.83,25.07,5.7,2.3.52,4.71.15,7.11.93,2.19.72,4.67.3,7.09,1s5.29,0,8,.19,5,.88,7.58.91c8.33.13,16.67-.24,25,.13s16.35-1.62,24.59-1.14c1.33.08,2.7-.75,4.08-.9s3.29.49,4.44-.15c2.79-1.53,5.92-.54,8.78-1.76,1.61-.7,3.68-.32,5.57-1,1.7-.63,3.68-.52,5.57-1,6.52-1.54,13-3,19.38-5.16,4.82-1.63,9.76-3,14.39-5.07a95.62,95.62,0,0,0,18-9.79c2.26-1.65,3.22-3.26,3.22-5.77C320,254.71,320,244.06,320,233Zm-.1,81.17c-2.73-.64-4.91.65-7.22,1.59a102.3,102.3,0,0,1-11.27,4.16c-7.63,2.12-15.06,4.82-22.92,6.36-6.29,1.22-12.63,2.37-18.88,3.82-2.56.59-5.38.09-7.54,1.05-3.87,1.7-7.88.33-11.81,1.61-3.71,1.21-8,.07-12,1.06-3.31.8-7,0-10.45.2s-7.06.73-10.59.94c-9.72.58-19.35-1.73-29.08-1-.33,0-.74.13-1,0-3.64-2.23-7.91-.09-11.74-1.86-2.24-1-5.06.36-7.66-.79s-5.49.38-8-1.33c-4.71.36-9-2.09-13.67-2-1.69-1.74-4-.57-6-1.33a93.4,93.4,0,0,0-12-3.43c-4.1-1-8-2.59-12-3.73A113.15,113.15,0,0,1,94,315c-1.65-.68-3.15-1.53-5-.57,0,8.85,0,17.67,0,26.49,0,2.11-.07,4.18.63,5.05,3.3,2,5,4.75,8,5.14,6,5,13.51,6.79,20.4,9.88a57,57,0,0,0,9.24,3c3.34.85,7,.82,10.09,2.19,3.38,1.5,7.18.92,10.32,2.85,2.33-.53,4.38.75,6.59,1,3.52.37,7.16.27,10.54,1.16a14.93,14.93,0,0,0,6.11.77c2.25-.36,4,1,6.1,1.08,4.7.2,9.37,0,14.11.82,5,.82,10.31.32,15.46.14s10,.36,15.13-.78c4.35-1,9,.09,13.56-1.08,2.58-.66,5.39-.56,8.09-.89A109.2,109.2,0,0,0,257.46,369c1.66-.43,3.35.23,5.18-.84,1.41-.84,3.62-.6,5.51-1.06,3.93-1,7.86-1.88,11.73-3.11s8-2.32,11.91-3.81c6.37-2.4,12.7-4.8,18.58-8.23,3.58-2.09,7.2-4.2,9.53-7.61Zm38.79-123c.92-.48,1.61-1.14,2.29-1.14,4,0,7.79-1.36,11.65-2.13a122.56,122.56,0,0,0,12.5-3.58c4.42-1.37,9-2.41,13.15-4.45,6.78-3.36,14.43-5.18,20.06-10.73,3.23-1,3.67-3.54,3.67-6.39,0-10.17,0-20.33,0-30.49a4.87,4.87,0,0,0-.35-1.27h-2.88a100,100,0,0,1-20.54,9c-6.94,2.18-13.58,5.2-20.9,6.37-5.68.91-11.07,3.29-16.94,3.75-2.86.22-5.65,1.38-8.65,2.17a15.23,15.23,0,0,0,.71,1.66,30.71,30.71,0,0,1,4.63,17.6c-.28,6-.06,12-.06,18ZM357,267c2,0,3.84.5,5.22-.1,3.49-1.49,7.27-1.6,10.84-2.71,2.77-.87,5.82-1.29,8.56-2.29,2.91-1.07,5.92-1.79,8.85-2.69,3.59-1.1,6.85-2.86,10.31-4a92,92,0,0,0,10.1-4.55c4.2-2,8.08-4.49,11-8V212.34l-1.07-1.07c-6.69,2.47-13.22,5.13-19.92,7.3-6.94,2.24-14.08,3.85-21.19,5.54s-14.18,2.73-21.39,4.2L357,229.46Z"/><path class="cls-3" d="M204.46,220c-6.83,0-13.67-.07-20.5,0-5.23.07-10.34-1.08-15.58-1.23-4.34-.13-8.72-1.5-13.17-1.79-2.38-2.08-5.52-.46-8.26-1.83-2.28-1.15-5.4-.48-8-1.24-7.7-2.25-15.52-4.15-22.94-7.34a106.1,106.1,0,0,1-14.9-7.52,32.52,32.52,0,0,1-9.87-9.52,12.74,12.74,0,0,1-2.28-8,18.06,18.06,0,0,1,2.8-7.85c3.63-6,9.35-9.37,15.19-12.67,8-4.51,17-6.37,25.4-9.87,4.22.29,8.08-1.51,12.08-2.32,4.42-.9,9.07-.93,13.3-2.8.14-.06.33,0,.49,0,4.2-.33,8.4-.62,12.59-1,2.7-.25,5.38-.78,8.09-.94s5.84.58,8.45-.17c5.06-1.45,10.1-.65,15.13-.83s10.45-.72,15.46.15c5.25.9,10.43.49,15.62.84,1.87.13,3.72.7,5.59.95s3.69.1,5.65.83c2.27.84,5,.16,7.56,1.07,1.85.66,4,.19,6.08,1A23.26,23.26,0,0,0,265,149c2.06.18,3.88,1.74,6.08,1,6.58,2.7,13.84,3.31,20.22,6.72,2.28,1.21,5.13,1.37,7.4,2.61,3.84,2.08,7.42,4.65,11.12,7a26.12,26.12,0,0,1,7,7c1.81,2.47,1.92,5.54,3.15,8.2-1.18,3.68-1.66,7.62-4.59,10.61a52,52,0,0,1-20.05,13.19c-4.47,1.59-8.81,3.66-13.35,5.16a69.13,69.13,0,0,1-7.13,2.09c-2.46.52-5,1-7.37,1.59-4.4,1.16-9,1.34-13.34,2.72-2.35.74-5.07-.1-7.58,1-1.11.5-2.65,0-4,.12s-2.38.84-3.59.92c-5.69.42-11.38.84-17.08,1S210.29,220,204.46,220Z"/><path class="cls-3" d="M221.91,106c-3.84-1.77-7.31-3.45-10.84-5a50.16,50.16,0,0,1-14.47-9.79c-2.93-2.75-4.23-6.3-5.45-9.77-.88-2.48.75-5.18,1.61-7.71,1.47-4.36,4.79-7.13,8.3-9.74A65.25,65.25,0,0,1,214,56.55a95.32,95.32,0,0,1,15.67-5.65c4.06-1,8-2.54,12.15-3.19,1.56-1.85,3.88-.25,5.92-1.5s5.27-.83,7.95-1.23c1.71-.25,3.39-.67,5.09-1s3.3.65,4.67-.86c.24-.26.93-.17,1.41-.14,5.07.25,10-1.72,15.09-1,6.27-1.91,12.71-.77,19.08-1s13,.06,19.49-.08c2.94-.07,5.56,1.53,8.59,1.12a22,22,0,0,1,8.45.07c2.91.78,5.86.28,8.6,1,5.21,1.29,10.65,1.09,15.81,2.79,1.72.57,3.71.53,5.58,1,1.67.37,3.39.62,5.06,1.12,3.13.94,6.3,1.69,9.44,2.56s6.18,2,9.24,3A90.42,90.42,0,0,1,404,59a47.12,47.12,0,0,1,12.38,8.79A20.17,20.17,0,0,1,421.82,79c.33,2.24-.74,5-1.9,7.1A31.88,31.88,0,0,1,408.18,98a55.81,55.81,0,0,1-8.52,4.76,215.65,215.65,0,0,1-20.52,7.14c-4.65,1.29-9.45,2.21-14.22,3.13-1.54.29-3.06.68-4.59,1s-3.08-.33-4.74.7c-1.21.75-3.21.15-4.84.34s-3.38.74-5.09.94-3.24-.23-4.6,1c-.18.16-.65,0-1,0-8.55-.23-17,1.58-25.58,1.06-5.48-.33-11-.12-16.49,0-3.4,0-6.48-1.07-9.71-1.88-4.53-1.15-9-2.78-13.71-3.22-2.76-.25-5.42-1.62-8.18-1.82s-5.59-1.85-8.58-1.1c-2-1.63-4.53-.35-6.54-1.12-2.23-.85-4.48-.45-6.61-.95-5.34-1.28-10.76-.47-16.08-1.1C226.26,106.55,223.91,106,221.91,106Z"/><path class="cls-3" d="M320,233c0,11,0,21.69,0,32.34,0,2.51-1,4.12-3.22,5.77a95.62,95.62,0,0,1-18,9.79c-4.63,2.06-9.57,3.44-14.39,5.07-6.34,2.16-12.86,3.62-19.38,5.16-1.89.45-3.87.34-5.57,1-1.89.69-4,.31-5.57,1-2.86,1.22-6,.23-8.78,1.76-1.15.64-3,0-4.44.15s-2.75,1-4.08.9c-8.24-.48-16.33,1.51-24.59,1.14s-16.65,0-25-.13c-2.53,0-5-.75-7.58-.91s-5.49.5-8-.19-4.9-.27-7.09-1c-2.4-.78-4.81-.41-7.11-.93-8.36-1.87-16.76-3.54-25.07-5.7-6.17-1.61-12.37-3.24-18.31-5.38a106.77,106.77,0,0,1-21.44-11,23.19,23.19,0,0,1-3.33-3.27V233.38c1.93-1.36,4.25-.23,5.24.75,3.19,3.16,7.8,3.26,11.13,5.87,3-.19,5.06,2.28,7.75,3a69.85,69.85,0,0,1,7.54,2.31c5.36,2.15,11,3.08,16.53,4.75s11,2.09,16.4,3.79c2.49.79,5.38.65,8.06.94,4.33.47,8.6,1.59,13.07,1.33,2.27-.14,4.62.95,7.07.91s4.86-.63,7.12.89c.58.39,1.63.06,2.46.06,4.67,0,9.35-.26,14,.06,8.25.56,16.36-1.31,24.58-1.1,2.05.05,3.87-1.34,6.1-1,2,.28,4.21.42,6.07-.93,3.45.61,6.76-.47,10.07-1.07,6-1.09,12-2.07,18-3.5,5.61-1.34,11.13-3,16.62-4.65a91,91,0,0,0,13-4.76c5.16-2.42,10.49-4.49,15.52-7.14C316.92,233.09,318.15,233.13,320,233Z"/><path class="cls-3" d="M319.9,314.19v30.17c-2.33,3.41-5.95,5.52-9.53,7.61-5.88,3.43-12.21,5.83-18.58,8.23-3.94,1.49-7.94,2.55-11.91,3.81s-7.8,2.15-11.73,3.11c-1.89.46-4.1.22-5.51,1.06-1.83,1.07-3.52.41-5.18.84a109.2,109.2,0,0,1-14.15,2.19c-2.7.33-5.51.23-8.09.89-4.53,1.17-9.21.1-13.56,1.08-5.1,1.14-10.09.6-15.13.78s-10.43.68-15.46-.14c-4.74-.78-9.41-.62-14.11-.82-2.07-.09-3.85-1.44-6.1-1.08a14.93,14.93,0,0,1-6.11-.77c-3.38-.89-7-.79-10.54-1.16-2.21-.24-4.26-1.52-6.59-1-3.14-1.93-6.94-1.35-10.32-2.85-3.07-1.37-6.75-1.34-10.09-2.19a57,57,0,0,1-9.24-3c-6.89-3.09-14.43-4.88-20.4-9.88-3-.39-4.66-3.12-8-5.14-.7-.87-.64-2.94-.63-5.05,0-8.82,0-17.64,0-26.49,1.86-1,3.36-.11,5,.57a113.15,113.15,0,0,0,12.1,4.55c4,1.14,7.9,2.72,12,3.73a93.4,93.4,0,0,1,12,3.43c1.93.76,4.26-.41,6,1.33,4.67-.09,9,2.36,13.67,2,2.46,1.71,5.5.25,8,1.33s5.42-.24,7.66.79c3.83,1.77,8.1-.37,11.74,1.86.24.15.65,0,1,0,9.73-.75,19.36,1.56,29.08,1,3.53-.21,7.05-.78,10.59-.94s7.14.6,10.45-.2c4.08-1,8.34.15,12-1.06,3.93-1.28,7.94.09,11.81-1.61,2.16-1,5-.46,7.54-1.05,6.25-1.45,12.59-2.6,18.88-3.82,7.86-1.54,15.29-4.24,22.92-6.36a102.3,102.3,0,0,0,11.27-4.16C315,314.84,317.17,313.55,319.9,314.19Z"/><path class="cls-3" d="M358.69,191.19,357,189.5c0-6-.22-12,.06-18a30.71,30.71,0,0,0-4.63-17.6,15.23,15.23,0,0,1-.71-1.66c3-.79,5.79-1.95,8.65-2.17,5.87-.46,11.26-2.84,16.94-3.75,7.32-1.17,14-4.19,20.9-6.37a100,100,0,0,0,20.54-9h2.88a4.87,4.87,0,0,1,.35,1.27c0,10.16,0,20.32,0,30.49,0,2.85-.44,5.41-3.67,6.39-5.63,5.55-13.28,7.37-20.06,10.73-4.11,2-8.73,3.08-13.15,4.45a122.56,122.56,0,0,1-12.5,3.58c-3.86.77-7.63,2.11-11.65,2.13C360.3,190.05,359.61,190.71,358.69,191.19Z"/><path class="cls-3" d="M357,267V229.46l1.27-1.15c7.21-1.47,14.34-2.52,21.39-4.2s14.25-3.3,21.19-5.54c6.7-2.17,13.23-4.83,19.92-7.3l1.07,1.07V242.6c-2.88,3.52-6.76,6-11,8a92,92,0,0,1-10.1,4.55c-3.46,1.19-6.72,3-10.31,4-2.93.9-5.94,1.62-8.85,2.69-2.74,1-5.79,1.42-8.56,2.29-3.57,1.11-7.35,1.22-10.84,2.71C360.84,267.5,359,267,357,267Z"/></g></g></svg>