<?xml version="1.0" standalone="no"?>
<!DOCTYPE svg PUBLIC "-//W3C//DTD SVG 20010904//EN" "http://www.w3.org/TR/2001/REC-SVG-20010904/DTD/svg10.dtd">
<svg version="1.0" xmlns="http://www.w3.org/2000/svg" width="100.000000pt" height="100.000000pt" viewBox="0 0 100.000000 100.000000" preserveAspectRatio="xMidYMid meet">
	<g transform="translate(0.000000,100.000000) scale(0.100000,-0.100000)" fill="#000000" stroke="none">
		<path d="M300 920 c-18 -18 -20 -33 -20 -140 0 -150 6 -160 105 -160 l65 0 20
-40 c11 -22 25 -40 30 -40 5 0 19 18 30 40 l20 40 63 0 c103 0 107 6 107 160
0 169 13 160 -222 160 -165 0 -180 -2 -198 -20z m378 -142 l3 -118 -76 0 c-71
0 -76 -2 -87 -25 -14 -31 -22 -31 -36 0 -10 22 -18 24 -84 27 l-73 3 -3 104
c-1 58 0 111 2 118 4 11 41 13 178 11 l173 -3 3 -117z" />
		<path d="M230 533 c-39 -12 -63 -29 -75 -53 -17 -32 -17 -157 -1 -168 13 -8
36 -57 36 -77 0 -8 -27 -28 -60 -45 -44 -22 -65 -40 -77 -64 -33 -70 -54 -66
449 -64 449 3 453 3 456 24 5 33 -37 75 -105 106 -35 16 -63 35 -63 43 0 20
23 69 36 77 7 5 12 36 12 77 1 55 -3 75 -19 95 -11 14 -26 26 -34 26 -7 0 -19
7 -26 16 -10 12 -23 14 -52 10 -49 -8 -82 -30 -96 -64 -14 -36 -12 -150 3
-160 13 -8 36 -57 36 -77 0 -8 -27 -28 -60 -45 -32 -16 -65 -40 -71 -52 -17
-33 -17 -33 -41 -3 -12 15 -50 41 -85 57 -35 16 -63 35 -63 43 0 20 23 69 36
77 7 5 12 36 12 77 1 55 -3 75 -19 95 -11 14 -26 26 -34 26 -7 0 -18 7 -25 15
-12 15 -41 18 -70 8z m61 -50 c19 -9 37 -21 41 -27 14 -21 1 -113 -20 -150
-44 -75 -30 -108 64 -151 41 -19 74 -39 74 -44 0 -7 -60 -11 -181 -11 -203 0
-212 4 -115 56 32 17 62 37 67 45 15 24 10 66 -13 105 -24 40 -33 126 -17 156
9 16 39 35 60 37 3 1 21 -7 40 -16z m460 0 c19 -9 37 -21 41 -27 14 -21 1
-113 -20 -150 -44 -75 -30 -108 64 -151 41 -19 74 -39 74 -44 0 -7 -60 -11
-181 -11 -203 0 -212 4 -115 56 32 17 62 37 67 45 15 24 10 66 -13 105 -24 40
-33 126 -17 156 9 16 39 35 60 37 3 1 21 -7 40 -16z" />
	</g>
</svg>
