<svg xmlns="http://www.w3.org/2000/svg" width="48" height="40" viewBox="0 0 48 40">
  <g id="icon-review-default" transform="translate(0 -0.032)">
    <g id="Layer_1" data-name="Layer 1" transform="translate(0 0.032)">
      <path id="Path_995" data-name="Path 995" d="M0,23.288A8.244,8.244,0,0,1,2.983,21.92a.631.631,0,0,0,.494-.7,8.724,8.724,0,0,0-.275-3.27,2.368,2.368,0,0,0-1.47-1.629A2.189,2.189,0,0,1,.944,15.8a.55.55,0,0,1,.239-.962c.621-.215,1.256-.412,1.872-.616A8.875,8.875,0,0,1,1.719,6.8,3.432,3.432,0,0,1,4.77,3.846c4.225-.6,8.444-1.248,12.665-1.877L30.425.045A1.429,1.429,0,0,1,31.062.1q7.8,2.5,15.59,5.044c.232.075.567.339.571.523,0,.248-.248.514-.418.75a.644.644,0,0,1-.325.192c-1.393.427-1.786,1.616-1.91,2.96-.066.712,0,1.437-.009,2.154a.476.476,0,0,0,.379.523c.784.277,1.558.589,2.333.893a1.058,1.058,0,0,1,.368.217,4.245,4.245,0,0,1,.359.487,1.981,1.981,0,0,1-.461.289c-.662.192-1.332.354-2.057.542a6.809,6.809,0,0,1,1.023,4.94,6.184,6.184,0,0,1-1.974,4.565c.318.113.589.2.858.3a.58.58,0,0,1,.219,1.01,1.53,1.53,0,0,1-.589.4,2.643,2.643,0,0,0-1.827,2.476,21.4,21.4,0,0,0-.038,2.8c0,.119.179.29.305.34.657.262,1.326.485,1.987.739a2.769,2.769,0,0,1,.669.356,3.092,3.092,0,0,1,.425.491,1.989,1.989,0,0,1-.52.34q-11.414,2.982-22.833,5.938A13.112,13.112,0,0,0,21.6,39.8a3.945,3.945,0,0,1-2.938-.115Q10.825,36.888,2.956,34.2A3.441,3.441,0,0,1,.73,32.05a21.654,21.654,0,0,1-.639-2.5c-.034-.142-.061-.285-.092-.431v-1.91a5.636,5.636,0,0,1,1.348-3.172L0,23.59Zm21.583-5.1c.02-.342.045-.639.054-.935.047-1.572.074-3.147.14-4.719a.584.584,0,0,0-.454-.7Q13.176,9.007,5.039,6.154A1.235,1.235,0,0,0,3.245,7.1a7.487,7.487,0,0,0,.275,4.949,1.721,1.721,0,0,0,1.118,1.066q6,1.785,11.987,3.582C18.262,17.186,19.9,17.681,21.583,18.186ZM20.147,37.474c.061-1.924.106-3.784.192-5.64a.6.6,0,0,0-.488-.721Q11.723,28.3,3.609,25.446a1.247,1.247,0,0,0-1.825.962,7.41,7.41,0,0,0,.287,4.946A1.726,1.726,0,0,0,3.2,32.41q5.522,1.641,11.039,3.3c1.951.579,3.9,1.166,5.9,1.768Zm6.29-9.649c.337-.1.623-.181.9-.265q7.841-2.354,15.682-4.7a2,2,0,0,0,1.436-1.081,7.329,7.329,0,0,0,.271-5.178,1.182,1.182,0,0,0-1.656-.839q-8.23,2.868-16.461,5.742c-.3.1-.373.254-.359.577.061,1.674.1,3.347.145,5.023,0,.223.022.452.038.719ZM4.322,22.2l21.163,5.64c-.061-2.077-.12-4.093-.179-6.142L3.841,16.975A10.324,10.324,0,0,1,4.322,22.2ZM44.168,7.335,22.72,12.056c-.061,2.041-.122,4.059-.179,6.146L43.7,12.556A10.237,10.237,0,0,1,44.168,7.335ZM42.713,26.643c-.217.035-.359.048-.486.077-2.642.577-5.289,1.145-7.927,1.758a50.926,50.926,0,0,0-6.963,1.731,1.752,1.752,0,0,1-1.488.154c-.072-.035-.179.012-.273.031-1.314.285-2.627.577-3.948.854a.391.391,0,0,0-.3.154.451.451,0,0,0-.089.339c-.041,1.824-.1,3.655-.153,5.471a1.514,1.514,0,0,0,.039.258l21.1-5.628A10.053,10.053,0,0,1,42.713,26.643Z" transform="translate(0 -0.032)" fill="#666"/>
    </g>
  </g>
</svg>
