<svg xmlns="http://www.w3.org/2000/svg" width="32" height="40" viewBox="0 0 32 40">
  <g id="icon-speaking-default" transform="translate(0.013 -0.002)">
    <g id="Layer_1" data-name="Layer 1" transform="translate(-0.013 0.002)">
      <path id="Path_992" data-name="Path 992" d="M5.3,95.99c.555-1.275,1.122-2.546,1.656-3.825.123-.295.287-.4.683-.391,2.167.018,4.335.009,6.54.009V87.435c-1.337-.3-2.675-.515-3.933-.9A14.846,14.846,0,0,1,1.6,80.151,10.944,10.944,0,0,1,0,74.263c0-3.1.008-6.195-.009-9.3a.767.767,0,0,1,.443-.72,2.544,2.544,0,0,1,2.979.232.592.592,0,0,1,.137.426q.012,4.763.008,9.525a9.03,9.03,0,0,0,2.2,6.116,11.348,11.348,0,0,0,6.794,3.68A16.357,16.357,0,0,0,22.9,83.073,9.18,9.18,0,0,0,28.1,76.9a11.083,11.083,0,0,0,.3-2.557c.035-3.07.014-6.142.014-9.214a1.238,1.238,0,0,1,.656-1.079,1.955,1.955,0,0,1,1.473-.194,5.558,5.558,0,0,1,1.27.612.457.457,0,0,1,.16.378c.009,3.188.02,6.377,0,9.565a11.126,11.126,0,0,1-3.042,7.667,16.613,16.613,0,0,1-10.417,5.156l-.729.1v4.428h.531c1.862,0,3.722.007,5.582-.006.318,0,.444.084.541.316.54,1.306,1.1,2.606,1.653,3.914Z" transform="translate(0.013 -55.99)" fill="#666"/>
      <path id="Path_993" data-name="Path 993" d="M46.763,82.73H64.681a.736.736,0,0,1,.052.186c-.011,2.936.052,5.884-.058,8.822-.131,3.529-3.194,6.1-7.55,6.508a12.913,12.913,0,0,1-5.475-.531A6.64,6.64,0,0,1,46.9,92.577a8.362,8.362,0,0,1-.137-1.59c-.014-2.615,0-5.231,0-7.847Z" transform="translate(-39.646 -72.61)" fill="#666"/>
      <path id="Path_994" data-name="Path 994" d="M64.645,8.827H46.766c-.144-2.343-.012-4.607,1.977-6.5A8.24,8.24,0,0,1,53.265.213,12.611,12.611,0,0,1,60.3.879a6.507,6.507,0,0,1,4.329,5.432A21.313,21.313,0,0,1,64.645,8.827Z" transform="translate(-39.616 -0.002)" fill="#666"/>
    </g>
  </g>
</svg>
