<svg xmlns="http://www.w3.org/2000/svg" viewBox="0 0 118.27 119.68" xmlns:v="https://vecta.io/nano"><path d="M58.94 0h.46l.47.23h.48L61.8.2a24.81 24.81 0 0 1 2.87.43q12.47 3.21 24.92 6.49l21.85 5.78a6 6 0 0 1 2.93 1.69 4.18 4.18 0 0 1-2.24 6.69C106 23 99.81 24.54 93.66 26.17l-5.45 1.44 5 16.81h12.58c3.07 0 5.11 1.89 5.27 4.77a5.16 5.16 0 0 1-4.77 5.81c-.29 0-.74.33-.79.58a11.16 11.16 0 0 0 .14 5.65 5.42 5.42 0 0 1 4.87 2.77 5.21 5.21 0 0 1-.15 5.58A13.82 13.82 0 0 1 118.09 80c.76 4.83-.93 8.84-4.37 12.23.45.14.83.24 1.19.37a5.22 5.22 0 0 1 3.35 4.77c.08 2.12-1.09 4.34-3.09 4.89-1.77.48-2 1.58-2 3 0 .89.14 1.78.14 2.68s.41 1.23 1.25 1.47a5 5 0 0 1 3.56 5.9c-.55 2.88-2.54 4.37-5.84 4.37H14.39h-1.06c-5.77-.39-10-3.17-12.2-8.51S0 101 3.78 96.64l.81-.88c-.5-.16-.91-.27-1.29-.42a5.1 5.1 0 0 1-3.21-4.85c.05-2.21 1-4.11 3.11-4.75 1.74-.52 1.93-1.61 1.94-3 0-1-.13-1.94-.18-2.91 0-.66-.29-1-1-1.16a5.12 5.12 0 0 1-3.71-6.31c.57-2.48 2.57-4 5.44-4h5.65v-.26l-.72-.76a13.47 13.47 0 0 1-3.53-8.8A13.84 13.84 0 0 1 20.5 44.43h4.64l5-16.78c-.29-.1-.54-.22-.79-.28L6.67 21.44c-2.36-.62-3.59-2.1-3.6-4.25s1.22-3.65 3.58-4.27L26.14 7.8a1.77 1.77 0 0 1 2.45 1.11c0 1.62-.22 1.92-1.81 2.34L12.35 15l-5.07 1.37c-.29.09-.68.49-.68.75s.39.57.67.79a2 2 0 0 0 .66.2q22.5 5.9 45 11.8a20.68 20.68 0 0 0 9.24.65c3.06-.59 6.07-1.39 9.36-2.16l-8.54-7.76a1.33 1.33 0 0 0-1.54-.33 7.43 7.43 0 0 1-6.5-.72 2.4 2.4 0 0 1-1.1-1.59 37.13 37.13 0 0 1 0-5.48 5 5 0 0 1 5.05-4.64 4.88 4.88 0 0 1 5.21 4.46 25.65 25.65 0 0 1 .12 3.72 2.14 2.14 0 0 0 .77 1.81q4.88 4.35 9.69 8.79a1.64 1.64 0 0 0 1.76.41l15.32-4.05 12.48-3.36 6.77-1.72a1.07 1.07 0 0 0 .68-.76c0-.26-.39-.57-.67-.78a2.37 2.37 0 0 0-.78-.24L65.12 4.31a21.21 21.21 0 0 0-12.05.12c-.23 0-.46.06-.68.12L36.77 8.64c-1.51.39-1.86.22-2.62-1.14 0-1.54.27-1.86 1.78-2.25l13-3.4C51.47 1.22 54 .74 56.55.2L58 .23h.46zm48.55 88.09a28.94 28.94 0 0 1-4.12.57q-35.34.06-70.67 0h-1.49v3.58h54c1.86 0 2.14.2 2.5 1.74-.39 1.52-.74 1.76-2.51 1.76h-54v3.56h81.2c.45 0 1.08 0 1.33-.24.46-.48 1-1.22.94-1.77s-.82-1.08-1.39-1.46c-.3-.2-.83-.07-1.26-.07H95.78c-1.53 0-1.88-.29-2.27-1.76l1.19-1.7h9.7a10 10 0 0 0 9.35-5.87A9.52 9.52 0 0 0 112.66 76c-2.27-3-5.45-4.14-9.18-4.14q-48.65 0-97.28 0a11 11 0 0 0-1.14.14 1.53 1.53 0 0 0-1.47 1.76 1.69 1.69 0 0 0 1.64 1.67 9.09 9.09 0 0 0 1.28 0q48.5 0 97 0a25.92 25.92 0 0 1 4.31.74 7.38 7.38 0 0 1 3 3.59c1.18 3.16-.03 6.08-3.33 8.33zM81.9 55.17a3.54 3.54 0 0 0-.08.45c-.11 2.05-.52 2.45-2.53 2.45h-8.06c-2.63 0-2.83-.2-3-2.82 0-.06-.07-.12-.16-.26H21.29a5.16 5.16 0 0 0-1 .09 3.11 3.11 0 0 0 .36 6.17h1.29 73.58c.43 0 .85 0 1.28-.05h5V55h-.43q-9.45 0-18.89 0a1.94 1.94 0 0 0-.58.17zm22.85 47.71a2.09 2.09 0 0 0-.35 0H30.48a3 3 0 0 0-1.31.35l-6.61 3.44c-2.2 1.15-3.23.43-3.24-2v-1.78c-2 0-4-.07-5.92 0a3.07 3.07 0 0 0-2.77 3 3 3 0 0 0 2.45 3.08 12.45 12.45 0 0 0 1.48.18h94.23 1v-6.2zM69 47.92H26.58c-2 0-4-.06-6.07 0A10.26 10.26 0 0 0 11 61.18a10.52 10.52 0 0 0 10.47 7.18h83.55a9.2 9.2 0 0 0 1 0 1.62 1.62 0 0 0 1.55-1.92c-.13-1.15-.81-1.61-2.4-1.61H21.94h-1.75a6.62 6.62 0 0 1-6-7.39c.52-3.62 3.23-5.87 7.11-5.87h47.17zm4.28-16.38l-4 1c-3.75 1.05-7.55 2.2-11.47 1.69A99.81 99.81 0 0 1 47.4 32.1l-13.86-3.62-4.71 15.84a2.61 2.61 0 0 0 .41.09q19.92 0 39.85 0a1.37 1.37 0 0 0 1-.65A8.06 8.06 0 0 1 72.88 40a.91.91 0 0 0 .35-.67l.02-7.79zm-54 64.27c-2.08 0-4-.06-6 0a10.18 10.18 0 0 0 .78 20.34h98.25a4.8 4.8 0 0 0 .93 0 1.66 1.66 0 0 0 1.48-1.8 1.61 1.61 0 0 0-1.6-1.68h-1.28H15h-1.28c-3.8-.25-6.32-2.68-6.54-6.31a6.41 6.41 0 0 1 5.61-6.88 17 17 0 0 1 2.68-.1h3.79zm11.91-10.63h72.64a9.17 9.17 0 0 0 1.17-.06 3 3 0 0 0 2.64-3.49c-.25-1.84-1.46-2.7-3.83-2.7q-35.75 0-71.5 0c-.37 0-.74 0-1.12.06zM84.81 28.5l-7.32 1.94a1.28 1.28 0 0 0-.7.95c-.06 2.52 0 5 0 7.58a1.25 1.25 0 0 0 .34.9 8.26 8.26 0 0 1 2.91 4 1 1 0 0 0 .74.54h8.78L84.81 28.5zM22.91 79v23.5l3.75-2a1.5 1.5 0 0 0 1-1.59v-18.8c0-.37 0-.75-.06-1.17zM81.6 51.44h.62 23.34a3.94 3.94 0 0 0 .69 0 1.49 1.49 0 0 0 1.44-1.55 3 3 0 0 0-1-1.74c-.3-.28-1-.22-1.45-.22H81.11zm-62.34 33.7V79H8.56v6.13zm0 3.56H5.41a1.73 1.73 0 0 0-1.83 1.73 1.77 1.77 0 0 0 1.88 1.81h5.13 8.67zm59-34.21c-.07-1-.1-1.84-.2-2.72-.32-2.71-.62-5.43-1.91-7.89-.69-1.34-1.6-1.36-2.27 0-1.67 3.34-1.87 7-2.12 10.62zm-21-37.38h2.78c.22 0 .6-.33.6-.52a32.39 32.39 0 0 0-.08-3.94 1.44 1.44 0 0 0-1.68-1.27 1.51 1.51 0 0 0-1.61 1.5c-.02 1.33.04 2.68.04 4.23z"/><path d="M56.55.2A1.46,1.46,0,0,0,56.6,0H58V.23Z" fill="#373737"/><path d="M61.74 0a.76.76 0 0 0 .06.2h-1.46V0z" fill="#383838"/><path d="M58,.23V0h.47a1.77,1.77,0,0,1,0,.23Z" fill="#212121"/><path d="M58.46.23a1.77 1.77 0 0 0 0-.23h.47zm1.41 0L59.4 0h.47z" fill="#101010"/><path d="M59.87.23V0h.47V.23Z" fill="#212121"/><path d="M28.59 8.91l5.56-1.41c.76 1.36 1.11 1.53 2.62 1.14l15.62-4.09c.22-.06.45-.08.68-.12l3.53.61 28.75 7.58 16.41 4.26a2.91 2.91 0 0 1 2.53 2.78L91.81 23l-15.32 4.05a1.64 1.64 0 0 1-1.76-.41q-4.8-4.45-9.69-8.79a2.14 2.14 0 0 1-.81-1.81 25.65 25.65 0 0 0-.12-3.72 4.88 4.88 0 0 0-5.21-4.44 5 5 0 0 0-5.06 4.66 37.13 37.13 0 0 0 0 5.48 2.4 2.4 0 0 0 1.09 1.61 7.43 7.43 0 0 0 6.5.72 1.33 1.33 0 0 1 1.54.33l8.54 7.76-9.36 2.16a20.68 20.68 0 0 1-9.23-.6Q30.44 24 7.93 18.15a2 2 0 0 1-.66-.2c-.28-.22-.68-.52-.67-.79s.39-.66.68-.75l5.07-1.37 14.43-3.79c1.59-.42 1.83-.72 1.81-2.34z" fill="#3497ab"/><path d="M69 47.92l-.5 3.56H21.31c-3.88 0-6.59 2.25-7.11 5.87a6.62 6.62 0 0 0 6 7.39h1.75 83.32c1.59 0 2.27.46 2.4 1.61a1.62 1.62 0 0 1-1.55 1.92 9.2 9.2 0 0 1-1 0H21.57A10.52 10.52 0 0 1 11 61.18 10.26 10.26 0 0 1 20.51 48h6.07H69z" fill="#fe805c"/><path d="M13.08 108.94a3 3 0 0 1-2.45-3.08 3.07 3.07 0 0 1 2.77-3h5.92v1.78c0 2.43 1.11 3.11 3.24 2l6.61-3.44a3 3 0 0 1 1.31-.35h73.92a2.09 2.09 0 0 1 .35 0l-.32 6H14.48z" fill="#f6f6f6"/><path d="M73.25 31.54v7.74a.91.91 0 0 1-.35.67 8.06 8.06 0 0 0-2.79 3.79 1.37 1.37 0 0 1-1 .65q-19.94 0-39.85 0a2.61 2.61 0 0 1-.41-.09l4.71-15.84L47.4 32.1a99.81 99.81 0 0 0 10.36 2.17c3.92.51 7.72-.64 11.47-1.69 1.27-.35 2.55-.66 4.02-1.04z" fill="#288999"/><path d="M19.27 95.81v3.52h-3.79a17 17 0 0 0-2.68.1 6.41 6.41 0 0 0-5.61 6.88c.22 3.63 2.74 6.06 6.54 6.31h1.28 96.85 1.28a1.61 1.61 0 0 1 1.6 1.68 1.66 1.66 0 0 1-1.48 1.8 4.8 4.8 0 0 1-.93 0H14.08a10.18 10.18 0 0 1-.78-20.34l5.97.05z" fill="#fee56b"/><path d="M31.19 85.18V79c.38 0 .75-.06 1.12-.06q35.75 0 71.5 0c2.37 0 3.58.86 3.83 2.7a3 3 0 0 1-2.64 3.48 9.17 9.17 0 0 1-1.17.06H31.19zM96.8 61.22l-1.28.05H21.9h-1.29a3.11 3.11 0 0 1-.36-6.17 5.16 5.16 0 0 1 1-.09h46.8c.09.14.16.2.16.26.15 2.62.35 2.82 3 2.82h8.06c2 0 2.42-.4 2.53-2.45a3.54 3.54 0 0 1 .08-.45h14.6l.32 6.03z" fill="#f6f6f6"/><path d="M107.81 76.19a25.92 25.92 0 0 0-4.31-.74q-48.49-.06-97 0a9.09 9.09 0 0 1-1.28 0 1.69 1.69 0 0 1-1.64-1.67A1.53 1.53 0 0 1 5.06 72h1.75 96c.43 0 1-.11 1.26.09a8.87 8.87 0 0 1 3.74 4.1z" fill="#c7eefd"/><path d="M93.51,94c.39,1.47.74,1.76,2.27,1.76H112c.43,0,1-.13,1.26.07.57.38,1.31.91,1.39,1.46s-.48,1.29-.94,1.77c-.25.27-.88.24-1.33.24H31.23V95.77h54c1.77,0,2.12-.24,2.51-1.76Z" fill="#fee56b"/><path d="M93.51,94H87.72c-.36-1.54-.64-1.74-2.5-1.74h-54V88.69H32.7q35.34,0,70.67,0a28.94,28.94,0,0,0,4.12-.57,6.71,6.71,0,0,1-.65,1.41c-1.24,1.62-2.65,2.83-5,2.62-2-.18-4,0-6.07,0a6.17,6.17,0,0,0-1.11.2Z" fill="#c8eefd"/><path d="M104.29 19.66a2.91 2.91 0 0 0-2.53-2.78l-16.41-4.26L56.6 5c-1.15-.3-2.35-.41-3.53-.61a21.21 21.21 0 0 1 12.05-.12l45.17 11.85a2.37 2.37 0 0 1 .78.24c.28.21.67.52.67.78a1.07 1.07 0 0 1-.68.76l-6.77 1.76zM84.81 28.5l4.73 15.92h-8.78a1 1 0 0 1-.74-.54 8.26 8.26 0 0 0-2.91-4 1.25 1.25 0 0 1-.34-.9V31.4a1.28 1.28 0 0 1 .7-.95l7.34-1.95z" fill="#288999"/><path d="M22.91 79h4.67c0 .42.06.8.06 1.17v18.8a1.5 1.5 0 0 1-1 1.59c-1.23.56-2.41 1.24-3.75 2z" fill="#3497ab"/><path d="M94.7 92.3a6.17 6.17 0 0 1 1.11-.2h6.07c2.31.21 3.72-1 5-2.62a6.71 6.71 0 0 0 .65-1.41c3.3-2.25 4.46-5.17 3.32-8.31a7.38 7.38 0 0 0-3-3.59 8.87 8.87 0 0 0-3.7-4.1c-.3-.2-.83-.09-1.26-.09h-96-1.75a11 11 0 0 1 1.14-.13q48.63 0 97.28 0c3.73 0 6.91 1.09 9.18 4.14a9.52 9.52 0 0 1 1.09 10.43 10 10 0 0 1-9.35 5.87c-3.31.05-6.54 0-9.78.01z" fill="#b4e9fe"/><path d="M81.6,51.44l-.49-3.52H105.2c.49,0,1.15-.06,1.45.22a3,3,0,0,1,1,1.74,1.49,1.49,0,0,1-1.44,1.55,3.94,3.94,0,0,1-.69,0H82.22Z" fill="#fe805c"/><path d="M19.26,85.14H8.56V79h10.7Z" fill="#f6f6f6"/><path d="M19.25 88.7v3.57h-8.67-5.13a1.77 1.77 0 0 1-1.88-1.81 1.73 1.73 0 0 1 1.83-1.75l13.85-.01z" fill="#c7eefd"/><path d="M78.29 54.49h-6.5c.25-3.63.45-7.28 2.12-10.62.67-1.35 1.58-1.33 2.27 0 1.29 2.46 1.59 5.18 1.91 7.89.1.89.13 1.77.2 2.73z" fill="#fee56b"/><path d="M13.08 108.94h1.4 90l.32-6h5v6.2h-1-94.24a12.45 12.45 0 0 1-1.48-.2zM96.8 61.22l-.32-6H81.9a1.94 1.94 0 0 1 .61-.18q9.43 0 18.89 0h.43v6.19z" fill="#eee"/><path d="M57.31 17.11v-4.25a1.51 1.51 0 0 1 1.61-1.5 1.44 1.44 0 0 1 1.68 1.27 32.39 32.39 0 0 1 .08 3.94c0 .19-.38.5-.6.52-.89.06-1.79.02-2.77.02z" fill="#fce46a"/></svg>