<svg xmlns="http://www.w3.org/2000/svg" viewBox="0 0 65.44 104.76" xmlns:v="https://vecta.io/nano"><path d="M53.72 79.88l-2.2 1.69a6.52 6.52 0 0 0-1.14-.21q-17.67 0-35.32 0a6.52 6.52 0 0 0-1.14.21l-2.21-1.69a6.86 6.86 0 0 1 1.29-.23h15.16l6.42.24a23.7 23.7 0 0 0 2.78-.24h15.16a6.75 6.75 0 0 1 1.2.23z" fill="#00bce3"/><path d="M46.36 102.11a3.69 3.69 0 0 1-3.9 2.64h-7.18H23.1c-2.16 0-3.41-.85-4-2.64a7.28 7.28 0 0 0 1.29.23h24.68a7.28 7.28 0 0 0 1.29-.23z" fill="#01aee8"/><path d="M13.92,81.57a6.52,6.52,0,0,1,1.14-.21q17.65,0,35.32,0a6.52,6.52,0,0,1,1.14.21L49.31,83a7.76,7.76,0,0,0-1.16-.18H17.28a8,8,0,0,0-1.16.18Z" fill="#00bbe3"/><path d="M43.27 97.2a3.07 3.07 0 0 1 2.88 2H19.29a3.06 3.06 0 0 1 2.87-2h6.89 7.33z" fill="#01b2e7"/><path d="M45.91 84.74L42.54 86H22.9l-3.37-1.27c-.05-1 .7-.7 1.19-.7h24c.25 0 .55-.08.72 0s.31.48.47.71z" fill="#00b9e4"/><path d="M17.53 8.07L19 6.13a5.67 5.67 0 0 0 1.13.23h25.13a5.53 5.53 0 0 0 1.13-.23l1.52 1.94H36.34a12.44 12.44 0 0 0-7.25 0z" fill="#00e9d2"/><path d="M46.36 102.11a7.28 7.28 0 0 1-1.29.23H20.36a7.28 7.28 0 0 1-1.29-.23.22.22 0 0 1 0-.22l.09-1.16h27.18l.06 1.16a.2.2 0 0 1-.04.22z" fill="#00afe8"/><path d="M34 0l1.17.07.83.17h.43l.76.21a.2.2 0 0 1 .21 0l.74.22.24.05.35.16a.09.09 0 0 1 .13 0l.57.21 3.67 2H22.38l3.67-1.95.56-.14a.09.09 0 0 1 .14 0l.34-.2.24-.05.74-.22a.22.22 0 0 1 .22 0l.76-.21h.42l.8-.17L31.43 0z" fill="#00ecd1"/><path d="M21 68.35L19.53 67a3.19 3.19 0 0 1 1.12-.48q12.09 0 24.17 0c.37 0 .74.34 1.11.52l-1.49 1.4a6.55 6.55 0 0 0-1.14-.22q-10.56 0-21.14 0a7.63 7.63 0 0 0-1.16.13z" fill="#00c4e0"/><path d="M45.93 67c-.37-.18-.74-.52-1.11-.52q-12.07 0-24.17 0a3.19 3.19 0 0 0-1.12.48l-1.46-1.73a7.63 7.63 0 0 1 1.25-.23h11.74 3.53 11.57a6 6 0 0 1 1.23.26z" fill="#00c5df"/><path d="M46.4 101.89l-.06-1.16H19.12l-.12 1.16a2.87 2.87 0 0 1 .26-2.71h26.89a2.84 2.84 0 0 1 .25 2.71z" fill="#00b0e7"/><path d="M45.91,84.74c-.16-.23-.26-.54-.48-.68s-.47,0-.72,0h-24c-.49,0-1.24-.29-1.19.7L16.12,83a8,8,0,0,1,1.16-.18H48.15a7.76,7.76,0,0,1,1.16.18Z" fill="#00bae3"/><path d="M22.38,3.16H43.06L45.2,4.9h-25Z" fill="#00ebd1"/><path d="M20.24,4.9h25l1.19,1.23a5.53,5.53,0,0,1-1.13.23H20.17A5.67,5.67,0,0,1,19,6.13Z" fill="#00ead2"/><path d="M21,68.35a7.63,7.63,0,0,1,1.15-.18q10.58,0,21.14,0a6.55,6.55,0,0,1,1.14.22l-2.13,1.5H23.16Z" fill="#00c3e0"/><path d="M22.9 86h19.64l-5.9 1.51V97h5c.56 0 1.12.1 1.67.15h-6.89v-2.93-6.44h-7.35v6.51 2.93h-6.89c.92 0 1.84-.13 2.76-.16h3.85v-9.55z" fill="#00b8e4"/><path d="M57.87 75.73l-2.21 2.41a7.86 7.86 0 0 0-1.26-.2H42.91l4.24-2.41h9.59a5.53 5.53 0 0 1 1.13.2z" fill="#00bfe2"/><path d="M3.85 70.2l-1.42-3-.22-.49-.08-.23 8.18-.07h0l.18.29 2 3.16H5.06a5.28 5.28 0 0 0-1.21.34z" fill="#00c4e0"/><path d="M16.08 61.86l-1.18-3.47h7.84l2.09 3.19H17.3a5.38 5.38 0 0 0-1.22.28z" fill="#00c9de"/><path d="M52.24 70.81l1.87-2.69 8.47.06-1.5 2.92h-7.62a6.5 6.5 0 0 1-1.22-.29z" fill="#00c3e0"/><path d="M64.24 63.55l-.94 2.92h-8.21l1.35-3.15h6.69a5 5 0 0 1 1.11.23zM10.31 66.4l-8.18.07-.94-2.92a4.92 4.92 0 0 1 1.12-.26H9z" fill="#00c6df"/><path d="M14.42 22.73v-3.42h7.52v3.42zM51 19.31v3.42h-7.51v-3.42z" fill="#00e1d5"/><path d="M0 56.44v-2.93h7.53l.07 3.41H1.29C.8 56.93.32 57 0 56.44z" fill="#0cd"/><path d="M15.38 12.47l1-2.44h8.09a7.7 7.7 0 0 1 1.16.16L23.39 13h-7c-.39 0-.93.18-1.01-.53z" fill="#00e6d3"/><path d="M49.05,10l1,2.44c-.08.71-.63.48-1,.49h-7L39.8,10.2A7.83,7.83,0,0,1,41,10Z" fill="#00e7d3"/><path d="M28.12 79.62H12.96a6.86 6.86 0 0 0-1.25.23l-1.93-1.71a7.86 7.86 0 0 1 1.26-.2h11.49z" fill="#00bde2"/><path d="M57.87 75.73a5.53 5.53 0 0 0-1.13-.23h-9.59l3-2.43h8.53c.36 0 .87-.2.94.45z" fill="#00c0e1"/><path d="M42.91 77.9H54.4a7.86 7.86 0 0 1 1.26.2l-1.94 1.74a6.75 6.75 0 0 0-1.24-.23H37.32z" fill="#00bde2"/><path d="M22.74,58.38H14.9l-.46-3.17H22Z" fill="#00cbdd"/><path d="M23.16,69.88H42.31l-3,1.46H26.09Z" fill="#00c2e0"/><path d="M7.79,58.39l.69,3.17H.72L.21,58.4Z" fill="#00c9de"/><path d="M14.43 17.85l.27-2.94a2.19 2.19 0 0 1 .67-.22h6.5c.2 0 .41.18.61.27L22 17.85zm36.31-2.94l.26 2.94h-7.53L43 15c.12-.09.24-.26.37-.26h7c.08-.03.22.1.37.17z" fill="#00e4d4"/><ellipse cx="47.25" cy="24.32" rx="5.32" ry="2.25" fill="#00dfd6"/><path d="M14.42 30.79v-3.17h7.52v3.17zM51 27.62v3.17h-7.51v-3.17z" fill="#00dcd7"/><path d="M51,50.33v3.18H43.49V50.33Z" fill="#00cedc"/><ellipse cx="47.25" cy="38.97" rx="5.32" ry="2.25" fill="#00d6d9"/><path d="M14.42 48.62v-3.17h7.52v3.17zM51 45.45v3.17h-7.51v-3.17z" fill="#00d1db"/><path d="M14.42,53.51V50.33h7.52v3.18Z" fill="#00cedc"/><path d="M51,32.5v3.18H43.49V32.5Z" fill="#00d9d8"/><ellipse cx="18.18" cy="38.97" rx="5.32" ry="2.25" fill="#00d6d9"/><g fill="#00d4da"><path d="M14.42,40.56h7.52v3.18H14.42Z"/><ellipse cx="47.25" cy="42.15" rx="5.32" ry="2.25"/></g><ellipse cx="18.18" cy="24.32" rx="5.32" ry="2.25" fill="#00ded6"/><path d="M14.42,35.68V32.5h7.52v3.18Z" fill="#00d9d8"/><path d="M7.53 53.51H0l.27-3.18h7zm57.64-3.18l.27 3.18h-7.53l.27-3.18z" fill="#00cedc"/><path d="M51 55.22l-.44 3.19c-.22-.17-.44-.48-.67-.48h-6.44a2.57 2.57 0 0 0-.67.24l.66-2.94zm6.67 2.92l.23-2.92h7.52l-.2 3.21c0-.62-.51-.53-.91-.53h-5.6a5.55 5.55 0 0 0-1.04.24z" fill="#00cbdd"/><path d="M25.63 10.2a7.7 7.7 0 0 0-1.16-.2h-8.09l1.15-2h11.56zm23.42-.2H41a7.83 7.83 0 0 0-1.17.16L36.34 8.1h11.57z" fill="#00e8d2"/><path d="M31.06 65H19.32a7.63 7.63 0 0 0-1.25.23l-1.27-1.94h8.36a5.8 5.8 0 0 0 1.22-.29 16 16 0 0 0 4.68 2z" fill="#01c6df"/><path d="M47.39 65.26a6 6 0 0 0-1.23-.26H34.59l4.19-1.69 9.92.05-.14.22-.19.29z" fill="#00c6df"/><path d="M17.31 74.76l2.48 1.7H8.19L7 75.07a4 4 0 0 1 1.08-.3l9.23-.01z" fill="#00bfe2"/><path d="M59.57 73.5c-.07-.65-.58-.45-.94-.45H50.1l2.14-2.25a6.5 6.5 0 0 0 1.22.27h7.62z" fill="#00c1e1"/><path d="M8.19 76.5h11.6l2.74 1.44H11.04a7.86 7.86 0 0 0-1.26.2z" fill="#00bee2"/><path d="M42.78 58.15a2.57 2.57 0 0 1 .67-.24h6.44c.23 0 .45.31.67.48l-.47 1.7h-8.28z" fill="#00c9de"/><path d="M17.31 74.76H8.12a4 4 0 0 0-1.08.3L5.86 73.5c.08-.65.59-.45.95-.45h8.52z" fill="#00c0e1"/><path d="M57.67 58.14a5.55 5.55 0 0 1 1-.23h5.6c.4 0 .86-.09.91.53L65 60.11h-7.6z" fill="#00cade"/><path d="M15.33 73.06H6.81c-.36 0-.87-.2-.95.45l-1.41-2.18h7.87a5.76 5.76 0 0 0 1.12-.24z" fill="#01c1e1"/><path d="M48.7 63.31l-9.92-.05 1.93-1.72h7.56c.39 0 1-.26 1 .46zM26.38 63a5.8 5.8 0 0 1-1.22.27H16.8l-.72-1.43a5.38 5.38 0 0 1 1.22-.28h7.53z" fill="#00c7df"/><path d="M55.09 66.42h8.21l-.72 1.71-8.47-.06z" fill="#00c4e0"/><path d="M50.74 14.91c-.15-.07-.29-.2-.44-.2h-7c-.13 0-.25.17-.37.26l-.91-2h7c.4 0 .95.22 1-.49zM22.48 15c-.2-.09-.41-.27-.61-.27h-6.5a2.19 2.19 0 0 0-.67.22l.68-2.44c.08.71.63.48 1 .49h7z" fill="#00e5d3"/><path d="M.72 61.57h7.76l.52 1.7H2.31a4.92 4.92 0 0 0-1.12.26zm63.52 1.98a5 5 0 0 0-1.11-.26h-6.69l.52-1.7h7.76z" fill="#00c7df"/><path d="M13.44 71.08a5.76 5.76 0 0 1-1.12.24H4.45l-.6-1.13a5.28 5.28 0 0 1 1.21-.32h7.43l.7 1 .25.28z" fill="#00c2e0"/><path d="M43.49,43.74H51v1.71H43.49Z" fill="#00d2da"/><path d="M21.94,50.33H14.42V48.62h7.52Z" fill="#00cfdc"/><path d="M65.42 55.22H57.9v-1.71h7.53zm-14.42 0h-7.56l.05-1.7H51z" fill="#0cd"/><path d="M21.94 32.5h-7.52v-1.71h7.52zm29.06 0h-7.51v-1.71H51z" fill="#00dad8"/><path d="M51 27.62h-7.51v-1.71H51zm-36.58-1.71h7.52v1.71h-7.52z" fill="#00ddd6"/><path d="M14.42,53.51h7.52l.07,1.7H14.44Z" fill="#0cd"/><path d="M43.49,48.62H51v1.71H43.49Z" fill="#00cfdc"/><path d="M14.42,43.74h7.52v1.71H14.42Z" fill="#00d2da"/><path d="M14.42 35.68h7.52v1.71h-7.52zm29.07 0H51v1.71h-7.51z" fill="#00d7d9"/><path d="M49.32 62c-.09-.72-.66-.46-1-.46h-7.56l1.1-1.44h8.28z" fill="#00c8de"/><path d="M65.17 50.33h-7A3.49 3.49 0 0 1 61.74 48a3.44 3.44 0 0 1 3.43 2.33zm-57.91 0h-7A3.43 3.43 0 0 1 3.7 48a3.5 3.5 0 0 1 3.56 2.33z" fill="#01cfdc"/><path d="M26.09 71.35h13.27a16.89 16.89 0 0 1-13.27 0z" fill="#01c2e1"/><path d="M7.79 58.39H.21l-.17-2c.28.51.76.49 1.25.49H7.6z" fill="#01cadd"/><path d="M64.72,61.57H57l.42-1.47H65Z" fill="#00c8de"/><path d="M14.43 17.85H22v1.46h-7.58zm29.04 0H51v1.46h-7.51z" fill="#00e2d4"/><path d="M34 0h0zm4.1.75l-.74-.22zM28.07.53l-.74.22zM37.15.5l-.76-.21zm-8.1-.21l-.76.21zM36 .24l-.83-.17zM30.27.07l-.8.17zM26.61 1l-.56.21zm12.78.21L38.82 1z" fill="#01edd1"/><path d="M2.21,66.7l.22.49Z" fill="#00c6df"/><path d="M48.37,63.82l.19-.29Z" fill="#00c7df"/><path d="M10.47,66.69l-.18-.29Z" fill="#00c6df"/><path d="M38.69 1l-.35-.2zM27.09.8l-.34.2z" fill="#01edd1"/><path d="M13.44,71.08l-.25-.28Z" fill="#01c1e1"/><path d="M36.36 94.29v2.93h-7.31v-2.93z" fill="#00b3e6"/><path d="M29.07,92.58V89.41h7.29v3.17Z" fill="#00b6e5"/><path d="M36.36,89.41H29.07V87.78h7.29Z" fill="#00b7e5"/><path d="M29.07,92.58h7.29v1.71H29.07Z" fill="#00b4e6"/></svg>