<svg xmlns="http://www.w3.org/2000/svg" viewBox="0 0 118.55 118.28" xmlns:v="https://vecta.io/nano"><path d="M62.38 0a71.43 71.43 0 0 1 8.25 2C82.06 6.26 89.34 14.39 92.4 26.17a34.06 34.06 0 0 1-12.59 35.32c-.33.24-.65.5-.93.72 24.88 10.45 38.17 28.93 39.67 56h-9.48c-.54-17.44-7.87-31.36-22.26-41.33a47.34 47.34 0 0 0-30-8.39A48.55 48.55 0 0 0 23.13 84C14 93.51 9.54 105 9.27 118.28H0v-4.15l.18-1a95.31 95.31 0 0 1 1.62-9.41C7.16 84 19.46 70.41 38.41 62.82l1.17-.5-1.14-.86a34.07 34.07 0 0 1-12.56-35.31C29 14.38 36.24 6.26 47.66 2a70.43 70.43 0 0 1 8.25-2zM84 34.34a25 25 0 0 0-24.7-25c-13.54-.25-24.91 11-25.09 24.75-.18 13.54 10.91 24.78 24.69 25 13.59.24 24.95-10.97 25.1-24.75z"/></svg>