<svg xmlns="http://www.w3.org/2000/svg" viewBox="0 0 117.91 117.55" xmlns:v="https://vecta.io/nano"><path d="M0 46.61A20.81 20.81 0 0 1 2.27 44q24.46-20.45 49-40.85C56.23-1 61.72-1 66.7 3.12q11.22 9.37 22.47 18.72c.29.25.59.48 1 .82 0-.38.09-.66.1-.94v-5.53a3.68 3.68 0 0 1 7.35 0v11.74a1.9 1.9 0 0 0 .78 1.65l17.62 14.64a4.39 4.39 0 0 1 1.86 2.78 3.53 3.53 0 0 1-1.72 3.63 3.49 3.49 0 0 1-4-.1c-.5-.32-1-.72-1.6-1.22v1.52q0 27.63 0 55.27a11 11 0 0 1-8.2 11 12.67 12.67 0 0 1-3.19.39q-40.19 0-80.37 0a11 11 0 0 1-11.41-11.4q0-21.65 0-43.3c0-2.56 1.45-4.24 3.66-4.25s3.71 1.68 3.71 4.22v43c0 3 1.37 4.42 4.42 4.42h17.67V70.36c0-7.09 4.67-11.77 11.73-11.77h20.85c6.95 0 11.63 4.71 11.64 11.64v39.89c.45 0 .83.06 1.2.06h16.58c2.92 0 4.33-1.4 4.33-4.29q0-30.86 0-61.72a2 2 0 0 0-.81-1.74Q82.1 25.57 61.86 8.68c-2.13-1.77-3.69-1.76-5.84 0L7.11 49.48c-.38.32-.75.66-1.15 1a3.67 3.67 0 0 1-5.58-1.33c-.12-.24-.25-.46-.38-.69zm73.7 63.51V70.23c0-2.83-1.43-4.27-4.23-4.27H48.63c-3.07 0-4.41 1.35-4.41 4.42v39.74zM55.27 84.39A3.68 3.68 0 1 1 51.59 88a3.69 3.69 0 0 1 3.68-3.61z"/></svg>