<svg xmlns="http://www.w3.org/2000/svg" viewBox="0 0 116.62 118.01" xmlns:v="https://vecta.io/nano"><path d="M56 0h4.61l3.14.62Q77.37 4.15 90.94 7.7l19 5a4.43 4.43 0 0 1 3.3 2.42 4.16 4.16 0 0 1-2.67 5.88L94 25.39l-7 1.86 4.79 16c.09.29.73.56 1.12.57h11.63a4.69 4.69 0 0 1 4.73 3.34c1 3.32-1 7-4.46 7.09a1.06 1.06 0 0 0-.81.75l-.09 4.34c0 .78.31 1.08 1.15 1.18a5 5 0 0 1 4.48 4.42 17.45 17.45 0 0 1-.41 3.84A13.63 13.63 0 0 1 112.19 91l1.09.36A5.15 5.15 0 0 1 116.6 96c.08 2.09-1.08 4.27-3.06 4.82-1.74.48-1.91 1.59-1.94 3 0 .84.11 1.68.13 2.52a1.47 1.47 0 0 0 1.28 1.57 5 5 0 0 1 3.47 5.85c-.54 2.77-2.52 4.26-5.69 4.26H17h-3.69c-5.75-.3-10-3-12.17-8.35S0 99.47 3.8 95.21l.67-.77c-3-1.06-4.36-2.69-4.4-5.18s1.33-4.14 4.1-5.17a1.21 1.21 0 0 0 .67-.88c.07-1.52 0-3 0-4.57 0-.64-.35-.89-1-1a4.82 4.82 0 0 1-3.43-3c-1.42-3.55 1-7.07 4.91-7.23 1.65-.06 3.3 0 5 0a8.05 8.05 0 0 0 .92-.12l-.66-.73a13.41 13.41 0 0 1 6.07-22.05 28.79 28.79 0 0 1 6.26-.65c2.33-.14 1.66.4 2.41-1.85.41-1.24.74-2.5 1.11-3.75l3.25-11L25.31 26 6.62 21.15a4.37 4.37 0 0 1-3.25-2.49 4.18 4.18 0 0 1 2.72-5.77c2.13-.62 4.3-1.15 6.45-1.71L25.77 7.7c1.46-.38 2.4.25 2.44 1.57 0 1.09-.65 1.54-1.59 1.79Q19.15 13 11.71 15c-1.45.38-2.91.73-4.33 1.17-.36.11-.62.53-.93.81.32.27.63.56 1 .81a1.36 1.36 0 0 0 .43.14l44.61 11.74c6.2 1.67 11.94.06 17.92-1.72l-8.28-7.52a1.3 1.3 0 0 0-1.51-.34 7.28 7.28 0 0 1-6.42-.71 2.52 2.52 0 0 1-1.08-1.7 37.13 37.13 0 0 1 0-5.06A5 5 0 0 1 58 7.75a4.88 4.88 0 0 1 5.25 4.42c.15 1.22 0 2.46.15 3.68a2.89 2.89 0 0 0 .72 1.66l9.53 8.7a1.81 1.81 0 0 0 1.94.44q12.33-3.28 24.69-6.51l8.89-2.37c.41-.11.73-.52 1.1-.8l-1.13-.92a1.17 1.17 0 0 0-.33-.11L66 4.67C61.49 3.48 57.07 3 52.55 4.22L36.76 8.38c-1.89.5-2.71.24-3-1s.24-1.85 2.11-2.32zM30.75 91h52.76 1.27a1.57 1.57 0 0 1 1.67 1.66 1.67 1.67 0 0 1-1.61 1.76 11 11 0 0 1-1.15 0H30.78v3.5h79.87a7 7 0 0 0 .92 0 1.75 1.75 0 0 0 1.58-1.82 1.67 1.67 0 0 0-1.63-1.64h-1.15-15.78a2.65 2.65 0 0 1-1.79-.51A1.7 1.7 0 0 1 94 91c3-.11 5.91 0 8.87-.07A10.1 10.1 0 0 0 113 79.06c-.87-4.86-5.13-8.23-10.47-8.23q-48.23 0-96.43 0h-.69a1.83 1.83 0 0 0-1.86 1.8 1.8 1.8 0 0 0 1.82 1.72h1.27 95.16 1.73a6.51 6.51 0 0 1 6 4.93 6.59 6.59 0 0 1-3 7.17 7.9 7.9 0 0 1-4.31 1H30.75zm-11.7 10.45c-2.06 0-4-.11-5.89 0a3 3 0 0 0-2.5 4c.47 1.46 1.67 2.14 3.79 2.14h93.78v-6.2h-1.07q-38.35 0-76.72 0a4.47 4.47 0 0 0-2 .49c-2.17 1.07-4.29 2.23-6.43 3.34-1.83 1-3 .24-3-1.83-.01-.59.04-1.21.04-1.97zM68 47.25H21.7h-1.62a10.12 10.12 0 0 0-9.19 13.06 10.37 10.37 0 0 0 10.34 7.09h82.36 1a1.5 1.5 0 0 0 1.51-1.57 1.62 1.62 0 0 0-1.35-1.86 7.86 7.86 0 0 0-1.38 0H21.74h-1.49a6.53 6.53 0 0 1-4.36-11.16 6.87 6.87 0 0 1 5.24-1.94H67.5zm.68-3.49c.76-1.24 1.21-2.7 2.21-3.43 1.41-1 1.43-2.27 1.36-3.69v-2.07-3.49l-5.86 1.55a26.52 26.52 0 0 1-14.3.44L40 29.89l-6.9-1.81-4.69 15.68zm-1.4 10.51c-.39 0-.69-.05-1-.05H21a5.27 5.27 0 0 0-1.25.14 3 3 0 0 0-2.34 3.14 3.09 3.09 0 0 0 2.68 2.87 10.78 10.78 0 0 0 1.27 0h79v-6.09H80.74c0 .25-.06.43-.07.62-.13 1.94-.55 2.35-2.45 2.35h-8.75c-1.56 0-2-.48-2.15-2l-.05-.98zM19 94.46c-2 0-4-.06-5.88 0a10 10 0 0 0 .82 20.06q48.39 0 96.78 0a7.27 7.27 0 0 0 .81 0 1.74 1.74 0 0 0 1.63-1.77 1.71 1.71 0 0 0-1.69-1.69h-1.27-95.3-1.38c-4.71-.32-7.56-4.4-6.11-8.74a6.39 6.39 0 0 1 6.16-4.35h5.42zM30.77 84H102a12.16 12.16 0 0 0 1.6-.07 2.88 2.88 0 0 0 2.53-2.6c.29-2.14-1.14-3.49-3.75-3.49H32c-.4 0-.81 0-1.22.07zm52.85-55.9l-7.22 1.91a1.23 1.23 0 0 0-.67.94c-.06 2.49 0 5 0 7.48a1.21 1.21 0 0 0 .33.89 8.11 8.11 0 0 1 2.86 3.93 1 1 0 0 0 .73.52h8.65L83.62 28.1zm-61 49.78V101c1.36-.7 2.55-1.37 3.79-1.94a1.41 1.41 0 0 0 .89-1.52V78.87c0-.33 0-.66-.07-1zM80.46 50.7h.87H104a5.31 5.31 0 0 0 .69 0 1.62 1.62 0 0 0 1.5-1.62 1.6 1.6 0 0 0-1.19-1.71 4.81 4.81 0 0 0-1.26-.12H80zm-72 33.18H19v-6H8.44zM19 87.44H6c-.41 0-1-.09-1.22.13-.52.42-1.19 1-1.2 1.57s.6 1.21 1.09 1.64C5 91 5.59 91 6 91h13zm58.19-33.71A20.62 20.62 0 0 0 77 51.1c-.53-2.53-1.09-5.06-1.76-7.56A1.83 1.83 0 0 0 74 42.38c-.41 0-1 .63-1.25 1.12-1.49 3.21-1.74 6.68-2 10.23zM59.87 14.5h0a16.62 16.62 0 0 0 0-1.73 1.59 1.59 0 0 0-1.77-1.56 1.55 1.55 0 0 0-1.57 1.64v3.22c0 .25.21.7.34.71a9 9 0 0 0 2.69-.07c.23-.05.24-1.06.33-1.64a3.62 3.62 0 0 0-.02-.57z"/></svg>