<svg xmlns="http://www.w3.org/2000/svg" viewBox="0 0 121.4 121.45" xmlns:v="https://vecta.io/nano"><path d="M49.74 1.87L56.92.2H60l.48-.2H61l.48.23h3.09l7.18 1.66z" fill="#2af399"/><path d="M9.45,120.73c.2.77-.3.72-.8.72H0v-.23l.24-.48Z" fill="#009dfc"/><path d="M0 117.17a.67.67 0 0 1 .2 0h.11v.73l-.06.46H0z" fill="#69c6fb"/><path d="M0,118.36H.22v1.2H0Z" fill="#3cb5fb"/><path d="M64.53.21h-.72a1.47 1.47 0 0 1 0-.21h.71a.74.74 0 0 0 .01.21z" fill="#c5fbe2"/><path d="M63.81,0a1.47,1.47,0,0,0,0,.21H63.1a1.62,1.62,0,0,1,0-.22Z" fill="#a3fad2"/><path d="M63.09 0a1.62 1.62 0 0 0 0 .22h-.71a1.77 1.77 0 0 1 0-.23zm-4.03.23h-.72a1.62 1.62 0 0 0 0-.22h.71z" fill="#83f8c2"/><path d="M58.35,0a1.62,1.62,0,0,1,0,.22h-.71a1.48,1.48,0,0,0,0-.21Z" fill="#a3fad2"/><path d="M57.64,0a1.48,1.48,0,0,1,0,.21h-.71a1.27,1.27,0,0,0,0-.2Z" fill="#c5fbe2"/><path d="M.24,120.73l-.24.48v-.71H.24Z" fill="#0fa3fc"/><path d="M60.48,0,60,.24V0Z" fill="#3ff5a2"/><path d="M60,0V.24h-.48a1.69,1.69,0,0,0,0-.23Z" fill="#54f6ac"/><path d="M59.54 0a1.69 1.69 0 0 1 0 .23h-.47V0zm2.84 0a1.77 1.77 0 0 0 0 .23h-.48V0z" fill="#69f7b6"/><path d="M61.91 0v.23h-.47V0z" fill="#54f6ac"/><path d="M0 119.55h.25v.48H0z" fill="#2caefc"/><path d="M0,120H.23v.47H0Z" fill="#1faafb"/><path d="M61.43 0v.23L61 0z" fill="#3ff5a2"/><path d="M34.17,66.89l3.76-1.67H83.51l3.76,1.67Z" fill="#13c5ce"/><path d="M27.93 70.42l1.91-1.18h6.4H91.6l1.92 1.18-24.52.04a10.71 10.71 0 0 0-1.37.18 56.72 56.72 0 0 0-13.78 0 10.48 10.48 0 0 0-1.37-.18z" fill="#12c2d1"/><path d="M91.6 69.24H36.24h-6.4l2.1-1.19h1.65q24.12 0 48.22 0h7.7z" fill="#12c3d0"/><path d="M83.51 65.22H37.93l2.32-.94c.59-.22.32-.45.08-.71h40.79c-.24.26-.52.49.07.71.81.28 1.55.62 2.32.94z" fill="#14c6cd"/><path d="M38.68 62.32l-1.77-1.56h1.77 19.74H63h3.19 18.32l-1.78 1.56a9.14 9.14 0 0 0-1.25-.17H39.94a9.07 9.07 0 0 0-1.26.17z" fill="#15c8ca"/><path d="M89.51 68.05h-7.7q-24.11 0-48.22 0h-1.65l2.23-1.16h53.1z" fill="#13c4cf"/><path d="M38.68,62.32a9.07,9.07,0,0,1,1.26-.17H81.51a9.14,9.14,0,0,1,1.25.17l-1.64,1.25H40.33Z" fill="#14c7cb"/><path d="M37.7 8.75l1.68-1.38a3.57 3.57 0 0 0 1.12.44q20.22 0 40.44 0a3.39 3.39 0 0 0 1.12-.44l1.68 1.38a5.75 5.75 0 0 1-1.22.25q-21.8 0-43.6 0a5.88 5.88 0 0 1-1.22-.25z" fill="#27ee9e"/><path d="M37.7 8.75a5.88 5.88 0 0 0 1.22.25q21.8 0 43.6 0a5.75 5.75 0 0 0 1.22-.25l1.61 1.46H68.61a5.13 5.13 0 0 0-1 .19 27 27 0 0 0-13.76 0 5 5 0 0 0-1-.19H36.11z" fill="#27ed9f"/><path d="M82.06,7.37a3.39,3.39,0,0,1-1.12.44q-20.22,0-40.44,0a3.57,3.57,0,0,1-1.12-.44l1-.72H81.09Z" fill="#27ef9d"/><path d="M81.09,6.65H40.35l2.12-1.4a7.45,7.45,0,0,0,1.24.2h34A7.8,7.8,0,0,0,79,5.25Z" fill="#28f09c"/><path d="M79,5.25a7.8,7.8,0,0,1-1.24.2h-34a7.45,7.45,0,0,1-1.24-.2.08.08,0,0,1,.12-.06L42.93,5l1.18-.7H77.33Z" fill="#28f19b"/><path d="M77.33,4.27H44.11L47,2.88a6.35,6.35,0,0,0,1.13.19q12.61,0,25.25,0a6.25,6.25,0,0,0,1.12-.19Z" fill="#29f19a"/><path d="M74.47,2.88a6.25,6.25,0,0,1-1.12.19q-12.63,0-25.25,0A6.35,6.35,0,0,1,47,2.88l2.77-1h22Z" fill="#29f299"/><path d="M67.61 70.64a10.71 10.71 0 0 1 1.39-.18h24.54l1.83 1.21H75.88a5.11 5.11 0 0 0-1.37.41zm-39.68-.22h24.53a10.48 10.48 0 0 1 1.37.18L47 72.06c.09-.93-.62-.4-.88-.4q-10 0-20 0z" fill="#11c1d2"/><path d="M20.14 76.37l1.92-1.65h15.83a7.45 7.45 0 0 1 1.24.2h-.06H39l-.32.17a.16.16 0 0 1-.18.06l-.29.17-2.38 1.23a6.62 6.62 0 0 0-1.23-.22q-7.24.03-14.46.04zm65.49.24l-2.38-1.23-.3-.17a.16.16 0 0 1-.18-.06l-.31-.15h-.08-.07a7.8 7.8 0 0 1 1.24-.2h15.83l1.92 1.65q-7.22 0-14.44 0a6.62 6.62 0 0 0-1.23.16z" fill="#10bed6"/><path d="M67.6 10.4a5.13 5.13 0 0 1 1-.19h16.74l1.25 1.37a6.78 6.78 0 0 1-1.31.27q-6.84 0-13.68 0z" fill="#26eca0"/><path d="M84.54 60.76H66.22h-3.19l6.38-1.44 15.2.06a7.48 7.48 0 0 1 1.23.19z" fill="#15c9c9"/><path d="M26.1 71.63q10 0 20 0c.26 0 1-.53.88.4l-3.1 1a5.13 5.13 0 0 0-1-.19q-9.2 0-18.39 0zm48.39.43a5.11 5.11 0 0 1 1.37-.41h19.49L97 72.83q-9 0-18.08 0a5.48 5.48 0 0 0-1.11.23z" fill="#11c0d3"/><path d="M92.52 81.29l-1.44-1.11-.28-.18h0l-.43-.3h0a7.5 7.5 0 0 1 1.23-.2h12.83l1.57 1.62H93.78a9 9 0 0 0-1.26.17z" fill="#0ebbda"/><path d="M85.84,59.5a7.48,7.48,0,0,0-1.23-.19l-15.2-.06,3.16-1.38q6.6,0,13.19,0a6,6,0,0,1,1.31.27Z" fill="#16cac8"/><path d="M88.07 13.26l.93 1.19a6.61 6.61 0 0 1-1.62.47H76.63l-2.11-1.48a9 9 0 0 1 1.24-.18z" fill="#25eaa3"/><path d="M17.44 79l1.47-1.41h15.26l-2.41 1.59a10.43 10.43 0 0 0-1.25-.18z" fill="#0fbcd8"/><path d="M88.07 13.26H75.72a9 9 0 0 0-1.24.18l-2.87-1.6q6.84 0 13.68 0a6.78 6.78 0 0 0 1.31-.27z" fill="#26eba2"/><path d="M113.8 92l1 1.9h-9.43a6.62 6.62 0 0 0-1.23.22l-1.22-1.84a6.51 6.51 0 0 1 1.2-.28h9.68z" fill="#0ab2e5"/><path d="M17.44 79h13.07a10.43 10.43 0 0 1 1.25.17l-1.89 1.42a9 9 0 0 0-1.26-.16H16.08z" fill="#0ebbda"/><path d="M87.07 58.16a6 6 0 0 0-1.31-.27q-6.6 0-13.19 0L75 56.46l.21-.17.23-.14a6 6 0 0 0 1.3.29h10.35a6.48 6.48 0 0 1 1.2.27z" fill="#16cbc7"/><path d="M90.41 53.67l-.9 1.39L78.34 55a11 11 0 0 1-1.25-.16l1.66-1.49H89.1a6.84 6.84 0 0 1 1.31.32z" fill="#17cdc4"/><path d="M107.45 100.32l-1-2.06a5.65 5.65 0 0 1 1.18-.29h9l.74 1.9h-8.93a2.91 2.91 0 0 0-.99.45z" fill="#08aee9"/><path d="M77.09 54.86a11 11 0 0 0 1.25.16h11.17l-1.25 1.67a6.48 6.48 0 0 0-1.2-.27H76.71a6 6 0 0 1-1.3-.29z" fill="#17ccc6"/><path d="M85.63 76.61a6.62 6.62 0 0 1 1.23-.22q7.22 0 14.44 0l1.24 1.17H88.79a8.75 8.75 0 0 0-1.25.18z" fill="#0fbdd7"/><path d="M24.47 72.83q9.2 0 18.39 0a5.13 5.13 0 0 1 1 .19L40.8 74.2a3.75 3.75 0 0 0-1.19-.41H23.23z" fill="#11bfd4"/><path d="M34.17 77.57H18.91l1.23-1.17q7.23 0 14.45 0a6.62 6.62 0 0 1 1.23.22z" fill="#0fbdd7"/><path d="M77.79 73.06a5.48 5.48 0 0 1 1.11-.23q9 0 18.08 0l1.24.93H82.03a4.83 4.83 0 0 0-1.38.41L79 73.51l-.5-.21h-.11l-.11-.06-.47-.19z" fill="#11bfd4"/><path d="M12.31 84.9l1.12-1.44h11.43a7.57 7.57 0 0 1 1.23.22l-1.62 1.46a6.78 6.78 0 0 0-1.33-.25l-10.83.01zM108 83.46l1.13 1.45H98.29a6.92 6.92 0 0 0-1.33.25l-1.61-1.46a7.45 7.45 0 0 1 1.22-.22z" fill="#0db8dd"/><path d="M1.15 110.05l.31-1.66a8.14 8.14 0 0 1 1.37-.22h8.33v.25l-.18.57-.24 1.09z" fill="#04a6f2"/><path d="M95.78 34.86L95.62 38h-.05c.07-2.3.05-1.85-1.76-1.87h-7.45v-1.97h9.22z" fill="#1edbb5"/><path d="M110.33 108.4v-.24h8.34a8 8 0 0 1 1.36.22l.31 1.66h-9.54l-.3-1.04z" fill="#04a6f2"/><path d="M111.51,114.33l-.28-1.9h9.48l.24,1.9Z" fill="#03a3f5"/><path d="M104.13 94.16a6.62 6.62 0 0 1 1.23-.22h9.43l.94 1.89a6.55 6.55 0 0 0-1.14-.22h-9.58l-.67-1.13-.21-.32zM5.71 95.82l.94-1.89h9.44a6.52 6.52 0 0 1 1.22.22h0l-.21.32-.67 1.13H6.85a6.55 6.55 0 0 0-1.14.22z" fill="#09b0e6"/><path d="M87.54 77.75a8.75 8.75 0 0 1 1.25-.18h13.75l1.28 1.21H90.67a7.8 7.8 0 0 0-1.24.2z" fill="#0fbcd8"/><path d="M4.55 98.44l.72-1.66h10.48l-1 1.93a5.21 5.21 0 0 0-1.2-.28l-9 .01z" fill="#08aee9"/><path d="M93.46 22.76l.7 1.91h-10l-.94-1.91a4.68 4.68 0 0 0 1 .23h8.46a2.66 2.66 0 0 0 .78-.23z" fill="#22e3ab"/><path d="M23.23 73.76h16.38a3.75 3.75 0 0 1 1.19.41l-1.67.73a7.45 7.45 0 0 0-1.24-.2H22.06zm57.42.44a4.83 4.83 0 0 1 1.35-.41h16.19l1.16 1H83.52a7.8 7.8 0 0 0-1.24.2z" fill="#10bfd5"/><path d="M94.2 45.37l-.45 1.38h-8.82a6.68 6.68 0 0 1-1.21-.25l.54-1.18.16-.25h0 8.6a5 5 0 0 1 1.18.3z" fill="#1ad3bd"/><path d="M90.66 17l1.13 2a5.76 5.76 0 0 0-1.14-.23q-4.55 0-9.11 0a4.07 4.07 0 0 0-.89.2l-1.44-1.63h10.15a5.7 5.7 0 0 0 1.3-.34z" fill="#24e7a6"/><path d="M16.08 80.39h12.53a9 9 0 0 1 1.26.16l-1.66 1.25a5.79 5.79 0 0 0-1-.2H15z" fill="#0ebada"/><path d="M120 108.39a8 8 0 0 0-1.36-.22h-8.34l-.47-1.66h9.72zm-108.84-.23H2.83a8.14 8.14 0 0 0-1.37.22l.46-1.89h9.71v.25l-.18.53z" fill="#05a7f0"/><path d="M92.52 81.29a9 9 0 0 1 1.26-.16H106l1 1.17H95.42a6.8 6.8 0 0 0-1.33.26l-1.14-1-.3-.23a.16.16 0 0 1-.13-.04z" fill="#0ebadb"/><path d="M95.13 28.69l.25 1.64H87.1c-.56 0-1.06 0-1 .76l-.5-2.41z" fill="#20dfb0"/><path d="M111.51 114.33H121l.22 1.89a8.25 8.25 0 0 0-1.38-.22h-8.06v-.4l-.18-1zM.28 116.22l.22-1.89h9.43v.25l-.17 1v.4H1.7a8.14 8.14 0 0 0-1.42.24z" fill="#02a2f7"/><path d="M80.65 19a4.07 4.07 0 0 1 .89-.2q4.56 0 9.11 0a5.76 5.76 0 0 1 1.14.23l.24.48.22.46.12.21h-10.8z" fill="#23e6a7"/><path d="M94.12 82.58a6.8 6.8 0 0 1 1.33-.26h11.58l1 1.17H96.6a7.45 7.45 0 0 0-1.22.22l-1-.89-.27-.27zm-68.03 1.14a7.57 7.57 0 0 0-1.23-.22H13.43l1-1.17H26a6.8 6.8 0 0 1 1.33.26h0l-.26.27z" fill="#0db9dc"/><path d="M81.57 20.17h10.8l.63 1.4h-9.2a3.28 3.28 0 0 0-1 .43z" fill="#23e5a9"/><path d="M.22 119.55v-1.2l.06-.46h9.17l.06.31v1.35H.22zm111.78 0v-1.35l.06-.31h9.26 0v1.69z" fill="#019ffa"/><path d="M76.59 15h10.75a6.61 6.61 0 0 0 1.66-.55l1.17 1.68H79.52a5.68 5.68 0 0 0-1.21.26z" fill="#25e9a4"/><path d="M4.55 98.44h9a5.21 5.21 0 0 1 1.2.28l-.75 1.6c-.35-.15-.69-.44-1-.44H4.07z" fill="#08ade9"/><path d="M109.84 85.85l1 1.42h-10.5a6.68 6.68 0 0 0-1.21.25L98 86.3a9 9 0 0 1 1.25-.19h9.12a8.56 8.56 0 0 0 1.47-.26z" fill="#0cb6df"/><path d="M82.79 22a3.28 3.28 0 0 1 1-.43h9.2l.43 1.19a2.66 2.66 0 0 1-.74.24h-8.46a4.68 4.68 0 0 1-1-.23z" fill="#22e4aa"/><path d="M10.61 87.27l1-1.42a6.48 6.48 0 0 0 1.21.24h10.83l-1.34 1.45a6.35 6.35 0 0 0-1.21-.25l-10.49-.02z" fill="#0cb6df"/><path d="M107.45 100.32a2.91 2.91 0 0 1 1-.44h8.93l.53 1.41h-10z" fill="#07acea"/><path d="M4 99.86h8.93c.34 0 .68.29 1 .44l-.45 1h-10z" fill="#07aceb"/><path d="M109.84 85.85a8.56 8.56 0 0 1-1.49.24h-9.12a9 9 0 0 0-1.23.21l-.52-.58-.25-.31h0l-.23-.24h0a6.92 6.92 0 0 1 1.33-.25h10.84z" fill="#0cb7de"/><path d="M107.9 101.29h10l.47 1.42h-8.64a5.29 5.29 0 0 0-1.19.29zm-104.4-.02h10l-.07.24-.16.31-.42 1.18a5.16 5.16 0 0 0-1.19-.29H3.03z" fill="#07abec"/><path d="M23.65 86.1H12.82a6.48 6.48 0 0 1-1.21-.24h0l.23-.33a.13.13 0 0 1 .09-.15l.18-.22h0l.22-.27h0 10.83a6.78 6.78 0 0 1 1.33.25h0l-.25.26h0l-.26.3z" fill="#0cb7de"/><path d="M108.59 103a5.29 5.29 0 0 1 1.19-.29h8.64l.44 1.43h-8.53a5.94 5.94 0 0 0-1.23.24zM3 102.69h8.63a5.16 5.16 0 0 1 1.19.29l-.51 1.37a5.85 5.85 0 0 0-1.22-.24H2.55z" fill="#06aaed"/><path d="M78.27 16.4a5.68 5.68 0 0 1 1.21-.26h10.65l.53.86a5.7 5.7 0 0 1-1.3.31H79.21z" fill="#24e8a5"/><path d="M94.48 25.83l.37 1.45h-8.39c-.37 0-.74.35-1.11.53l-.68-2z" fill="#21e1ad"/><path d="M99.13 87.55a6.68 6.68 0 0 1 1.21-.25h10.5l.82 1.2H99.99zm-88.52-.28H21.1a6.35 6.35 0 0 1 1.21.25l-.86 1H9.78z" fill="#0cb5e0"/><path d="M90.41 53.67a6.84 6.84 0 0 0-1.31-.29H78.75l1.13-1.21H91.3z" fill="#18cec3"/><path d="M9.78 88.47h11.67l-1.07 1.35a7.48 7.48 0 0 0-1.23-.19H9.04zm90.22.04h11.67l.74 1.19H102.3a7.48 7.48 0 0 0-1.23.19z" fill="#0bb4e1"/><path d="M94.9 42.72l-.27 1.16h-9.8l.34-.92.19-.51h0l8.35.06a6.68 6.68 0 0 1 1.19.21z" fill="#1bd5bb"/><path d="M85.35 27.83c.37-.18.74-.52 1.11-.53h8.39l.28 1.41h-9.55z" fill="#20e0af"/><path d="M94.9 42.72a6.68 6.68 0 0 0-1.21-.25c-2.78 0-5.57 0-8.35-.06l.33-1.41h8.37c.37 0 .73.34 1.1.52z" fill="#1cd6ba"/><path d="M9 89.66h10.11a7.48 7.48 0 0 1 1.23.19l-.92 1.23a6.55 6.55 0 0 0-1.22-.23H8.29zm92.06.2a7.48 7.48 0 0 1 1.23-.19h10.11l.72 1.19h-9.92a6.71 6.71 0 0 0-1.22.23z" fill="#0bb4e2"/><path d="M91.3 52.18H79.88l1-1.17h9.71a6.65 6.65 0 0 1 1.23.23z" fill="#18cfc2"/><path d="M102 91.09a6.71 6.71 0 0 1 1.22-.23h9.92l.66 1.14h-9.69a6.51 6.51 0 0 0-1.2.28l-.7-.93-.23-.3z" fill="#0ab3e3"/><path d="M86.08 31.12c0-.77.46-.76 1-.76h8.28 0l.17.72v.72h-9.39z" fill="#1fdeb1"/><path d="M8.33 90.85h9.91a6.55 6.55 0 0 1 1.22.23h0l-.23.29-.48.66H9.03a5.88 5.88 0 0 1-1.22-.25z" fill="#0ab3e3"/><path d="M17.31 94.16a6.52 6.52 0 0 0-1.22-.22H6.65l.61-1.22h9.57A6.37 6.37 0 0 1 18 93z" fill="#0ab1e5"/><path d="M91.8 51.24a6.65 6.65 0 0 0-1.23-.24h-9.71l.9-1.2h9.36a3.6 3.6 0 0 1 1.15.46z" fill="#18d0c1"/><path d="M92.27 50.29a3.6 3.6 0 0 0-1.15-.46h-9.36l1-1.61a3.28 3.28 0 0 0 1 .43h9.19z" fill="#19d1c0"/><path d="M15.75 96.8H5.27l.44-1a6.55 6.55 0 0 1 1.14-.22h9.58zM105 95.61h9.58a6.55 6.55 0 0 1 1.14.22l.44 1h-10.48z" fill="#09afe7"/><path d="M105.69 96.81h10.48l.51 1.18h-9a5.65 5.65 0 0 0-1.18.29z" fill="#08aee8"/><path d="M93 48.64h-9.19a3.28 3.28 0 0 1-1-.43l.29-.51.17-.25h0 10.26l-.07.23-.21.48z" fill="#19d2bf"/><path d="M2.58 104.12h8.54a5.85 5.85 0 0 1 1.22.24l-.48 1.41c-.34-.16-.68-.45-1-.45H3.32a6.29 6.29 0 0 0-1.13.23zm106.52.26a5.94 5.94 0 0 1 1.23-.24h8.53l.42 1.43a2.14 2.14 0 0 0-.66-.22q-4.19 0-8.37 0c-.22 0-.44.29-.67.45z" fill="#06a9ee"/><path d="M84.83 43.85h9.8l-.43 1.49a5 5 0 0 0-1.2-.26h-8.6z" fill="#1bd4bc"/><path d="M94.48 25.83h-9.81l-.49-1.18h10z" fill="#21e2ac"/><path d="M86.14 31.78h9.44l.2 3.08-.2-.7c.15-.91-.18-1.24-1.14-1.21h-8.13z" fill="#1fddb2"/><path d="M109.58 105.79c.23-.16.45-.45.67-.45q4.19 0 8.37 0a2.14 2.14 0 0 1 .66.22l.25 1h-9.72zm-107.41-.24a6.29 6.29 0 0 1 1.13-.23h7.54c.34 0 .68.29 1 .45l-.23.71H1.92z" fill="#05a8ef"/><path d="M.51 114.08l.22-1.65h9.49l-.21 1.2H1.63a3.39 3.39 0 0 0-1.12.45z" fill="#03a4f5"/><path d="M1.15 110.05h9.55l-.26 1.17H.94zm109.6.02h9.54l.21 1.19H111z" fill="#04a5f3"/><path d="M.94 111.24h9.5l-.22 1.19H.73zm110.06 0h9.49l.21 1.19h-9.48z" fill="#03a4f4"/><path d="M95.14 41.58c-.37-.18-.73-.52-1.1-.52-2.79-.05-5.58 0-8.37 0l.23-1a8.14 8.14 0 0 1 1.37-.22h8.06v.29z" fill="#1cd7b9"/><path d="M9.51 118.2l-.06-.31c.12-.87-.52-.71-1-.71H.31.2l.08-1a8.14 8.14 0 0 1 1.37-.18h8.06zm102.49-.31l-.06.31-.2-2.21h8.06a8.25 8.25 0 0 1 1.38.22v1H113c-.5-.03-1.13-.21-1 .68z" fill="#02a1f8"/><path d="M95.37 40.14v-.29c.1-.86-.52-.71-1-.71h-8.3l.07-.71a4.19 4.19 0 0 1 1.25-.43h8.18.05z" fill="#1dd8b7"/><path d="M.25 119.54h9.22v1.18H.24V120zm111.75.01h9.22v1.18H112z" fill="#009efb"/><path d="M89.43 79a7.8 7.8 0 0 1 1.24-.2h13.15l.63.68H91.62a7.5 7.5 0 0 0-1.23.2l-.75-.54-.19-.14z" fill="#0fbbd9"/><path d="M27.32 82.58a6.8 6.8 0 0 0-1.32-.26H14.43l.57-.72h12.22a5.79 5.79 0 0 1 1 .2z" fill="#0eb9db"/><path d="M18 93a6.37 6.37 0 0 0-1.21-.26H7.22l.55-.94A5.88 5.88 0 0 0 9 92h9.72z" fill="#0ab2e4"/><path d="M93.5 47.45H83.24l.48-1a6.68 6.68 0 0 0 1.21.25h8.82z" fill="#1ad2bf"/><path d="M.51 114.08a3.39 3.39 0 0 1 1.12-.44h8.38l-.07.7H.5z" fill="#03a3f6"/><path d="M112 120.73h9.21l.2.47a2.28 2.28 0 0 1-.68.23h-7.93c-.51.02-1.01.06-.8-.7z" fill="#009dfc"/><g fill="#02a1f9"><path d="M112 117.89c-.12-.86.51-.71 1-.71h8.22v.69z"/><path d="M121.4 121.2l-.2-.47v-1.18-1.69z"/></g><path d="M111.52,114.57l.18,1Z" fill="#03a3f5"/><path d="M9.75,115.59l.17-1Z" fill="#03a3f6"/><path d="M95.54,31.06l-.17-.72Z" fill="#20dfb0"/><path d="M93.22,48.16l.21-.48Z" fill="#1ad2bf"/><path d="M90.4,79.68l.43.3Z" fill="#0fbbd9"/><path d="M10.94 109l.18-.57zm99.39-.6l.17.58z" fill="#05a7f0"/><path d="M11.41,107.28l.18-.53Z" fill="#05a8ef"/><path d="M92.25,19.92,92,19.46Z" fill="#23e5a9"/><path d="M77.79 73.06l.47.19zm.69.24l.5.21z" fill="#11c0d3"/><path d="M17.1,94.48l.21-.32Z" fill="#0ab1e5"/><path d="M104.13,94.16l.21.32Z" fill="#0ab2e5"/><path d="M82.46 75l.31.17zm-43.79.15L39 75z" fill="#10bfd5"/><path d="M89.45,79l.19.15Z" fill="#0fbcd8"/><path d="M94.12,82.56l.27.27Z" fill="#0ebadb"/><path d="M27.06,82.83l.26-.27Z" fill="#0eb9db"/><path d="M92.68,81.38l.3.23Z" fill="#0ebbda"/><path d="M90.8,80l.28.22Z" fill="#0fbbd9"/><path d="M13.31,101.84l.16-.31Z" fill="#07aceb"/><path d="M24.22 85.43l.25-.26zM97 85.17l.26.26zm-73 .54l.26-.3zm73.21-.3l.25.31z" fill="#0db8dd"/><path d="M19.23,91.38l.23-.29Z" fill="#0bb4e2"/><path d="M83 75.21l.3.17zm-44.8.17l.29-.17z" fill="#10bfd5"/><path d="M102,91.09l.23.3Z" fill="#0bb4e2"/><path d="M36.1 10.21h16.74a5 5 0 0 1 1 .19l-4 1.47q-6.84 0-13.68 0a6.22 6.22 0 0 1-1.32-.28z" fill="#26eca0"/><path d="M58.42 60.69H38.68h-1.77L35.6 59.5a7.59 7.59 0 0 1 1.24-.19L52 59.25z" fill="#15c9c9"/><path d="M34.14 57.88L33 56.45a6.52 6.52 0 0 1 1.22-.22h11.89l2.54 1.52a9 9 0 0 1-1.26.16z" fill="#16cbc7"/><path d="M34.14,57.88H47.36a9,9,0,0,0,1.26-.16L52,59.25l-15.2.06a7.59,7.59,0,0,0-1.24.19Z" fill="#16cac8"/><path d="M32.48 14.45l1-1.4h12.49a5.76 5.76 0 0 1 1.21.24h0l-.25.18-1.84 1.26H33.66a6.58 6.58 0 0 1-1.18-.28z" fill="#25eaa3"/><path d="M26.55 42.73l-.48-2.59v-.29h8.06a8.25 8.25 0 0 1 1.38.22L36 42h-8.46c-.54 0-1.04 0-.99.73z" fill="#1cd7b9"/><path d="M31.93 55.06L31 53.67a6.59 6.59 0 0 1 1.3-.29h10.36l1.65 1.49a10.42 10.42 0 0 1-1.21.13z" fill="#17cdc5"/><path d="M28.72 49.34l-.5-1.18a3.47 3.47 0 0 1 1.15-.46h9l1 1.67a2.28 2.28 0 0 1-.64.21h-9.11a3.7 3.7 0 0 1-.9-.24z" fill="#19d1c0"/><path d="M26.55 42.73c-.05-.76.46-.75 1-.75h8.46l.6 1.87H26.8z" fill="#1bd5bb"/><path d="M25.83 38l-.17-2.88.19-.23v-.71h9.23v1.89h-7.46c-1.81 0-1.82-.43-1.75 1.87z" fill="#1edbb5"/><path d="M32.48 14.45a6.58 6.58 0 0 0 1.22.24h11.43l-2 1.67a6 6 0 0 0-1.13-.22H31.34z" fill="#25e9a4"/><path d="M47.21 13.3a5.76 5.76 0 0 0-1.21-.24H33.51l1.33-1.48a6.22 6.22 0 0 0 1.32.28q6.84 0 13.68 0z" fill="#26eba2"/><path d="M27.28 24.67l.7-1.91c.13.08.26.22.39.22h9.17a2.14 2.14 0 0 0 .66-.22l-.93 1.91z" fill="#22e3ab"/><path d="M27.69 46.75l-.45-1.38a5.16 5.16 0 0 1 1.19-.29h8.6 0l.16.25.54 1.18a6.51 6.51 0 0 1-1.21.25l-8.83-.01z" fill="#1ad3be"/><path d="M29.65 19l1.13-2a6.19 6.19 0 0 0 1.31.3h10.15L40.79 19a1.64 1.64 0 0 0-.53-.2h-9.71a3.72 3.72 0 0 0-.9.2z" fill="#24e7a6"/><path d="M28.72 49.34a3.7 3.7 0 0 0 .9.22h9.11a2.28 2.28 0 0 0 .64-.21L40.58 51h-9.71a6.4 6.4 0 0 0-1.22.23z" fill="#19d0c1"/><path d="M31.93 55.06L43.1 55a10.42 10.42 0 0 0 1.25-.16l1.73 1.33H34.19a6.52 6.52 0 0 0-1.22.22z" fill="#17ccc6"/><path d="M29.65 19a3.72 3.72 0 0 1 .9-.23h9.71a1.64 1.64 0 0 1 .53.2l-.92 1.22h-10.8l.12-.21.23-.46z" fill="#23e6a7"/><path d="M29.07 20.13h10.8L38.66 22a3.33 3.33 0 0 0-1-.43h-9.19z" fill="#23e5a9"/><path d="M28.42 21.57h9.19a3.33 3.33 0 0 1 1 .43l-.46.74a2.14 2.14 0 0 1-.66.22h-9.17c-.13 0-.26-.14-.39-.22l.06-.24.16-.33z" fill="#22e4aa"/><path d="M26.59 27.28l.41-1.45h9.82l-.69 2c-.37-.18-.73-.52-1.11-.53l-8.43-.02z" fill="#21e1ad"/><path d="M42.24 17.32H32.09a6.19 6.19 0 0 1-1.31-.3l.53-.87h10.66a6 6 0 0 1 1.21.26z" fill="#24e8a5"/><path d="M42.7 53.37H32.34a6.59 6.59 0 0 0-1.3.29l-.89-1.49h11.42z" fill="#18cec3"/><path d="M41.57 52.16H30.15l-.5-.94a6.4 6.4 0 0 1 1.22-.22h9.71z" fill="#18cfc2"/><path d="M25.86 31.78v-.72l.17-.72h0 8.29c.55 0 1.06 0 1 .76l-.06.66z" fill="#1fdeb1"/><path d="M37 45h-8.6a5.16 5.16 0 0 0-1.19.29l-.43-1.49h9.81z" fill="#1bd4bc"/><path d="M36.78 25.86h-9.82l.32-1.16h10z" fill="#21e2ac"/><path d="M25.86 31.78h9.44L35.13 33h-8.12c-1 0-1.29.3-1.15 1.21v.71h-.19z" fill="#1fddb2"/><path d="M26.11 39.85v.29L25.83 38h.05 8.18a4.14 4.14 0 0 1 1.24.45l.07.71h-8.25c-.49-.02-1.12-.16-1.01.69z" fill="#1dd8b7"/><path d="M26.32 28.67v-.44h8.38c.37 0 .74.34 1.11.52l-.07.4a1.51 1.51 0 0 1-.55.22h-8.25c-.19 0-.4-.46-.62-.7z" fill="#20dfaf"/><path d="M27.69 46.75h8.82a6.51 6.51 0 0 0 1.21-.25l.65 1.21h-9a3.47 3.47 0 0 0-1.15.46z" fill="#1ad2bf"/><path d="M26.32 28.67c.22.24.43.7.66.71h8.25a1.51 1.51 0 0 0 .55-.22l-.42 1.95c0-.77-.46-.77-1-.76h-8.29z" fill="#20deb1"/><path d="M35.85 28.77c-.37-.18-.74-.51-1.11-.52h-8.38l.23-.95h8.39c.38 0 .74.35 1.11.53z" fill="#20e0ae"/><path d="M26.07,30.34l-.17.72Z" fill="#20deb1"/><path d="M29.42,19.46l-.23.46Z" fill="#23e5a9"/><path d="M42.93,5l-.34.22Z" fill="#28f09c"/><path d="M12.1,85.16l-.18.22Z" fill="#0db8dd"/><path d="M28.2,22.19l-.16.33Z" fill="#22e3ab"/><path d="M25.66 34.87h.19l-.19.23a.3.3 0 0 1 0-.23z" fill="#1edcb3"/><path d="M11.83,85.53l-.23.33Z" fill="#0cb6df"/><path d="M12.32,84.89l-.22.27Z" fill="#0db8dd"/><path d="M.31 117.16h8.14c.48 0 1.12-.16 1 .71H.28z" fill="#01a0f9"/><path d="M75,56.46l.21-.17Z" fill="#17ccc6"/><path d="M86.14 38.42l.22-2.37h7.45c1.81 0 1.83-.43 1.76 1.87h-8.18a4.19 4.19 0 0 0-1.25.5z" fill="#1ddab6"/><path d="M86.36 34.16v-1.19h8.13c1 0 1.29.3 1.14 1.21z" fill="#1edcb3"/><path d="M84.26,45.29l.16-.25Z" fill="#1bd4bc"/><path d="M85.17,42.93l.19-.51Z" fill="#1cd6ba"/><path d="M83.08,47.67l.17-.25Z" fill="#1ad2bf"/><path d="M85.9 40.08l.17-.95h8.25c.49 0 1.11-.15 1 .71h-8.06a8.14 8.14 0 0 0-1.36.24z" fill="#1dd8b8"/><path d="M47.22,13.29l-.25.18Z" fill="#26eba2"/><path d="M35.37 39.13l.18.95a8.25 8.25 0 0 0-1.38-.22h-8.06c-.09-.86.52-.71 1-.71z" fill="#1dd8b8"/><path d="M35.09 36.05l.21 2.37a4.14 4.14 0 0 0-1.24-.42h-8.18c-.07-2.3-.06-1.85 1.75-1.87l7.46-.08z" fill="#1ddab6"/><path d="M35.13 33v1.19h-9.27c-.14-.94.14-1.27 1.14-1.19h8.13z" fill="#1edcb3"/><path d="M37,45l.16.25Z" fill="#1bd4bc"/></svg>