<svg xmlns="http://www.w3.org/2000/svg" viewBox="0 0 117.25 117.02" xmlns:v="https://vecta.io/nano"><path d="M17.18 117a27.46 27.46 0 0 1-5-2 10.28 10.28 0 0 1-4.83-9.08V62.3a4.72 4.72 0 0 1 .33-1.66c.47-1.25 2-2.3 3-2.14a4 4 0 0 1 3.64 3.41 11 11 0 0 1 0 1.15v42.59c0 3 1.41 4.39 4.44 4.39h16.83c1.18 0 1.47-.38 1.47-1.51q0-19.41 0-38.82a10.86 10.86 0 0 1 11.05-11h21.01a10.86 10.86 0 0 1 11.12 11.21v38.24c0 1.9 0 1.9 2 1.9h16.44c2.84 0 4.28-1.46 4.28-4.32q0-30.75 0-61.48a2.79 2.79 0 0 0-1-2.39l-7.7-6.45L83.9 26.8q-5.13-4.26-10.25-8.55L63.22 9.56c-1.42-1.17-2.73-2.72-4.85-2.34a6.33 6.33 0 0 0-2.78 1.08c-3.74 3-7.39 6.11-11.06 9.19L31.34 28.58l-11.69 9.68-8.49 7.1c-1.57 1.36-3 2.92-4.53 4.27C3.85 52 1.48 51.42 0 48.09v-1.37a10.9 10.9 0 0 1 1.68-2.34Q25.43 24.5 49.23 4.72c2-1.68 3.92-3.51 6.59-4.16.71-.17 1.41-.37 2.12-.56h1.14c.11.07.22.21.34.22A11.48 11.48 0 0 1 65.92 3q8.63 7.23 17.3 14.41l6.55 5.45v-6.24a3.77 3.77 0 0 1 2.46-3.74 3.66 3.66 0 0 1 4.86 3.68v11.55a2 2 0 0 0 .65 1.4L115 43.98a17.31 17.31 0 0 1 2.21 2.78v1.37A4 4 0 0 1 114.1 51c-1.73.3-2.85-.88-4.18-1.86v9.12q0 23.63 0 47.24a11 11 0 0 1-7.68 11c-.7.23-1.44.38-2.16.56zM65 65.76H48.29c-3 0-4.35 1.35-4.35 4.31v39.62h29.34V78.05v-8.58a3.62 3.62 0 0 0-3.66-3.74c-1.54-.02-3.06.02-4.62.03z" fill="#1b1464"/><path d="M66 109.66H44V70c0-3 1.36-4.32 4.35-4.31h16.71a15.22 15.22 0 0 1 .88 3.61l.06 40.36zm-11-26a4.08 4.08 0 1 0 4 4.1 4 4 0 0 0-4-4.13z" fill="#f68b8b"/><path d="M66 109.66V69.37a15.22 15.22 0 0 0-1-3.61h4.58a3.62 3.62 0 0 1 3.66 3.74v8.58 31.61z" fill="#de7e7e"/><path d="M55 83.63a4.08 4.08 0 1 1-4.07 4 4 4 0 0 1 4.07-4z" fill="#fefefe"/></svg>