<svg xmlns="http://www.w3.org/2000/svg" xmlns:xlink="http://www.w3.org/1999/xlink" viewBox="0 0 32.2 32.29" xmlns:v="https://vecta.io/nano"><defs><linearGradient id="A" y1="16.15" x2="5.61" y2="16.15" gradientUnits="userSpaceOnUse"><stop offset="0" stop-color="#ff0"/><stop offset="1" stop-color="khaki"/></linearGradient><linearGradient id="B" x1="6.8" y1="2.82" x2="25.4" y2="2.82" xlink:href="#A"/><linearGradient id="C" x1="26.59" y1="16.11" x2="32.2" y2="16.11" xlink:href="#A"/><linearGradient id="D" x1="6.86" y1="29.48" x2="25.4" y2="29.48" xlink:href="#A"/><linearGradient id="E" x1="7.04" x2="25.16" xlink:href="#A"/><linearGradient id="F" x1="24.01" y1="27.68" x2="31.36" y2="27.68" gradientUnits="userSpaceOnUse"><stop offset="0" stop-color="#00bfff"/><stop offset="1" stop-color="#87ceeb"/></linearGradient><linearGradient id="G" x1="23.99" y1="4.62" x2="31.29" y2="4.62" gradientUnits="userSpaceOnUse"><stop offset="0" stop-color="#00bfff"/><stop offset="1" stop-color="#87cefa"/></linearGradient><linearGradient id="H" x1=".9" y1="4.61" x2="8.19" y2="4.61" xlink:href="#G"/><linearGradient id="I" x1="7.04" y1="10.32" x2="13.55" y2="10.32" xlink:href="#G"/><linearGradient id="J" x1="18.86" y1="22.05" x2="25.16" y2="22.05" xlink:href="#G"/></defs><path d="M0 6.82a5.79 5.79 0 0 1 .57.25l2 1.06 1.91.95 1.18.65v12.82l-1.15.65-1.46.75L1 25l-.63.36a3.84 3.84 0 0 1-.36.14z" fill="url(#A)"/><path d="M25.4 0a.9.9 0 0 1-.08.28l-.95 1.77-.92 1.78-.92 1.71c-.26.11-12.46.13-12.87 0L9.07 4.4l-.7-1.33-.75-1.39L6.93.37A2.72 2.72 0 0 1 6.8 0z" fill="url(#B)"/><path d="M32.2 25.41l-1.2-.58-1.46-.76-.94-.52-1.26-.55-.75-.42V9.71l1.28-.65.58-.3 1.9-1 1.66-.86a.53.53 0 0 1 .19 0z" fill="url(#C)"/><path d="M6.86 32.29a2.42 2.42 0 0 1 .14-.46l1.42-2.63 1.24-2.44c.3-.12 12.51-.13 12.89 0l.6 1.14.81 1.5.63 1.19.69 1.34a2.72 2.72 0 0 1 .13.37z" fill="url(#D)"/><path d="M7 20.52v-1.95a.7.7 0 0 1 .14-.38l2.52-2.52 2-2 2.06-2 1.93-1.94 2.45-2.44a.65.65 0 0 1 .42-.16h3.92a.69.69 0 0 1 .43.2l2 2.06a.76.76 0 0 1 .24.59v2.37a1 1 0 0 1-.14.42 2 2 0 0 1-.25.26l-11.6 11.65a1.66 1.66 0 0 1-1.41.58H9.87a.81.81 0 0 1-.65-.27l-2-2a.76.76 0 0 1-.22-.65v-1.82z" fill="url(#E)"/><path d="M5.56 31.26a.88.88 0 0 1-.56-.37l-1.3-1.26-1.2-1.22-1.31-1.31-.28-.34.58-.34 2-1 1.77-.94.71-.4a.39.39 0 0 1 .51.1l1.57 1.6c.26.28.25.37.06.69s-.28.57-.42.85l-.36.74-1.08 2.07-.69 1.13z" fill="#87ceeb"/><path d="M31.36 26.72l-.88.91q-1.71 1.73-3.43 3.43a2.17 2.17 0 0 1-.37.25l-.95-1.72-.75-1.46-1-1.83a.44.44 0 0 1 .08-.38l1.64-1.67c.27-.27.35-.25.68-.05s.59.28.88.43L28 25l2.44 1.32.92.4z" fill="url(#F)"/><path d="M26.68 1a1.74 1.74 0 0 1 .35.22l1.94 2 2 1.95.35.41-.62.35L28.55 7l-1.93 1a.61.61 0 0 0-.14.07c-.44.27-.47.27-.84-.1l-1.52-1.55a.39.39 0 0 1-.05-.53l.79-1.55.91-1.71.75-1.39a2 2 0 0 1 .16-.24z" fill="url(#G)"/><path d="M5.52 1l.34.62 1.43 2.63.88 1.76a.42.42 0 0 1-.06.38L6.35 8.14a.35.35 0 0 1-.48 0l-1.51-.77c-.13-.07-.25-.17-.36-.24l-1.65-.85L.9 5.57a1.77 1.77 0 0 1 .24-.32l2.4-2.45 1.51-1.51A3.82 3.82 0 0 1 5.52 1z" fill="url(#H)"/><path d="M13.55 7.15l-6.48 6.42a.24.24 0 0 1 0-.11v-3.6a.75.75 0 0 1 .19-.47q1-1.07 2.1-2.1a.8.8 0 0 1 .49-.2h3.36c.09 0 .19.03.34.06z" fill="url(#I)"/><path d="M18.86 25.16l6.25-6.28c0 .11 0 .18.05.25v3.3a.58.58 0 0 1-.11.37l-1.53 1.55a4.07 4.07 0 0 0-.41.42 1.13 1.13 0 0 1-1 .45h-2.77a4 4 0 0 1-.48-.06z" fill="url(#J)"/></svg>