<svg xmlns="http://www.w3.org/2000/svg" viewBox="0 0 469.94 439.94" xmlns:v="https://vecta.io/nano"><path d="M182 439.94H74c-.38-1-.46-2.55-1.17-2.94-9.93-5.42-12.3-14.19-12.28-24.78q.26-114.2-.06-228.39c0-5.87 2.05-9.44 6.43-12.9Q116.25 132 165.3 92.7q33.13-26.45 66.12-53.1c2.48-2 4.66-2.08 7.14-.08l28.79 23.09Q294 84 320.61 105.45l85.27 68.3a10.32 10.32 0 0 1 3.3 7.08q.24 117.45.13 234.89c0 9-3.52 16-11.31 20.81-1 .62-1.38 2.25-2.05 3.41H288q0-59.2 0-118.42c0-7.79-2.73-10.53-10.48-10.53q-41.73 0-83.45 0c-9.79 0-12 2.22-12 12zm90.8-235.56V176.9c0-6.8-3-9.85-9.64-9.87q-28.23-.06-56.46 0c-6.37 0-9.47 3.12-9.49 9.5q-.08 28.23 0 56.45c0 6.5 3 9.61 9.37 9.63q28.48.07 57 0c6 0 9.2-3.21 9.25-9.26l-.05-28.97zM0 185c5.69-4.21 11.52-8.26 17.06-12.66l54.78-44a12.39 12.39 0 0 0 3.79-8.46l.15-78.41c0-8.37 2.61-10.93 11.08-10.94h25c6.34.06 9.49 3.16 9.52 9.52l.08 41c0 2 .8 4 1.23 6a50.8 50.8 0 0 0 4.71-3q23.6-18.87 47.18-37.7 26.5-21.15 52.92-42.41C228.64 3 229.16 1.33 230 0h10c.68 1.22 1.08 2.8 2.09 3.62q39.82 32 79.77 63.79 44.54 35.64 89 71.32 27.61 22.13 55.22 44.25a21.56 21.56 0 0 0 3.85 2v9a9.79 9.79 0 0 0-2.72 1.16c-3.54 3.07-6.9 2.56-10.34-.18q-21-16.8-42.13-33.57-70.12-56-140.22-112.11Q256.61 35 238.76 20.56c-2.65-2.14-5-2-7.59.11q-40.6 32.67-81.28 65.25-57 45.69-114 91.32c-6.23 5-12.75 9.64-18.73 14.9-5.53 4.8-10.82 7.07-17.16 1.86z"/></svg>