<svg xmlns="http://www.w3.org/2000/svg" viewBox="0 0 455.94 379.95" xmlns:v="https://vecta.io/nano"><defs><linearGradient id="A" y1="189.98" x2="455.94" y2="189.98" gradientUnits="userSpaceOnUse"><stop offset="0" stop-color="#00bfff"/><stop offset="1" stop-color="#87cefa"/></linearGradient></defs><path d="M0 355V25c1.36.34 2.74-.49 2.78-1.4C2.9 20.82 4.67 19 6 17c5.55-8.33 7.4-9.7 17.13-14A2.64 2.64 0 0 0 25 0h406c-.21 1.77.72 2.52 2.32 3 3.9 1.26 7.18 3.6 10.36 6.12 3 2.35 4.48 5.73 6.68 8.64 1.15 1.52 2.48 2.8 2.66 4.86a2.39 2.39 0 0 0 3 2.35V355c-1.77-.21-2.64.68-3 2.33-.24 1-.35 2.37-1 3-4.42 4.13-6 11-12.71 12.95-.41.12-.71.67-1.05 1a7.54 7.54 0 0 1-4.84 2.7 2.39 2.39 0 0 0-2.34 3H25a2.39 2.39 0 0 0-2.35-3c-2.06-.18-3.47-1.34-4.85-2.69a8 8 0 0 0-1.92-1.29c-6.51-3.4-10-9.26-12.83-15.69-.65-1.55-1.28-2.56-3.05-2.31zM263.47 16H40.54a27.57 27.57 0 0 0-10.85 2.77c-1.52.72-3.17 1.18-5 1.83-.83 1.48-1.36 3.42-3.61 3.87-.49.1-.83 1.25-1.12 2a15.45 15.45 0 0 1-.96 3.01c-2.33 3.43-3 7.25-3 11.28q0 149.18 0 298.36a21.23 21.23 0 0 0 2.9 11.31 14.9 14.9 0 0 1 1.25 3.71l5.2 5.45c1.09.44 2.27.84 3.37 1.38A29.49 29.49 0 0 0 42 364q108.45-.09 216.9-.05a27.9 27.9 0 0 0 4-.05 6.61 6.61 0 0 0 2-1.19V17.42zm61.69 76L320 96.25v5.6l5.34 4.08h71.2c2.25-2.53 5.41-4.39 5.44-8.37l-5.66-5.57zm71.31 196c1.94-2.06 4-3.87 5.67-5.83-.73-3.95-3.5-5.85-5.69-8.16-22.64 0-45.27 0-67.91-.05a8.72 8.72 0 0 0-6.85 2.8c-.57.61-1.21 1.14-1.72 1.62v5.13c2.28 2.32 4.39 4.57 8.15 4.55l68.35-.06zm5.66-127.76a9.21 9.21 0 0 0-5.87-7.2h-71.45l-5.12 5.07 1.26 5.11 3.75 2.78h73.11zM324.45 227h68.41c5.43 0 6.87-1 9.15-6.67-.71-2.64-2.55-4.59-4.69-6.33h-72.55l-3.43 2.36a7.27 7.27 0 0 0-1.3 6z" fill="url(#A)"/></svg>