<svg xmlns="http://www.w3.org/2000/svg" viewBox="0 0 487.94 487.94" xmlns:v="https://vecta.io/nano"><path d="M0 103l8.61 3.8 29.65 16.06c9.54 5 19.3 9.5 28.88 14.4 6 3.08 11.87 6.48 17.89 9.79v193.76l-17.46 9.74-22.07 11.39L15 377.42c-3.25 1.67-6.27 3.76-9.51 5.46A44.29 44.29 0 0 1 0 385zM385 0a21.25 21.25 0 0 1-1.23 4.27L369.33 31l-14 26.88-13.93 25.84c-4 1.68-188.9 2-195.08.18l-9-17.33L126.7 46.4l-11.34-21-10.39-19.81A48 48 0 0 1 103 0zm102.94 384l-18.93-8.77c-7.42-3.66-14.74-7.53-22.05-11.41-4.83-2.55-9.49-5.43-14.35-7.89-6-3.06-12.26-5.74-18.31-8.77-3.84-1.93-7.52-4.19-11.4-6.37v-194l19.46-9.93 8.82-4.53 28.79-15.67 25.06-13a11.33 11.33 0 0 1 2.91-.64zM104 487.94c.61-2.31.82-4.84 1.92-6.9l21.48-39.81 18.78-36.87c4.61-1.81 189.68-2 195.44-.23l9 17.34 12.26 22.59q4.85 9 9.59 18l10.5 20.3a45.24 45.24 0 0 1 2 5.56zm2.65-177.88l.1-29.47a9.07 9.07 0 0 1 2.11-5.76l38.19-38 29.84-30.13 31.2-30.9 29.17-29.4 37.21-36.89a10 10 0 0 1 6.29-2.35q29.72-.25 59.45 0a10.44 10.44 0 0 1 6.45 3l31 31.18a11.06 11.06 0 0 1 3.55 8.81c-.21 12 .11 24 0 36 0 2.11-1.13 4.35-2.22 6.25-.89 1.53-2.5 2.65-3.79 3.95q-88 88-175.79 176.11c-6.32 6.39-12.45 9.35-21.28 8.71-9.28-.67-18.65-.24-28-.12a12.66 12.66 0 0 1-9.76-4.09q-14.86-15.15-30-30a11.43 11.43 0 0 1-3.61-9.33c.33-9.15.11-18.31.11-27.47zM84.2 472.4c-4.56-.23-6.69-3.16-9.12-5.58q-9.51-9.52-19-19.06l-18.2-18.49-19.79-19.73c-1.43-1.44-2.6-3.15-4.32-5.25 3.47-2 6.08-3.64 8.82-5l29.71-14.84c9-4.61 17.88-9.42 26.77-14.2l10.79-6.11c2.92-1.59 5.48-.75 7.68 1.49l23.79 24.27c4 4.15 3.79 5.53.9 10.38-2.45 4.11-4.24 8.6-6.34 12.91l-5.48 11.11-16.27 31.33c-3.04 5.63-6.53 11.05-9.94 16.77zm390.96-68.6l-13.34 13.74q-25.89 25.95-51.88 51.81c-1.5 1.49-3.59 2.4-5.65 3.73l-14.44-25.92c-3.92-7.29-7.5-14.74-11.33-22.08l-14.46-27.7c-.7-1.43 0-4.49 1.16-5.74 8.1-8.57 16.45-16.9 24.81-25.22 4.05-4 5.28-3.79 10.39-.79 4.26 2.5 8.9 4.35 13.35 6.54a307.37 307.37 0 0 1 9.72 5l37.1 19.89c4.34 2.27 8.91 4.14 14.57 6.74zM404.31 14.93c1.88 1.16 3.88 1.93 5.27 3.31L439.07 48l29.74 29.5c1.78 1.78 3.29 3.83 5.3 6.2l-9.4 5.33-32 16.83-29.26 14.63-2.2 1.16c-6.64 4.09-7 4.08-12.61-1.55l-23.15-23.37c-2.52-2.54-2.41-4.94-.71-8 4.21-7.68 8-15.6 12-23.37q6.78-13 13.72-25.91 5.63-10.5 11.36-20.93c.54-1.02 1.28-1.9 2.45-3.59zM83.7 14.67l5.17 9.42 21.57 39.69c4.66 8.75 9.14 17.6 13.33 26.57a6.43 6.43 0 0 1-.84 5.81c-8.73 9.14-17.73 18-26.75 26.9-2.19 2.15-4.61 1.71-7.29.23-7.52-4.14-15.22-7.94-22.8-12-2-1.08-3.86-2.58-5.9-3.66L35.61 94.9l-22-10.79a49.79 49.79 0 0 1 3.67-4.81Q35.4 60.79 53.65 42.38l22.93-22.82c1.9-1.84 4.42-3.06 7.12-4.89zM205.37 108l-98.23 97a3.94 3.94 0 0 1-.43-1.67l.16-54.4a11.23 11.23 0 0 1 2.86-7q15.6-16.16 31.77-31.75a12 12 0 0 1 7.51-3l50.93-.11a35.28 35.28 0 0 1 5.43.93zm80.36 272.17l94.75-94.88a24.29 24.29 0 0 1 .72 3.73l-.07 50c0 1.86-.51 4.21-1.7 5.46-7.55 7.95-15.36 15.66-23.1 23.44-2.11 2.12-4.56 4-6.32 6.37-4 5.36-9.05 7-15.61 6.82-14-.39-28-.09-42-.15a64.9 64.9 0 0 1-6.67-.79z"/></svg>