<svg xmlns="http://www.w3.org/2000/svg" xmlns:xlink="http://www.w3.org/1999/xlink" viewBox="0 0 453.94 423.95" xmlns:v="https://vecta.io/nano"><defs><linearGradient id="A" x1="145.57" y1="168.64" x2="308.43" y2="168.64" gradientUnits="userSpaceOnUse"><stop offset="0" stop-color="#ff0"/><stop offset="1" stop-color="#eee8aa"/></linearGradient><linearGradient id="B" y1="168.07" x2="58.78" y2="168.07" gradientUnits="userSpaceOnUse"><stop offset="0" stop-color="#00bfff"/><stop offset="1" stop-color="#087cef"/></linearGradient><linearGradient id="C" x1="395.07" y1="168.11" x2="453.94" y2="168.11" xlink:href="#B"/><linearGradient id="D" x1="203.97" y1="386.99" x2="249.97" y2="386.99" xlink:href="#A"/><linearGradient id="E" x1="57.39" y1="167.59" x2="100.05" y2="167.59" xlink:href="#B"/><linearGradient id="F" x1="354.02" y1="168.04" x2="396.39" y2="168.04" xlink:href="#B"/></defs><path d="M272 0l10.07 5.82a55.24 55.24 0 0 1 23.25 27.64c4.68 12.06 2.15 24.35 2.85 36.54.19 3.34-2.46 3.9-5.2 3.89q-14.25 0-28.49 0c-6 0-9.82 2.35-10 6s4.19 6.8 9.9 6.82h28c5 0 5.84.84 5.86 5.8q.08 17 0 34c0 5-.69 5.61-5.94 5.65h-27a37.85 37.85 0 0 0-4 .07c-3.53.39-7 3.91-6.84 6.83s3.44 5.83 7 5.89c8.33.14 16.66.12 25 .06 13.55-.1 11.68.17 11.73 11.56q.06 14 0 28c0 5.57-.7 6.27-6.39 6.3h-28c-5.49 0-9.35 2.61-9.38 6.16s4.25 6.66 9.56 6.67h27.49c6.11 0 6.7.6 6.71 6.47q0 16.48 0 33c0 5.35-.62 6-6.1 6h-27a24.74 24.74 0 0 0-4.48.2c-3.09.55-6.17 3.89-6.16 6.43 0 2.78 3.34 6 6.81 6.13 3.83.19 7.66.08 11.5.08l20 .07c4.45.09 5.4 1 5.41 5.3 0 8.33.61 16.75-.37 25-1.43 12.07-7.23 22.35-16.2 30.61-10.3 9.48-22.3 14.44-36.6 14.17-19.49-.37-39-.21-58.48-.08-15 .09-27-6.2-36.94-16.81-9.21-9.83-14.42-21.4-14-35.18.17-5.16 0-10.33 0-15.49 0-7.09.41-7.52 7.73-7.55h26.49c5.51 0 9.32-2.46 9.49-6s-4.1-6.8-9.42-6.83h-28.49c-5.1 0-5.79-.74-5.8-5.78q-.06-16.75 0-33.49c0-5.38.72-6.14 6-6.17h26.5c1.33 0 2.67.06 4-.05 3.48-.28 7.15-3.6 7.24-6.45s-3.32-6.19-7.21-6.26c-8.33-.17-16.66-.11-25-.09-12.91 0-11.5.52-11.52-11.67v-28c0-5.22.83-6.11 6.09-6.16h26.49c1.33 0 2.67.05 4 0 3.82-.26 7.24-3.32 7.14-6.32s-3.75-6.3-7.23-6.43c-4.49-.17-9-.07-13.49-.08-6 0-12-.08-18 0-3.61.06-5.08-1.52-5.05-5.11l.06-35c0-4.39.91-5.31 5.28-5.36h27c1.34 0 2.67.06 4 0 3.8-.26 7.55-3.69 7.44-6.74s-3.56-6-7.45-6c-9-.11-18 0-27 0-1.83 0-3.81.36-5.45-.21-1.45-.51-3.57-2.08-3.58-3.21-.12-10.14-1.07-20.51.65-30.39 2.09-12 8.93-22.2 18.83-29.68 4.3-3.25 9.39-5.44 14.07-8.19A16.71 16.71 0 0 0 182 0z" fill="url(#A)"/><path d="M0 140c.91-1.48 2.33-2.86 2.65-4.46 4.42-22.21 13.9-42.12 27.5-60.08 4.2-5.55 9-10.65 13.62-15.88a8 8 0 0 1 9-2.55c5.69 1.8 7.81 7.54 4.16 12.22-4.36 5.61-9.4 10.75-13.7 16.42a129.64 129.64 0 0 0-23.3 49.18c-4.31 18.7-5.82 37.59-1.82 56.87 2.25 10.81 4.88 21.42 9.26 31.41a133.36 133.36 0 0 0 26.22 39.71 33.79 33.79 0 0 1 2.91 3.41c3.31 4.49 3 8-.88 11.38-3.11 2.67-8.59 2.78-11.37-.6-7.78-9.48-15.63-19-22.62-29C13.15 235.78 8.38 221.72 4 207.59c-.63-2.05-.57-4.32-1.28-6.34C2.19 199.7.94 198.39 0 197z" fill="url(#B)"/><path d="M453.94 196c-.87 1.31-2.3 2.54-2.54 4-2.57 15.25-8.48 29.35-15.74 42.78A143.3 143.3 0 0 1 410 276.89c-4.25 4.18-10.45 3.24-13.61-1.75-1.76-2.78-1.65-5.29.42-7.79l13.61-16.56a126 126 0 0 0 23.45-49.08c4.23-18.17 6.21-36.58 2.27-55.37-2.26-10.78-4.16-21.63-8.87-31.54a236.13 236.13 0 0 0-15.71-27.63c-4.15-6.34-9.61-11.84-14.45-17.74-2.24-2.72-2.78-5.53-.62-8.67 3.21-4.66 9.25-5.53 13.37-1.54a124.06 124.06 0 0 1 22.6 29 294.19 294.19 0 0 1 13.54 28.2c2.41 5.76 3.35 12.13 5.17 18.16.58 1.91 1.86 3.61 2.81 5.4z" fill="url(#C)"/><path d="M204,424q0-33.24.08-66.48c0-6.8.58-7.4,7.43-7.42q15.74,0,31.49,0c6.18,0,6.91.78,6.92,6.91q.06,33.48.08,67Z" fill="url(#D)"/><path d="M92.42 96.85c2.29 1.87 5 3.29 6.51 5.52 1.88 2.78 1.27 6.08-.89 8.84-3.58 4.58-7.66 8.85-10.7 13.76-11.53 18.69-16.24 38.54-10.82 60.54a83.62 83.62 0 0 0 19.86 37.38 17.25 17.25 0 0 1 2.16 2.74 8.19 8.19 0 0 1-1.75 10.81 7.6 7.6 0 0 1-10.43-.37 71.77 71.77 0 0 1-17.53-23.39c-3.88-8.57-7.76-17.43-9.57-26.57a89.14 89.14 0 0 1 .74-39.59c2.68-10.55 6.29-20.71 12.6-29.62A211 211 0 0 1 86.49 100c1.19-1.34 3.35-1.83 5.93-3.15z" fill="url(#E)"/><path d="M396.21 165c.35 28.32-9 50-25.95 68.78a21.09 21.09 0 0 1-3.37 3 7.71 7.71 0 0 1-10.05-.5c-3-2.74-3.78-6.58-1.54-9.93s5.14-6.54 7.67-9.83c6.67-8.67 11.72-18.11 13.75-29 1-5.55 2.83-11.09 2.9-16.65.28-21.09-6.43-39.81-20.42-55.77-1.1-1.25-2.26-2.46-3.25-3.79-2.85-3.82-2.39-7.76 1.21-11.1 3.39-3.16 7-3.22 10.61.12a86.12 86.12 0 0 1 20.43 29.25c5.19 12.06 9.08 24.61 8.01 35.42z" fill="url(#F)"/></svg>