<svg xmlns="http://www.w3.org/2000/svg" xmlns:xlink="http://www.w3.org/1999/xlink" viewBox="0 0 34.66 44.2"><defs><style>.cls-1,.cls-2{stroke:#000;stroke-miterlimit:10;}.cls-1{fill:url(#linear-gradient);}.cls-2{fill:url(#linear-gradient-2);}.cls-3{fill:url(#linear-gradient-3);}.cls-4{fill:url(#linear-gradient-4);}</style><linearGradient id="linear-gradient" x1="20.41" y1="15.02" x2="14.13" y2="1.55" gradientUnits="userSpaceOnUse"><stop offset="0" stop-color="#3cb371"/><stop offset="1" stop-color="#20b2aa"/></linearGradient><linearGradient id="linear-gradient-2" x1="530.82" y1="1392.97" x2="221.21" y2="574.98" xlink:href="#linear-gradient"/><linearGradient id="linear-gradient-3" x1="20.41" y1="15.02" x2="14.13" y2="1.55" xlink:href="#linear-gradient"/><linearGradient id="linear-gradient-4" x1="530.82" y1="1392.97" x2="221.21" y2="574.98" xlink:href="#linear-gradient"/></defs><g id="Layer_2" data-name="Layer 2"><g id="Layer_1-2" data-name="Layer 1"><g id="Layer_2-2" data-name="Layer 2"><g id="Layer_1-2-2" data-name="Layer 1-2"><path class="cls-1" d="M17.33,16.34A7.92,7.92,0,1,0,9.41,8.42h0A7.94,7.94,0,0,0,17.33,16.34Z"/><path class="cls-2" d="M17.33,16.34A16.84,16.84,0,0,1,34.16,33.17v9.18a1.3,1.3,0,0,1-.1.52,1.52,1.52,0,0,1-.73.73,1.3,1.3,0,0,1-.52.1h-31A1.35,1.35,0,0,1,.5,42.35V33.17A16.84,16.84,0,0,1,17.33,16.34Z"/><path class="cls-3" d="M17.33,16.34A7.92,7.92,0,1,0,9.41,8.42h0A7.94,7.94,0,0,0,17.33,16.34Z"/><path class="cls-4" d="M17.33,16.34A16.84,16.84,0,0,1,34.16,33.17v9.18a1.3,1.3,0,0,1-.1.52,1.52,1.52,0,0,1-.73.73,1.3,1.3,0,0,1-.52.1h-31A1.35,1.35,0,0,1,.5,42.35V33.17A16.84,16.84,0,0,1,17.33,16.34Z"/></g></g></g></g></svg>