<svg xmlns="http://www.w3.org/2000/svg" viewBox="0 0 41.56 47"><defs><style>.cls-1,.cls-2,.cls-3,.cls-4{fill:none;}.cls-1,.cls-2{stroke:#000;stroke-linecap:round;stroke-linejoin:round;}.cls-2,.cls-4{isolation:isolate;opacity:0.5;}</style></defs><g id="Layer_2" data-name="Layer 2"><g id="Layer_1-2" data-name="Layer 1"><path class="cls-1" d="M3.14.5H7.58v46H3.14a2.73,2.73,0,0,1-1-.2,2.69,2.69,0,0,1-.86-.59A2.64,2.64,0,0,1,.5,43.82V3.14A2.63,2.63,0,0,1,3.14.5Z"/><path class="cls-1" d="M9.74.5H38.42a2.67,2.67,0,0,1,1,.2,2.75,2.75,0,0,1,.86.57,2.75,2.75,0,0,1,.57.86,2.67,2.67,0,0,1,.2,1V43.82a2.67,2.67,0,0,1-.2,1,2.6,2.6,0,0,1-1.43,1.43,2.67,2.67,0,0,1-1,.2H9.74Z"/><path class="cls-1" d="M33.14,12.8l-3-3.3-.07-.06h-.19l-.07.06-3,3.3a.24.24,0,0,1-.11.06.19.19,0,0,1-.13,0,.28.28,0,0,1-.11-.08.25.25,0,0,1,0-.12V.72a.25.25,0,0,1,.06-.16A.25.25,0,0,1,26.64.5h6.67a.25.25,0,0,1,.16.06.25.25,0,0,1,.06.16V12.65a.25.25,0,0,1,0,.12.28.28,0,0,1-.11.08.19.19,0,0,1-.13,0A.24.24,0,0,1,33.14,12.8Z"/><path class="cls-2" d="M34.19,38.78H26.87a1,1,0,0,0-1,1V42a1,1,0,0,0,1,1h7.32a1,1,0,0,0,1-1V39.8A1,1,0,0,0,34.19,38.78Z"/><path class="cls-3" d="M3.14.5H7.58v46H3.14a2.73,2.73,0,0,1-1-.2,2.69,2.69,0,0,1-.86-.59A2.64,2.64,0,0,1,.5,43.82V3.14A2.63,2.63,0,0,1,3.14.5Z"/><path class="cls-3" d="M9.74.5H38.42a2.67,2.67,0,0,1,1,.2,2.75,2.75,0,0,1,.86.57,2.75,2.75,0,0,1,.57.86,2.67,2.67,0,0,1,.2,1V43.82a2.67,2.67,0,0,1-.2,1,2.6,2.6,0,0,1-1.43,1.43,2.67,2.67,0,0,1-1,.2H9.74Z"/><path class="cls-3" d="M33.14,12.8l-3-3.3-.07-.06h-.19l-.07.06-3,3.3a.24.24,0,0,1-.11.06.19.19,0,0,1-.13,0,.28.28,0,0,1-.11-.08.25.25,0,0,1,0-.12V.72a.25.25,0,0,1,.06-.16A.25.25,0,0,1,26.64.5h6.67a.25.25,0,0,1,.16.06.25.25,0,0,1,.06.16V12.65a.25.25,0,0,1,0,.12.28.28,0,0,1-.11.08.19.19,0,0,1-.13,0A.24.24,0,0,1,33.14,12.8Z"/><path class="cls-4" d="M34.19,38.78H26.87a1,1,0,0,0-1,1V42a1,1,0,0,0,1,1h7.32a1,1,0,0,0,1-1V39.8A1,1,0,0,0,34.19,38.78Z"/></g></g></svg>