<svg xmlns="http://www.w3.org/2000/svg" viewBox="0 0 48.93 48"><defs><style>.cls-1,.cls-2{fill:none;}.cls-1{stroke:#000;stroke-linecap:round;stroke-linejoin:round;}</style></defs><g id="Layer_2" data-name="Layer 2"><g id="Layer_1-2" data-name="Layer 1"><path class="cls-1" d="M47.94,21.82H46.13a.49.49,0,0,0-.36.15.5.5,0,0,0-.14.35V47a.51.51,0,0,1-.15.35.49.49,0,0,1-.35.15H37.7l-1.22-2.21A10.83,10.83,0,0,0,27,39.7H22A10.77,10.77,0,0,0,12.69,45l-1.45,2.5H3.8a.49.49,0,0,1-.36-.15A.5.5,0,0,1,3.3,47V22.32A.51.51,0,0,0,3.15,22a.49.49,0,0,0-.35-.15H1a.48.48,0,0,1-.29-.09.53.53,0,0,1-.19-.23.51.51,0,0,1,0-.3.48.48,0,0,1,.16-.26L24.15.62A.47.47,0,0,1,24.47.5a.52.52,0,0,1,.33.12L48.26,20.94a.5.5,0,0,1,.15.25.51.51,0,0,1,0,.3.48.48,0,0,1-.18.24A.47.47,0,0,1,47.94,21.82Z"/><path class="cls-1" d="M37.69,47.5H11.23L12.68,45a10.86,10.86,0,0,1,4-3.89A10.71,10.71,0,0,1,22,39.7h5a10.77,10.77,0,0,1,9.46,5.59Z"/><path class="cls-2" d="M47.94,21.82H46.13a.49.49,0,0,0-.36.15.5.5,0,0,0-.14.35V47a.51.51,0,0,1-.15.35.49.49,0,0,1-.35.15H37.7l-1.22-2.21A10.83,10.83,0,0,0,27,39.7H22A10.77,10.77,0,0,0,12.69,45l-1.45,2.5H3.8a.49.49,0,0,1-.36-.15A.5.5,0,0,1,3.3,47V22.32A.51.51,0,0,0,3.15,22a.49.49,0,0,0-.35-.15H1a.48.48,0,0,1-.29-.09.53.53,0,0,1-.19-.23.51.51,0,0,1,0-.3.48.48,0,0,1,.16-.26L24.15.62A.47.47,0,0,1,24.47.5a.52.52,0,0,1,.33.12L48.26,20.94a.5.5,0,0,1,.15.25.51.51,0,0,1,0,.3.48.48,0,0,1-.18.24A.47.47,0,0,1,47.94,21.82Z"/><path class="cls-2" d="M37.69,47.5H11.23L12.68,45a10.86,10.86,0,0,1,4-3.89A10.71,10.71,0,0,1,22,39.7h5a10.77,10.77,0,0,1,9.46,5.59Z"/></g></g></svg>