<svg xmlns="http://www.w3.org/2000/svg" viewBox="0 0 34.66 44.2"><defs><style>.cls-1,.cls-2{fill:none;}.cls-1{stroke:#000;stroke-miterlimit:10;}</style></defs><g id="Layer_2" data-name="Layer 2"><g id="Layer_1-2" data-name="Layer 1"><path class="cls-1" d="M17.33,16.34A7.92,7.92,0,1,0,9.41,8.42,7.93,7.93,0,0,0,17.33,16.34Z"/><path class="cls-1" d="M17.33,16.34A16.83,16.83,0,0,1,34.16,33.17v9.18a1.34,1.34,0,0,1-.1.52,1.5,1.5,0,0,1-.73.73,1.34,1.34,0,0,1-.52.1h-31A1.35,1.35,0,0,1,.5,42.35V33.17A16.83,16.83,0,0,1,17.33,16.34Z"/><path class="cls-2" d="M17.33,16.34A7.92,7.92,0,1,0,9.41,8.42,7.93,7.93,0,0,0,17.33,16.34Z"/><path class="cls-2" d="M17.33,16.34A16.83,16.83,0,0,1,34.16,33.17v9.18a1.34,1.34,0,0,1-.1.52,1.5,1.5,0,0,1-.73.73,1.34,1.34,0,0,1-.52.1h-31A1.35,1.35,0,0,1,.5,42.35V33.17A16.83,16.83,0,0,1,17.33,16.34Z"/></g></g></svg>