<svg xmlns="http://www.w3.org/2000/svg" xmlns:xlink="http://www.w3.org/1999/xlink" viewBox="0 0 41.55 47"><defs><style>.cls-1,.cls-2,.cls-3,.cls-4{stroke:#000;stroke-linecap:round;stroke-linejoin:round;}.cls-1{fill:url(#linear-gradient);}.cls-2{fill:url(#linear-gradient-2);}.cls-3,.cls-7{fill:#f7ff6a;}.cls-4,.cls-8{fill:#fff;isolation:isolate;opacity:0.5;}.cls-5{fill:url(#linear-gradient-3);}.cls-6{fill:url(#linear-gradient-4);}</style><linearGradient id="linear-gradient" x1="3.79" y1="-5.99" x2="4.27" y2="44.65" gradientTransform="translate(0 2)" gradientUnits="userSpaceOnUse"><stop offset="0" stop-color="#3cb371"/><stop offset="1" stop-color="#20b2aa"/></linearGradient><linearGradient id="linear-gradient-2" x1="22.53" y1="-183.3" x2="54.9" y2="2143.87" gradientTransform="translate(0 2)" gradientUnits="userSpaceOnUse"><stop offset="0" stop-color="#03cb37"/><stop offset="1" stop-color="#20b2aa"/></linearGradient><linearGradient id="linear-gradient-3" x1="3.79" y1="-5.99" x2="4.27" y2="44.65" xlink:href="#linear-gradient-2"/><linearGradient id="linear-gradient-4" x1="25.4" y1="-1" x2="25.4" y2="44" xlink:href="#linear-gradient"/></defs><g id="Layer_2" data-name="Layer 2"><g id="Layer_1-2" data-name="Layer 1"><g id="Layer_2-2" data-name="Layer 2"><g id="Layer_1-2-2" data-name="Layer 1-2"><path class="cls-1" d="M3.14.5H7.58v46H3.14a2.66,2.66,0,0,1-1-.2,2.81,2.81,0,0,1-.86-.59A2.67,2.67,0,0,1,.5,43.82V3.14A2.63,2.63,0,0,1,3.12.5Z"/><path class="cls-2" d="M9.74.5H38.42a2.66,2.66,0,0,1,1,.2,2.75,2.75,0,0,1,.86.57,2.75,2.75,0,0,1,.57.86,2.66,2.66,0,0,1,.2,1V43.82a2.66,2.66,0,0,1-.2,1,2.58,2.58,0,0,1-1.43,1.43,2.66,2.66,0,0,1-1,.2H9.74Z"/><path class="cls-3" d="M33.14,12.8l-3-3.3-.07-.06h-.19l-.07.06-3,3.3a.24.24,0,0,1-.11.06.15.15,0,0,1-.13,0,.28.28,0,0,1-.11-.08.24.24,0,0,1,0-.12V.72a.23.23,0,0,1,.06-.16A.27.27,0,0,1,26.64.5h6.67a.23.23,0,0,1,.16.06.23.23,0,0,1,.06.16V12.65a.24.24,0,0,1,0,.12.28.28,0,0,1-.11.08.15.15,0,0,1-.13,0A.27.27,0,0,1,33.14,12.8Z"/><path class="cls-4" d="M34.19,38.78H26.87a1,1,0,0,0-1,1V42a1,1,0,0,0,1,1h7.32a1,1,0,0,0,1-1V39.8a1,1,0,0,0-1-1Z"/><path class="cls-5" d="M3.14.5H7.58v46H3.14a2.66,2.66,0,0,1-1-.2,2.81,2.81,0,0,1-.86-.59A2.67,2.67,0,0,1,.5,43.82V3.14A2.63,2.63,0,0,1,3.12.5Z"/><path class="cls-6" d="M9.74.5H38.42a2.66,2.66,0,0,1,1,.2,2.75,2.75,0,0,1,.86.57,2.75,2.75,0,0,1,.57.86,2.66,2.66,0,0,1,.2,1V43.82a2.66,2.66,0,0,1-.2,1,2.58,2.58,0,0,1-1.43,1.43,2.66,2.66,0,0,1-1,.2H9.74Z"/><path class="cls-7" d="M33.14,12.8l-3-3.3-.07-.06h-.19l-.07.06-3,3.3a.24.24,0,0,1-.11.06.15.15,0,0,1-.13,0,.28.28,0,0,1-.11-.08.24.24,0,0,1,0-.12V.72a.23.23,0,0,1,.06-.16A.27.27,0,0,1,26.64.5h6.67a.23.23,0,0,1,.16.06.23.23,0,0,1,.06.16V12.65a.24.24,0,0,1,0,.12.28.28,0,0,1-.11.08.15.15,0,0,1-.13,0A.27.27,0,0,1,33.14,12.8Z"/><path class="cls-8" d="M34.19,38.78H26.87a1,1,0,0,0-1,1V42a1,1,0,0,0,1,1h7.32a1,1,0,0,0,1-1V39.8a1,1,0,0,0-1-1Z"/></g></g></g></g></svg>