<svg xmlns="http://www.w3.org/2000/svg" xmlns:xlink="http://www.w3.org/1999/xlink" viewBox="0 0 35.82 47"><defs><style>.cls-1,.cls-2{stroke:#000;stroke-miterlimit:10;}.cls-1,.cls-3{fill:url(#linear-gradient);}.cls-2{fill:url(#linear-gradient-2);}.cls-4{fill:url(#linear-gradient-4);}</style><linearGradient id="linear-gradient" x1="24.52" y1="30.25" x2="11.02" y2="1.27" gradientTransform="translate(0 2)" gradientUnits="userSpaceOnUse"><stop offset="0" stop-color="#3cb371"/><stop offset="1" stop-color="#20b2aa"/></linearGradient><linearGradient id="linear-gradient-2" x1="1225.87" y1="43.68" x2="28.81" y2="33.65" xlink:href="#linear-gradient"/><linearGradient id="linear-gradient-4" x1="1225.87" y1="43.68" x2="28.81" y2="33.65" xlink:href="#linear-gradient"/></defs><g id="Layer_2" data-name="Layer 2"><g id="Layer_1-2" data-name="Layer 1"><g id="Layer_2-2" data-name="Layer 2"><g id="Layer_1-2-2" data-name="Layer 1-2"><path class="cls-1" d="M17.92.5h0A12.1,12.1,0,0,0,5.81,12.59h0V23.5a12.1,12.1,0,0,0,12.1,12.1h0A12.1,12.1,0,0,0,30,23.5V12.6A12.11,12.11,0,0,0,17.92.5Z"/><path class="cls-2" d="M35.32,25.25c0,5.73-4.6,14.77-16.91,15V46a.5.5,0,0,1-1,0V40.26C5.8,40.05.5,32.38.5,25.25a.47.47,0,0,1,.15-.35A.47.47,0,0,1,1,24.75a.47.47,0,0,1,.35.15.47.47,0,0,1,.15.35c0,6.75,5.13,14,16.41,14,12,0,16.41-8.6,16.41-14a.5.5,0,0,1,1,0Z"/><path class="cls-3" d="M17.92.5h0A12.1,12.1,0,0,0,5.81,12.59h0V23.5a12.1,12.1,0,0,0,12.1,12.1h0A12.1,12.1,0,0,0,30,23.5V12.6A12.11,12.11,0,0,0,17.92.5Z"/><path class="cls-4" d="M35.32,25.25c0,5.73-4.6,14.77-16.91,15V46a.5.5,0,0,1-1,0V40.26C5.8,40.05.5,32.38.5,25.25a.47.47,0,0,1,.15-.35A.47.47,0,0,1,1,24.75a.47.47,0,0,1,.35.15.47.47,0,0,1,.15.35c0,6.75,5.13,14,16.41,14,12,0,16.41-8.6,16.41-14a.5.5,0,0,1,1,0Z"/></g></g></g></g></svg>