<svg xmlns="http://www.w3.org/2000/svg" xmlns:xlink="http://www.w3.org/1999/xlink" viewBox="0 0 48.94 48"><defs><style>.cls-1,.cls-2{stroke:#000;stroke-linecap:round;stroke-linejoin:round;}.cls-1{fill:url(#linear-gradient);}.cls-2{fill:url(#linear-gradient-2);}.cls-3{fill:url(#linear-gradient-3);}.cls-4{fill:url(#linear-gradient-4);}</style><linearGradient id="linear-gradient" x1="24.47" y1="-5.54" x2="24.47" y2="46.61" gradientTransform="translate(0 2)" gradientUnits="userSpaceOnUse"><stop offset="0" stop-color="#3cb371"/><stop offset="1" stop-color="#20b2aa"/></linearGradient><linearGradient id="linear-gradient-2" x1="24.24" y1="34.96" x2="24.48" y2="46.48" xlink:href="#linear-gradient"/><linearGradient id="linear-gradient-3" x1="24.47" y1="-5.54" x2="24.47" y2="46.61" xlink:href="#linear-gradient"/><linearGradient id="linear-gradient-4" x1="24.24" y1="34.96" x2="24.48" y2="46.48" xlink:href="#linear-gradient"/></defs><g id="Layer_2" data-name="Layer 2"><g id="Layer_1-2" data-name="Layer 1"><g id="Layer_2-2" data-name="Layer 2"><g id="Layer_1-2-2" data-name="Layer 1-2"><path class="cls-1" d="M47.94,21.82H46.13a.51.51,0,0,0-.36.15.5.5,0,0,0-.14.35V47a.51.51,0,0,1-.5.5H37.7l-1.22-2.21A10.82,10.82,0,0,0,27,39.7H22A10.78,10.78,0,0,0,12.69,45l-1.45,2.5H3.8a.51.51,0,0,1-.36-.15A.5.5,0,0,1,3.3,47V22.32A.5.5,0,0,0,3.15,22a.47.47,0,0,0-.35-.15H1a.52.52,0,0,1-.29-.09.6.6,0,0,1-.19-.23.51.51,0,0,1,0-.3A.54.54,0,0,1,.68,21L24.15.62A.47.47,0,0,1,24.47.5a.5.5,0,0,1,.33.12L48.26,20.94a.44.44,0,0,1,.15.25.51.51,0,0,1,0,.3.43.43,0,0,1-.18.24A.48.48,0,0,1,47.94,21.82Z"/><path class="cls-2" d="M37.69,47.5H11.23L12.68,45a10.89,10.89,0,0,1,4-3.89A10.69,10.69,0,0,1,22,39.7h5a10.76,10.76,0,0,1,9.46,5.59Z"/><path class="cls-3" d="M47.94,21.82H46.13a.51.51,0,0,0-.36.15.5.5,0,0,0-.14.35V47a.51.51,0,0,1-.5.5H37.7l-1.22-2.21A10.82,10.82,0,0,0,27,39.7H22A10.78,10.78,0,0,0,12.69,45l-1.45,2.5H3.8a.51.51,0,0,1-.36-.15A.5.5,0,0,1,3.3,47V22.32A.5.5,0,0,0,3.15,22a.47.47,0,0,0-.35-.15H1a.52.52,0,0,1-.29-.09.6.6,0,0,1-.19-.23.51.51,0,0,1,0-.3A.54.54,0,0,1,.68,21L24.15.62A.47.47,0,0,1,24.47.5a.5.5,0,0,1,.33.12L48.26,20.94a.44.44,0,0,1,.15.25.51.51,0,0,1,0,.3.43.43,0,0,1-.18.24A.48.48,0,0,1,47.94,21.82Z"/><path class="cls-4" d="M37.69,47.5H11.23L12.68,45a10.89,10.89,0,0,1,4-3.89A10.69,10.69,0,0,1,22,39.7h5a10.76,10.76,0,0,1,9.46,5.59Z"/></g></g></g></g></svg>