<svg xmlns="http://www.w3.org/2000/svg" width="16.011" height="19.56" viewBox="0 0 16.011 19.56">
  <g id="bookmark" transform="translate(-110.994 -266.25)">
    <g id="Iconly_Light_Bookmark" data-name="Iconly/Light/Bookmark" transform="translate(111.744 267)">
      <g id="Bookmark-2" data-name="Bookmark">
        <path id="Path_33968" d="M6.9,14.846,1.346,17.889A.926.926,0,0,1,.111,17.52h0A.977.977,0,0,1,0,17.083V3.6C0,1.029,1.757,0,4.286,0h5.94c2.451,0,4.286.96,4.286,3.429V17.083a.917.917,0,0,1-.917.917,1.011,1.011,0,0,1-.446-.111L7.56,14.846A.694.694,0,0,0,6.9,14.846Z" fill="none" stroke="#fff" stroke-linecap="round" stroke-linejoin="round" stroke-miterlimit="10" stroke-width="1.5"/>
        <path id="Line_209" d="M0,.458H6.831" transform="translate(3.814 5.671)" fill="none" stroke="#fff" stroke-linecap="round" stroke-linejoin="round" stroke-miterlimit="10" stroke-width="1.5"/>
      </g>
    </g>
  </g>
</svg>
