<svg xmlns="http://www.w3.org/2000/svg" width="44" height="44" viewBox="0 0 44 44">
  <g id="facebook" transform="translate(-59.703 12)">
    <circle id="Ellipse_188" data-name="Ellipse 188" cx="22" cy="22" r="22" transform="translate(59.703 -12)" fill="#315fc1"/>
    <path id="XMLID_835_" d="M77.026,10.652h2.192v9.025A.323.323,0,0,0,79.54,20h3.717a.323.323,0,0,0,.323-.323V10.695H86.1a.323.323,0,0,0,.32-.286L86.8,7.086a.323.323,0,0,0-.32-.359h-2.9V4.644c0-.628.338-.946,1-.946h1.9a.323.323,0,0,0,.323-.323V.325A.323.323,0,0,0,86.483,0H83.868c-.018,0-.059,0-.12,0A5.013,5.013,0,0,0,80.47,1.236a3.437,3.437,0,0,0-1.143,3.055V6.727h-2.3a.323.323,0,0,0-.323.323v3.28A.323.323,0,0,0,77.026,10.652Z" fill="#fff"/>
  </g>
</svg>
