<svg id="Buy" xmlns="http://www.w3.org/2000/svg" width="24" height="24" viewBox="0 0 24 24">
  <rect id="Rectangle_1527" data-name="Rectangle 1527" width="24" height="24" fill="none"/>
  <path id="Stroke_1" data-name="Stroke 1" d="M.764,0A.765.765,0,1,1,0,.765.766.766,0,0,1,.764,0Z" transform="translate(6.408 19.471)" fill="none" stroke="#000" stroke-linecap="round" stroke-linejoin="round" stroke-miterlimit="10" stroke-width="1.5"/>
  <path id="Stroke_3" data-name="Stroke 3" d="M.765,0A.765.765,0,1,1,0,.765.766.766,0,0,1,.765,0Z" transform="translate(17.66 19.471)" fill="none" stroke="#000" stroke-linecap="round" stroke-linejoin="round" stroke-miterlimit="10" stroke-width="1.5"/>
  <path id="Stroke_5" data-name="Stroke 5" d="M0,0,2.08.36l.963,11.473a1.8,1.8,0,0,0,1.8,1.653H15.752a1.8,1.8,0,0,0,1.785-1.546l.949-6.558a1.341,1.341,0,0,0-1.327-1.533H2.414" transform="translate(2.5 2.901)" fill="none" stroke="#000" stroke-linecap="round" stroke-linejoin="round" stroke-miterlimit="10" stroke-width="1.5"/>
  <path id="Stroke_7" data-name="Stroke 7" d="M0,.5H2.773" transform="translate(13.875 9.946)" fill="none" stroke="#000" stroke-linecap="round" stroke-linejoin="round" stroke-miterlimit="10" stroke-width="1.5"/>
</svg>
