<svg xmlns="http://www.w3.org/2000/svg" width="42" height="42" viewBox="0 0 42 42">
  <g id="Group_1246" data-name="Group 1246" transform="translate(-286 -961)">
    <g id="Group_1245" data-name="Group 1245" transform="translate(-2544.953 657.513)">
      <g id="Ellipse_375" data-name="Ellipse 375" transform="translate(2830.953 303.487)" fill="#fff" stroke="#e9c145" stroke-width="1">
        <circle cx="21" cy="21" r="21" stroke="none"/>
        <circle cx="21" cy="21" r="20.5" fill="none"/>
      </g>
      <path id="Union_53" data-name="Union 53" d="M-5232.19-8320.182c-.581-1-.941-1.882-.8-1.962s.723.666,1.3,1.67.941,1.882.8,1.962a.046.046,0,0,1-.023.006A4.8,4.8,0,0,1-5232.19-8320.182Zm-5.767-1.686c-.176-.7-.191-1.306-.036-1.343s.421.5.6,1.205.188,1.3.033,1.343a.042.042,0,0,1-.016,0C-5237.535-8320.66-5237.789-8321.187-5237.957-8321.867Zm10.269-1.507c-1.031-.947-1.781-1.811-1.672-1.928s1.033.556,2.064,1.5,1.781,1.813,1.672,1.928a.052.052,0,0,1-.039.014A7.431,7.431,0,0,1-5227.688-8323.374Zm-2.433.68c-.291-.4-.421-.8-.293-.891s.47.15.761.551.421.8.293.891a.112.112,0,0,1-.068.021C-5229.587-8322.123-5229.872-8322.354-5230.122-8322.694Zm-20.345-3.165c-.067-.145.662-.62,1.628-1.064s1.8-.681,1.872-.536-.664.622-1.63,1.064a5.937,5.937,0,0,1-1.744.578C-5250.41-8325.817-5250.453-8325.831-5250.466-8325.859Zm24.077-1.937c-.828-.335-1.452-.725-1.391-.874s.777,0,1.607.338,1.452.725,1.391.874c-.015.038-.075.056-.169.056A4.843,4.843,0,0,1-5226.389-8327.8Zm-29.658-1.917a5.963,5.963,0,0,1,2.473-.759,6,6,0,0,1,2.58-.191,5.937,5.937,0,0,1-2.473.759,13.7,13.7,0,0,1-2.194.27C-5255.9-8329.635-5256.037-8329.66-5256.047-8329.713Zm32.871-1.353a8.711,8.711,0,0,1-3.079-.551,8.629,8.629,0,0,1,3.129-.027,8.639,8.639,0,0,1,3.081.554c-.006.084-.4.127-1.028.127C-5221.63-8330.963-5222.368-8331-5223.176-8331.065Zm-30.765-2.257c-.027-.159.4-.362.952-.459s1.022-.046,1.048.111-.4.362-.949.459a3.113,3.113,0,0,1-.527.049C-5253.715-8333.162-5253.923-8333.219-5253.941-8333.322Zm26.949-1.295c-.059-.151.436-.482,1.1-.744s1.257-.354,1.316-.2-.436.479-1.1.742a3.538,3.538,0,0,1-1.108.275C-5226.9-8334.547-5226.974-8334.569-5226.993-8334.617Zm-26.569-1.031a5.92,5.92,0,0,1-2.485-.653,5.85,5.85,0,0,1,2.569.081,5.9,5.9,0,0,1,2.485.654c-.01.066-.216.1-.556.1A15.351,15.351,0,0,1-5253.562-8335.648Zm2.754-3.6c-.7-.348-1.205-.746-1.134-.891s.7.023,1.394.373,1.205.748,1.134.891c-.017.034-.067.051-.142.051A3.61,3.61,0,0,1-5250.808-8339.253Zm23.235.373c-.082-.139.889-.874,2.167-1.643a6.554,6.554,0,0,1,2.467-1.148c.082.136-.889.873-2.169,1.643a9.267,9.267,0,0,1-2.4,1.17C-5227.543-8338.858-5227.564-8338.865-5227.573-8338.88Zm-3.366-2.789c-.127-.1.088-.592.48-1.1s.815-.841.941-.744-.09.589-.482,1.1c-.346.45-.715.763-.883.763A.092.092,0,0,1-5230.939-8341.669Zm-19.6-2.2c-.891-.975-1.517-1.851-1.4-1.959s.937.595,1.825,1.567,1.518,1.851,1.4,1.96a.049.049,0,0,1-.033.011A6.472,6.472,0,0,1-5250.542-8343.87Zm4.307-.708c-.216-.64-.271-1.2-.117-1.249s.448.426.664,1.063.269,1.2.118,1.251a.069.069,0,0,1-.024,0C-5245.754-8343.51-5246.032-8343.971-5246.235-8344.578Zm12.348.276a8.043,8.043,0,0,1,.972-2.856,8.051,8.051,0,0,1,1.5-2.617,8.014,8.014,0,0,1-.972,2.856,8.85,8.85,0,0,1-1.488,2.62A.027.027,0,0,1-5233.887-8344.3Zm-3.211-.368c-.157-.029-.174-.644-.036-1.371s.375-1.291.535-1.262.172.644.036,1.371c-.135.707-.366,1.263-.522,1.263Zm-4.732-3a7.18,7.18,0,0,1-.216-2.84,7.125,7.125,0,0,1,.786,2.736,7.156,7.156,0,0,1,.214,2.84h-.005A7.5,7.5,0,0,1-5241.83-8347.671Z" transform="translate(8090.613 8657.938)" fill="#e9c145" stroke="rgba(0,0,0,0)" stroke-miterlimit="10" stroke-width="1"/>
      <g id="Group_1135" data-name="Group 1135" transform="translate(2843.528 329.61)">
        <g id="Group_1134" data-name="Group 1134" transform="translate(0 0)">
          <g id="Group_1133" data-name="Group 1133">
            <path id="Path_4786" data-name="Path 4786" d="M3064.25,868.806l-2.09,4a1.924,1.924,0,0,0-.131,1.468l.375,1.195a1.354,1.354,0,0,0,.664.794l1.231.643a1.353,1.353,0,0,0,1.031.092l1.347-.422a1.925,1.925,0,0,0,1.13-.945l2.038-3.9Z" transform="translate(-3061.94 -868.806)" fill="#fff"/>
          </g>
        </g>
      </g>
      <g id="Group_1138" data-name="Group 1138" transform="translate(2842.946 329.029)">
        <g id="Group_1137" data-name="Group 1137" transform="translate(0 0)">
          <g id="Group_1136" data-name="Group 1136">
            <path id="Path_4787" data-name="Path 4787" d="M3052.186,864.93a1.926,1.926,0,0,1-.894-.221l-1.231-.643a1.919,1.919,0,0,1-.949-1.135l-.375-1.195a2.49,2.49,0,0,1,.17-1.91l2.09-4a.581.581,0,0,1,.784-.246l5.6,2.924a.581.581,0,0,1,.246.784l-2.038,3.9a2.49,2.49,0,0,1-1.471,1.231l-1.347.423A1.945,1.945,0,0,1,3052.186,864.93Zm-.428-8.052-1.821,3.486a1.337,1.337,0,0,0-.091,1.025l.375,1.195a.767.767,0,0,0,.379.453l1.231.643a.766.766,0,0,0,.589.052l1.347-.423a1.353,1.353,0,0,0,.789-.66l1.769-3.385Z" transform="translate(-3048.621 -855.513)" fill="#371a45"/>
          </g>
        </g>
      </g>
      <g id="Group_1141" data-name="Group 1141" transform="translate(2844.206 315.294)">
        <g id="Group_1140" data-name="Group 1140" transform="translate(0 0)">
          <g id="Group_1139" data-name="Group 1139">
            <path id="Path_4788" data-name="Path 4788" d="M3093.22,553.442a8.365,8.365,0,1,0-14.475.608c-.786,1.7.462,3.553,2.6,4.669,2.188,1.143,4.488,1.064,5.384-.651.034-.065.064-.131.093-.2A8.354,8.354,0,0,0,3093.22,553.442Z" transform="translate(-3077.441 -541.202)" fill="#fff031"/>
          </g>
        </g>
      </g>
      <g id="Group_1145" data-name="Group 1145" transform="translate(2845.279 317.312)" opacity="0.3">
        <g id="Group_1144" data-name="Group 1144" transform="translate(0 0)">
          <g id="Group_1143" data-name="Group 1143">
            <g id="Group_1142" data-name="Group 1142">
              <path id="Path_4789" data-name="Path 4789" d="M3114.749,587.371a8.361,8.361,0,0,1-6.754,11.4c-.028.067-.059.133-.093.2-.9,1.715-3.2,1.795-5.384.651-.176-.092-.344-.191-.507-.292.036,1.349,1.159,2.671,2.829,3.544,2.188,1.143,4.488,1.064,5.384-.651.034-.065.064-.131.093-.2a8.363,8.363,0,0,0,4.43-14.651Z" transform="translate(-3102.012 -587.371)" fill="#371a45"/>
            </g>
          </g>
        </g>
      </g>
      <g id="Group_1152" data-name="Group 1152" transform="translate(2844.206 315.294)" opacity="0.5">
        <g id="Group_1148" data-name="Group 1148" transform="translate(1.072 13.659)">
          <g id="Group_1147" data-name="Group 1147">
            <g id="Group_1146" data-name="Group 1146">
              <path id="Path_4790" data-name="Path 4790" d="M3102.449,854.6a8.352,8.352,0,0,1-.451-.816,2.718,2.718,0,0,0,.257,1.428A2.551,2.551,0,0,1,3102.449,854.6Z" transform="translate(-3101.985 -853.782)" fill="#fff"/>
            </g>
          </g>
        </g>
        <g id="Group_1151" data-name="Group 1151" transform="translate(0 0)">
          <g id="Group_1150" data-name="Group 1150">
            <g id="Group_1149" data-name="Group 1149">
              <path id="Path_4791" data-name="Path 4791" d="M3078.641,547.32a8.363,8.363,0,0,1,15.537,1.889,8.363,8.363,0,1,0-16.479,2.343A8.317,8.317,0,0,1,3078.641,547.32Z" transform="translate(-3077.457 -541.202)" fill="#fff"/>
            </g>
          </g>
        </g>
      </g>
      <g id="Group_1155" data-name="Group 1155" transform="translate(2843.631 314.716)">
        <g id="Group_1154" data-name="Group 1154" transform="translate(0 0)">
          <g id="Group_1153" data-name="Group 1153">
            <path id="Path_4792" data-name="Path 4792" d="M3071.553,547.414a6.681,6.681,0,0,1-3.052-.828c-2.45-1.281-3.61-3.307-2.977-5.13a8.944,8.944,0,0,1,11.851-12.464,8.945,8.945,0,0,1,3.786,12.071h0a8.951,8.951,0,0,1-6.527,4.691A3.34,3.34,0,0,1,3071.553,547.414Zm1.692-18.277a7.782,7.782,0,0,0-6.583,11.954.581.581,0,0,1,.037.554c-.691,1.5.678,3.042,2.341,3.911s3.808,1.11,4.6-.405c.027-.051.051-.1.073-.156a.581.581,0,0,1,.464-.349,7.789,7.789,0,0,0,5.955-4.121h0a7.782,7.782,0,0,0-6.886-11.388Z" transform="translate(-3064.292 -527.976)" fill="#371a45"/>
          </g>
        </g>
      </g>
      <g id="Group_1158" data-name="Group 1158" transform="translate(2846.223 323.428)">
        <g id="Group_1157" data-name="Group 1157" transform="translate(0 0)">
          <g id="Group_1156" data-name="Group 1156">
            <path id="Path_4793" data-name="Path 4793" d="M3124.076,736.232a.465.465,0,0,1-.349-.771,15.449,15.449,0,0,0,2.233-3.427c-1.979-1.406-1.9-2.809-1.812-3.259a1.6,1.6,0,0,1,3.164-.089,4.6,4.6,0,0,1-.2,2.982c.169.1.349.193.543.289a.465.465,0,1,1-.411.833c-.172-.085-.334-.17-.489-.256a16.808,16.808,0,0,1-2.332,3.541A.464.464,0,0,1,3124.076,736.232Zm1.666-7.964h-.031a.794.794,0,0,0-.651.686c-.113.565.2,1.369,1.25,2.181a3.508,3.508,0,0,0,.122-2.152C3126.277,728.526,3126.026,728.268,3125.742,728.268Z" transform="translate(-3123.611 -727.338)" fill="#371a45"/>
          </g>
        </g>
      </g>
      <g id="Group_1161" data-name="Group 1161" transform="translate(2848.738 326.363)">
        <g id="Group_1160" data-name="Group 1160" transform="translate(0 0)">
          <g id="Group_1159" data-name="Group 1159">
            <path id="Path_4794" data-name="Path 4794" d="M3181.629,801.783a.465.465,0,0,1-.452-.576,16.812,16.812,0,0,1,1.575-3.936q-.237-.116-.49-.255a.465.465,0,0,1,.449-.814q.283.156.547.281a4.607,4.607,0,0,1,2.334-1.866,1.6,1.6,0,0,1,1.734,2.648c-.319.331-1.426,1.2-3.711.374a15.4,15.4,0,0,0-1.537,3.791A.465.465,0,0,1,3181.629,801.783Zm2.524-4.944c1.27.4,2.106.2,2.506-.219a.793.793,0,0,0,.191-.926c-.154-.256-.518-.323-1-.184A3.509,3.509,0,0,0,3184.153,796.839Z" transform="translate(-3181.164 -794.511)" fill="#371a45"/>
          </g>
        </g>
      </g>
      <g id="Group_1164" data-name="Group 1164" transform="translate(2843.282 333.146)">
        <g id="Group_1163" data-name="Group 1163" transform="translate(0 0)">
          <g id="Group_1162" data-name="Group 1162">
            <path id="Path_4795" data-name="Path 4795" d="M3062.371,953.568l-.043,0a8.842,8.842,0,0,1-5.918-3.1.465.465,0,0,1,.738-.565h0a8.048,8.048,0,0,0,5.266,2.742.465.465,0,0,1-.042.927Z" transform="translate(-3056.314 -949.717)" fill="#371a45"/>
          </g>
        </g>
      </g>
      <g id="Group_1167" data-name="Group 1167" transform="translate(2844.056 331.665)">
        <g id="Group_1166" data-name="Group 1166" transform="translate(0 0)">
          <g id="Group_1165" data-name="Group 1165">
            <path id="Path_4796" data-name="Path 4796" d="M3080.076,919.685l-.043,0a8.843,8.843,0,0,1-5.919-3.1.465.465,0,0,1,.738-.565h0a8.048,8.048,0,0,0,5.266,2.742.465.465,0,0,1-.042.927Z" transform="translate(-3074.019 -915.834)" fill="#371a45"/>
          </g>
        </g>
      </g>
    </g>
  </g>
</svg>
