<svg xmlns="http://www.w3.org/2000/svg" width="20" height="19" viewBox="0 0 20 19">
  <g id="Heart" transform="translate(-282 -42.5)">
    <g id="Iconly_Bold_Heart" data-name="Iconly/Bold/Heart" transform="translate(282 42.5)">
      <g id="Heart-2" data-name="Heart" transform="translate(0)">
        <path id="Heart-3" data-name="Heart" d="M15.71.29A5.842,5.842,0,0,0,13.85,0,6.263,6.263,0,0,0,10,1.3a3.041,3.041,0,0,0-.3-.189C9.6,1.049,9.42.9,9.27.82L8.89.65A3.526,3.526,0,0,0,8.26.389.349.349,0,0,0,8.17.33H8.111A6.237,6.237,0,0,0,6.28,0H6.17a5.8,5.8,0,0,0-.84.06H5.21a4.519,4.519,0,0,0-.889.209C.59,1.49-.74,5.54.39,9.08a12.933,12.933,0,0,0,3.011,4.8,38.094,38.094,0,0,0,6.369,4.96l.26.161.25-.151a38.456,38.456,0,0,0,6.331-4.96A12.728,12.728,0,0,0,19.62,9.08C20.731,5.54,19.4,1.49,15.71.29Z" transform="translate(0 0)" fill="#f44336"/>
      </g>
    </g>
    <text id="VIP" transform="translate(285 55)" fill="#fff" font-size="10" font-family="Roboto-Regular, Roboto" letter-spacing="-0.01em"><tspan x="0" y="0">VIP</tspan></text>
  </g>
</svg>
