<svg xmlns="http://www.w3.org/2000/svg" width="25.5" height="27" viewBox="0 0 25.5 27">
  <g id="ic_ad" transform="translate(-217 -95)">
    <text id="AD" transform="translate(221 118)" font-size="22" font-family="SVN-AgencyFB, SVN-Agency FB"><tspan x="0" y="0">AD</tspan></text>
    <g id="Iconly_Light-outline_Close_Square" data-name="Iconly/Light-outline/Close Square" transform="translate(217 96)">
      <g id="Close_Square" data-name="Close Square" transform="translate(0 0)">
        <path id="Close_Square-2" data-name="Close Square" d="M18.275,25.5H7.222a7.013,7.013,0,0,1-5.238-2.1A7.706,7.706,0,0,1,0,17.957V7.543A7.7,7.7,0,0,1,1.987,2.106,7.011,7.011,0,0,1,7.222,0H18.276a7.015,7.015,0,0,1,5.239,2.1A7.705,7.705,0,0,1,25.5,7.543V17.957A7.7,7.7,0,0,1,23.515,23.4,7.016,7.016,0,0,1,18.275,25.5ZM7.222,1.913c-3.225,0-5.31,2.21-5.31,5.63V17.957c0,3.421,2.084,5.631,5.31,5.631H18.275c3.228,0,5.313-2.21,5.313-5.631V7.543a5.84,5.84,0,0,0-1.436-4.1,5.154,5.154,0,0,0-3.875-1.533Z" fill="#f44336"/>
      </g>
    </g>
    <path id="Union_36" data-name="Union 36" d="M-4295.051,4.95-4300,9.9l4.949-4.95L-4300,0l4.949,4.95L-4290.1,0l-4.95,4.95,4.95,4.95Z" transform="translate(4524.5 103.5)" fill="none" stroke="#f44336" stroke-linecap="round" stroke-linejoin="round" stroke-width="2"/>
  </g>
</svg>
