<svg xmlns="http://www.w3.org/2000/svg" width="24" height="24" viewBox="0 0 24 24">
  <g id="ic_camera" transform="translate(-83 -160)">
    <circle id="Ellipse_208" data-name="Ellipse 208" cx="12" cy="12" r="12" transform="translate(83 160)" fill="#53b451"/>
    <g id="Iconly_Bold_Camera" data-name="Iconly/Bold/Camera" transform="translate(88.333 166)">
      <g id="Camera">
        <path id="Camera-2" data-name="Camera" d="M10.427,12H2.906A2.908,2.908,0,0,1,0,9.1V5.141a2.908,2.908,0,0,1,2.906-2.9.132.132,0,0,0,.127-.08l.04-.08.055-.117C3.3,1.594,3.5,1.179,3.62.939A1.622,1.622,0,0,1,5.093,0h3.14a1.627,1.627,0,0,1,1.48.939c.1.21.264.546.418.872l.095.2.067.146a.15.15,0,0,0,.133.08,2.908,2.908,0,0,1,2.906,2.9V9.1A2.908,2.908,0,0,1,10.427,12ZM6.667,4.268a2.614,2.614,0,0,0-1.86.773,2.578,2.578,0,0,0-.76,1.844A2.616,2.616,0,0,0,6.667,9.5a2.6,2.6,0,0,0,1.847-.766,2.61,2.61,0,0,0,.007-3.7A2.6,2.6,0,0,0,6.667,4.268Zm3.74-.16a.6.6,0,1,0,.607.606A.6.6,0,0,0,10.406,4.109ZM6.667,8.5a1.615,1.615,0,0,1-1.62-1.618V6.879a1.558,1.558,0,0,1,.467-1.132A1.62,1.62,0,1,1,6.667,8.5Z" fill="#fff"/>
      </g>
    </g>
  </g>
</svg>
