<svg xmlns="http://www.w3.org/2000/svg" width="24" height="24" viewBox="0 0 24 24">
  <g id="ic_edit" transform="translate(-304 -122)">
    <circle id="Ellipse_298" data-name="Ellipse 298" cx="12" cy="12" r="12" transform="translate(304 122)" fill="#e9c145"/>
    <g id="Iconly_Bold_Edit" data-name="Iconly/Bold/Edit" transform="translate(306 124)">
      <g id="Edit" transform="translate(3 3)">
        <path id="Path_994" data-name="Path 994" d="M13.214,12.408a.8.8,0,0,1,0,1.592H8.773a.8.8,0,0,1,0-1.592h4.441ZM10.134.544l1.147.911a2.384,2.384,0,0,1,.891,1.363,1.868,1.868,0,0,1-.38,1.589L4.959,13.244a1.637,1.637,0,0,1-1.271.635l-2.724.033a.311.311,0,0,1-.305-.243L.04,10.986a1.659,1.659,0,0,1,.314-1.4L5.2,3.32a.243.243,0,0,1,.33-.042L7.568,4.9a.658.658,0,0,0,.5.142.735.735,0,0,0,.636-.811.817.817,0,0,0-.256-.493L6.47,2.149a.294.294,0,0,1-.05-.409l.768-1A2.01,2.01,0,0,1,10.134.544Z" transform="translate(0 0)" fill="#fff"/>
      </g>
    </g>
  </g>
</svg>
