<svg id="ic_heart" xmlns="http://www.w3.org/2000/svg" width="30" height="28.5" viewBox="0 0 30 28.5">
  <g id="Heart">
    <path id="Heart-2" data-name="Heart" d="M15.049,28.5h0l-.388-.24a57.245,57.245,0,0,1-9.554-7.441,19.489,19.489,0,0,1-4.517-7.2A11.616,11.616,0,0,1,.8,5.708,9.126,9.126,0,0,1,6.486.4,6.757,6.757,0,0,1,7.82.091H8A8.556,8.556,0,0,1,9.26,0h.165a9.4,9.4,0,0,1,2.746.5h.089A.5.5,0,0,1,12.4.585a5.063,5.063,0,0,1,.945.391l.57.254a3.94,3.94,0,0,1,.428.285c.086.062.16.116.217.152l.061.036A3.652,3.652,0,0,1,15,1.95,9.336,9.336,0,0,1,20.714,0h.066a8.74,8.74,0,0,1,2.79.436A9.029,9.029,0,0,1,29.2,5.712a11.872,11.872,0,0,1,.231,7.908,19.172,19.172,0,0,1-4.513,7.214,57.9,57.9,0,0,1-9.5,7.44l-.375.225ZM22.411,4.677a1.214,1.214,0,0,0-1.135.814,1.229,1.229,0,0,0,.749,1.543A2.514,2.514,0,0,1,23.63,9.389v.046a1.29,1.29,0,0,0,.285.93,1.261,1.261,0,0,0,.855.435,1.234,1.234,0,0,0,1.185-1.141V9.481A4.951,4.951,0,0,0,22.79,4.74,1.17,1.17,0,0,0,22.411,4.677Z" transform="translate(0 0)" fill="#f44336"/>
  </g>
</svg>
