<svg id="ic_maucau" xmlns="http://www.w3.org/2000/svg" width="28.335" height="28.334" viewBox="0 0 28.335 28.334">
  <g id="Folder">
    <path id="Folder_2" data-name="Folder 2" d="M21.086,4.413H16.917a3.442,3.442,0,0,1-2.683-1.257l-1.373-1.9A3.353,3.353,0,0,0,10.19,0H7.243C1.952,0,0,3.105,0,8.385v5.707c-.007.628,28.327.627,28.329,0V12.433C28.354,7.153,26.452,4.413,21.086,4.413Z" transform="translate(0 0)" fill="#fca431" opacity="0.4"/>
    <path id="Folder-2" data-name="Folder" d="M20.353,23.943h0c-.146,0-.293,0-.438-.011H8.4c-.144.007-.29.011-.434.011A8.524,8.524,0,0,1,2.2,21.707,6.357,6.357,0,0,1,1.26,20.45,8.22,8.22,0,0,1,.152,17.357,11.543,11.543,0,0,1,0,15.484V8.043A17.2,17.2,0,0,1,.1,6.181c.014-.107.036-.214.056-.317a2.683,2.683,0,0,0,.07-.524A7.96,7.96,0,0,1,.919,3.19c1-2.132,3.058-3.168,6.3-3.168H21.073c.189-.015.38-.022.57-.022a7.425,7.425,0,0,1,4.57,1.581,3.938,3.938,0,0,1,.467.465,5.574,5.574,0,0,1,1.033,1.8,12.056,12.056,0,0,1,.617,4.2v7.441a13.375,13.375,0,0,1-.139,1.873,8.445,8.445,0,0,1-1.133,3.093,6.3,6.3,0,0,1-.958,1.257A8.476,8.476,0,0,1,20.353,23.943ZM7.042,12.454a1.169,1.169,0,1,0,0,2.338H21.378a1.17,1.17,0,0,0,1.169-1.132,1.052,1.052,0,0,0-.251-.755,1.117,1.117,0,0,0-.882-.453Z" transform="translate(0 4.39)" fill="#fca431"/>
  </g>
</svg>
