<svg xmlns="http://www.w3.org/2000/svg" xmlns:xlink="http://www.w3.org/1999/xlink" width="64" height="64" viewBox="0 0 64 64">
  <defs>
    <filter id="Rectangle_963" x="0" y="0" width="64" height="64" filterUnits="userSpaceOnUse">
      <feOffset dy="3" input="SourceAlpha"/>
      <feGaussianBlur stdDeviation="3" result="blur"/>
      <feFlood flood-color="#f7c243" flood-opacity="0.702"/>
      <feComposite operator="in" in2="blur"/>
      <feComposite in="SourceGraphic"/>
    </filter>
  </defs>
  <g id="ic_taophong_2" transform="translate(-4 -567)">
    <g transform="matrix(1, 0, 0, 1, 4, 567)" filter="url(#Rectangle_963)">
      <rect id="Rectangle_963-2" data-name="Rectangle 963" width="46" height="46" rx="23" transform="translate(9 6)" fill="#f7c243"/>
    </g>
    <g id="Iconly_Light-outline_Close_Square" data-name="Iconly/Light-outline/Close Square" transform="translate(27 587)">
      <g id="Close_Square" data-name="Close Square" transform="translate(0 0)">
        <path id="Close_Square-2" data-name="Close Square" d="M7.386,16.611l-.018-.241V10.629H1.631A1.629,1.629,0,0,1,1.39,7.389l.241-.018H7.369V1.629a1.631,1.631,0,0,1,3.245-.239l.018.241v5.74h5.738a1.63,1.63,0,0,1,.241,3.242l-.241.017H10.631v5.741a1.631,1.631,0,0,1-3.245.241Z" fill="#fff"/>
      </g>
    </g>
  </g>
</svg>
