<svg xmlns="http://www.w3.org/2000/svg" width="17.001" height="16" viewBox="0 0 17.001 16">
  <path id="Union_35" data-name="Union 35" d="M-2146.308,15a.6.6,0,0,1-.615-.588.6.6,0,0,1,.615-.588h8.616a.6.6,0,0,1,.615.588.6.6,0,0,1-.615.588Zm9.162-1.765h-9.707a1.216,1.216,0,0,1-1.212-.972l-1.3-7.017a.58.58,0,0,1,.295-.61.638.638,0,0,1,.7.052l3.726,2.914,2.06-5.684a.614.614,0,0,1,.582-.4.614.614,0,0,1,.581.4l2.06,5.684,3.726-2.914a.638.638,0,0,1,.7-.052.578.578,0,0,1,.295.61l-1.3,7.017a1.217,1.217,0,0,1-1.212.971Zm-9.707-1.176h9.707l1.009-5.454-3.807,2.977L-2142,3.908l-2.056,5.672-3.807-2.976Zm11.623-8.235a.6.6,0,0,1,.615-.588.6.6,0,0,1,.616.588.6.6,0,0,1-.616.588A.6.6,0,0,1-2135.231,3.823Zm-14.77,0a.6.6,0,0,1,.615-.588.6.6,0,0,1,.615.588.6.6,0,0,1-.615.588A.6.6,0,0,1-2150,3.823Zm7.385-3.235A.6.6,0,0,1-2142,0a.6.6,0,0,1,.615.588.6.6,0,0,1-.615.588A.6.6,0,0,1-2142.615.588Z" transform="translate(2150.5 0.5)" fill="#fff" stroke="rgba(0,0,0,0)" stroke-miterlimit="10" stroke-width="1"/>
</svg>
