<svg xmlns="http://www.w3.org/2000/svg" width="14.661" height="17.5" viewBox="0 0 14.661 17.5">
  <g id="Iconly_Light_Voice" data-name="Iconly/Light/Voice" transform="translate(0.75 0.75)">
    <g id="Voice">
      <path id="Stroke_1" data-name="Stroke 1" d="M0,0A6.5,6.5,0,0,0,6.581,6.427,6.5,6.5,0,0,0,13.161,0" transform="translate(0 7.133)" fill="none" stroke="#04d076" stroke-linecap="round" stroke-linejoin="round" stroke-miterlimit="10" stroke-width="1.5"/>
      <path id="Stroke_3" data-name="Stroke 3" d="M.476,2.44V0" transform="translate(6.105 13.56)" fill="none" stroke="#04d076" stroke-linecap="round" stroke-linejoin="round" stroke-miterlimit="10" stroke-width="1.5"/>
      <path id="Stroke_5" data-name="Stroke 5" d="M3.477,10.3H3.253A3.216,3.216,0,0,1,0,7.127V3.177A3.216,3.216,0,0,1,3.253,0h.224A3.216,3.216,0,0,1,6.73,3.177v3.95A3.216,3.216,0,0,1,3.477,10.3Z" transform="translate(3.216)" fill="none" stroke="#04d076" stroke-linecap="round" stroke-linejoin="round" stroke-miterlimit="10" stroke-width="1.5"/>
    </g>
  </g>
</svg>
