<svg xmlns="http://www.w3.org/2000/svg" width="24" height="24" viewBox="0 0 24 24">
  <g id="item_vip" transform="translate(-228 -122)">
    <circle id="Ellipse_208" data-name="Ellipse 208" cx="12" cy="12" r="12" transform="translate(228 122)" fill="#53b451"/>
    <path id="Union_35" data-name="Union 35" d="M-2145.846,16a.662.662,0,0,1-.692-.627.662.662,0,0,1,.692-.627h9.693a.663.663,0,0,1,.692.627.662.662,0,0,1-.692.627Zm10.307-1.882h-10.921a1.353,1.353,0,0,1-1.363-1.036l-1.46-7.485a.609.609,0,0,1,.332-.651.75.75,0,0,1,.788.056l4.192,3.108,2.317-6.063a.691.691,0,0,1,.655-.422.69.69,0,0,1,.654.422l2.317,6.063L-2133.836,5a.75.75,0,0,1,.788-.056.607.607,0,0,1,.332.651l-1.459,7.485a1.354,1.354,0,0,1-1.363,1.036Zm-10.921-1.255h10.921l1.135-5.818-4.283,3.175L-2141,4.169l-2.312,6.051-4.282-3.175Zm13.076-8.784a.663.663,0,0,1,.692-.627.663.663,0,0,1,.693.627.662.662,0,0,1-.693.627A.662.662,0,0,1-2133.385,4.078Zm-16.615,0a.663.663,0,0,1,.692-.627.662.662,0,0,1,.692.627.662.662,0,0,1-.692.627A.662.662,0,0,1-2150,4.078Zm8.308-3.451A.662.662,0,0,1-2141,0a.662.662,0,0,1,.692.627.662.662,0,0,1-.692.627A.662.662,0,0,1-2141.692.627Z" transform="translate(2381 126)" fill="#ffff14" stroke="rgba(0,0,0,0)" stroke-miterlimit="10" stroke-width="1"/>
  </g>
</svg>
