<svg xmlns="http://www.w3.org/2000/svg" width="44" height="44" viewBox="0 0 44 44">
  <g id="luyennoi" transform="translate(-16 -588)">
    <circle id="Ellipse_188" data-name="Ellipse 188" cx="22" cy="22" r="22" transform="translate(16 588)" fill="#ff6e41"/>
    <g id="Iconly_Light-outline_Voice_2" data-name="Iconly/Light-outline/Voice 2" transform="translate(30 600)">
      <g id="Voice_2" data-name="Voice 2">
        <path id="Voice_2-2" data-name="Voice 2" d="M7.271,19.35l-.007-.1v-2.1A8.112,8.112,0,0,1,0,9a.744.744,0,0,1,.736-.752A.744.744,0,0,1,1.472,9,6.6,6.6,0,0,0,8,15.674,6.6,6.6,0,0,0,14.529,9,.736.736,0,1,1,16,9a8.113,8.113,0,0,1-7.265,8.147v2.1a.735.735,0,0,1-1.464.1Zm.6-5.935A4.381,4.381,0,0,1,3.55,8.991V4.424A4.381,4.381,0,0,1,7.876,0h.247a4.381,4.381,0,0,1,4.327,4.424V8.991a4.381,4.381,0,0,1-4.327,4.424ZM5.021,4.424V8.991a2.891,2.891,0,0,0,2.855,2.92h.247a2.892,2.892,0,0,0,2.856-2.92V8.864H8.913a.754.754,0,0,1-.1-1.5l.1-.007h2.066V5.682H9.847a.754.754,0,0,1-.1-1.5l.1-.007h1.122A2.886,2.886,0,0,0,8.123,1.5H7.876A2.891,2.891,0,0,0,5.021,4.424Z" fill="#fff"/>
      </g>
    </g>
  </g>
</svg>
