<svg xmlns="http://www.w3.org/2000/svg" width="44" height="44" viewBox="0 0 44 44">
  <g id="_1" data-name="1" transform="translate(-16 -962)">
    <circle id="Ellipse_187" data-name="Ellipse 187" cx="22" cy="22" r="22" transform="translate(16 962)" fill="#e74c3c"/>
    <g id="Iconly_Bold_Message" data-name="Iconly/Bold/Message" transform="translate(28 975)">
      <g id="Message" transform="translate(0)">
        <path id="Message-2" data-name="Message" d="M14.939,18H5.06A5.061,5.061,0,0,1,0,12.95V5.05A5.061,5.061,0,0,1,5.06,0h9.879a5.091,5.091,0,0,1,3.58,1.481A5.012,5.012,0,0,1,20,5.05v7.9A5.061,5.061,0,0,1,14.939,18ZM4.034,5.246A.733.733,0,0,0,3.5,5.47a.764.764,0,0,0-.071,1l.131.13L8.11,10.15a3.129,3.129,0,0,0,1.95.68,3.18,3.18,0,0,0,1.958-.68L16.53,6.54l.08-.08a.774.774,0,0,0-.012-1,.831.831,0,0,0-.528-.26h-.042a.76.76,0,0,0-.519.2L11,9a1.565,1.565,0,0,1-1,.36A1.592,1.592,0,0,1,9,9L4.5,5.4A.778.778,0,0,0,4.034,5.246Z" fill="#fff"/>
      </g>
    </g>
  </g>
</svg>
