<svg id="Component_84_1" data-name="Component 84 – 1" xmlns="http://www.w3.org/2000/svg" width="24" height="24" viewBox="0 0 24 24">
  <path id="Icon_ionic-ios-refresh" data-name="Icon ionic-ios-refresh" d="M23.244,15.295a.758.758,0,0,0-.757.691A8.247,8.247,0,1,1,14.055,7.1a.2.2,0,0,1,.208.2V9.86a.814.814,0,0,0,1.25.686L20.4,7.127a.812.812,0,0,0,0-1.377L15.518,2.377a.814.814,0,0,0-1.25.686V5.384a.2.2,0,0,1-.2.2A9.712,9.712,0,1,0,24,16.113a.755.755,0,0,0-.757-.818Z" transform="translate(-2.252 -1.629)"/>
  <rect id="Rectangle_1537" data-name="Rectangle 1537" width="24" height="24" fill="none"/>
</svg>
