<svg xmlns="http://www.w3.org/2000/svg" width="16.5" height="17.527" viewBox="0 0 16.5 17.527">
  <g id="repeat" transform="translate(0.25 -98.71)">
    <g id="Group_132" data-name="Group 132" transform="translate(0 99)">
      <path id="Path_15" data-name="Path 15" d="M159.028,14.291h-1.178a.427.427,0,0,0,0,.855h1.178a1.775,1.775,0,0,0,1.772-1.772V3.616a1.775,1.775,0,0,0-1.772-1.772h-8.076L152.071.726a.425.425,0,1,0-.6-.6L149.625,1.97a.424.424,0,0,0,0,.6l1.845,1.845a.426.426,0,1,0,.6-.6L150.955,2.7h8.076a.922.922,0,0,1,.921.921V13.37A.927.927,0,0,1,159.028,14.291Z" transform="translate(-144.8 0)" fill="#fff" stroke="#fff" stroke-width="0.5"/>
      <path id="Path_16" data-name="Path 16" d="M22.926,68.02a.428.428,0,0,0,.6,0l1.845-1.845a.424.424,0,0,0,0-.6L23.53,63.73a.425.425,0,1,0-.6.6l1.119,1.119H15.972a.922.922,0,0,1-.921-.921V54.775a.922.922,0,0,1,.921-.921h1.178a.427.427,0,0,0,0-.855H15.972A1.775,1.775,0,0,0,14.2,54.772v9.754A1.775,1.775,0,0,0,15.972,66.3h8.076l-1.119,1.119A.431.431,0,0,0,22.926,68.02Z" transform="translate(-14.2 -51.159)" fill="#fff" stroke="#fff" stroke-width="0.5"/>
    </g>
  </g>
</svg>
