<svg xmlns="http://www.w3.org/2000/svg" width="17.001" height="18.001" viewBox="0 0 17.001 18.001">
  <g id="share" transform="translate(-25.75 -583.75)">
    <path id="Union_37" data-name="Union 37" d="M-6009.25,14.5a2.736,2.736,0,0,1,.294-1.239l-5.142-2.422a2.749,2.749,0,0,1-2.4,1.411A2.75,2.75,0,0,1-6019.25,9.5,2.751,2.751,0,0,1-6016.5,6.75a2.75,2.75,0,0,1,2.75,2.751,2.737,2.737,0,0,1-.347,1.338l5.142,2.422a2.749,2.749,0,0,1,2.455-1.512,2.751,2.751,0,0,1,2.751,2.751,2.75,2.75,0,0,1-2.751,2.749A2.75,2.75,0,0,1-6009.25,14.5Zm.333-9.656-5.133,3.314Zm-.333-1.344A2.751,2.751,0,0,1-6006.5.749,2.751,2.751,0,0,1-6003.75,3.5a2.75,2.75,0,0,1-2.751,2.749A2.75,2.75,0,0,1-6009.25,3.5Z" transform="translate(6045.75 583.751)" fill="none" stroke="#fff" stroke-width="1.5"/>
  </g>
</svg>
