<svg xmlns="http://www.w3.org/2000/svg" width="22.754" height="19.27" viewBox="0 0 22.754 19.27">
  <g id="btn_camera_off" transform="translate(-8683.939 -6062.939)">
    <g id="Group_570" data-name="Group 570" transform="translate(8679.235 6083.621)">
      <g id="Video">
        <path id="Stroke_1" data-name="Stroke 1" d="M20.143-5.243a3.264,3.264,0,0,1-2.3,1.089,2.968,2.968,0,0,1-.4-.008H11.224a3.264,3.264,0,0,1-3.512-3,3.375,3.375,0,0,1-.007-.4v-6.96a3.266,3.266,0,0,1,.83-2.329" fill="none" stroke="#000" stroke-linecap="round" stroke-linejoin="round" stroke-width="1.5"/>
        <path id="Stroke_1-2" data-name="Stroke 1" d="M13.832-17.938l-2.6.006h6.206a3.28,3.28,0,0,1,3.523,3.018,3.219,3.219,0,0,1,.008.393v5.96" fill="none" stroke="#000" stroke-linecap="round" stroke-linejoin="round" stroke-width="1.5"/>
        <path id="Stroke_3" data-name="Stroke 3" d="M20.972-11.906l4.1-3.354a1,1,0,0,1,1.408.134,1,1,0,0,1,.229.644v6.871A1,1,0,0,1,25.714-6.6a1,1,0,0,1-.643-.23l-4.1-3.353" fill="none" stroke="#000" stroke-linecap="round" stroke-linejoin="round" stroke-width="1.5"/>
      </g>
      <path id="Stroke_5" data-name="Stroke 5" d="M5.765-19.621,22.912-2.473" fill="none" stroke="#000" stroke-linecap="round" stroke-linejoin="round" stroke-width="1.5"/>
    </g>
  </g>
</svg>
