<svg xmlns="http://www.w3.org/2000/svg" width="44" height="44" viewBox="0 0 44 44">
  <g id="vidoe" transform="translate(-16 -527)">
    <circle id="Ellipse_224" data-name="Ellipse 224" cx="22" cy="22" r="22" transform="translate(16 527)" fill="#2196f2"/>
    <g id="Iconly_Light-outline_Video" data-name="Iconly/Light-outline/Video" transform="translate(28 541)">
      <g id="Video" transform="translate(0 0)">
        <path id="Video-2" data-name="Video" d="M4.3,15.391A4.341,4.341,0,0,1,1.19,14.223,4.106,4.106,0,0,1,0,11.2V4.188a4.106,4.106,0,0,1,1.19-3.02A4.341,4.341,0,0,1,4.3,0h6.269a4.339,4.339,0,0,1,3.113,1.168,4.011,4.011,0,0,1,1.175,2.616L17.509,2.7a1.809,1.809,0,0,1,2.486,1.534L20,4.377v6.638a1.808,1.808,0,0,1-2.359,1.722l-.133-.048-2.646-1.082a4.012,4.012,0,0,1-1.176,2.615,4.338,4.338,0,0,1-3.112,1.169ZM1.5,4.188V11.2a2.549,2.549,0,0,0,2.8,2.687h6.269a2.549,2.549,0,0,0,2.8-2.687v-.7c0-.008,0-.015,0-.023V4.913q0-.019,0-.038V4.188a2.549,2.549,0,0,0-2.8-2.687H4.3A2.549,2.549,0,0,0,1.5,4.188ZM18.075,11.3a.308.308,0,0,0,.417-.215l.008-.07V4.377a.308.308,0,0,0-.356-.305l-.068.019L14.877,5.4V9.993Z" transform="translate(0 0)" fill="#fff"/>
      </g>
    </g>
  </g>
</svg>
