<svg xmlns="http://www.w3.org/2000/svg" width="22" height="18" viewBox="0 0 22 18">
  <g id="voice_1" transform="translate(-29 -230)">
    <g id="Voice_1-2" data-name="Voice_1" transform="translate(29 230)">
      <g id="Volume_Up" data-name="Volume Up" transform="translate(0 0)">
        <path id="Volume_Up-2" data-name="Volume Up" d="M9.677,18a2.693,2.693,0,0,1-1.588-.676l-3.526-2.94H2.752A2.645,2.645,0,0,1,.145,11.8a27.953,27.953,0,0,1,0-5.677,2.7,2.7,0,0,1,2.607-2.51H4.563l3.46-2.9A3.014,3.014,0,0,1,9.758,0a2.548,2.548,0,0,1,2.368,1.956,10.232,10.232,0,0,1,.231,1.495l.048.442a96.7,96.7,0,0,1,0,10.216l-.048.458a9.034,9.034,0,0,1-.224,1.453A2.54,2.54,0,0,1,9.782,18Zm8.614-.22a.957.957,0,0,1-.23-1.308A13.405,13.405,0,0,0,20.165,9,13.4,13.4,0,0,0,18.06,1.529.958.958,0,0,1,18.29.221a.9.9,0,0,1,1.277.236A15.319,15.319,0,0,1,22,9a15.318,15.318,0,0,1-2.433,8.544.912.912,0,0,1-.753.4A.9.9,0,0,1,18.291,17.78Zm-3.162-3.038a.957.957,0,0,1-.23-1.308A7.957,7.957,0,0,0,16.143,9,7.955,7.955,0,0,0,14.9,4.566a.957.957,0,0,1,.229-1.308.907.907,0,0,1,1.279.237A9.878,9.878,0,0,1,17.978,9a9.878,9.878,0,0,1-1.571,5.505.9.9,0,0,1-1.278.237Z" fill="#fff"/>
      </g>
    </g>
  </g>
</svg>
