<svg xmlns="http://www.w3.org/2000/svg" width="15.056" height="17.5" viewBox="0 0 15.056 17.5">
  <g id="Voice" transform="translate(0.758 0.75)">
    <path id="Stroke_1" data-name="Stroke 1" d="M13.47,10.634a6.47,6.47,0,0,0,.441-2.278V8.348" transform="translate(-0.75 -1.215)" fill="none" stroke="#e1e1e1" stroke-linecap="round" stroke-linejoin="round" stroke-width="1.5"/>
    <path id="Stroke_1-2" data-name="Stroke 1" d="M.75,8.348a6.5,6.5,0,0,0,6.572,6.427h.009a6.483,6.483,0,0,0,4.7-1.928" transform="translate(-0.75 -1.215)" fill="none" stroke="#e1e1e1" stroke-linecap="round" stroke-linejoin="round" stroke-width="1.5"/>
    <path id="Stroke_3" data-name="Stroke 3" d="M7.331,17.215v-2.44" transform="translate(-0.75 -1.215)" fill="none" stroke="#e1e1e1" stroke-linecap="round" stroke-linejoin="round" stroke-width="1.5"/>
    <path id="Stroke_5" data-name="Stroke 5" d="M9.757,10.57a3.215,3.215,0,0,1-2.315.946H7.219A3.218,3.218,0,0,1,3.966,8.342V5.392" transform="translate(-0.75 -1.215)" fill="none" stroke="#e1e1e1" stroke-linecap="round" stroke-linejoin="round" stroke-width="1.5"/>
    <path id="Stroke_5-2" data-name="Stroke 5" d="M4.955,2.111a3.2,3.2,0,0,1,2.264-.9h.223a3.215,3.215,0,0,1,3.253,3.177v2.95" transform="translate(-0.75 -1.215)" fill="none" stroke="#e1e1e1" stroke-linecap="round" stroke-linejoin="round" stroke-width="1.5"/>
    <path id="Path_995" data-name="Path 995" d="M1.259,2.072,13.987,14.8" transform="translate(-0.75 -1.215)" fill="none" stroke="#e1e1e1" stroke-linecap="round" stroke-width="1.5"/>
  </g>
</svg>
