<svg xmlns="http://www.w3.org/2000/svg" width="4" height="17.001" viewBox="0 0 4 17.001">
  <path id="Union_33" data-name="Union 33" d="M-11262.039-3137a1.963,1.963,0,0,1-1.962-1.962,1.963,1.963,0,0,1,1.962-1.962h.076a1.963,1.963,0,0,1,1.962,1.962,1.963,1.963,0,0,1-1.962,1.962Zm0-6.539a1.964,1.964,0,0,1-1.962-1.962,1.963,1.963,0,0,1,1.962-1.962h.076a1.963,1.963,0,0,1,1.962,1.962,1.963,1.963,0,0,1-1.962,1.962Zm0-6.539a1.963,1.963,0,0,1-1.962-1.962,1.963,1.963,0,0,1,1.962-1.962h.076a1.963,1.963,0,0,1,1.962,1.962,1.963,1.963,0,0,1-1.962,1.962Z" transform="translate(11264.001 3154)"/>
</svg>
