<svg id="online-0" xmlns="http://www.w3.org/2000/svg" width="24" height="24" viewBox="0 0 24 24">
  <g id="Video" transform="translate(2 5)">
    <path id="Stroke_1" data-name="Stroke 1" d="M13.964,10.916a3.445,3.445,0,0,1-3.716,3.58H3.7A3.436,3.436,0,0,1,0,10.916V3.589A3.447,3.447,0,0,1,3.716,0h6.533a3.452,3.452,0,0,1,3.716,3.589Z" fill="none" stroke="#000" stroke-linecap="round" stroke-linejoin="round" stroke-miterlimit="10" stroke-width="1.5"/>
    <path id="Stroke_3" data-name="Stroke 3" d="M0,3.771,4.313.24a1.056,1.056,0,0,1,1.723.818V8.292a1.056,1.056,0,0,1-1.723.818L0,5.579" transform="translate(13.964 2.573)" fill="none" stroke="#000" stroke-linecap="round" stroke-linejoin="round" stroke-miterlimit="10" stroke-width="1.5"/>
  </g>
  <rect id="Rectangle_1601" data-name="Rectangle 1601" width="24" height="24" fill="none"/>
</svg>
