<svg xmlns="http://www.w3.org/2000/svg" width="98.234" height="133.308" viewBox="0 0 98.234 133.308">
  <g id="Group_847" data-name="Group 847" transform="translate(-895.968 -651.378)">
    <g id="Group_642" data-name="Group 642" transform="translate(895.968 715.328)">
      <g id="Group_625" data-name="Group 625" transform="translate(0.899 0.916)">
        <path id="Path_4591" data-name="Path 4591" d="M956.6,2041.781l-.115,6.138-.188,10.157-.007.377c-14.834.311-27.616-3.3-35.444-10.934a27.039,27.039,0,0,1-3.351-3.953,14.556,14.556,0,0,1-1.154-1.973c-4.22-8.694,2.5-17.661,12.353-10.053q1.41,1.089,2.931,2.114a48.478,48.478,0,0,0,12.925,6.244A42.964,42.964,0,0,0,956.6,2041.781Z" transform="translate(-915.054 -2028.67)" fill="#faa327"/>
      </g>
      <g id="Group_626" data-name="Group 626" transform="translate(2.183 13.84)">
        <path id="Path_4592" data-name="Path 4592" d="M982.273,2319.551l-.007.377c-14.834.311-27.616-3.3-35.444-10.934a27.054,27.054,0,0,1-3.351-3.953,14.562,14.562,0,0,1-1.154-1.973c.192.232,11.651,14.011,30.986,7.2C977.375,2314.172,980.251,2317.227,982.273,2319.551Z" transform="translate(-942.317 -2303.068)" fill="#ef7f25"/>
      </g>
      <g id="Group_627" data-name="Group 627" transform="translate(2.183 13.84)">
        <path id="Path_4593" data-name="Path 4593" d="M949.7,2308.824a12.848,12.848,0,0,1-2.874.17,27.054,27.054,0,0,1-3.351-3.953,14.538,14.538,0,0,1-.784-1.256l-.119-.221c-.044-.084-.088-.166-.13-.249s-.082-.163-.121-.247A26.629,26.629,0,0,0,949.7,2308.824Z" transform="translate(-942.317 -2303.068)" fill="#f9d3b7"/>
      </g>
      <g id="Group_628" data-name="Group 628" transform="translate(0.898 0.917)">
        <path id="Path_4594" data-name="Path 4594" d="M920.82,2047.528a27.047,27.047,0,0,1-3.351-3.953c-6.379-9.206.592-20.213,11.2-12.027q1.41,1.089,2.931,2.115C932.359,2037.995,931.039,2048,920.82,2047.528Z" transform="translate(-915.03 -2028.678)" fill="#fff"/>
      </g>
      <g id="Group_629" data-name="Group 629" transform="translate(2.183 13.84)" opacity="0.2">
        <path id="Path_4595" data-name="Path 4595" d="M949.7,2308.824a12.848,12.848,0,0,1-2.874.17,27.054,27.054,0,0,1-3.351-3.953,14.538,14.538,0,0,1-.784-1.256l-.119-.221c-.044-.084-.088-.166-.13-.249s-.082-.163-.121-.247A26.629,26.629,0,0,0,949.7,2308.824Z" transform="translate(-942.317 -2303.068)" fill="#000072"/>
      </g>
      <g id="Group_630" data-name="Group 630" transform="translate(4.878 6.358)">
        <circle id="Ellipse_345" data-name="Ellipse 345" cx="3.48" cy="3.48" r="3.48" transform="translate(0 4.921) rotate(-45)" fill="#ff8080"/>
      </g>
      <g id="Group_631" data-name="Group 631" transform="translate(8.821 3.84)">
        <circle id="Ellipse_346" data-name="Ellipse 346" cx="1.324" cy="1.324" r="1.324" transform="translate(0 1.873) rotate(-45)" fill="#ff8080"/>
      </g>
      <g id="Group_632" data-name="Group 632" transform="translate(2.982 8.712)">
        <path id="Path_4596" data-name="Path 4596" d="M961.932,2195.519a1.324,1.324,0,1,1-1.324-1.324A1.324,1.324,0,0,1,961.932,2195.519Z" transform="translate(-959.283 -2194.194)" fill="#ff8080"/>
      </g>
      <g id="Group_633" data-name="Group 633" transform="translate(4.968 4.732)">
        <path id="Path_4597" data-name="Path 4597" d="M1004.785,2111.347a1.669,1.669,0,1,1-1.669-1.669A1.669,1.669,0,0,1,1004.785,2111.347Z" transform="translate(-1001.447 -2109.678)" fill="#ff8080"/>
      </g>
      <g id="Group_634" data-name="Group 634" transform="translate(0 0)">
        <path id="Path_4598" data-name="Path 4598" d="M936.309,2040.833a62.226,62.226,0,0,1-21.681-3.506c-7.058-2.624-12.462-6.59-16.062-11.788a13.676,13.676,0,0,1-2.6-8,8.876,8.876,0,0,1,2.57-6.386c3.1-2.945,7.778-2.521,12.514,1.134,8.483,6.546,17.69,9.929,27.368,10.055a.9.9,0,0,1-.023,1.8c-10.075-.131-19.644-3.64-28.442-10.428-3.973-3.066-7.779-3.535-10.18-1.253-2.364,2.246-3.075,7.235.266,12.058,6.737,9.725,20.248,14.878,38.038,14.5a.9.9,0,0,1,.038,1.8Q937.207,2040.833,936.309,2040.833Z" transform="translate(-895.968 -2009.215)" fill="#000072"/>
      </g>
      <g id="Group_635" data-name="Group 635" transform="translate(59.524 12.157)">
        <path id="Path_4599" data-name="Path 4599" d="M2197.513,2292.942a4.681,4.681,0,0,1-1.558,2.969c-1.6,1.192-3.977.854-5.686-.066-1.938-1.042-4.145-3.664-7.747-6.372a36.081,36.081,0,0,0-12.667-6.116c-1.3-.351-2.7-.658-4.185-.909l-5.838-14.854c11.833-1.483,27.335,3.75,34.334,14.126a21.6,21.6,0,0,1,3.112,6.946A10.409,10.409,0,0,1,2197.513,2292.942Z" transform="translate(-2159.833 -2267.345)" fill="#faa327"/>
      </g>
      <g id="Group_636" data-name="Group 636" transform="translate(69.547 19.263)">
        <path id="Path_4600" data-name="Path 4600" d="M2400.3,2436.7a4.681,4.681,0,0,1-1.558,2.969c-1.6,1.192-3.977.854-5.686-.066-1.938-1.042-4.145-3.664-7.747-6.372a36.081,36.081,0,0,0-12.667-6.116l1.98-8.906a37.421,37.421,0,0,1,9.709,9.06C2387.4,2431.493,2394.643,2441.388,2400.3,2436.7Z" transform="translate(-2372.642 -2418.213)" fill="#ef7f25"/>
      </g>
      <g id="Group_637" data-name="Group 637" transform="translate(82.214 33.196)">
        <path id="Path_4601" data-name="Path 4601" d="M2656.582,2718.621c-.013.082-.029.161-.046.239l-.007.026c-.018.088-.038.172-.06.256-.042.168-.091.327-.144.481-.022.064-.044.126-.068.188-.007.018-.011.033-.018.049-.027.068-.055.137-.084.2s-.062.137-.095.2c-.064.133-.133.258-.2.373-.033.053-.064.1-.1.152a.217.217,0,0,1-.022.033c-.033.049-.069.1-.1.143a3,3,0,0,1-.611.625c-1.6,1.192-3.977.854-5.686-.066-1.938-1.042-4.145-3.664-7.747-6.372a4.85,4.85,0,0,0,2.836-1.088C2647.957,2718.091,2652.651,2721.874,2656.582,2718.621Z" transform="translate(-2641.591 -2714.063)" fill="#f9d3b7"/>
      </g>
      <g id="Group_638" data-name="Group 638" transform="translate(82.214 26.52)">
        <path id="Path_4602" data-name="Path 4602" d="M2655.024,2586.518c-1.6,1.192-3.977.854-5.686-.066-1.938-1.042-4.145-3.664-7.747-6.372a5,5,0,0,0,3.942-2.3c2.368-3.412,4.7-5.639,7.7-5.458a21.6,21.6,0,0,1,3.112,6.946C2657.277,2583.053,2656.251,2585.6,2655.024,2586.518Z" transform="translate(-2641.591 -2572.316)" fill="#fff"/>
      </g>
      <g id="Group_639" data-name="Group 639" transform="translate(82.214 33.196)" opacity="0.2">
        <path id="Path_4603" data-name="Path 4603" d="M2656.582,2718.621c-.013.082-.029.161-.046.239l-.007.026c-.018.088-.038.172-.06.256-.042.168-.091.327-.144.481-.022.064-.044.126-.068.188-.007.018-.011.033-.018.049-.027.068-.055.137-.084.2s-.062.137-.095.2a4.017,4.017,0,0,1-.2.373c-.033.053-.064.1-.1.152a.217.217,0,0,1-.022.033c-.033.049-.069.1-.1.143a3,3,0,0,1-.611.625c-1.6,1.192-3.977.854-5.686-.066-1.938-1.042-4.145-3.664-7.747-6.372a4.85,4.85,0,0,0,2.836-1.088C2647.957,2718.091,2652.651,2721.874,2656.582,2718.621Z" transform="translate(-2641.591 -2714.063)" fill="#000072"/>
      </g>
      <g id="Group_640" data-name="Group 640" transform="translate(58.626 11.262)">
        <path id="Path_4604" data-name="Path 4604" d="M2175.284,2279.464a7.856,7.856,0,0,1-3.608-.945,20.719,20.719,0,0,1-3.666-2.9c-3.741-3.384-9.4-8.5-20.657-10.4a.9.9,0,0,1,.3-1.771c11.778,1.988,17.666,7.314,21.563,10.838a19.809,19.809,0,0,0,3.312,2.654c1.418.764,3.429,1.1,4.724.136.742-.553,1.9-2.585.989-6.311-1.616-6.586-6.692-12.344-14.293-16.213a40.009,40.009,0,0,0-22.17-4.182.9.9,0,1,1-.223-1.782,41.881,41.881,0,0,1,23.208,4.364c8.073,4.109,13.479,10.283,15.222,17.385,1.063,4.33-.23,7.112-1.659,8.178A5,5,0,0,1,2175.284,2279.464Z" transform="translate(-2140.767 -2248.334)" fill="#000072"/>
      </g>
      <g id="Group_641" data-name="Group 641" transform="translate(90.209 36.918)">
        <path id="Path_4605" data-name="Path 4605" d="M2814.58,2793.282c.925,1.387,1,3.711-.676,4.579a3.238,3.238,0,0,1-1.838.307.883.883,0,1,1,.345-1.732,1.145,1.145,0,0,0,1.454-.517,2.784,2.784,0,0,0-.067-2.236.441.441,0,0,1,.782-.4Z" transform="translate(-2811.355 -2793.076)" fill="#000072"/>
      </g>
    </g>
    <g id="Group_696" data-name="Group 696" transform="translate(922.423 726.361)">
      <g id="Group_645" data-name="Group 645" transform="translate(0.847 0.442)">
        <g id="Group_644" data-name="Group 644">
          <g id="Group_643" data-name="Group 643">
            <path id="Path_4606" data-name="Path 4606" d="M1525,2306.522c-.631,3.824-9.594,3.834-16.173,2.718a4.713,4.713,0,0,1-3.773-3.438,50.55,50.55,0,0,1-1.184-11.473,24.514,24.514,0,0,1-3.5.217c-.115,0-.229,0-.339,0h-.052a23.633,23.633,0,0,1-3.108-.214,50.536,50.536,0,0,1-1.184,11.473,4.713,4.713,0,0,1-3.772,3.438l-.24.04c-6.556,1.076-15.309,1.02-15.933-2.758a4.14,4.14,0,0,1,.014-1.54,3.083,3.083,0,0,1,.184-.584,4.5,4.5,0,0,1,3.057-2.343,54.7,54.7,0,0,1-.332-17.859c.094-.528.16-.8.16-.8-2.447-16.964,3.431-25.482,4.517-26.885.106-.141.167-.21.167-.21a13.568,13.568,0,0,1,4.477-1.973,52.7,52.7,0,0,1,24.773,0,13.568,13.568,0,0,1,4.477,1.973s.059.066.16.2c1.067,1.375,6.975,9.888,4.524,26.895,0,0,.066.273.16.8a54.705,54.705,0,0,1-.332,17.859S1525.6,2302.829,1525,2306.522Z" transform="translate(-1475.672 -2252.85)" fill="#ffa522"/>
          </g>
        </g>
      </g>
      <g id="Group_648" data-name="Group 648" transform="translate(0.847 49.639)">
        <g id="Group_647" data-name="Group 647">
          <g id="Group_646" data-name="Group 646">
            <path id="Path_4607" data-name="Path 4607" d="M1491.669,3304.672c-6.556,1.076-15.309,1.02-15.933-2.758a4.14,4.14,0,0,1,.014-1.54,3.083,3.083,0,0,1,.184-.584,4.494,4.494,0,0,1,3.057-2.343A14.8,14.8,0,0,1,1491.669,3304.672Z" transform="translate(-1475.672 -3297.439)" fill="#fff"/>
          </g>
        </g>
      </g>
      <g id="Group_651" data-name="Group 651" transform="translate(34.237 49.639)">
        <g id="Group_650" data-name="Group 650">
          <g id="Group_649" data-name="Group 649">
            <path id="Path_4608" data-name="Path 4608" d="M2184.649,3304.672c6.556,1.076,15.309,1.02,15.933-2.758a4.138,4.138,0,0,0-.014-1.54,3.083,3.083,0,0,0-.184-.584,4.494,4.494,0,0,0-3.056-2.343A14.8,14.8,0,0,0,2184.649,3304.672Z" transform="translate(-2184.649 -3297.439)" fill="#fff"/>
          </g>
        </g>
      </g>
      <g id="Group_654" data-name="Group 654" transform="translate(8.669 2.469)">
        <g id="Group_653" data-name="Group 653">
          <g id="Group_652" data-name="Group 652">
            <path id="Path_4609" data-name="Path 4609" d="M1675.342,2311.335c-1.007-7.834-5.26-15.444-5.26-15.444h-22.945s-4.253,7.61-5.26,15.444,4.591,16.283,16.732,16.283S1676.349,2319.169,1675.342,2311.335Z" transform="translate(-1641.761 -2295.891)" fill="#fff"/>
          </g>
        </g>
      </g>
      <g id="Group_657" data-name="Group 657" transform="translate(3.564 3.891)" opacity="0.25">
        <g id="Group_656" data-name="Group 656">
          <g id="Group_655" data-name="Group 655">
            <path id="Path_4610" data-name="Path 4610" d="M1572.238,2326.076s10.6,31.472-16.873,31.472-16.874-31.472-16.874-31.472a33.29,33.29,0,0,0-4.295,25.067c6.379,13.12,21.168,12.965,21.168,12.965s14.789.155,21.168-12.965A33.289,33.289,0,0,0,1572.238,2326.076Z" transform="translate(-1533.377 -2326.076)" fill="#000072"/>
          </g>
        </g>
      </g>
      <g id="Group_660" data-name="Group 660" transform="translate(0.846 40.502)" opacity="0.25">
        <g id="Group_659" data-name="Group 659">
          <g id="Group_658" data-name="Group 658">
            <path id="Path_4611" data-name="Path 4611" d="M1496.863,3104.854a50.516,50.516,0,0,1-1.186,11.472,4.714,4.714,0,0,1-3.771,3.438c-6.581,1.115-15.543,1.108-16.174-2.717a4.107,4.107,0,0,1,.015-1.541,3.026,3.026,0,0,1,.182-.584c2.357,3.238,13.476,3.917,14.4.441,1.042-3.935.923-11.927.923-11.927C1492.636,3104.236,1496.863,3104.854,1496.863,3104.854Z" transform="translate(-1475.667 -3103.435)" fill="#000072"/>
          </g>
        </g>
      </g>
      <g id="Group_663" data-name="Group 663" transform="translate(29.04 40.502)" opacity="0.25">
        <g id="Group_662" data-name="Group 662">
          <g id="Group_661" data-name="Group 661">
            <path id="Path_4612" data-name="Path 4612" d="M2074.285,3104.854a50.513,50.513,0,0,0,1.186,11.472,4.714,4.714,0,0,0,3.771,3.438c6.581,1.115,15.543,1.108,16.174-2.717a4.112,4.112,0,0,0-.014-1.541,3.026,3.026,0,0,0-.183-.584c-2.357,3.238-13.476,3.917-14.4.441-1.042-3.935-.923-11.927-.923-11.927C2078.511,3104.236,2074.285,3104.854,2074.285,3104.854Z" transform="translate(-2074.285 -3103.435)" fill="#000072"/>
          </g>
        </g>
      </g>
      <g id="Group_666" data-name="Group 666" transform="translate(4.759 0)" opacity="0.25">
        <g id="Group_665" data-name="Group 665">
          <g id="Group_664" data-name="Group 664">
            <path id="Path_4613" data-name="Path 4613" d="M1600.279,2245.5a13.752,13.752,0,0,1-3.742,3.24,20.151,20.151,0,0,1-3.557,1.69,46.208,46.208,0,0,1-26.935.01,20.217,20.217,0,0,1-3.562-1.69,13.806,13.806,0,0,1-3.752-3.238c1.13-.833,2.169-1.5,3.063-2.035,1.488.292,3.355.589,5.648.835h0l.241.258-.56,2a52.651,52.651,0,0,1,24.775,0l-.56-2,.246-.26c2.291-.246,4.156-.543,5.641-.837C1598.119,2244,1599.152,2244.669,1600.279,2245.5Z" transform="translate(-1558.731 -2243.469)" fill="#000072"/>
          </g>
        </g>
      </g>
      <g id="Group_692" data-name="Group 692" transform="translate(3.298 38.538)">
        <g id="Group_669" data-name="Group 669" transform="translate(0 10.124)">
          <g id="Group_668" data-name="Group 668">
            <g id="Group_667" data-name="Group 667">
              <path id="Path_4614" data-name="Path 4614" d="M1528.33,3276.872c.065-.019.1-.027.147-.038s.085-.019.126-.027c.082-.018.164-.031.244-.041.161-.025.319-.036.477-.051a6.757,6.757,0,0,1,.941.005,7.065,7.065,0,0,1,1.812.374,6.87,6.87,0,0,1,1.624.807,5.614,5.614,0,0,1,.7.56,6.021,6.021,0,0,1,.586.664.1.1,0,0,1-.114.162l-.012,0c-.278-.095-.529-.217-.788-.314s-.508-.2-.769-.274a7.973,7.973,0,0,0-1.528-.372l-.383-.048-.383-.021a7.286,7.286,0,0,0-.76.011c-.251.013-.5.048-.743.081-.12.024-.242.042-.357.072l-.17.042c-.028.007-.056.014-.079.021l-.056.017-.025.008a.852.852,0,0,1-.494-1.631Z" transform="translate(-1527.717 -3276.701)" fill="#000072"/>
            </g>
          </g>
        </g>
        <g id="Group_672" data-name="Group 672" transform="translate(37.198 10.124)">
          <g id="Group_671" data-name="Group 671">
            <g id="Group_670" data-name="Group 670">
              <path id="Path_4615" data-name="Path 4615" d="M2323.691,3278.5l-.056-.017c-.023-.007-.051-.014-.079-.021l-.17-.042c-.115-.03-.237-.048-.357-.072-.244-.033-.492-.069-.743-.081a7.286,7.286,0,0,0-.76-.011l-.384.021-.383.048a7.975,7.975,0,0,0-1.528.372c-.261.072-.505.185-.769.274s-.51.219-.788.314l-.011,0a.1.1,0,0,1-.131-.064.105.105,0,0,1,.017-.1,6.021,6.021,0,0,1,.586-.664,5.616,5.616,0,0,1,.7-.56,6.864,6.864,0,0,1,1.624-.807,7.065,7.065,0,0,1,1.812-.374,6.754,6.754,0,0,1,.941-.005c.159.015.316.026.478.051.08.01.161.023.244.041.041.008.081.016.126.027s.082.019.147.038a.852.852,0,0,1-.48,1.635l-.007,0Z" transform="translate(-2317.527 -3276.701)" fill="#000072"/>
            </g>
          </g>
        </g>
        <g id="Group_675" data-name="Group 675" transform="translate(24.882)">
          <g id="Group_674" data-name="Group 674">
            <g id="Group_673" data-name="Group 673">
              <path id="Path_4616" data-name="Path 4616" d="M2056.827,3064.271c.333-.035.722-.073,1.085-.13s.74-.112,1.109-.181q1.109-.2,2.2-.5l.543-.156.534-.182c.182-.054.356-.125.532-.191s.36-.124.53-.2c.709-.277,1.384-.621,2.1-.976l0,0a.1.1,0,0,1,.121.15,8.332,8.332,0,0,1-1.777,1.641,12.492,12.492,0,0,1-2.132,1.171,17.236,17.236,0,0,1-2.293.809c-.393.1-.786.2-1.187.274a11.792,11.792,0,0,1-1.234.179.852.852,0,0,1-.161-1.7Z" transform="translate(-2056.032 -3061.736)" fill="#000072"/>
            </g>
          </g>
        </g>
        <g id="Group_678" data-name="Group 678" transform="translate(10.036 0)">
          <g id="Group_677" data-name="Group 677">
            <g id="Group_676" data-name="Group 676">
              <path id="Path_4617" data-name="Path 4617" d="M1749.452,3065.971a11.785,11.785,0,0,1-1.234-.179c-.4-.071-.795-.172-1.187-.274a17.249,17.249,0,0,1-2.293-.809,12.5,12.5,0,0,1-2.132-1.171,8.332,8.332,0,0,1-1.777-1.641.1.1,0,0,1,.121-.15l0,0c.711.354,1.386.7,2.1.976.171.079.357.131.53.2s.35.137.532.191l.534.182.543.156q1.088.3,2.2.5c.369.069.74.125,1.109.181s.752.095,1.085.13l.033,0a.852.852,0,0,1-.16,1.7Z" transform="translate(-1740.806 -3061.738)" fill="#000072"/>
            </g>
          </g>
        </g>
        <g id="Group_691" data-name="Group 691" transform="translate(0.037 14.228)">
          <g id="Group_681" data-name="Group 681">
            <g id="Group_680" data-name="Group 680">
              <g id="Group_679" data-name="Group 679">
                <path id="Path_4618" data-name="Path 4618" d="M1528.729,3368.214a3.135,3.135,0,0,1-.16-.574,4.918,4.918,0,0,1-.068-.558,5.2,5.2,0,0,1,.061-1.12,5.019,5.019,0,0,1,.286-1.085,3.865,3.865,0,0,1,.537-.978.176.176,0,0,1,.316.086V3364c.039.356.057.682.11,1.007.009.08.021.16.037.24l.037.237c.034.157.056.312.091.466.069.307.133.609.206.906l.1.444c.028.141.067.306.076.414l.01.121a.85.85,0,0,1-1.639.38Z" transform="translate(-1528.493 -3363.829)" fill="#000072"/>
              </g>
            </g>
          </g>
          <g id="Group_684" data-name="Group 684" transform="translate(4.484 0.405)">
            <g id="Group_683" data-name="Group 683">
              <g id="Group_682" data-name="Group 682">
                <path id="Path_4619" data-name="Path 4619" d="M1623.929,3376.813a3.14,3.14,0,0,1-.16-.574,4.918,4.918,0,0,1-.068-.558,5.206,5.206,0,0,1,.061-1.12,5.026,5.026,0,0,1,.286-1.085,3.861,3.861,0,0,1,.537-.978.176.176,0,0,1,.316.086v.012c.039.356.057.683.109,1.007.008.08.022.16.037.24l.037.236c.034.158.056.312.091.466.069.307.133.609.206.906l.1.444c.028.141.067.306.076.414l.01.121a.85.85,0,0,1-1.639.38Z" transform="translate(-1623.694 -3372.429)" fill="#000072"/>
              </g>
            </g>
          </g>
          <g id="Group_687" data-name="Group 687" transform="translate(42.535 0)">
            <g id="Group_686" data-name="Group 686">
              <g id="Group_685" data-name="Group 685">
                <path id="Path_4620" data-name="Path 4620" d="M2431.647,3367.713c.009-.108.048-.273.076-.414l.1-.444c.073-.3.137-.6.206-.906.035-.154.058-.308.092-.466l.037-.237c.016-.08.029-.16.037-.24.052-.325.071-.651.11-1.007v-.012a.177.177,0,0,1,.316-.087,3.871,3.871,0,0,1,.537.978,5.012,5.012,0,0,1,.286,1.085,5.214,5.214,0,0,1,.061,1.12,4.975,4.975,0,0,1-.068.558,3.126,3.126,0,0,1-.16.574.85.85,0,0,1-1.639-.379Z" transform="translate(-2431.634 -3363.83)" fill="#000072"/>
              </g>
            </g>
          </g>
          <g id="Group_690" data-name="Group 690" transform="translate(38.052 0.405)">
            <g id="Group_689" data-name="Group 689">
              <g id="Group_688" data-name="Group 688">
                <path id="Path_4621" data-name="Path 4621" d="M2336.447,3376.31c.009-.108.048-.273.076-.414l.1-.444c.073-.3.137-.6.206-.906.035-.154.058-.308.092-.466l.037-.236c.016-.08.029-.16.037-.24.052-.324.071-.651.11-1.007v-.012a.176.176,0,0,1,.316-.087,3.861,3.861,0,0,1,.537.978,5,5,0,0,1,.286,1.085,5.2,5.2,0,0,1,.062,1.12,4.975,4.975,0,0,1-.068.558,3.131,3.131,0,0,1-.16.574.85.85,0,0,1-1.639-.379Z" transform="translate(-2336.433 -3372.427)" fill="#000072"/>
              </g>
            </g>
          </g>
        </g>
      </g>
      <g id="Group_695" data-name="Group 695" transform="translate(0 3.648)">
        <g id="Group_694" data-name="Group 694">
          <g id="Group_693" data-name="Group 693">
            <path id="Path_4622" data-name="Path 4622" d="M1500.286,2321.006a12.616,12.616,0,0,1,2.211,2.873,20.71,20.71,0,0,1,1.546,3.261,35.422,35.422,0,0,1,1.773,6.97l.238,1.783c.065.6.087,1.194.132,1.791.112,1.195.074,2.39.084,3.586v.448c0,.149-.015.3-.022.447l-.053.894-.119,1.786c-.133,1.184-.287,2.365-.449,3.544l-.016-.323v0c.1.433.164.813.231,1.216s.123.794.168,1.191c.1.793.171,1.587.226,2.381.108,1.587.133,3.175.107,4.76-.027.792-.042,1.585-.1,2.375-.026.4-.042.791-.077,1.185l-.106,1.183c-.031.395-.075.788-.125,1.18l-.141,1.178c-.1.784-.231,1.564-.346,2.347l-.673-.974c.162.035.264.066.388.1s.233.077.349.118.227.089.339.138l.332.157a5.686,5.686,0,0,1,1.233.858,4.5,4.5,0,0,1,.938,1.261,3.818,3.818,0,0,1,.151.37,2.388,2.388,0,0,1,.124.378l.08.387c.012.065.028.129.035.194l.011.192a4.079,4.079,0,0,1,0,.761l-.036.372a1.862,1.862,0,0,1-.024.189l-.048.208a3.432,3.432,0,0,1-.783,1.474,4.775,4.775,0,0,1-1.21.947,7.619,7.619,0,0,1-1.3.578,18.572,18.572,0,0,1-5.248.812,40.491,40.491,0,0,1-5.177-.189q-1.286-.125-2.563-.317l-.638-.1-.16-.026-.18-.036c-.122-.026-.245-.048-.364-.085a5.54,5.54,0,0,1-3.433-2.707,5.172,5.172,0,0,1-.312-.68,3.358,3.358,0,0,1-.121-.354l-.054-.179-.042-.163c-.112-.428-.2-.856-.29-1.285a45.3,45.3,0,0,1-.655-5.13c-.131-1.708-.2-3.414-.234-5.117l.987.825c-.333.05-.62.079-.927.109s-.6.05-.9.068q-.9.051-1.8.051t-1.8-.051c-.3-.018-.6-.04-.9-.068s-.594-.059-.927-.109l.987-.825c-.035,1.7-.1,3.409-.234,5.117a45.325,45.325,0,0,1-.655,5.13c-.087.428-.178.856-.29,1.285l-.042.163-.054.179a3.386,3.386,0,0,1-.121.354,5.157,5.157,0,0,1-.313.68,5.54,5.54,0,0,1-3.433,2.707c-.119.037-.242.059-.364.085l-.18.036-.159.026-.638.1q-1.277.193-2.563.317a40.489,40.489,0,0,1-5.177.189,18.572,18.572,0,0,1-5.248-.812,7.617,7.617,0,0,1-1.3-.578,4.775,4.775,0,0,1-1.21-.947,3.433,3.433,0,0,1-.783-1.474l-.048-.208a1.9,1.9,0,0,1-.024-.189l-.036-.372a4.069,4.069,0,0,1,0-.761l.011-.192c.007-.064.023-.129.035-.194l.08-.387a2.376,2.376,0,0,1,.124-.378,3.849,3.849,0,0,1,.15-.37,4.5,4.5,0,0,1,.938-1.261,5.688,5.688,0,0,1,1.233-.858l.332-.157c.112-.049.226-.092.339-.138s.23-.082.349-.118.226-.068.388-.1l-.673.974c-.115-.782-.241-1.563-.345-2.347l-.141-1.178c-.049-.393-.094-.785-.125-1.18l-.106-1.182c-.035-.394-.051-.79-.077-1.185-.057-.79-.072-1.582-.1-2.374-.026-1.585,0-3.172.107-4.76.055-.794.124-1.587.226-2.38.045-.4.107-.793.168-1.191s.132-.783.23-1.216v-.006l-.016.323c-.154-1.18-.305-2.362-.433-3.546l-.112-1.786-.051-.894c-.007-.149-.019-.3-.021-.447v-.448c.013-1.2-.024-2.39.091-3.583.046-.6.071-1.194.135-1.789l.239-1.781a35.524,35.524,0,0,1,1.772-6.962,21.249,21.249,0,0,1,1.527-3.265,12.861,12.861,0,0,1,2.185-2.888.26.26,0,0,1,.4.319l-.013.022a27.767,27.767,0,0,0-1.528,3.078c-.106.267-.235.522-.336.791s-.2.539-.307.8l-.159.4-.137.408q-.135.408-.279.813a36.757,36.757,0,0,0-1.476,6.715l-.186,1.714c-.052.572-.067,1.149-.1,1.723s-.072,1.148-.054,1.726l0,1.729v.432c0,.144.016.288.023.432l.05.864.09,1.729.362,3.45,0,.029a.9.9,0,0,1-.018.295v0c-.075.329-.144.719-.2,1.087s-.116.75-.159,1.129c-.1.756-.163,1.52-.217,2.285-.1,1.531-.129,3.07-.1,4.609.027.77.041,1.54.1,2.308.026.385.041.77.075,1.153l.1,1.152c.03.384.073.768.122,1.15l.137,1.149c.1.765.226,1.527.337,2.29a.873.873,0,0,1-.673.975c-.045.01-.146.037-.225.062s-.168.056-.252.085c-.168.063-.33.138-.49.215a4,4,0,0,0-.844.584,2.8,2.8,0,0,0-.57.761,2.12,2.12,0,0,0-.085.218,1.08,1.08,0,0,0-.075.223l-.047.234c-.008.039-.02.077-.024.118l0,.124a2.46,2.46,0,0,0,0,.5l.025.259a1.05,1.05,0,0,0,.014.125l.026.1a1.717,1.717,0,0,0,.4.74,4.37,4.37,0,0,0,1.8,1.051,16.994,16.994,0,0,0,4.748.719,38.879,38.879,0,0,0,4.957-.182q1.24-.12,2.472-.306l.615-.1.154-.025.131-.027a2.417,2.417,0,0,0,.253-.059,3.838,3.838,0,0,0,2.381-1.877,3.471,3.471,0,0,0,.217-.471,2.009,2.009,0,0,0,.084-.246l.038-.124.037-.144c.1-.39.187-.789.268-1.19a43.683,43.683,0,0,0,.628-4.931c.128-1.665.195-3.341.23-5.019a.854.854,0,0,1,.974-.827l.013,0c.245.037.54.069.815.094s.562.047.845.063q.849.048,1.7.048t1.7-.048c.283-.017.565-.037.845-.063s.57-.058.815-.094h.008a.853.853,0,0,1,.97.718.932.932,0,0,1,.009.108c.035,1.678.1,3.354.23,5.019a43.683,43.683,0,0,0,.628,4.931c.081.4.166.8.268,1.19l.037.144.038.124a2.029,2.029,0,0,0,.084.246,3.486,3.486,0,0,0,.217.471,3.838,3.838,0,0,0,2.381,1.877,2.415,2.415,0,0,0,.253.059l.131.027.154.025.615.1q1.231.186,2.472.306a38.878,38.878,0,0,0,4.957.182,16.994,16.994,0,0,0,4.748-.719,4.372,4.372,0,0,0,1.8-1.051,1.717,1.717,0,0,0,.4-.74l.026-.1a1.026,1.026,0,0,0,.014-.125l.025-.259a2.46,2.46,0,0,0,0-.5l0-.124c0-.041-.017-.078-.024-.118l-.047-.234a1.08,1.08,0,0,0-.074-.223,2.178,2.178,0,0,0-.085-.218,2.8,2.8,0,0,0-.57-.761,4,4,0,0,0-.844-.584c-.16-.077-.322-.152-.49-.215-.084-.029-.169-.06-.252-.085s-.18-.052-.225-.062a.873.873,0,0,1-.673-.975c.112-.764.235-1.526.337-2.291l.137-1.149c.048-.383.091-.766.121-1.15l.1-1.152c.034-.384.05-.769.075-1.154.056-.769.07-1.539.1-2.309.025-1.539,0-3.079-.1-4.61-.053-.765-.119-1.529-.217-2.285-.043-.38-.1-.755-.16-1.13s-.129-.758-.2-1.086h0a.787.787,0,0,1-.021-.26l.006-.064c.1-1.153.237-2.3.346-3.452l.083-1.729.048-.864c.007-.144.02-.288.022-.432v-2.159c.017-.577-.026-1.15-.057-1.724s-.054-1.149-.1-1.721l-.187-1.712a36.887,36.887,0,0,0-1.476-6.707,35.93,35.93,0,0,0-2.7-6.31l-.013-.023a.251.251,0,0,1,.39-.307Z" transform="translate(-1457.694 -2320.928)" fill="#000072"/>
          </g>
        </g>
      </g>
    </g>
    <g id="Group_741" data-name="Group 741" transform="translate(920.511 712.987)">
      <g id="Group_703" data-name="Group 703" transform="translate(0 0)">
        <g id="Group_699" data-name="Group 699" transform="translate(0.318 1.369)">
          <g id="Group_698" data-name="Group 698">
            <g id="Group_697" data-name="Group 697">
              <path id="Path_4623" data-name="Path 4623" d="M1475.449,1988.572c-.005,5.545-12.112,24.916-22.427,27.863a9.228,9.228,0,0,1-2.536.378,12.364,12.364,0,0,1-3.763-.606c-7.1-2.261-13.325-10.42-17.487-17.292l-.007-.009a91.933,91.933,0,0,1-5.4-10.317c5.1,8.986,16.749,15.054,26.612,15.054C1460.522,2003.643,1470.85,1997.081,1475.449,1988.572Z" transform="translate(-1423.83 -1988.572)" fill="#ec1c24"/>
            </g>
          </g>
        </g>
        <g id="Group_702" data-name="Group 702">
          <g id="Group_701" data-name="Group 701">
            <g id="Group_700" data-name="Group 700">
              <path id="Path_4624" data-name="Path 4624" d="M1444.057,1989.466a12.757,12.757,0,0,1-3.868-.622c-7.277-2.318-13.619-10.745-17.662-17.417l-.022-.035a92.509,92.509,0,0,1-5.421-10.36l.618-.307c4.81,8.482,16.121,14.879,26.311,14.879,9.651,0,20.04-6.262,24.7-14.889l.651-1.2v1.369c0,2.883-3.121,9.238-7.414,15.11-5.124,7.009-10.688,11.778-15.264,13.086A9.6,9.6,0,0,1,1444.057,1989.466Zm-20.972-18.449.012.017c3.987,6.583,10.219,14.894,17.3,17.151a12.066,12.066,0,0,0,3.659.589,8.914,8.914,0,0,0,2.441-.365c9.431-2.694,20.025-18.954,21.889-25.779-5.134,8.007-15.087,13.664-24.374,13.664-8.977,0-18.808-4.86-24.507-11.758C1420.4,1966.32,1421.615,1968.589,1423.085,1971.017Z" transform="translate(-1417.083 -1959.51)" fill="#000072"/>
            </g>
          </g>
        </g>
      </g>
      <g id="Group_710" data-name="Group 710" transform="translate(2.133 4.345)">
        <g id="Group_706" data-name="Group 706" transform="translate(35.144 0.374)" opacity="0.6">
          <g id="Group_705" data-name="Group 705">
            <g id="Group_704" data-name="Group 704">
              <path id="Path_4625" data-name="Path 4625" d="M2222.73,2059.715s-2.119,4.91-14.155,14.1C2208.576,2073.82,2221.512,2068.352,2222.73,2059.715Z" transform="translate(-2208.576 -2059.715)" fill="#fff"/>
            </g>
          </g>
        </g>
        <g id="Group_709" data-name="Group 709" opacity="0.6">
          <g id="Group_708" data-name="Group 708">
            <g id="Group_707" data-name="Group 707">
              <path id="Path_4626" data-name="Path 4626" d="M1462.37,2051.769s4.626,12.178,15.211,15.127C1477.581,2066.9,1468.365,2059.5,1462.37,2051.769Z" transform="translate(-1462.37 -2051.769)" fill="#fff"/>
            </g>
          </g>
        </g>
      </g>
      <g id="Group_713" data-name="Group 713" transform="translate(0.268 0.965)" opacity="0.2">
        <g id="Group_712" data-name="Group 712">
          <g id="Group_711" data-name="Group 711">
            <path id="Path_4627" data-name="Path 4627" d="M1474.392,1980a2.866,2.866,0,0,1-.019.354,1.922,1.922,0,0,1-.028.225c-.152.953-.7,1.762-1.614,3.719-16.7,19.184-32.462,13.611-42.261,5.849a46.867,46.867,0,0,1-4.855-4.455c-.057-.06-.113-.119-.168-.179l0,0c-.927-1.758-1.637-3.229-2.093-4.207l-.242-.527a.03.03,0,0,1-.007-.013c-.028-.067-.058-.132-.085-.19-.012-.028-.025-.056-.037-.082s-.021-.05-.032-.073c-.028-.063-.05-.114-.067-.153-.007-.017-.012-.03-.02-.045a.185.185,0,0,0-.011-.026l-.009-.021-.005-.011c-.032-.073-.053-.121-.064-.147,5.1,8.986,16.749,15.054,26.612,15.054C1459.465,1995.071,1469.793,1988.509,1474.392,1980Z" transform="translate(-1422.773 -1980)" fill="#000072"/>
          </g>
        </g>
      </g>
      <g id="Group_716" data-name="Group 716" transform="translate(12.666 21.48)" opacity="0.2">
        <g id="Group_715" data-name="Group 715">
          <g id="Group_714" data-name="Group 714">
            <path id="Path_4628" data-name="Path 4628" d="M1713.4,2416.353c-3.325,3.516-6.966,6.328-10.408,7.311a9.238,9.238,0,0,1-2.536.378,12.361,12.361,0,0,1-3.764-.606c-3.887-1.238-7.515-4.246-10.682-7.844C1692.276,2419.8,1702.072,2423.291,1713.4,2416.353Z" transform="translate(-1686.009 -2415.592)" fill="#000072"/>
          </g>
        </g>
      </g>
      <g id="Group_719" data-name="Group 719" transform="translate(23.861 14.071)" opacity="0.2">
        <g id="Group_718" data-name="Group 718">
          <g id="Group_717" data-name="Group 717">
            <path id="Path_4629" data-name="Path 4629" d="M1945.309,2258.266s-12.284,8.436-21.587,9.32a33.96,33.96,0,0,0,17.858-3.479Z" transform="translate(-1923.722 -2258.266)" fill="#000072"/>
          </g>
        </g>
      </g>
      <g id="Group_722" data-name="Group 722" transform="translate(6.88 13.108)" opacity="0.2">
        <g id="Group_721" data-name="Group 721">
          <g id="Group_720" data-name="Group 720">
            <path id="Path_4630" data-name="Path 4630" d="M1563.165,2237.826s10.567,9.45,22.344,5.592c0,0-14.176,5.454-18.615.249Z" transform="translate(-1563.165 -2237.826)" fill="#000072"/>
          </g>
        </g>
      </g>
      <g id="Group_725" data-name="Group 725" transform="translate(0.124 0.27)">
        <g id="Group_724" data-name="Group 724">
          <g id="Group_723" data-name="Group 723">
            <path id="Path_4631" data-name="Path 4631" d="M1447.086,1981.864a32.749,32.749,0,0,1-15.446-4.246,30.476,30.476,0,0,1-11.785-11.137l-.017-.018-.11-.223v-.127a.74.74,0,0,1,1.323-.524l.156.167v.1c4.794,8.29,15.885,14.523,25.88,14.523,9.568,0,20.24-6.271,24.823-14.586.03-.051.05-.089.07-.126l.027-.049a.741.741,0,1,1,1.3.716l-.024.045c-.026.048-.053.1-.081.145C1468.383,1975.264,1457.153,1981.864,1447.086,1981.864Z" transform="translate(-1419.724 -1965.239)" fill="#000072"/>
          </g>
        </g>
      </g>
      <g id="Group_728" data-name="Group 728" transform="translate(0.158 0.258)">
        <g id="Group_727" data-name="Group 727">
          <g id="Group_726" data-name="Group 726">
            <path id="Path_4632" data-name="Path 4632" d="M1447.816,1994.772c-6.319,0-12.849-4.855-19.406-14.43a93.529,93.529,0,0,1-7.909-14.245.706.706,0,0,1,1.3-.553c.119.278,12.009,27.816,26.016,27.816,4.428,0,10.32-4.25,16.166-11.661,5.325-6.75,8.507-13.433,8.507-15.994a.706.706,0,1,1,1.413,0c0,3.249-3.788,10.5-8.81,16.869C1461.5,1987.129,1454.474,1994.772,1447.816,1994.772Z" transform="translate(-1420.444 -1964.998)" fill="#000072"/>
          </g>
        </g>
      </g>
      <g id="Group_731" data-name="Group 731" transform="translate(23.767 28.719)">
        <g id="Group_730" data-name="Group 730">
          <g id="Group_729" data-name="Group 729">
            <path id="Path_4633" data-name="Path 4633" d="M1921.721,2569.295" transform="translate(-1921.721 -2569.295)" fill="none" stroke="#000072" stroke-linecap="round" stroke-miterlimit="10" stroke-width="31.449"/>
          </g>
        </g>
      </g>
      <g id="Group_734" data-name="Group 734" transform="translate(30.066 28.948)">
        <g id="Group_733" data-name="Group 733">
          <g id="Group_732" data-name="Group 732">
            <path id="Path_4634" data-name="Path 4634" d="M2055.468,2574.164" transform="translate(-2055.468 -2574.164)" fill="none" stroke="#000072" stroke-linecap="round" stroke-miterlimit="10" stroke-width="31.449"/>
          </g>
        </g>
      </g>
      <g id="Group_737" data-name="Group 737" transform="translate(5.683 10.829)">
        <g id="Group_736" data-name="Group 736">
          <g id="Group_735" data-name="Group 735">
            <path id="Path_4635" data-name="Path 4635" d="M1538.85,2189.717a.048.048,0,0,0,0-.029l.076.068.154.139.315.285.641.566,1.29,1.132c.867.748,1.735,1.5,2.627,2.219s1.8,1.42,2.735,2.1,1.893,1.312,2.871,1.937h0a.084.084,0,0,1-.077.149,28.747,28.747,0,0,1-3.17-1.495c-1.023-.568-2.028-1.174-2.993-1.837s-1.917-1.349-2.82-2.1c-.451-.374-.9-.756-1.325-1.157-.217-.2-.427-.4-.635-.613l-.312-.316c-.052-.051-.1-.11-.155-.167l-.077-.085a1.942,1.942,0,0,1-.15-.188.589.589,0,1,1,1.007-.61Z" transform="translate(-1537.758 -2189.434)" fill="#000072"/>
          </g>
        </g>
      </g>
      <g id="Group_740" data-name="Group 740" transform="translate(37.153 10.456)">
        <g id="Group_739" data-name="Group 739">
          <g id="Group_738" data-name="Group 738">
            <path id="Path_4636" data-name="Path 4636" d="M2217.7,2182.412a1.95,1.95,0,0,1-.15.188l-.077.085c-.051.056-.1.115-.155.167l-.312.316c-.208.209-.418.416-.635.613-.429.4-.874.783-1.326,1.157-.9.748-1.852,1.437-2.82,2.1s-1.971,1.269-2.993,1.837a28.692,28.692,0,0,1-3.17,1.495.084.084,0,0,1-.077-.149h0c.979-.626,1.942-1.257,2.871-1.937s1.847-1.369,2.735-2.1,1.76-1.471,2.627-2.219l1.29-1.132.642-.566.315-.285.154-.139.076-.069a.049.049,0,0,0,0,.029.589.589,0,1,1,1.007.61Z" transform="translate(-2205.941 -2181.518)" fill="#000072"/>
          </g>
        </g>
      </g>
      <path id="Shape_3" data-name="Shape 3" d="M.329,10.1a.328.328,0,1,1,0-.657H7.637a.328.328,0,1,1,0,.657Zm-.2-5.036H7.837a3.857,3.857,0,1,1-7.713,0Zm3.084-.837A2.425,2.425,0,0,1,2.085,1.575,2.144,2.144,0,0,1,4.309.006a1.791,1.791,0,0,1,1.562,2.31,1.464,1.464,0,0,1-1.863.9,1.151,1.151,0,0,1-.562-1.7A.885.885,0,0,1,4.7,1.329a.668.668,0,0,1,.187.763.472.472,0,0,1-.391.294c.318-.223.383-.5.167-.758a.487.487,0,0,0-.559-.151.575.575,0,0,0-.4.5.723.723,0,0,0,.979.722.966.966,0,0,0,.407-1.552A1.294,1.294,0,0,0,3.327.861,1.61,1.61,0,0,0,2.516,2.4a2.278,2.278,0,0,0,1.817,2.09.166.166,0,0,1,.077.036H4.352A2.226,2.226,0,0,1,3.209,4.224Z" transform="translate(23.573 17.304)" fill="#fff"/>
    </g>
    <g id="Group_744" data-name="Group 744" transform="translate(911.928 652.225)">
      <g id="Group_743" data-name="Group 743" transform="translate(0 0)">
        <g id="Group_742" data-name="Group 742">
          <path id="Path_4639" data-name="Path 4639" d="M1283.4,744.381a59.883,59.883,0,0,1-25.039,0c-11.346-2.43-17.459-7.1-20.579-12.226-6.12-10.039-.742-21.808-.742-21.808s-1.26-37.854,5.791-40.624,17.4,11.609,17.4,11.609l.151-.021a73.1,73.1,0,0,1,21,0l.148.021s10.352-14.381,17.4-11.609,5.793,40.624,5.793,40.624S1316.99,737.185,1283.4,744.381Z" transform="translate(-1234.858 -669.368)" fill="#ffa522"/>
        </g>
      </g>
    </g>
    <g id="Group_747" data-name="Group 747" transform="translate(913.075 697.709)">
      <g id="Group_746" data-name="Group 746" transform="translate(0 0)">
        <g id="Group_745" data-name="Group 745">
          <path id="Path_4640" data-name="Path 4640" d="M1326.411,1637.118c-3.368-2.718-7.849-1.152-11.372.973a11.559,11.559,0,0,1-11.751.061c-2.774-1.608-6.123-3.052-9.21-3.052s-6.436,1.444-9.21,3.052a11.559,11.559,0,0,1-11.751-.061c-3.523-2.124-8-3.69-11.372-.973-2.083,1.681-2.664,4.407-2.53,7.26a18.929,18.929,0,0,0,8.443,14.807,39.993,39.993,0,0,0,13.9,5.444,59.894,59.894,0,0,0,25.042,0,39.992,39.992,0,0,0,13.9-5.444,18.929,18.929,0,0,0,8.443-14.807C1329.075,1641.525,1328.494,1638.8,1326.411,1637.118Z" transform="translate(-1259.199 -1635.1)" fill="#fff"/>
        </g>
      </g>
    </g>
    <g id="Group_750" data-name="Group 750" transform="translate(931.558 678.622)">
      <g id="Group_749" data-name="Group 749" transform="translate(0 0)">
        <g id="Group_748" data-name="Group 748">
          <ellipse id="Ellipse_347" data-name="Ellipse 347" cx="2.797" cy="3.967" rx="2.797" ry="3.967" transform="matrix(0.5, -0.866, 0.866, 0.5, 0, 4.845)" fill="#fff"/>
        </g>
      </g>
    </g>
    <g id="Group_753" data-name="Group 753" transform="translate(954.702 678.622)">
      <g id="Group_752" data-name="Group 752" transform="translate(0 0)">
        <g id="Group_751" data-name="Group 751">
          <ellipse id="Ellipse_348" data-name="Ellipse 348" cx="3.967" cy="2.797" rx="3.967" ry="2.797" transform="matrix(0.866, -0.5, 0.5, 0.866, 0, 3.967)" fill="#fff"/>
        </g>
      </g>
    </g>
    <g id="Group_756" data-name="Group 756" transform="translate(911.952 700.275)" opacity="0.25">
      <g id="Group_755" data-name="Group 755" transform="translate(0)">
        <g id="Group_754" data-name="Group 754">
          <path id="Path_4641" data-name="Path 4641" d="M1307.357,1692.334c-.356,8.134-4.9,18.128-23.485,22.11a59.883,59.883,0,0,1-25.039,0c-11.346-2.43-17.459-7.1-20.579-12.226a20.494,20.494,0,0,1-2.9-9.9c.038-.947.127-1.856.247-2.713a19.855,19.855,0,0,0,2.656,7.371c3.12,5.122,9.233,9.8,20.579,12.226a59.877,59.877,0,0,0,25.039,0c16.705-3.579,22.067-12.017,23.238-19.595A27.029,27.029,0,0,1,1307.357,1692.334Z" transform="translate(-1235.35 -1689.6)" fill="#000072"/>
        </g>
      </g>
    </g>
    <g id="Group_759" data-name="Group 759" transform="translate(935.776 704.013)" opacity="0.25">
      <g id="Group_758" data-name="Group 758" transform="translate(0 0)">
        <g id="Group_757" data-name="Group 757">
          <path id="Path_4642" data-name="Path 4642" d="M1765.122,1770.6a.773.773,0,0,0-1.407.271c-.226,1.189-1.027,2.626-3.675,1.99-4.281-1.028-4.029-3.9-4.029-3.9h-5.231s.252,2.875-4.029,3.9c-2.648.636-3.449-.8-3.675-1.99a.773.773,0,0,0-1.407-.271,3.5,3.5,0,0,0-.319,2.744s1.121,2.938,5.339,2.35a8.914,8.914,0,0,1,13.415,0c4.218.588,5.339-2.35,5.339-2.35A3.5,3.5,0,0,0,1765.122,1770.6Z" transform="translate(-1741.22 -1768.96)" fill="#000072"/>
        </g>
      </g>
    </g>
    <g id="Group_762" data-name="Group 762" transform="translate(918.093 652.225)" opacity="0.6">
      <g id="Group_761" data-name="Group 761" transform="translate(0 0)">
        <g id="Group_760" data-name="Group 760">
          <path id="Path_4643" data-name="Path 4643" d="M1423.658,669.723c-7.05-2.772-17.4,11.609-17.4,11.609l-.148-.021a73.1,73.1,0,0,0-21,0l-.151.021s-10.352-14.381-17.4-11.609a4.009,4.009,0,0,0-1.811,1.708c6.478-2.215,15.4,8.582,17.815,11.706a1.81,1.81,0,0,0,1.672.682q.645-.084,1.294-.158a7.083,7.083,0,0,0,4.014.928c2.326,0,4.22-.634,4.339-1.432a80.31,80.31,0,0,1,11.094.662,1.81,1.81,0,0,0,1.673-.682c2.414-3.125,11.344-13.929,17.822-11.7A4.012,4.012,0,0,0,1423.658,669.723Z" transform="translate(-1365.747 -669.368)" fill="#fff"/>
        </g>
      </g>
    </g>
    <g id="Group_772" data-name="Group 772" transform="translate(916.307 658.137)">
      <g id="Group_765" data-name="Group 765" transform="translate(0.852 0.852)">
        <g id="Group_764" data-name="Group 764">
          <g id="Group_763" data-name="Group 763">
            <path id="Path_4644" data-name="Path 4644" d="M1350.59,813.264a25.714,25.714,0,0,1,6.372,7.839,4.868,4.868,0,0,1-.831,5.83,96.4,96.4,0,0,0-7.7,8.5,1.408,1.408,0,0,1-2.517-.9c.122-5.342.611-14.411,2.45-20.562A1.411,1.411,0,0,1,1350.59,813.264Z" transform="translate(-1345.911 -812.959)" fill="#ff6477"/>
          </g>
        </g>
      </g>
      <g id="Group_768" data-name="Group 768" transform="translate(3.442 1.56)" opacity="0.25">
        <g id="Group_767" data-name="Group 767">
          <g id="Group_766" data-name="Group 766">
            <path id="Path_4645" data-name="Path 4645" d="M1408.523,841.265a96.912,96.912,0,0,0-7.5,8.242,1.407,1.407,0,0,1-.132-.641c.122-5.341.612-14.409,2.451-20.563a1.407,1.407,0,0,1,.132-.3,26.509,26.509,0,0,1,5.878,7.434A4.87,4.87,0,0,1,1408.523,841.265Z" transform="translate(-1400.893 -828)" fill="#000072"/>
          </g>
        </g>
      </g>
      <g id="Group_771" data-name="Group 771" transform="translate(0 0)">
        <g id="Group_770" data-name="Group 770">
          <g id="Group_769" data-name="Group 769">
            <path id="Path_4646" data-name="Path 4646" d="M1330.094,819.6a2.309,2.309,0,0,1-.784-.139,2.226,2.226,0,0,1-1.49-2.175c.115-5.043.591-14.45,2.486-20.787a2.264,2.264,0,0,1,3.572-1.133h0a26.515,26.515,0,0,1,6.59,8.1,5.74,5.74,0,0,1-.978,6.85,95.589,95.589,0,0,0-7.632,8.421A2.238,2.238,0,0,1,1330.094,819.6Zm2.385-23.016a.578.578,0,0,0-.172.026.558.558,0,0,0-.369.377c-1.837,6.146-2.3,15.38-2.415,20.338a.528.528,0,0,0,.364.532.547.547,0,0,0,.633-.182,97.277,97.277,0,0,1,7.772-8.578,4.031,4.031,0,0,0,.684-4.81,24.814,24.814,0,0,0-6.153-7.583h0A.547.547,0,0,0,1332.479,796.582Z" transform="translate(-1327.82 -794.878)" fill="#000072"/>
          </g>
        </g>
      </g>
    </g>
    <g id="Group_782" data-name="Group 782" transform="translate(966.238 658.137)">
      <g id="Group_775" data-name="Group 775" transform="translate(0.848 0.851)">
        <g id="Group_774" data-name="Group 774">
          <g id="Group_773" data-name="Group 773">
            <path id="Path_4647" data-name="Path 4647" d="M2412.991,813.264a25.71,25.71,0,0,0-6.372,7.839,4.868,4.868,0,0,0,.831,5.83,96.366,96.366,0,0,1,7.7,8.5,1.409,1.409,0,0,0,2.517-.9c-.122-5.342-.611-14.411-2.45-20.562A1.411,1.411,0,0,0,2412.991,813.264Z" transform="translate(-2406.005 -812.959)" fill="#ff6477"/>
          </g>
        </g>
      </g>
      <g id="Group_778" data-name="Group 778" transform="translate(0.848 1.56)" opacity="0.25">
        <g id="Group_777" data-name="Group 777">
          <g id="Group_776" data-name="Group 776">
            <path id="Path_4648" data-name="Path 4648" d="M2407.461,841.265a96.892,96.892,0,0,1,7.5,8.242,1.4,1.4,0,0,0,.132-.641c-.122-5.341-.612-14.409-2.451-20.563a1.407,1.407,0,0,0-.132-.3,26.511,26.511,0,0,0-5.878,7.434A4.87,4.87,0,0,0,2407.461,841.265Z" transform="translate(-2406.016 -828)" fill="#000072"/>
          </g>
        </g>
      </g>
      <g id="Group_781" data-name="Group 781" transform="translate(0 0)">
        <g id="Group_780" data-name="Group 780">
          <g id="Group_779" data-name="Group 779">
            <path id="Path_4649" data-name="Path 4649" d="M2399.1,819.6a2.237,2.237,0,0,1-1.764-.868,95.589,95.589,0,0,0-7.632-8.421,5.74,5.74,0,0,1-.978-6.85,26.519,26.519,0,0,1,6.59-8.1h0a2.264,2.264,0,0,1,3.572,1.133c1.895,6.337,2.371,15.744,2.486,20.787a2.226,2.226,0,0,1-1.49,2.175A2.309,2.309,0,0,1,2399.1,819.6Zm-2.73-22.895a24.813,24.813,0,0,0-6.153,7.583,4.03,4.03,0,0,0,.684,4.81,97.248,97.248,0,0,1,7.772,8.578.547.547,0,0,0,.633.182.528.528,0,0,0,.364-.532c-.113-4.958-.577-14.192-2.415-20.338a.56.56,0,0,0-.885-.282Z" transform="translate(-2388.008 -794.884)" fill="#000072"/>
          </g>
        </g>
      </g>
    </g>
    <g id="Group_785" data-name="Group 785" transform="translate(941.94 699.727)">
      <g id="Group_784" data-name="Group 784" transform="translate(0 0)">
        <g id="Group_783" data-name="Group 783">
          <path id="Path_4650" data-name="Path 4650" d="M1878.117,1677.951a8.829,8.829,0,0,0-5.316,1.349,1.727,1.727,0,0,0-.234,2.582,9.931,9.931,0,0,0,3.743,2.2,5.394,5.394,0,0,0,3.613,0,9.931,9.931,0,0,0,3.744-2.2,1.727,1.727,0,0,0-.234-2.582A8.829,8.829,0,0,0,1878.117,1677.951Z" transform="translate(-1872.093 -1677.951)" fill="#000072"/>
        </g>
      </g>
    </g>
    <g id="Group_788" data-name="Group 788" transform="translate(944.52 700.694)">
      <g id="Group_787" data-name="Group 787" transform="translate(0 0)">
        <g id="Group_786" data-name="Group 786">
          <path id="Path_4651" data-name="Path 4651" d="M1933.75,1699.01c0,.292-1.542.529-3.445.529s-3.445-.237-3.445-.529,1.542-.529,3.445-.529S1933.75,1698.718,1933.75,1699.01Z" transform="translate(-1926.861 -1698.481)" fill="#fff"/>
        </g>
      </g>
    </g>
    <g id="Group_791" data-name="Group 791" transform="translate(947.205 703.454)">
      <g id="Group_790" data-name="Group 790" transform="translate(0)">
        <g id="Group_789" data-name="Group 789">
          <path id="Path_4652" data-name="Path 4652" d="M1985.368,1757.895l0,.095c0,.037,0,.076.005.119.007.082.009.164.023.248.017.167.054.334.085.5s.084.329.133.491c.064.157.111.32.184.472a4.761,4.761,0,0,0,1.167,1.624,8,8,0,0,0,3.81,1.768l.542.117.547.08.543.05.534.016a4.049,4.049,0,0,0,1.913-.4,2.539,2.539,0,0,0,1.12-1.384,8.29,8.29,0,0,0,.426-2.163v-.013a.147.147,0,0,1,.272-.062,3.689,3.689,0,0,1,.454,1.2,3.866,3.866,0,0,1,.04,1.329,3.324,3.324,0,0,1-.493,1.337,3.412,3.412,0,0,1-1.06,1.028,5.524,5.524,0,0,1-2.634.728c-.218.011-.432,0-.649,0l-.637-.04-.627-.073c-.207-.034-.413-.076-.619-.114l-.619-.118a6.207,6.207,0,0,1-.614-.173l-.611-.19c-.2-.074-.4-.169-.6-.253a7.317,7.317,0,0,1-2.209-1.445,6.065,6.065,0,0,1-1.506-2.238c-.09-.208-.142-.429-.212-.643-.053-.219-.1-.439-.138-.661a5.648,5.648,0,0,1-.062-.673c-.008-.112,0-.228,0-.343,0-.056,0-.116.007-.177s.007-.117.017-.2a.734.734,0,0,1,1.463.067Z" transform="translate(-1983.875 -1757.093)" fill="#000072"/>
        </g>
      </g>
    </g>
    <g id="Group_794" data-name="Group 794" transform="translate(935.391 703.454)">
      <g id="Group_793" data-name="Group 793" transform="translate(0 0)">
        <g id="Group_792" data-name="Group 792">
          <path id="Path_4653" data-name="Path 4653" d="M1746.334,1757.742c.01.083.013.141.017.2s.008.121.008.177c0,.115.005.231,0,.343a5.623,5.623,0,0,1-.062.673c-.036.222-.085.442-.138.661-.07.214-.121.436-.212.643a6.064,6.064,0,0,1-1.506,2.238,7.318,7.318,0,0,1-2.209,1.445c-.2.084-.4.179-.6.253l-.611.19a6.2,6.2,0,0,1-.614.173l-.619.118c-.207.038-.412.08-.619.114l-.627.073-.637.04c-.217,0-.431.006-.649,0a5.524,5.524,0,0,1-2.634-.728,3.41,3.41,0,0,1-1.06-1.028,3.323,3.323,0,0,1-.493-1.337,3.863,3.863,0,0,1,.04-1.329,3.687,3.687,0,0,1,.454-1.2.147.147,0,0,1,.272.062v.014a8.285,8.285,0,0,0,.427,2.163,2.539,2.539,0,0,0,1.12,1.384,4.049,4.049,0,0,0,1.913.4l.534-.016.543-.05.547-.08.542-.117a8.005,8.005,0,0,0,3.81-1.768,4.762,4.762,0,0,0,1.167-1.624c.073-.152.12-.315.183-.472.048-.162.1-.326.133-.491s.068-.333.085-.5c.014-.084.016-.166.023-.248,0-.042.005-.081.005-.119l0-.095,0-.086a.734.734,0,0,1,1.463-.068Z" transform="translate(-1733.027 -1757.095)" fill="#000072"/>
        </g>
      </g>
    </g>
    <g id="Group_797" data-name="Group 797" transform="translate(940.965 704.554)">
      <g id="Group_796" data-name="Group 796" transform="translate(0 0)">
        <g id="Group_795" data-name="Group 795">
          <path id="Path_4654" data-name="Path 4654" d="M1858.4,1780.445c-.01,5.252,7.009,6.015,7.009,6.015s-3.215,8.465-7.009,8.465-7.009-8.465-7.009-8.465S1858.41,1785.7,1858.4,1780.445Z" transform="translate(-1851.391 -1780.445)" fill="#000072"/>
        </g>
      </g>
    </g>
    <g id="Group_800" data-name="Group 800" transform="translate(943.719 712.807)">
      <g id="Group_799" data-name="Group 799" transform="translate(0 0)">
        <g id="Group_798" data-name="Group 798">
          <path id="Path_4655" data-name="Path 4655" d="M1914.106,1955.682a4.737,4.737,0,0,0-4.256,3.035c2.042,3.335,4.256,3.193,4.256,3.193s2.214.142,4.256-3.193A4.737,4.737,0,0,0,1914.106,1955.682Z" transform="translate(-1909.85 -1955.682)" fill="#ff6477"/>
        </g>
      </g>
    </g>
    <g id="Group_803" data-name="Group 803" transform="translate(940.228 703.817)">
      <g id="Group_802" data-name="Group 802" transform="translate(0 0)">
        <g id="Group_801" data-name="Group 801">
          <path id="Path_4656" data-name="Path 4656" d="M1843.493,1780.752c-4.181,0-7.35-8.025-7.7-8.94a.737.737,0,0,1,.609-.994c.259-.029,6.343-.757,6.352-5.261v-.023a.737.737,0,0,1,1.473,0v.023c.009,4.5,6.093,5.233,6.353,5.261a.737.737,0,0,1,.608.994C1850.843,1772.727,1847.674,1780.752,1843.493,1780.752Zm-5.977-8.621c1.109,2.571,3.579,7.148,5.977,7.148s4.868-4.577,5.977-7.148c-2.018-.415-4.7-1.534-5.977-3.751C1842.216,1770.6,1839.534,1771.716,1837.516,1772.131Z" transform="translate(-1835.747 -1764.798)" fill="#000072"/>
        </g>
      </g>
    </g>
    <g id="Group_806" data-name="Group 806" transform="translate(911.06 651.378)">
      <g id="Group_805" data-name="Group 805" transform="translate(0 0)">
        <g id="Group_804" data-name="Group 804">
          <path id="Path_4657" data-name="Path 4657" d="M1253.319,729.405a60.725,60.725,0,0,1-12.7-1.335c-11.056-2.368-18.434-7.1-21.929-14.054-4.706-9.367-.733-19.44-.073-20.98-.04-1.408-.259-10.19.259-19.156a91.658,91.658,0,0,1,1.679-13.97c1.046-4.715,2.485-7.372,4.4-8.125,6.95-2.73,16.258,9.041,18.1,11.488a73.923,73.923,0,0,1,20.529,0c1.839-2.447,11.148-14.217,18.1-11.488,1.915.752,3.354,3.41,4.4,8.125a91.642,91.642,0,0,1,1.679,13.97c.518,8.966.3,17.748.259,19.156.661,1.541,4.633,11.614-.073,20.98-3.5,6.957-10.873,11.685-21.929,14.054A60.723,60.723,0,0,1,1253.319,729.405Zm-26.14-76.324a4.336,4.336,0,0,0-1.6.291c-1.172.46-4.005,3.389-5,20.6-.558,9.66-.255,19.112-.251,19.207a.852.852,0,0,1-.077.382c-.047.1-4.671,10.489-.031,19.707,3.255,6.465,10.238,10.886,20.756,13.139a59.358,59.358,0,0,0,24.682,0h0c10.526-2.255,17.511-6.68,20.763-13.152,4.64-9.235.01-19.591-.037-19.694a.854.854,0,0,1-.077-.382c0-.094.307-9.547-.251-19.207-.995-17.208-3.828-20.136-5-20.6-5.274-2.074-13.626,7.466-16.4,11.316a.854.854,0,0,1-.816.345l-.149-.022a72.22,72.22,0,0,0-20.749,0l-.147.022a.855.855,0,0,1-.816-.345C1239.473,661.209,1232.408,653.081,1227.178,653.081Zm38.66,74.156h0Z" transform="translate(-1216.425 -651.378)" fill="#000072"/>
        </g>
      </g>
    </g>
    <g id="Group_826" data-name="Group 826" transform="translate(929.88 687.763)">
      <g id="Group_811" data-name="Group 811" transform="translate(0 0)">
        <g id="Group_810" data-name="Group 810">
          <g id="Group_809" data-name="Group 809">
            <g id="Group_808" data-name="Group 808">
              <g id="Group_807" data-name="Group 807">
                <path id="Path_4658" data-name="Path 4658" d="M1621.967,1424.008c-2.568-.6-5.163,2.16-5.8,6.16s.935,7.726,3.5,8.324,5.163-2.16,5.8-6.16S1624.535,1424.606,1621.967,1424.008Z" transform="translate(-1616.03 -1423.927)" fill="#000072"/>
              </g>
            </g>
          </g>
        </g>
      </g>
      <g id="Group_818" data-name="Group 818" transform="translate(4.421 1.577)">
        <g id="Group_817" data-name="Group 817">
          <g id="Group_816" data-name="Group 816">
            <g id="Group_813" data-name="Group 813" transform="translate(0.127 0.128)">
              <g id="Group_812" data-name="Group 812">
                <path id="Path_4659" data-name="Path 4659" d="M1713.684,1460.171c-.849.27-1.3,1.6-1,2.978s1.226,2.269,2.075,2,1.3-1.6,1-2.978S1714.534,1459.9,1713.684,1460.171Z" transform="translate(-1712.592 -1460.123)" fill="#fff"/>
              </g>
            </g>
            <g id="Group_815" data-name="Group 815">
              <g id="Group_814" data-name="Group 814">
                <path id="Path_4660" data-name="Path 4660" d="M1711.889,1462.741a1.315,1.315,0,0,1-.661-.189,2.962,2.962,0,0,1-1.23-1.959c-.31-1.434.178-2.837,1.087-3.126a1.232,1.232,0,0,1,1.009.135,2.962,2.962,0,0,1,1.23,1.959c.31,1.434-.178,2.837-1.087,3.126A1.147,1.147,0,0,1,1711.889,1462.741Zm-.458-5.072a.881.881,0,0,0-.269.042c-.787.25-1.2,1.519-.915,2.829a2.709,2.709,0,0,0,1.109,1.791.98.98,0,0,0,.8.112c.787-.25,1.2-1.519.915-2.828a2.708,2.708,0,0,0-1.109-1.792A1.065,1.065,0,0,0,1711.431,1457.669Z" transform="translate(-1709.904 -1457.413)" fill="#000072"/>
              </g>
            </g>
          </g>
        </g>
      </g>
      <g id="Group_825" data-name="Group 825" transform="translate(1.761 9.889)">
        <g id="Group_824" data-name="Group 824">
          <g id="Group_823" data-name="Group 823">
            <g id="Group_820" data-name="Group 820" transform="translate(0.13 0.128)">
              <g id="Group_819" data-name="Group 819">
                <path id="Path_4661" data-name="Path 4661" d="M1656.561,1636.708a1.4,1.4,0,0,0-.221,1.682c.289.665.857.991,1.269.728a1.4,1.4,0,0,0,.221-1.682C1657.54,1636.771,1656.972,1636.445,1656.561,1636.708Z" transform="translate(-1656.174 -1636.617)" fill="#b199c5"/>
              </g>
            </g>
            <g id="Group_822" data-name="Group 822">
              <g id="Group_821" data-name="Group 821">
                <path id="Path_4662" data-name="Path 4662" d="M1654.675,1636.747a.793.793,0,0,1-.232-.036,1.48,1.48,0,0,1-.844-.86,1.511,1.511,0,0,1,.269-1.84.715.715,0,0,1,.61-.076,1.481,1.481,0,0,1,.844.86,1.511,1.511,0,0,1-.269,1.84A.7.7,0,0,1,1654.675,1636.747Zm-.428-2.593a.44.44,0,0,0-.241.072h0a1.3,1.3,0,0,0-.172,1.523,1.23,1.23,0,0,0,.684.718.46.46,0,0,0,.4-.047,1.3,1.3,0,0,0,.173-1.523,1.23,1.23,0,0,0-.684-.718A.542.542,0,0,0,1654.248,1634.154Z" transform="translate(-1653.421 -1633.899)" fill="#000072"/>
              </g>
            </g>
          </g>
        </g>
      </g>
    </g>
    <g id="Group_846" data-name="Group 846" transform="translate(956.799 687.763)">
      <g id="Group_831" data-name="Group 831" transform="translate(0 0)">
        <g id="Group_830" data-name="Group 830">
          <g id="Group_829" data-name="Group 829">
            <g id="Group_828" data-name="Group 828">
              <g id="Group_827" data-name="Group 827">
                <path id="Path_4663" data-name="Path 4663" d="M2191.238,1424.008c2.568-.6,5.163,2.16,5.8,6.16s-.935,7.726-3.5,8.324-5.163-2.16-5.8-6.16S2188.669,1424.606,2191.238,1424.008Z" transform="translate(-2187.594 -1423.927)" fill="#000072"/>
              </g>
            </g>
          </g>
        </g>
      </g>
      <g id="Group_838" data-name="Group 838" transform="translate(1.646 1.577)">
        <g id="Group_837" data-name="Group 837">
          <g id="Group_836" data-name="Group 836">
            <g id="Group_833" data-name="Group 833" transform="translate(0.127 0.128)">
              <g id="Group_832" data-name="Group 832">
                <path id="Path_4664" data-name="Path 4664" d="M2227.405,1460.171c.849.27,1.3,1.6,1,2.978s-1.226,2.269-2.075,2-1.3-1.6-1-2.978S2226.556,1459.9,2227.405,1460.171Z" transform="translate(-2225.238 -1460.123)" fill="#fff"/>
              </g>
            </g>
            <g id="Group_835" data-name="Group 835">
              <g id="Group_834" data-name="Group 834">
                <path id="Path_4665" data-name="Path 4665" d="M2224.078,1462.737a1.145,1.145,0,0,1-.348-.054c-.909-.289-1.4-1.692-1.087-3.126a2.962,2.962,0,0,1,1.23-1.959,1.231,1.231,0,0,1,1.009-.135h0c.909.29,1.4,1.692,1.087,3.126a2.961,2.961,0,0,1-1.23,1.959A1.315,1.315,0,0,1,2224.078,1462.737Zm.457-5.072a1.065,1.065,0,0,0-.534.154,2.708,2.708,0,0,0-1.109,1.792c-.283,1.309.127,2.578.915,2.828a.98.98,0,0,0,.8-.112,2.709,2.709,0,0,0,1.109-1.791c.283-1.309-.127-2.578-.915-2.829h0A.88.88,0,0,0,2224.536,1457.665Z" transform="translate(-2222.55 -1457.409)" fill="#000072"/>
              </g>
            </g>
          </g>
        </g>
      </g>
      <g id="Group_845" data-name="Group 845" transform="translate(5.738 9.889)">
        <g id="Group_844" data-name="Group 844">
          <g id="Group_843" data-name="Group 843">
            <g id="Group_840" data-name="Group 840" transform="translate(0.13 0.128)">
              <g id="Group_839" data-name="Group 839">
                <path id="Path_4666" data-name="Path 4666" d="M2313.623,1636.708a1.4,1.4,0,0,1,.221,1.682c-.289.665-.857.991-1.269.728a1.405,1.405,0,0,1-.221-1.682C2312.643,1636.771,2313.211,1636.445,2313.623,1636.708Z" transform="translate(-2312.188 -1636.617)" fill="#b199c5"/>
              </g>
            </g>
            <g id="Group_842" data-name="Group 842">
              <g id="Group_841" data-name="Group 841">
                <path id="Path_4667" data-name="Path 4667" d="M2310.261,1636.747a.7.7,0,0,1-.379-.112,1.511,1.511,0,0,1-.269-1.84,1.482,1.482,0,0,1,.844-.86.715.715,0,0,1,.611.076h0a1.511,1.511,0,0,1,.269,1.84,1.48,1.48,0,0,1-.844.86A.794.794,0,0,1,2310.261,1636.747Zm.428-2.593a.543.543,0,0,0-.157.025,1.229,1.229,0,0,0-.684.718,1.3,1.3,0,0,0,.172,1.523.461.461,0,0,0,.4.047,1.229,1.229,0,0,0,.684-.718,1.3,1.3,0,0,0-.172-1.523h0A.439.439,0,0,0,2310.689,1634.154Z" transform="translate(-2309.435 -1633.899)" fill="#000072"/>
              </g>
            </g>
          </g>
        </g>
      </g>
    </g>
  </g>
</svg>
